<?xml version="1.0" encoding="UTF-8" standalone="no"?>
<svg
   xmlns:dc="http://purl.org/dc/elements/1.1/"
   xmlns:cc="http://creativecommons.org/ns#"
   xmlns:rdf="http://www.w3.org/1999/02/22-rdf-syntax-ns#"
   xmlns:svg="http://www.w3.org/2000/svg"
   xmlns="http://www.w3.org/2000/svg"
   xmlns:sodipodi="http://sodipodi.sourceforge.net/DTD/sodipodi-0.dtd"
   xmlns:inkscape="http://www.inkscape.org/namespaces/inkscape"
   width="36"
   height="36"
   viewBox="0 0 36 36"
   version="1.1"
   id="svg12"
   sodipodi:docname="button-return-current-month.svg"
   inkscape:version="0.92.4 5da689c313, 2019-01-14">
  <metadata
     id="metadata16">
    <rdf:RDF>
      <cc:Work
         rdf:about="">
        <dc:format>image/svg+xml</dc:format>
        <dc:type
           rdf:resource="http://purl.org/dc/dcmitype/StillImage" />
      </cc:Work>
    </rdf:RDF>
  </metadata>
  <sodipodi:namedview
     pagecolor="#ffffff"
     bordercolor="#666666"
     borderopacity="1"
     objecttolerance="10"
     gridtolerance="10"
     guidetolerance="10"
     inkscape:pageopacity="0"
     inkscape:pageshadow="2"
     inkscape:window-width="1920"
     inkscape:window-height="1052"
     id="namedview14"
     showgrid="false"
     inkscape:zoom="13.111111"
     inkscape:cx="14.560291"
     inkscape:cy="18.888471"
     inkscape:window-x="0"
     inkscape:window-y="0"
     inkscape:window-maximized="1"
     inkscape:current-layer="g10" />
  <defs
     id="defs4">
    <style
       id="style2">.a{fill:#e8eaec;}</style>
  </defs>
  <g
     transform="translate(-178 -268)"
     id="g10">
    <path
       d="m 194.75277,275.14189 v -4.52971 a 1.8909436,2.5992969 0 0 0 -1.01015,-2.30296 1.8940232,2.6035303 0 0 0 -1.95407,0.15452 l -12.84856,12.08843 a 1.6938419,2.3283603 0 0 0 -0.7376,1.90502 1.6938419,2.3283603 0 0 0 0.72836,1.92194 l 12.84549,12.24507 a 1.8909436,2.5992969 0 0 0 1.95714,0.16721 1.8940232,2.6035303 0 0 0 1.01631,-2.30718 v -3.81006 a 19.836429,27.267217 0 0 1 16.05147,12.15617 1.6938419,2.3283603 0 0 0 1.86784,0.94405 1.6291679,2.2394594 0 0 0 1.21186,-2.1167 c 0,-0.0889 0,-0.17569 0,-0.26459 a 19.402189,26.670311 0 0 0 -19.12809,-26.25121 z"
       id="path8"
       inkscape:connector-curvature="0"
       style="stroke-width:1.80538094" />
  </g>
</svg>
