<svg xmlns="http://www.w3.org/2000/svg" width="60" height="60" viewBox="0 0 60 60"><defs><style>.a{fill:#fff;stroke:#d6d6d6;}.b{fill:#0d0d0d;}.c{stroke:none;}.d{fill:none;}</style></defs><g transform="translate(-362 -639)"><g class="a" transform="translate(362 639)"><rect class="c" width="60" height="60" rx="5"/><rect class="d" x="0.5" y="0.5" width="59" height="59" rx="4.5"/></g><g transform="translate(373 581.87)"><g transform="translate(0 77.131)"><path class="b" d="M35.687,77.131H1.717A1.717,1.717,0,0,0,0,78.849V95.156a1.717,1.717,0,0,0,1.717,1.717h33.97A1.717,1.717,0,0,0,37.4,95.156V78.849A1.717,1.717,0,0,0,35.687,77.131ZM24.672,81.285a.439.439,0,0,1,.439-.439h2.367a.439.439,0,0,1,.439.439V83.4a.439.439,0,0,1-.439.439H25.111a.439.439,0,0,1-.439-.439Zm0,4.659V88.06a.439.439,0,0,1-.438.439H21.868a.439.439,0,0,1-.439-.439V85.944a.439.439,0,0,1,.439-.439h2.366A.439.439,0,0,1,24.672,85.944Zm-2.247-5.1a.439.439,0,0,1,.439.439V83.4a.439.439,0,0,1-.439.439H20.059a.439.439,0,0,1-.439-.439V81.285a.439.439,0,0,1,.439-.439Zm-2.742,5.1V88.06a.439.439,0,0,1-.439.439H16.879a.439.439,0,0,1-.439-.439V85.944a.439.439,0,0,1,.439-.439h2.366A.439.439,0,0,1,19.683,85.944Zm-5.114-4.658a.439.439,0,0,1,.439-.439h2.366a.439.439,0,0,1,.439.439V83.4a.439.439,0,0,1-.439.439H15.007a.439.439,0,0,1-.439-.439V81.286Zm.124,4.658V88.06a.439.439,0,0,1-.439.439H11.889a.439.439,0,0,1-.439-.439V85.944a.439.439,0,0,1,.439-.439h2.366A.439.439,0,0,1,14.693,85.944ZM4.463,83.4V81.285a.439.439,0,0,1,.439-.439H7.268a.439.439,0,0,1,.439.439V83.4a.439.439,0,0,1-.439.439H4.9A.439.439,0,0,1,4.463,83.4Zm3.6,9.317a.439.439,0,0,1-.439.439H5.261a.439.439,0,0,1-.439-.439V90.6a.439.439,0,0,1,.439-.439H7.627a.439.439,0,0,1,.439.439ZM9.7,88.06a.439.439,0,0,1-.439.439H6.9a.439.439,0,0,1-.439-.439V85.944a.439.439,0,0,1,.439-.439H9.265a.439.439,0,0,1,.439.439ZM9.516,83.4V81.285a.439.439,0,0,1,.439-.439h2.367a.439.439,0,0,1,.439.439V83.4a.439.439,0,0,1-.439.439H9.954A.439.439,0,0,1,9.516,83.4Zm18.276,9.317a.439.439,0,0,1-.438.439H10.58a.439.439,0,0,1-.439-.439V90.6a.439.439,0,0,1,.439-.439H27.353a.439.439,0,0,1,.438.439v2.116Zm1.871-4.659a.439.439,0,0,1-.439.439H26.858a.439.439,0,0,1-.439-.439V85.944a.439.439,0,0,1,.439-.439h2.365a.439.439,0,0,1,.439.439Zm.063-4.658V81.286a.439.439,0,0,1,.439-.439h2.366a.439.439,0,0,1,.439.439V83.4a.439.439,0,0,1-.439.439H30.164A.439.439,0,0,1,29.725,83.4Zm3.383,9.317a.439.439,0,0,1-.439.439H30.3a.439.439,0,0,1-.439-.439V90.6a.439.439,0,0,1,.439-.439H32.67a.439.439,0,0,1,.438.439Z" transform="translate(0 -77.131)"/></g></g></g></svg>