<?xml version="1.0" encoding="utf-8"?>
<!-- Generator: Adobe Illustrator 23.0.1, SVG Export Plug-In . SVG Version: 6.00 Build 0)  -->
<svg version="1.1" id="grafika" xmlns="http://www.w3.org/2000/svg" xmlns:xlink="http://www.w3.org/1999/xlink" x="0px" y="0px"
	 viewBox="0 0 86 81" style="enable-background:new 0 0 86 81;" xml:space="preserve">
<style type="text/css">
	.st0{fill:#FFFFFF;}
</style>
<g>
	<path class="st0" d="M0,3v78h86V3H0z M83,78H3V20h80V78z"/>
	<g>
		<g>
			<rect x="29" y="30" class="st0" width="12" height="10"/>
		</g>
		<g>
			<rect x="45" y="30" class="st0" width="12" height="10"/>
		</g>
		<g>
			<rect x="61" y="30" class="st0" width="12" height="10"/>
		</g>
		<g>
			<rect x="13" y="44" class="st0" width="12" height="10"/>
		</g>
		<g>
			<rect x="29" y="44" class="st0" width="12" height="10"/>
		</g>
		<g>
			<rect x="45" y="44" class="st0" width="12" height="10"/>
		</g>
		<g>
			<rect x="61" y="44" class="st0" width="12" height="10"/>
		</g>
		<g>
			<rect x="13" y="58" class="st0" width="12" height="10"/>
		</g>
		<g>
			<rect x="29" y="58" class="st0" width="12" height="10"/>
		</g>
		<g>
			<rect x="45" y="58" class="st0" width="12" height="10"/>
		</g>
		<g>
			<rect x="61" y="58" class="st0" width="12" height="10"/>
		</g>
	</g>
	<circle class="st0" cx="67" cy="3" r="3"/>
	<circle class="st0" cx="51" cy="3" r="3"/>
	<circle class="st0" cx="35" cy="3" r="3"/>
	<circle class="st0" cx="19" cy="3" r="3"/>
</g>
</svg>
