<svg xmlns="http://www.w3.org/2000/svg" width="32.932" height="32.933" viewBox="0 0 32.932 32.933"><g transform="translate(-87.828 -0.3)"><g transform="translate(87.828 0.3)"><path d="M118.017,3.387h-4.46V1.329a1.029,1.029,0,1,0-2.058,0V3.387h-6.175V1.329a1.029,1.029,0,1,0-2.058,0V3.387H97.09V1.329a1.029,1.029,0,1,0-2.058,0V3.387H90.573a2.744,2.744,0,0,0-2.745,2.744V30.488a2.745,2.745,0,0,0,2.745,2.745h27.444a2.744,2.744,0,0,0,2.744-2.745V6.131A2.743,2.743,0,0,0,118.017,3.387Zm.685,27.1a.687.687,0,0,1-.685.686H90.573a.687.687,0,0,1-.686-.686V6.131a.687.687,0,0,1,.686-.685h4.459V7.5a1.029,1.029,0,1,0,2.058,0V5.446h6.175V7.5a1.029,1.029,0,1,0,2.058,0V5.446H111.5V7.5a1.029,1.029,0,1,0,2.058,0V5.446h4.46a.686.686,0,0,1,.685.685Z" transform="translate(-87.828 -0.3)"/><rect width="5" height="3" transform="translate(7 12.932)"/><rect width="5" height="3" transform="translate(7 17.932)"/><rect width="5" height="3" transform="translate(7 22.932)"/><rect width="5" height="3" transform="translate(14 22.932)"/><rect width="5" height="3" transform="translate(14 17.932)"/><rect width="5" height="3" transform="translate(14 12.932)"/><rect width="5" height="3" transform="translate(21 22.932)"/><rect width="5" height="3" transform="translate(21 17.932)"/><rect width="5" height="3" transform="translate(21 12.932)"/></g></g></svg>