<svg xmlns="http://www.w3.org/2000/svg" width="28.268" height="36" viewBox="0 0 28.268 36">
  <g id="Group_266" data-name="Group 266" transform="translate(-213.881 -225.213)">
    <path id="Path_516" data-name="Path 516" d="M222.557,245.24c0-8.373,2.02-11.384,4.089-13.751.21-.238.382-.442.516-.621a7.922,7.922,0,0,0-2.411,1.374c-1.859,1.18-5.011,1.19-8.83,9.857-3.727,8.46-1.336,12.075-.676,14.041.533,1.589.75,2.749,2,3.3s2.253-.071,3.786-.75a17.131,17.131,0,0,0,4.122-2.035C223.771,254.344,222.557,250.85,222.557,245.24Z" fill="#AA6400"/>
    <path id="Path_517" data-name="Path 517" d="M237.872,232.136c-1.258-1.878-1.236-2.869-4.269-2.869s-3.011.991-4.269,2.869c-1.277,1.906-4.277,3.239-4.277,13.1,0,9.629,3.8,12.071,5.252,13.668,1.176,1.29,1.87,2.305,3.294,2.305s2.118-1.015,3.294-2.305c1.455-1.6,5.252-4.039,5.252-13.668C242.149,235.375,239.149,234.042,237.872,232.136Z" fill="#AA6400"/>
    <path id="Path_518" data-name="Path 518" d="M233.024,229.416c-.1-1.9.384-3.877.758-4.123s1.866.119,1.978.546c.12.459-2.371,1.244-1.309,3.732" fill="#AA6400"/>
  </g>
</svg>
