<?xml version="1.0" encoding="utf-8"?>
<!-- Generator: Adobe Illustrator 23.0.2, SVG Export Plug-In . SVG Version: 6.00 Build 0)  -->
<svg version="1.1" id="grafika" xmlns="http://www.w3.org/2000/svg" xmlns:xlink="http://www.w3.org/1999/xlink" x="0px" y="0px"
	 viewBox="0 0 104 137" style="enable-background:new 0 0 104 137;" xml:space="preserve">
<style type="text/css">
	.st0{fill:#FFFFFF;}
</style>
<g>
	<path class="st0" d="M87.4,26.4c-4.8-7.1-4.7-10.9-16.2-10.9c-11.5,0-11.4,3.8-16.2,10.9c-4.9,7.2-16.2,12.3-16.2,49.8
		c0,36.6,14.4,45.9,19.9,51.9c4.5,4.9,7.1,8.8,12.5,8.8c5.4,0,8-3.9,12.5-8.8c5.5-6.1,19.9-15.3,19.9-51.9
		C103.7,38.7,92.3,33.7,87.4,26.4z M71.2,122c-14.2,0-25.7-14.3-25.7-46c0-32.2,10.3-46,25.7-46c15.4,0,25.7,13.8,25.7,46
		C96.9,107.7,85.4,122,71.2,122z"/>
	<ellipse class="st0" cx="71.2" cy="76.1" rx="9.2" ry="4.1"/>
	<ellipse class="st0" cx="71.2" cy="64.5" rx="8.3" ry="3.7"/>
	<ellipse class="st0" cx="71.2" cy="87.7" rx="8.3" ry="3.7"/>
	<ellipse class="st0" cx="71.2" cy="53.6" rx="7.5" ry="3.3"/>
	<ellipse class="st0" cx="71.2" cy="98.5" rx="7.5" ry="3.3"/>
	<ellipse class="st0" cx="71.2" cy="43.8" rx="6" ry="2.6"/>
	<ellipse class="st0" cx="71.2" cy="108.3" rx="6" ry="2.6"/>
	<ellipse class="st0" cx="71.2" cy="35.5" rx="4.2" ry="1.9"/>
	<ellipse class="st0" cx="71.2" cy="116.6" rx="4.2" ry="1.9"/>
	<ellipse class="st0" cx="88.2" cy="76.1" rx="5" ry="4.1"/>
	<ellipse class="st0" cx="54.2" cy="76.1" rx="5" ry="4.1"/>
	<ellipse class="st0" cx="87" cy="64.5" rx="4.7" ry="3.7"/>
	<ellipse class="st0" cx="87" cy="87.7" rx="4.7" ry="3.7"/>
	<ellipse class="st0" cx="55.4" cy="64.5" rx="4.7" ry="3.7"/>
	<ellipse class="st0" cx="55.4" cy="87.7" rx="4.7" ry="3.7"/>
	<ellipse class="st0" cx="85.5" cy="53.6" rx="4" ry="3.3"/>
	<ellipse class="st0" cx="85.5" cy="98.5" rx="4" ry="3.3"/>
	<ellipse class="st0" cx="57" cy="53.6" rx="4" ry="3.3"/>
	<ellipse class="st0" cx="57" cy="98.5" rx="4" ry="3.3"/>
	<ellipse class="st0" cx="83" cy="43.8" rx="3" ry="2.6"/>
	<ellipse class="st0" cx="83" cy="108.3" rx="3" ry="2.6"/>
	<ellipse class="st0" cx="59.4" cy="43.8" rx="3" ry="2.6"/>
	<ellipse class="st0" cx="59.4" cy="108.3" rx="3" ry="2.6"/>
	<path class="st0" d="M69,16.1c-0.4-7.2,1.5-14.7,2.9-15.7s7.1,0.5,7.5,2.1c0.5,1.7-9,4.7-5,14.2"/>
	<path class="st0" d="M42.1,114c-3.2,2.5-6.7,4.5-10.3,6.3c-4.4,2.2-8.9,4.1-12.6,7.4l-0.1-0.1c0.9-0.8,1.8-1.6,2.8-2.4
		c1-0.7,2-1.4,3.1-2c2.1-1.3,4.3-2.4,6.5-3.5c3.6-1.9,7.1-4,10.2-6.6c-1.9-3.9-3.6-8.6-4.9-14.3l-0.3,0.4c-0.6,1-1.2,2-1.8,2.9
		l-0.9,1.5c-0.3,0.5-0.6,0.9-1,1.4c-2.6,3.8-5.5,7.4-8.7,10.6c-1.6,1.6-3.2,3.3-4.8,4.9c-1.6,1.7-3,3.4-4.4,5.2l-0.2-0.2
		c2.2-4.1,5.5-7.5,8.3-11c1.5-1.7,2.9-3.5,4.2-5.3c0.3-0.5,0.7-0.9,1-1.4l0.9-1.4c0.6-0.9,1.2-1.9,1.8-2.8c1.8-2.9,3.4-5.8,5-8.8
		c-0.9-5.4-1.5-11.6-1.5-18.8c0-23.6,4.5-35.3,9.2-42.3c-0.5,0.5-0.9,0.9-1.4,1.4c-1.7,1.7-3.3,3.2-4.9,5c-1.5,1.7-3,3.5-4.4,5.3
		c-5.4,7.4-9.5,15.7-13.2,24.2C19,71.9,18,74,17.2,76.2c-0.9,2.1-1.6,4.3-2.3,6.5c-0.7,2.2-1.4,4.4-2,6.6c-0.6,2.2-1,4.4-1.4,6.7
		c-0.4,2.2-0.6,4.5-0.7,6.8c-0.1,2.3-0.1,4.6,0.1,6.9c0.1,2.3,0.2,4.7,0.3,7.1c0,1.2,0,2.4-0.1,3.6c-0.1,1.2-0.3,2.4-0.5,3.5l-0.3,0
		c0.5-4.7-0.4-9.3-0.9-14c-0.6-4.7-0.7-9.4-0.1-14.1c0.5-4.7,1.6-9.3,3-13.8c1.4-4.5,3.1-8.9,5-13.2c1.9-4.3,4-8.5,6.3-12.7
		c2.3-4.1,4.9-8.1,7.8-11.8c2.9-3.7,6.4-7,10-10c1.8-1.5,10.2-8.4,11.7-12.7c-4.6-0.5-6.7,2.2-11.7,5.4c-7.1,4.5-19,4.5-33.5,37.4
		c-14.2,32.1-5.1,45.9-2.6,53.3c2,6,2.9,10.4,7.6,12.5c4.8,2.1,8.6-0.3,14.4-2.8c3.8-1.7,10.1-3.2,17.3-8.9
		C43.7,117,42.9,115.6,42.1,114z"/>
</g>
</svg>
