<svg xmlns="http://www.w3.org/2000/svg" width="55" height="72" viewBox="0 0 55 72">
  <g id="cocoa_icon" data-name="cocoa icon" transform="translate(-26.744 -142.27)">
    <g id="Group_87" data-name="Group 87">
      <path id="Path_279" data-name="Path 279" d="M73.117,156.117c-2.537-3.755-2.493-5.738-8.61-5.738s-6.073,1.983-8.61,5.738c-2.575,3.811-8.627,6.478-8.627,26.208,0,19.259,7.659,24.142,10.593,27.335,2.372,2.582,3.772,4.611,6.645,4.611s4.273-2.029,6.645-4.611c2.934-3.193,10.592-8.077,10.592-27.335C81.744,162.595,75.693,159.928,73.117,156.117Zm-8.61,50.347c-7.534,0-13.642-7.536-13.642-24.221,0-16.973,5.452-24.221,13.642-24.221s13.642,7.247,13.642,24.221C78.148,198.927,72.041,206.463,64.507,206.463Z" fill="#aa6400"/>
      <ellipse id="Ellipse_76" data-name="Ellipse 76" cx="4.903" cy="2.148" rx="4.903" ry="2.148" transform="translate(59.604 180.098)" fill="#aa6400"/>
      <ellipse id="Ellipse_77" data-name="Ellipse 77" cx="4.413" cy="1.933" rx="4.413" ry="1.933" transform="translate(60.094 174.205)" fill="#aa6400"/>
      <ellipse id="Ellipse_78" data-name="Ellipse 78" cx="4.413" cy="1.933" rx="4.413" ry="1.933" transform="translate(60.094 186.42)" fill="#aa6400"/>
      <ellipse id="Ellipse_79" data-name="Ellipse 79" cx="3.972" cy="1.74" rx="3.972" ry="1.74" transform="translate(60.535 168.699)" fill="#aa6400"/>
      <ellipse id="Ellipse_80" data-name="Ellipse 80" cx="3.972" cy="1.74" rx="3.972" ry="1.74" transform="translate(60.535 192.313)" fill="#aa6400"/>
      <ellipse id="Ellipse_81" data-name="Ellipse 81" cx="3.177" cy="1.392" rx="3.177" ry="1.392" transform="translate(61.329 163.889)" fill="#aa6400"/>
      <ellipse id="Ellipse_82" data-name="Ellipse 82" cx="3.177" cy="1.392" rx="3.177" ry="1.392" transform="translate(61.329 197.819)" fill="#aa6400"/>
      <ellipse id="Ellipse_83" data-name="Ellipse 83" cx="2.224" cy="0.974" rx="2.224" ry="0.974" transform="translate(62.283 159.914)" fill="#aa6400"/>
      <ellipse id="Ellipse_84" data-name="Ellipse 84" cx="2.224" cy="0.974" rx="2.224" ry="0.974" transform="translate(62.283 202.63)" fill="#aa6400"/>
      <ellipse id="Ellipse_85" data-name="Ellipse 85" cx="2.654" cy="2.148" rx="2.654" ry="2.148" transform="translate(70.875 180.098)" fill="#aa6400"/>
      <ellipse id="Ellipse_86" data-name="Ellipse 86" cx="2.654" cy="2.148" rx="2.654" ry="2.148" transform="translate(52.83 180.098)" fill="#aa6400"/>
      <ellipse id="Ellipse_87" data-name="Ellipse 87" cx="2.504" cy="1.933" rx="2.504" ry="1.933" transform="translate(70.384 174.205)" fill="#aa6400"/>
      <ellipse id="Ellipse_88" data-name="Ellipse 88" cx="2.504" cy="1.933" rx="2.504" ry="1.933" transform="translate(70.384 186.42)" fill="#aa6400"/>
      <ellipse id="Ellipse_89" data-name="Ellipse 89" cx="2.504" cy="1.933" rx="2.504" ry="1.933" transform="translate(53.622 174.205)" fill="#aa6400"/>
      <ellipse id="Ellipse_90" data-name="Ellipse 90" cx="2.504" cy="1.933" rx="2.504" ry="1.933" transform="translate(53.622 186.42)" fill="#aa6400"/>
      <ellipse id="Ellipse_91" data-name="Ellipse 91" cx="2.129" cy="1.74" rx="2.129" ry="1.74" transform="translate(69.943 168.699)" fill="#aa6400"/>
      <ellipse id="Ellipse_92" data-name="Ellipse 92" cx="2.129" cy="1.74" rx="2.129" ry="1.74" transform="translate(69.943 192.313)" fill="#aa6400"/>
      <ellipse id="Ellipse_93" data-name="Ellipse 93" cx="2.129" cy="1.74" rx="2.129" ry="1.74" transform="translate(54.813 168.699)" fill="#aa6400"/>
      <ellipse id="Ellipse_94" data-name="Ellipse 94" cx="2.129" cy="1.74" rx="2.129" ry="1.74" transform="translate(54.813 192.313)" fill="#aa6400"/>
      <ellipse id="Ellipse_95" data-name="Ellipse 95" cx="1.613" cy="1.392" rx="1.613" ry="1.392" transform="translate(69.149 163.889)" fill="#aa6400"/>
      <ellipse id="Ellipse_96" data-name="Ellipse 96" cx="1.613" cy="1.392" rx="1.613" ry="1.392" transform="translate(69.149 197.819)" fill="#aa6400"/>
      <ellipse id="Ellipse_97" data-name="Ellipse 97" cx="1.613" cy="1.392" rx="1.613" ry="1.392" transform="translate(56.639 163.889)" fill="#aa6400"/>
      <ellipse id="Ellipse_98" data-name="Ellipse 98" cx="1.613" cy="1.392" rx="1.613" ry="1.392" transform="translate(56.639 197.819)" fill="#aa6400"/>
      <path id="Path_280" data-name="Path 280" d="M63.34,150.676c-.2-3.793.774-7.753,1.529-8.246s3.764.239,3.989,1.092c.242.919-4.782,2.488-2.64,7.464" fill="#aa6400"/>
      <path id="Path_281" data-name="Path 281" d="M49.027,202.216a31.8,31.8,0,0,1-5.472,3.316,30.8,30.8,0,0,0-6.709,3.884l-.048-.054a15.591,15.591,0,0,1,1.5-1.25q.8-.566,1.651-1.059c1.128-.662,2.29-1.253,3.427-1.868a31.015,31.015,0,0,0,5.4-3.462,33.334,33.334,0,0,1-2.576-7.507l-.134.229c-.3.527-.627,1.034-.952,1.544l-.487.766c-.166.253-.344.5-.515.748a42.093,42.093,0,0,1-4.609,5.6c-.846.866-1.709,1.713-2.548,2.581a29.463,29.463,0,0,0-2.335,2.756l-.117-.083a40.4,40.4,0,0,1,4.431-5.8c.772-.915,1.53-1.828,2.214-2.793.175-.238.358-.469.528-.711l.5-.729c.342-.479.654-.983.967-1.483.935-1.505,1.828-3.039,2.659-4.614a57.61,57.61,0,0,1-.792-9.912c0-12.44,2.405-18.56,4.875-22.286l-.744.733c-.889.869-1.776,1.711-2.587,2.614s-1.592,1.822-2.312,2.792a67.1,67.1,0,0,0-7.021,12.753c-.473,1.126-.963,2.243-1.409,3.375s-.864,2.271-1.244,3.421-.752,2.3-1.04,3.466-.533,2.342-.733,3.522a28.556,28.556,0,0,0-.35,3.575,33.4,33.4,0,0,0,.032,3.635c.047,1.225.13,2.471.151,3.728.014.628,0,1.259-.037,1.886a17.864,17.864,0,0,1-.264,1.865l-.143-.014a34.717,34.717,0,0,0-.487-7.379,30.768,30.768,0,0,1-.058-7.432,39.638,39.638,0,0,1,1.615-7.264,67.16,67.16,0,0,1,2.66-6.955c1.009-2.268,2.106-4.5,3.325-6.666a45.011,45.011,0,0,1,4.14-6.2,37.527,37.527,0,0,1,5.284-5.272c.946-.808,5.4-4.427,6.225-6.711-2.434-.238-3.56,1.143-6.224,2.819-3.751,2.36-10.109,2.38-17.81,19.714-7.519,16.92-2.7,24.15-1.365,28.081,1.076,3.179,1.514,5.5,4.038,6.6s4.546-.142,7.637-1.5c2.016-.886,5.369-1.681,9.19-4.711C49.906,203.817,49.459,203.051,49.027,202.216Z" fill="#aa6400"/>
    </g>
  </g>
</svg>
