<?xml version="1.0" encoding="utf-8"?>
<!-- Generator: Adobe Illustrator 20.1.0, SVG Export Plug-In . SVG Version: 6.00 Build 0)  -->
<svg version="1.1" id="Warstwa_1" xmlns="http://www.w3.org/2000/svg" xmlns:xlink="http://www.w3.org/1999/xlink" x="0px" y="0px"
	 viewBox="0 0 55 55" style="enable-background:new 0 0 55 55;" xml:space="preserve">
<style type="text/css">
	.st0{fill:#F0F0F0;}
	.st1{fill:#0052B4;}
	.st2{fill:#D80027;}
</style>
<g>
	<circle class="st0" cx="27.5" cy="27.5" r="27.5"/>
	<g>
		<path class="st1" d="M5.7,10.8c-2.2,2.8-3.8,6-4.7,9.6h14.3L5.7,10.8z"/>
		<path class="st1" d="M54.1,20.3c-0.9-3.5-2.6-6.8-4.7-9.6l-9.6,9.6H54.1z"/>
		<path class="st1" d="M0.9,34.7c0.9,3.5,2.6,6.8,4.7,9.6l9.6-9.6H0.9L0.9,34.7z"/>
		<path class="st1" d="M44.2,5.7c-2.8-2.2-6-3.8-9.6-4.7v14.3L44.2,5.7z"/>
		<path class="st1" d="M10.8,49.3c2.8,2.2,6,3.8,9.6,4.7V39.7L10.8,49.3z"/>
		<path class="st1" d="M20.3,0.9c-3.5,0.9-6.8,2.6-9.6,4.7l9.6,9.6V0.9z"/>
		<path class="st1" d="M34.7,54.1c3.5-0.9,6.8-2.6,9.6-4.7l-9.6-9.6L34.7,54.1L34.7,54.1z"/>
		<path class="st1" d="M39.7,34.7l9.6,9.6c2.2-2.8,3.8-6,4.7-9.6H39.7z"/>
	</g>
	<g>
		<path class="st2" d="M54.8,23.9H31.1h0V0.2C29.9,0.1,28.7,0,27.5,0c-1.2,0-2.4,0.1-3.6,0.2v23.7v0H0.2C0.1,25.1,0,26.3,0,27.5
			c0,1.2,0.1,2.4,0.2,3.6h23.7h0v23.7c1.2,0.2,2.4,0.2,3.6,0.2c1.2,0,2.4-0.1,3.6-0.2V31.1v0h23.7c0.2-1.2,0.2-2.4,0.2-3.6
			C55,26.3,54.9,25.1,54.8,23.9z"/>
		<path class="st2" d="M34.7,34.7L34.7,34.7l12.3,12.3c0.6-0.6,1.1-1.2,1.6-1.8L38.1,34.7L34.7,34.7L34.7,34.7L34.7,34.7z"/>
		<path class="st2" d="M20.3,34.7L20.3,34.7L8.1,46.9c0.6,0.6,1.2,1.1,1.8,1.6l10.5-10.5L20.3,34.7L20.3,34.7z"/>
		<path class="st2" d="M20.3,20.3L20.3,20.3L8.1,8.1C7.5,8.6,7,9.2,6.4,9.8l10.5,10.5L20.3,20.3L20.3,20.3z"/>
		<path class="st2" d="M34.7,20.3L34.7,20.3L46.9,8.1c-0.6-0.6-1.2-1.1-1.8-1.6L34.7,16.9V20.3z"/>
	</g>
</g>
</svg>
