<svg xmlns="http://www.w3.org/2000/svg" width="54.552" height="61.977" viewBox="0 0 54.552 61.977">
  <g id="Group_268" data-name="Group 268" transform="translate(-65.448 -534.692)">
    <path id="Path_530" data-name="Path 530" d="M293.215,756.969l1.026.256-1.025-.262a21.55,21.55,0,0,1-2.481,5.507,15.809,15.809,0,0,1-3.38,3.875,12.2,12.2,0,0,1-1.045.748c-.953-2.162-2.1-4.505-3.492-7.073a16.534,16.534,0,0,0,4.007-2.391,22.527,22.527,0,0,0,5.874-7.716,24.47,24.47,0,0,0,1.621-4.283l-4.872-1.218,1.026.256-1.025-.262a21.552,21.552,0,0,1-2.481,5.507,15.809,15.809,0,0,1-3.38,3.875,11.355,11.355,0,0,1-3.247,1.827c-3.544-6.064-6.991-11.135-7.979-12.567a7.069,7.069,0,0,0-11.632,0c-4.033,5.846-17.2,25.709-17.2,35.912a22.911,22.911,0,0,0,1.351,7.767l.1.286,2.209,4.391.167.252a23.011,23.011,0,0,0,42.2-12.7,23.361,23.361,0,0,0-1.41-7.156,16.874,16.874,0,0,0,2.436-1.623,22.526,22.526,0,0,0,5.874-7.716,24.472,24.472,0,0,0,1.621-4.283Zm-8.671,22a17.988,17.988,0,0,1-33,9.919l-1.936-3.851a17.9,17.9,0,0,1-1.056-6.068c0-9.178,14.639-30.641,16.307-33.059a2.047,2.047,0,0,1,3.367,0c.716,1.037,3.814,5.573,7.122,11.139a22.615,22.615,0,0,0-4.348,2.2,35.332,35.332,0,0,0-10.237,10.907l3.848,2.181.52.3v0h0a31.442,31.442,0,0,1,4.117-5.371,25.38,25.38,0,0,1,4.577-3.858,16.914,16.914,0,0,1,4.047-1.936l.393.7c1.214,2.231,2.36,4.5,3.339,6.687a21.335,21.335,0,0,0-6.838,2.953,35.331,35.331,0,0,0-10.237,10.907l3.848,2.181.52.3v0h0a31.439,31.439,0,0,1,4.117-5.371,25.38,25.38,0,0,1,4.577-3.858,15.876,15.876,0,0,1,5.692-2.355c.062-.013.117-.034.178-.047A18.15,18.15,0,0,1,284.544,778.964Z" transform="translate(-178.086 -205.308)" fill="#aa6400"/>
  </g>
</svg>
