<?xml version="1.0" encoding="utf-8"?>
<!-- Generator: Adobe Illustrator 23.0.1, SVG Export Plug-In . SVG Version: 6.00 Build 0)  -->
<svg version="1.1" id="teksty" xmlns="http://www.w3.org/2000/svg" xmlns:xlink="http://www.w3.org/1999/xlink" x="0px" y="0px"
	 viewBox="0 0 18 20" style="enable-background:new 0 0 18 20;" xml:space="preserve">
<style type="text/css">
	.st0{fill:#999999;}
</style>
<path class="st0" d="M15,14c0.6-0.3,1.1-0.7,1.5-1.3c0.4-0.5,0.8-1.2,1-1.9c0.2-0.7,0.4-1.5,0.4-2.4c0-0.9-0.1-1.6-0.3-2.4
	c-0.2-0.7-0.5-1.4-0.9-2c-0.4-0.6-0.8-1.1-1.4-1.6c-0.5-0.5-1.1-0.8-1.7-1.2c-0.6-0.3-1.3-0.5-2-0.7c-0.7-0.2-1.4-0.2-2.2-0.2
	c-0.9,0-1.7,0.1-2.5,0.3s-1.5,0.5-2.2,1C4,2.1,3.4,2.6,2.8,3.2c-0.6,0.6-1,1.2-1.4,1.9C1,5.8,0.7,6.6,0.5,7.4C0.2,8.2,0.1,9,0.1,9.9
	c0,1.5,0.2,2.9,0.8,4.1c0.5,1.2,1.2,2.2,2.1,3c0.9,0.8,1.9,1.5,3.1,1.9c1.2,0.4,2.5,0.7,3.9,0.7c1.4,0,2.6-0.2,3.7-0.5
	c1.1-0.3,2.1-0.8,2.9-1.4l-0.3-0.8c-0.1-0.2-0.2-0.3-0.4-0.3c-0.1,0-0.2,0-0.3,0.1c-0.7,0.4-1.5,0.7-2.4,1c-0.9,0.3-2,0.4-3.2,0.4
	c-1.1,0-2.2-0.2-3.2-0.5c-1-0.4-1.9-0.9-2.6-1.6c-0.7-0.7-1.3-1.6-1.8-2.6c-0.4-1-0.6-2.2-0.6-3.6c0-1.2,0.2-2.2,0.6-3.2
	c0.4-1,0.9-1.8,1.6-2.6s1.5-1.3,2.4-1.7s1.9-0.6,3-0.6c1,0,1.9,0.1,2.7,0.4c0.8,0.3,1.6,0.7,2.2,1.2C15,4,15.4,4.7,15.8,5.6
	c0.4,0.8,0.5,1.8,0.5,2.9c0,0.7-0.1,1.3-0.2,1.9c-0.2,0.6-0.4,1.1-0.6,1.5c-0.3,0.4-0.6,0.7-0.9,0.9c-0.4,0.2-0.7,0.3-1.1,0.3
	c-0.2,0-0.4,0-0.5-0.1c-0.2,0-0.3-0.1-0.4-0.2c-0.1-0.1-0.2-0.3-0.3-0.4c-0.1-0.2-0.1-0.4-0.1-0.7c0-0.4,0.1-0.9,0.2-1.5l1.1-4.3
	c-0.4-0.2-0.7-0.3-1.1-0.4c-0.4-0.1-0.9-0.1-1.4-0.1c-1,0-1.9,0.2-2.6,0.5C7.4,6.3,6.8,6.7,6.3,7.3C5.8,7.8,5.4,8.4,5.1,9.1
	c-0.3,0.7-0.4,1.4-0.4,2.1c0,0.5,0.1,0.9,0.2,1.3c0.1,0.4,0.3,0.7,0.5,1c0.2,0.3,0.5,0.5,0.9,0.7c0.4,0.2,0.8,0.2,1.2,0.2
	c0.6,0,1.2-0.1,1.8-0.4c0.5-0.3,1-0.7,1.5-1.4c0.1,0.6,0.4,1.1,0.7,1.4c0.4,0.3,0.9,0.4,1.5,0.4C13.8,14.5,14.4,14.3,15,14z
	 M6.8,12.5c-0.3-0.3-0.4-0.8-0.4-1.4c0-0.6,0.1-1.1,0.3-1.6c0.2-0.5,0.5-1,0.8-1.4s0.8-0.7,1.3-1c0.5-0.3,1.1-0.4,1.6-0.4
	c0.4,0,0.7,0,1,0.1l-0.9,3.5c-0.1,0.5-0.3,1-0.5,1.3c-0.2,0.3-0.4,0.6-0.6,0.8c-0.2,0.2-0.5,0.3-0.7,0.4C8.5,13,8.2,13,8,13
	C7.5,13,7.1,12.9,6.8,12.5z"/>
</svg>
