<svg xmlns="http://www.w3.org/2000/svg" xmlns:xlink="http://www.w3.org/1999/xlink" width="48" height="48" viewBox="0 0 48 48"><defs><style>.a{fill:none;}.b{clip-path:url(#a);}.c{fill:#002173;}.d{clip-path:url(#b);}.e{fill:#fff;}.f{fill:#c61018;}</style><clipPath id="a"><circle class="a" cx="24" cy="24" r="24" transform="translate(0 0)"/></clipPath><clipPath id="b"><rect class="a" width="72" height="48"/></clipPath></defs><g class="b"><g transform="translate(-12 0)"><rect class="c" width="72" height="48"/><g class="d"><g transform="translate(-8.542 -0.686)"><rect class="e" width="96" height="7.2" transform="translate(3.22 0) rotate(26.565)"/><g transform="translate(0.537 3.22)"><rect class="f" width="2.4" height="48" transform="translate(0 2.147) rotate(-63.435)"/><rect class="f" width="2.4" height="48" transform="translate(44.006 21.466) rotate(-63.435)"/></g><rect class="e" width="96" height="7.2" transform="translate(0 42.932) rotate(-26.565)"/><g transform="translate(1.61 1.073)"><rect class="f" width="48" height="2.4" transform="translate(0 45.079) rotate(-26.565)"/><rect class="f" width="48" height="2.4" transform="translate(41.859 21.466) rotate(-26.565)"/></g><g transform="translate(2.543 0.686)"><path class="e" d="M1959,2668h-36v-18h-12v18h-36v12h36v18h12v-18h36Z" transform="translate(-1875 -2650)"/><path class="f" d="M1959,2670.4h-38.4V2650h-7.2v20.4H1875v7.2h38.4V2698h7.2v-20.4H1959Z" transform="translate(-1875 -2650)"/></g></g></g></g></g></svg>