<?xml version="1.0" encoding="utf-8"?>
<!-- Generator: Adobe Illustrator 23.0.6, SVG Export Plug-In . SVG Version: 6.00 Build 0)  -->
<!DOCTYPE svg PUBLIC "-//W3C//DTD SVG 1.1//EN" "http://www.w3.org/Graphics/SVG/1.1/DTD/svg11.dtd" [
	<!ENTITY ns_extend "http://ns.adobe.com/Extensibility/1.0/">
	<!ENTITY ns_ai "http://ns.adobe.com/AdobeIllustrator/10.0/">
	<!ENTITY ns_graphs "http://ns.adobe.com/Graphs/1.0/">
	<!ENTITY ns_vars "http://ns.adobe.com/Variables/1.0/">
	<!ENTITY ns_imrep "http://ns.adobe.com/ImageReplacement/1.0/">
	<!ENTITY ns_sfw "http://ns.adobe.com/SaveForWeb/1.0/">
	<!ENTITY ns_custom "http://ns.adobe.com/GenericCustomNamespace/1.0/">
	<!ENTITY ns_adobe_xpath "http://ns.adobe.com/XPath/1.0/">
]>
<svg version="1.1" id="Layer_1" xmlns:x="&ns_extend;" xmlns:i="&ns_ai;" xmlns:graph="&ns_graphs;"
	 xmlns="http://www.w3.org/2000/svg" xmlns:xlink="http://www.w3.org/1999/xlink" x="0px" y="0px" viewBox="0 0 292.1 106.7"
	 style="enable-background:new 0 0 292.1 106.7;" xml:space="preserve">
<style type="text/css">
	.st0{fill:#96C354;}
	.st1{fill:#C0DA95;}
	.st2{fill:#DFEBCA;}
	.st3{fill:#FFFFFF;}
</style>
<metadata>
	<sfw  xmlns="&ns_sfw;">
		<slices></slices>
		<sliceSourceBounds  bottomLeftOrigin="true" height="99.2" width="282.7" x="258.9" y="-349.5"></sliceSourceBounds>
	</sfw>
</metadata>
<g>
	<polygon class="st0" points="47.9,3.6 4.9,28.3 4.9,78.1 47.9,102.8 90.8,78.1 90.8,28.3 	"/>
	<polygon class="st1" points="4.9,78.1 47.9,53.2 4.9,28.3 	"/>
	<polygon class="st2" points="47.9,3.6 4.9,28.3 47.9,53.2 90.8,78.1 90.8,28.3 	"/>
	<polygon class="st0" points="4.9,78.1 47.9,102.8 90.8,78.1 47.9,53.2 	"/>
	<g>
		<path class="st3" d="M129.9,68.4c-1.8,0.6-3.7,0.8-5.8,0.8c-2.5,0-4.7-0.4-6.7-1.2c-2-0.8-3.7-1.8-5.1-3.2c-1.4-1.4-2.5-3-3.3-5
			c-0.8-1.9-1.1-4.1-1.1-6.4c0-2.4,0.4-4.5,1.1-6.4c0.7-1.9,1.8-3.6,3.2-5c1.4-1.4,3-2.5,5-3.2c2-0.8,4.1-1.1,6.5-1.1
			c1.2,0,2.4,0.1,3.4,0.3c1,0.2,2,0.4,2.9,0.8c0.9,0.3,1.7,0.7,2.5,1.2c0.8,0.5,1.5,1,2.1,1.6l-1.2,1.9c-0.2,0.3-0.4,0.5-0.7,0.5
			c-0.3,0.1-0.6,0-1-0.2c-0.3-0.2-0.7-0.4-1.2-0.7c-0.4-0.3-1-0.6-1.6-0.8c-0.6-0.3-1.4-0.5-2.3-0.7c-0.9-0.2-1.9-0.3-3.1-0.3
			c-1.7,0-3.3,0.3-4.7,0.8c-1.4,0.6-2.6,1.4-3.6,2.4c-1,1.1-1.8,2.3-2.3,3.8c-0.5,1.5-0.8,3.2-0.8,5c0,1.9,0.3,3.7,0.8,5.2
			c0.6,1.5,1.3,2.8,2.4,3.9c1,1.1,2.3,1.9,3.7,2.4c1.5,0.6,3.1,0.8,4.9,0.8c0.7,0,1.4,0,2-0.1c0.6-0.1,1.2-0.2,1.8-0.4
			c0.6-0.2,1.1-0.3,1.7-0.6c0.5-0.2,1.1-0.5,1.6-0.8v-6.8h-4.8c-0.3,0-0.5-0.1-0.7-0.2c-0.2-0.2-0.2-0.4-0.2-0.6v-2.4h9.5v11.8
			C133.3,67,131.6,67.8,129.9,68.4z"/>
		<path class="st3" d="M153.9,68.9c-0.4,0-0.7-0.1-0.9-0.2c-0.2-0.1-0.4-0.4-0.5-0.7l-0.4-2c-0.6,0.5-1.1,1-1.7,1.4
			c-0.6,0.4-1.1,0.8-1.7,1c-0.6,0.3-1.2,0.5-1.9,0.6c-0.7,0.2-1.4,0.2-2.3,0.2c-0.8,0-1.6-0.1-2.4-0.4c-0.7-0.2-1.4-0.6-1.9-1.1
			c-0.6-0.5-1-1.1-1.3-1.8c-0.3-0.7-0.5-1.6-0.5-2.6c0-0.9,0.2-1.7,0.7-2.5c0.5-0.8,1.2-1.5,2.3-2.1c1.1-0.6,2.4-1.1,4.2-1.5
			s3.8-0.6,6.3-0.7v-1.7c0-1.7-0.4-3-1.1-3.8s-1.8-1.3-3.2-1.3c-0.9,0-1.7,0.1-2.4,0.4c-0.6,0.2-1.2,0.5-1.7,0.8
			c-0.5,0.3-0.9,0.6-1.2,0.8c-0.3,0.2-0.7,0.4-1,0.4c-0.3,0-0.5-0.1-0.7-0.2c-0.2-0.1-0.3-0.3-0.5-0.5l-0.7-1.2
			c1.2-1.2,2.5-2,3.9-2.6c1.4-0.6,2.9-0.9,4.6-0.9c1.2,0,2.3,0.2,3.2,0.6c0.9,0.4,1.7,1,2.4,1.7c0.6,0.7,1.1,1.6,1.5,2.6
			c0.3,1,0.5,2.1,0.5,3.4v13.9L153.9,68.9L153.9,68.9z M145.7,66.5c0.7,0,1.3-0.1,1.8-0.2c0.6-0.1,1.1-0.3,1.6-0.6s1-0.6,1.4-0.9
			s0.9-0.8,1.3-1.2v-4.5c-1.8,0.1-3.3,0.2-4.5,0.4c-1.2,0.2-2.3,0.5-3,0.9c-0.8,0.4-1.3,0.8-1.7,1.3c-0.4,0.5-0.5,1-0.5,1.6
			c0,0.6,0.1,1.1,0.3,1.5c0.2,0.4,0.4,0.8,0.8,1c0.3,0.3,0.7,0.5,1.1,0.6C144.7,66.5,145.2,66.5,145.7,66.5z"/>
		<path class="st3" d="M166.3,40.3c0,0.4-0.1,0.7-0.2,1c-0.2,0.3-0.4,0.6-0.6,0.9c-0.3,0.3-0.5,0.4-0.9,0.6
			c-0.3,0.1-0.7,0.2-1.1,0.2c-0.4,0-0.7-0.1-1-0.2c-0.3-0.1-0.6-0.3-0.8-0.6c-0.2-0.3-0.4-0.5-0.6-0.9c-0.1-0.3-0.2-0.7-0.2-1
			c0-0.4,0.1-0.7,0.2-1.1c0.1-0.3,0.3-0.6,0.6-0.9c0.2-0.3,0.5-0.4,0.8-0.6c0.3-0.1,0.7-0.2,1-0.2c0.4,0,0.7,0.1,1.1,0.2
			c0.3,0.1,0.6,0.3,0.9,0.6c0.3,0.3,0.5,0.5,0.6,0.9C166.2,39.5,166.3,39.9,166.3,40.3z M165.5,47.1v21.8h-3.8V47.1H165.5z"/>
		<path class="st3" d="M185.6,68.9c-0.4,0-0.7-0.1-0.9-0.2c-0.2-0.1-0.4-0.4-0.5-0.7l-0.4-2c-0.6,0.5-1.1,1-1.7,1.4
			c-0.6,0.4-1.1,0.8-1.7,1c-0.6,0.3-1.2,0.5-1.9,0.6c-0.7,0.2-1.4,0.2-2.3,0.2c-0.8,0-1.6-0.1-2.4-0.4c-0.7-0.2-1.4-0.6-1.9-1.1
			c-0.6-0.5-1-1.1-1.3-1.8c-0.3-0.7-0.5-1.6-0.5-2.6c0-0.9,0.2-1.7,0.7-2.5c0.5-0.8,1.2-1.5,2.3-2.1c1.1-0.6,2.4-1.1,4.2-1.5
			c1.7-0.4,3.8-0.6,6.3-0.7v-1.7c0-1.7-0.4-3-1.1-3.8s-1.8-1.3-3.2-1.3c-0.9,0-1.7,0.1-2.4,0.4c-0.6,0.2-1.2,0.5-1.7,0.8
			c-0.5,0.3-0.9,0.6-1.2,0.8c-0.3,0.2-0.7,0.4-1,0.4c-0.3,0-0.5-0.1-0.7-0.2c-0.2-0.1-0.3-0.3-0.5-0.5l-0.7-1.2
			c1.2-1.2,2.5-2,3.9-2.6c1.4-0.6,2.9-0.9,4.6-0.9c1.2,0,2.3,0.2,3.2,0.6c0.9,0.4,1.7,1,2.4,1.7c0.6,0.7,1.1,1.6,1.5,2.6
			c0.3,1,0.5,2.1,0.5,3.4v13.9L185.6,68.9L185.6,68.9z M177.4,66.5c0.7,0,1.3-0.1,1.8-0.2c0.6-0.1,1.1-0.3,1.6-0.6s1-0.6,1.4-0.9
			s0.9-0.8,1.3-1.2v-4.5c-1.8,0.1-3.3,0.2-4.5,0.4c-1.2,0.2-2.3,0.5-3,0.9c-0.8,0.4-1.3,0.8-1.7,1.3c-0.4,0.5-0.5,1-0.5,1.6
			c0,0.6,0.1,1.1,0.3,1.5c0.2,0.4,0.4,0.8,0.8,1c0.3,0.3,0.7,0.5,1.1,0.6C176.4,66.5,176.9,66.5,177.4,66.5z"/>
		<path class="st3" d="M208.3,51c-0.1,0.2-0.2,0.3-0.3,0.4c-0.1,0.1-0.3,0.1-0.5,0.1c-0.2,0-0.5-0.1-0.7-0.3c-0.3-0.2-0.6-0.4-1-0.6
			c-0.4-0.2-0.8-0.4-1.4-0.6c-0.6-0.2-1.2-0.3-2-0.3c-1.1,0-2,0.2-2.8,0.6c-0.8,0.4-1.5,0.9-2.1,1.6c-0.6,0.7-1,1.6-1.2,2.6
			c-0.3,1-0.4,2.2-0.4,3.4c0,1.3,0.2,2.5,0.5,3.5c0.3,1,0.7,1.9,1.3,2.6s1.2,1.2,2,1.6c0.8,0.4,1.7,0.5,2.6,0.5
			c0.9,0,1.7-0.1,2.3-0.3c0.6-0.2,1.1-0.5,1.5-0.7c0.4-0.3,0.7-0.5,1-0.7c0.3-0.2,0.5-0.3,0.8-0.3c0.3,0,0.6,0.1,0.7,0.4l1.1,1.4
			c-0.5,0.6-1,1.1-1.6,1.5c-0.6,0.4-1.3,0.8-1.9,1c-0.7,0.3-1.4,0.5-2.2,0.6c-0.8,0.1-1.5,0.2-2.3,0.2c-1.4,0-2.6-0.3-3.8-0.8
			c-1.2-0.5-2.2-1.2-3-2.2c-0.9-1-1.5-2.1-2-3.5c-0.5-1.4-0.7-3-0.7-4.8c0-1.6,0.2-3.1,0.7-4.5c0.5-1.4,1.1-2.6,2-3.6
			c0.9-1,1.9-1.8,3.2-2.3c1.3-0.6,2.7-0.8,4.4-0.8c1.5,0,2.9,0.2,4.1,0.7c1.2,0.5,2.2,1.2,3.1,2.1L208.3,51z"/>
		<path class="st3" d="M213.7,68.9V37.2h3.9V50c0.9-1,2-1.8,3.1-2.4c1.1-0.6,2.4-0.9,3.9-0.9c1.2,0,2.2,0.2,3.2,0.6
			c0.9,0.4,1.7,1,2.3,1.7c0.6,0.7,1.1,1.6,1.4,2.6c0.3,1,0.5,2.1,0.5,3.4v13.9H228V55c0-1.6-0.4-2.9-1.1-3.8
			c-0.8-0.9-1.9-1.4-3.4-1.4c-1.1,0-2.2,0.3-3.2,0.8c-1,0.5-1.9,1.3-2.7,2.2v16C217.6,68.9,213.7,68.9,213.7,68.9z"/>
		<path class="st3" d="M251.6,68.9c-0.4,0-0.7-0.1-0.9-0.2c-0.2-0.1-0.4-0.4-0.5-0.7l-0.4-2c-0.6,0.5-1.1,1-1.7,1.4
			c-0.6,0.4-1.1,0.8-1.7,1c-0.6,0.3-1.2,0.5-1.9,0.6c-0.7,0.2-1.4,0.2-2.3,0.2c-0.8,0-1.6-0.1-2.4-0.4c-0.7-0.2-1.4-0.6-1.9-1.1
			c-0.6-0.5-1-1.1-1.3-1.8c-0.3-0.7-0.5-1.6-0.5-2.6c0-0.9,0.2-1.7,0.7-2.5c0.5-0.8,1.2-1.5,2.3-2.1c1.1-0.6,2.4-1.1,4.2-1.5
			c1.7-0.4,3.8-0.6,6.3-0.7v-1.7c0-1.7-0.4-3-1.1-3.8c-0.7-0.9-1.8-1.3-3.2-1.3c-0.9,0-1.7,0.1-2.4,0.4c-0.6,0.2-1.2,0.5-1.7,0.8
			c-0.5,0.3-0.9,0.6-1.2,0.8c-0.3,0.2-0.7,0.4-1,0.4c-0.3,0-0.5-0.1-0.7-0.2c-0.2-0.1-0.3-0.3-0.5-0.5l-0.7-1.2
			c1.2-1.2,2.5-2,3.9-2.6c1.4-0.6,2.9-0.9,4.6-0.9c1.2,0,2.3,0.2,3.2,0.6c0.9,0.4,1.7,1,2.4,1.7c0.6,0.7,1.1,1.6,1.5,2.6
			c0.3,1,0.5,2.1,0.5,3.4v13.9L251.6,68.9L251.6,68.9z M243.3,66.5c0.7,0,1.3-0.1,1.8-0.2c0.6-0.1,1.1-0.3,1.6-0.6s1-0.6,1.4-0.9
			s0.9-0.8,1.3-1.2v-4.5c-1.8,0.1-3.3,0.2-4.5,0.4c-1.2,0.2-2.3,0.5-3,0.9c-0.8,0.4-1.3,0.8-1.7,1.3c-0.4,0.5-0.5,1-0.5,1.6
			c0,0.6,0.1,1.1,0.3,1.5c0.2,0.4,0.4,0.8,0.8,1c0.3,0.3,0.7,0.5,1.1,0.6C242.4,66.5,242.8,66.5,243.3,66.5z"/>
		<path class="st3" d="M264,40.3c0,0.4-0.1,0.7-0.2,1c-0.2,0.3-0.4,0.6-0.6,0.9c-0.3,0.3-0.5,0.4-0.9,0.6c-0.3,0.1-0.7,0.2-1.1,0.2
			c-0.4,0-0.7-0.1-1-0.2s-0.6-0.3-0.8-0.6c-0.2-0.3-0.4-0.5-0.6-0.9c-0.1-0.3-0.2-0.7-0.2-1c0-0.4,0.1-0.7,0.2-1.1
			c0.1-0.3,0.3-0.6,0.6-0.9c0.2-0.3,0.5-0.4,0.8-0.6s0.7-0.2,1-0.2c0.4,0,0.7,0.1,1.1,0.2c0.3,0.1,0.6,0.3,0.9,0.6
			c0.3,0.3,0.5,0.5,0.6,0.9C263.9,39.5,264,39.9,264,40.3z M263.1,47.1v21.8h-3.8V47.1H263.1z"/>
		<path class="st3" d="M269.4,68.9V47.1h2.3c0.5,0,0.9,0.3,1,0.8l0.3,2.4c0.9-1,2-1.9,3.2-2.5c1.2-0.6,2.5-1,4.1-1
			c1.2,0,2.2,0.2,3.2,0.6c0.9,0.4,1.7,1,2.3,1.7c0.6,0.7,1.1,1.6,1.4,2.6c0.3,1,0.5,2.1,0.5,3.4v13.9h-3.9V55c0-1.6-0.4-2.9-1.1-3.8
			c-0.8-0.9-1.9-1.4-3.4-1.4c-1.1,0-2.2,0.3-3.2,0.8c-1,0.5-1.9,1.3-2.7,2.2v16C273.3,68.9,269.4,68.9,269.4,68.9z"/>
	</g>
</g>
</svg>
