<?xml version="1.0" encoding="utf-8"?>
<!-- Generator: Adobe Illustrator 23.0.1, SVG Export Plug-In . SVG Version: 6.00 Build 0)  -->
<svg version="1.1" id="Layer_1" xmlns="http://www.w3.org/2000/svg" xmlns:xlink="http://www.w3.org/1999/xlink" x="0px" y="0px"
	 viewBox="0 0 200 72" style="enable-background:new 0 0 200 72;" xml:space="preserve">
<style type="text/css">
	.st0{fill:#96C354;}
	.st1{fill:#C0DA95;}
	.st2{fill:#DFEBCA;}
</style>
<title>Gaiachain logo</title>
<polygon class="st0" points="30.4,0.89999 0,18.39999 0,53.59999 30.4,71.09999 60.8,53.59999 60.8,18.39999 "/>
<polygon class="st1" points="0,53.59999 30.4,35.99999 0,18.39999 "/>
<polygon class="st2" points="30.4,0.89999 0,18.39999 30.4,35.99999 60.8,53.59999 60.8,18.39999 "/>
<polygon class="st0" points="0,53.59999 30.4,71.09999 60.8,53.59999 30.4,35.99999 "/>
<g>
	<path d="M88.41467,46.74559c-1.24317,0.39083-2.60574,0.58625-4.08672,0.58625c-1.75584,0-3.33868-0.27144-4.74901-0.81432
		s-2.61548-1.3036-3.6145-2.28313c-0.9995-0.97904-1.76851-2.1535-2.30603-3.52338
		c-0.53801-1.36987-0.80653-2.87669-0.80653-4.52044c0-1.66422,0.26121-3.18127,0.78362-4.55066
		c0.52242-1.36988,1.26559-2.54433,2.23001-3.52386c0.96393-0.97904,2.13546-1.73732,3.51557-2.27533
		c1.38011-0.53752,2.9225-0.80653,4.62717-0.80653c0.86208,0,1.66373,0.06335,2.40495,0.19006
		c0.74025,0.12719,1.42544,0.30994,2.05457,0.54824c0.62865,0.2383,1.21247,0.52729,1.74999,0.86744
		c0.53703,0.34015,1.03996,0.72271,1.50681,1.14912l-0.83723,1.33917c-0.13255,0.20321-0.30214,0.33236-0.50974,0.3884
		c-0.20858,0.05556-0.43957,0.00731-0.69249-0.14474c-0.24367-0.14181-0.52242-0.31433-0.83626-0.51754
		c-0.3153-0.20273-0.69834-0.39815-1.1496-0.58577c-0.45175-0.18762-0.9844-0.34747-1.59843-0.47953
		c-0.61404-0.13206-1.3421-0.19785-2.1842-0.19785c-1.22758,0-2.33868,0.20029-3.33282,0.60087
		c-0.99464,0.40107-1.84161,0.97417-2.5419,1.72026c-0.70029,0.74561-1.2383,1.64863-1.61354,2.70905
		c-0.37524,1.06042-0.56286,2.24999-0.56286,3.56918c0,1.36988,0.19492,2.59502,0.58576,3.67542
		c0.39035,1.08089,0.94883,1.9995,1.67445,2.75486c0.72514,0.75633,1.60574,1.33186,2.64034,1.72757
		c1.03508,0.39571,2.19687,0.59357,3.48585,0.59357c0.50682,0,0.98148-0.03022,1.423-0.09113
		c0.44103-0.06091,0.86501-0.14473,1.27095-0.25097c0.40546-0.10672,0.79629-0.2383,1.17202-0.39571
		c0.37524-0.15741,0.75536-0.33723,1.14132-0.54044V38.8538h-3.39423c-0.19298,0-0.34747-0.05556-0.46394-0.16715
		c-0.11696-0.1116-0.17544-0.24854-0.17544-0.41082v-1.67445h6.69685v8.3713C90.82596,45.76412,89.65686,46.35524,88.41467,46.74559
		z"/>
	<path d="M105.43797,47.08818c-0.26414,0-0.46687-0.04288-0.60916-0.12914c-0.1423-0.08625-0.25341-0.25633-0.33528-0.51023
		l-0.30409-1.4459c-0.40546,0.3655-0.80409,0.69249-1.19492,0.98196c-0.39084,0.28899-0.7963,0.53265-1.21735,0.7305
		c-0.42105,0.19786-0.87329,0.3499-1.35477,0.45663c-0.48245,0.10624-1.01754,0.15984-1.60526,0.15984
		c-0.59941,0-1.16277-0.08382-1.69005-0.25146c-0.52729-0.16715-0.98635-0.41813-1.37719-0.75341
		c-0.39084-0.33479-0.6998-0.75828-0.92885-1.27046c-0.22807-0.51267-0.3421-1.1189-0.3421-1.81919
		c0-0.60867,0.16764-1.19444,0.50195-1.75779c0.33528-0.56335,0.87817-1.06286,1.62865-1.49902
		c0.75146-0.43616,1.73001-0.79385,2.93761-1.07309c1.2076-0.27924,2.68907-0.43908,4.44443-0.47953v-1.20223
		c0-1.19736-0.25829-2.10282-0.77583-2.71685s-1.27387-0.92105-2.26802-0.92105c-0.66959,0-1.23099,0.08382-1.68225,0.25146
		c-0.45126,0.16715-0.8421,0.35526-1.17154,0.56286c-0.33041,0.20809-0.61403,0.39571-0.85282,0.56335
		c-0.23782,0.16715-0.47368,0.25097-0.7076,0.25097c-0.18226,0-0.34016-0.04824-0.47173-0.14474
		c-0.13158-0.096-0.24366-0.2154-0.3343-0.3577l-0.48733-0.86744c0.85184-0.82163,1.76997-1.43567,2.75437-1.84161
		c0.9844-0.40545,2.07504-0.60867,3.27289-0.60867c0.86257,0,1.62865,0.1423,2.29823,0.42592
		c0.66959,0.28411,1.23294,0.67982,1.68908,1.18713c0.45711,0.50779,0.80116,1.12134,1.03508,1.84161
		c0.23294,0.72076,0.3499,1.51217,0.3499,2.37474v9.86252h-1.20173V47.08818z M99.62318,45.42933
		c0.47661,0,0.91325-0.04825,1.30896-0.14474c0.39571-0.09649,0.769-0.23343,1.1189-0.41082s0.68518-0.39571,1.00487-0.65448
		s0.63158-0.55019,0.93567-0.87524v-3.19638c-1.24756,0.04094-2.31091,0.13986-3.18907,0.29678
		c-0.87719,0.15741-1.59258,0.36306-2.14521,0.61647c-0.5536,0.2539-0.95419,0.55312-1.20272,0.89814
		c-0.24854,0.34503-0.3733,0.7305-0.3733,1.15643c0,0.40594,0.06628,0.75633,0.19786,1.05019
		c0.13255,0.29483,0.31286,0.53557,0.54093,0.72319c0.22807,0.18762,0.49707,0.32505,0.80604,0.41082
		C98.93605,45.38595,99.26841,45.42933,99.62318,45.42933z"/>
	<path d="M114.20401,26.83c0,0.26413-0.05361,0.50974-0.15984,0.7383c-0.10624,0.22807-0.24854,0.43128-0.42593,0.60867
		c-0.17738,0.17787-0.38596,0.31725-0.62378,0.41861c-0.23879,0.10136-0.49025,0.15205-0.75341,0.15205
		c-0.26413,0-0.51071-0.05068-0.73878-0.15205c-0.22807-0.10136-0.42885-0.24074-0.60136-0.41861
		c-0.17251-0.17739-0.30896-0.3806-0.41032-0.60867c-0.10136-0.22856-0.15205-0.47417-0.15205-0.7383
		c0-0.26365,0.05068-0.51462,0.15205-0.75341c0.10136-0.2383,0.23782-0.44639,0.41032-0.62378
		c0.17252-0.17739,0.3733-0.31725,0.60136-0.41861c0.22807-0.10136,0.47466-0.15205,0.73878-0.15205
		c0.26316,0,0.51462,0.05068,0.75341,0.15205c0.23782,0.10136,0.4464,0.24123,0.62378,0.41861
		c0.17739,0.17739,0.31969,0.38548,0.42593,0.62378C114.1504,26.31538,114.20401,26.56636,114.20401,26.83z M113.62604,31.67013
		v15.41805h-2.70954V31.67013H113.62604z"/>
	<path d="M127.87256,47.08818c-0.26414,0-0.46687-0.04288-0.60916-0.12914c-0.1423-0.08625-0.25341-0.25633-0.33528-0.51023
		l-0.30409-1.4459c-0.40546,0.3655-0.80409,0.69249-1.19492,0.98196c-0.39084,0.28899-0.7963,0.53265-1.21735,0.7305
		c-0.42105,0.19786-0.87329,0.3499-1.35477,0.45663c-0.48245,0.10624-1.01754,0.15984-1.60526,0.15984
		c-0.59941,0-1.16277-0.08382-1.69005-0.25146c-0.52729-0.16715-0.98635-0.41813-1.37719-0.75341
		c-0.39084-0.33479-0.6998-0.75828-0.92885-1.27046c-0.22807-0.51267-0.3421-1.1189-0.3421-1.81919
		c0-0.60867,0.16764-1.19444,0.50195-1.75779c0.33528-0.56335,0.87817-1.06286,1.62865-1.49902
		c0.75146-0.43616,1.73001-0.79385,2.93761-1.07309c1.2076-0.27924,2.68907-0.43908,4.44443-0.47953v-1.20223
		c0-1.19736-0.25829-2.10282-0.77583-2.71685s-1.27387-0.92105-2.26802-0.92105c-0.66959,0-1.23099,0.08382-1.68225,0.25146
		c-0.45126,0.16715-0.8421,0.35526-1.17154,0.56286c-0.33041,0.20809-0.61403,0.39571-0.85282,0.56335
		c-0.23782,0.16715-0.47368,0.25097-0.7076,0.25097c-0.18226,0-0.34016-0.04824-0.47173-0.14474
		c-0.13158-0.096-0.24366-0.2154-0.3343-0.3577l-0.48733-0.86744c0.85184-0.82163,1.76997-1.43567,2.75437-1.84161
		c0.9844-0.40545,2.07504-0.60867,3.27289-0.60867c0.86257,0,1.62865,0.1423,2.29823,0.42592
		c0.66959,0.28411,1.23294,0.67982,1.68908,1.18713c0.45712,0.50779,0.80116,1.12134,1.03507,1.84161
		c0.23296,0.72076,0.34991,1.51217,0.34991,2.37474v9.86252h-1.20174V47.08818z M122.05777,45.42933
		c0.47661,0,0.91325-0.04825,1.30896-0.14474c0.39571-0.09649,0.769-0.23343,1.1189-0.41082s0.68518-0.39571,1.00487-0.65448
		s0.63158-0.55019,0.93567-0.87524v-3.19638c-1.24756,0.04094-2.31091,0.13986-3.18907,0.29678
		c-0.87719,0.15741-1.59258,0.36306-2.14521,0.61647c-0.5536,0.2539-0.95419,0.55312-1.20272,0.89814
		c-0.24854,0.34503-0.3733,0.7305-0.3733,1.15643c0,0.40594,0.06628,0.75633,0.19786,1.05019
		c0.13255,0.29483,0.31286,0.53557,0.54093,0.72319c0.22807,0.18762,0.49707,0.32505,0.80604,0.41082
		C121.37064,45.38595,121.703,45.42933,122.05777,45.42933z"/>
	<path d="M143.929,34.40989c-0.08089,0.1116-0.16277,0.19785-0.24365,0.25877c-0.0809,0.06092-0.19299,0.09113-0.33432,0.09113
		c-0.15204,0-0.31969-0.06335-0.50291-0.19006c-0.18227-0.12671-0.40839-0.26657-0.67738-0.41861
		c-0.26804-0.15253-0.59843-0.29142-0.98927-0.41861c-0.38986-0.12671-0.8694-0.19006-1.43762-0.19006
		c-0.7612,0-1.43079,0.1345-2.00974,0.40302c-0.57797,0.269-1.06236,0.65741-1.4532,1.16423
		c-0.39084,0.50779-0.68518,1.12134-0.88304,1.84161c-0.19786,0.72076-0.2963,1.52728-0.2963,2.42007
		c0,0.93372,0.10623,1.76315,0.31969,2.48878c0.21248,0.72563,0.51462,1.3343,0.90546,1.8265s0.86256,0.86744,1.41519,1.12621
		c0.5536,0.25877,1.17447,0.38791,1.86452,0.38791c0.65984,0,1.20273-0.07846,1.62865-0.23587
		c0.42592-0.15692,0.77875-0.33236,1.0575-0.52485c0.27972-0.19298,0.51268-0.36793,0.70078-0.52534
		c0.18713-0.15692,0.37233-0.23587,0.55556-0.23587c0.22319,0,0.39571,0.08626,0.51755,0.25877l0.76022,0.98927
		c-0.3343,0.41618-0.71442,0.77144-1.14131,1.0653c-0.42593,0.29434-0.88499,0.54044-1.3772,0.7383
		c-0.4922,0.19785-1.00682,0.34259-1.54482,0.43372c-0.53801,0.09162-1.08577,0.13694-1.64424,0.13694
		c-0.96394,0-1.85867-0.17739-2.68616-0.53265c-0.82651-0.35477-1.54483-0.86988-2.153-1.54483
		c-0.60916-0.67446-1.08675-1.50438-1.4308-2.48829c-0.34503-0.9844-0.51753-2.10574-0.51753-3.36402
		c0-1.14619,0.15984-2.20662,0.47952-3.18078s0.78557-1.81383,1.3996-2.51899c0.61404-0.70516,1.37038-1.25584,2.26802-1.65155
		c0.89766-0.39571,1.9308-0.59356,3.09746-0.59356c1.08577,0,2.0419,0.17495,2.86938,0.52534
		c0.82651,0.3499,1.55945,0.84454,2.19881,1.48391L143.929,34.40989z"/>
	<path d="M147.73405,47.08818V24.6687h2.72415v9.07159c0.65985-0.70029,1.38986-1.26072,2.192-1.68225
		c0.80116-0.42056,1.72514-0.63157,2.76997-0.63157c0.8421,0,1.58478,0.13986,2.23,0.41861
		c0.64426,0.27924,1.18129,0.67495,1.61305,1.18713c0.4308,0.51267,0.75829,1.12914,0.98149,1.84941
		c0.22319,0.72076,0.33527,1.51705,0.33527,2.38936v9.8172h-2.72513v-9.8172c0-1.16666-0.26608-2.07211-0.79823-2.71685
		c-0.53314-0.64425-1.3421-0.96637-2.42787-0.96637c-0.81189,0-1.56529,0.19298-2.26022,0.57846
		c-0.69493,0.38596-1.33138,0.90838-1.91032,1.56773v11.35423C150.45821,47.08817,147.73405,47.08817,147.73405,47.08818z"/>
	<path d="M174.52144,47.08818c-0.26413,0-0.46686-0.04288-0.60915-0.12914c-0.1423-0.08625-0.25342-0.25633-0.33528-0.51023
		l-0.30409-1.4459c-0.40546,0.3655-0.80409,0.69249-1.19493,0.98196c-0.39084,0.28899-0.7963,0.53265-1.21735,0.7305
		c-0.42105,0.19786-0.87329,0.3499-1.35477,0.45663c-0.48245,0.10624-1.01753,0.15984-1.60526,0.15984
		c-0.59941,0-1.16277-0.08382-1.69005-0.25146c-0.52728-0.16715-0.98634-0.41813-1.37718-0.75341
		c-0.39084-0.33479-0.69981-0.75828-0.92885-1.27046c-0.22807-0.51267-0.3421-1.1189-0.3421-1.81919
		c0-0.60867,0.16763-1.19444,0.50194-1.75779c0.33528-0.56335,0.87817-1.06286,1.62865-1.49902
		c0.75146-0.43616,1.73001-0.79385,2.93761-1.07309s2.68907-0.43908,4.44443-0.47953v-1.20223
		c0-1.19736-0.25829-2.10282-0.77582-2.71685c-0.51755-0.61403-1.27388-0.92105-2.26802-0.92105
		c-0.66959,0-1.23099,0.08382-1.68225,0.25146c-0.45128,0.16715-0.8421,0.35526-1.17154,0.56286
		c-0.33041,0.20809-0.61403,0.39571-0.85283,0.56335c-0.23781,0.16715-0.47368,0.25097-0.7076,0.25097
		c-0.18227,0-0.34015-0.04824-0.47173-0.14474c-0.13158-0.096-0.24367-0.2154-0.3343-0.3577l-0.48734-0.86744
		c0.85185-0.82163,1.76997-1.43567,2.75438-1.84161c0.98439-0.40545,2.07503-0.60867,3.27289-0.60867
		c0.86256,0,1.62865,0.1423,2.29823,0.42592c0.66959,0.28411,1.23293,0.67982,1.68907,1.18713
		c0.45711,0.50779,0.80116,1.12134,1.03508,1.84161c0.23294,0.72076,0.3499,1.51217,0.3499,2.37474v9.86252h-1.20175V47.08818z
		 M168.70667,45.42933c0.47659,0,0.91324-0.04825,1.30896-0.14474c0.39571-0.09649,0.769-0.23343,1.1189-0.41082
		s0.68518-0.39571,1.00487-0.65448s0.63158-0.55019,0.93567-0.87524v-3.19638c-1.24756,0.04094-2.3109,0.13986-3.18907,0.29678
		c-0.87718,0.15741-1.59258,0.36306-2.1452,0.61647c-0.5536,0.2539-0.95419,0.55312-1.20273,0.89814
		s-0.37329,0.7305-0.37329,1.15643c0,0.40594,0.06627,0.75633,0.19785,1.05019c0.13255,0.29483,0.31287,0.53557,0.54094,0.72319
		s0.49707,0.32505,0.80605,0.41082C168.01953,45.38595,168.35188,45.42933,168.70667,45.42933z"/>
	<path d="M183.28845,26.83c0,0.26413-0.0536,0.50974-0.15984,0.7383c-0.10623,0.22807-0.24854,0.43128-0.42592,0.60867
		c-0.1774,0.17787-0.38597,0.31725-0.62378,0.41861c-0.2388,0.10136-0.49026,0.15205-0.75342,0.15205
		c-0.26413,0-0.51071-0.05068-0.73878-0.15205s-0.42885-0.24074-0.60136-0.41861c-0.17252-0.17739-0.30896-0.3806-0.41032-0.60867
		c-0.10136-0.22856-0.15205-0.47417-0.15205-0.7383c0-0.26365,0.05069-0.51462,0.15205-0.75341
		c0.10136-0.2383,0.23781-0.44639,0.41032-0.62378s0.37329-0.31725,0.60136-0.41861s0.47466-0.15205,0.73878-0.15205
		c0.26315,0,0.51462,0.05068,0.75342,0.15205c0.23781,0.10136,0.44638,0.24123,0.62378,0.41861
		c0.17738,0.17739,0.31969,0.38548,0.42592,0.62378C183.23485,26.31538,183.28845,26.56636,183.28845,26.83z M182.71049,31.67013
		v15.41805h-2.70955V31.67013H182.71049z"/>
	<path d="M187.15393,47.08818V31.67013h1.62865c0.38499,0,0.62378,0.18811,0.71541,0.56335l0.21246,1.67397
		c0.66959-0.74074,1.42105-1.33918,2.2534-1.7958c0.83138-0.45663,1.79044-0.68518,2.87621-0.68518
		c0.8421,0,1.58479,0.13986,2.23001,0.41861c0.64424,0.27924,1.18127,0.67495,1.61305,1.18713
		c0.4308,0.51267,0.75827,1.12914,0.98148,1.84941c0.22319,0.72076,0.33528,1.51705,0.33528,2.38936v9.8172h-2.72513v-9.8172
		c0-1.16666-0.26608-2.07211-0.79825-2.71685c-0.53314-0.64425-1.3421-0.96637-2.42786-0.96637
		c-0.81189,0-1.56531,0.19298-2.26022,0.57846c-0.69493,0.38596-1.33139,0.90838-1.91032,1.56773v11.35423
		C189.8781,47.08818,187.15393,47.08818,187.15393,47.08818z"/>
</g>
</svg>
