<svg xmlns="http://www.w3.org/2000/svg" width="156.115" height="101.797" viewBox="0 0 156.115 101.797"><defs><style>.a{fill:#c0da95;}.b{fill:#dfebca;}.c{fill:#96c354;}.d{fill:#bebebe;font-size:14px;font-family:PublicSans-Light, Public Sans;font-weight:300;letter-spacing:0.2em;}</style></defs><g transform="translate(-285 -683)"><g transform="translate(94 210.859)"><g transform="translate(191 519.141)"><path class="a" d="M-602.449,73.4l23.729-13.738-23.729-13.738Z" transform="translate(602.449 -32.268)"/><path class="b" d="M-602.449,34.66-578.719,48.4l23.729,13.738V34.66L-578.719,21Z" transform="translate(602.449 -21)"/><path class="c" d="M-602.449,84.737-578.719,98.4l23.729-13.661L-578.719,71Z" transform="translate(602.449 -43.601)"/></g><g transform="translate(247.866 537.695)"><path d="M-486.525,72.326a10.553,10.553,0,0,1-3.19.458,10.255,10.255,0,0,1-3.707-.636,8.155,8.155,0,0,1-2.822-1.783,7.751,7.751,0,0,1-1.8-2.75,9.579,9.579,0,0,1-.63-3.529,9.908,9.908,0,0,1,.612-3.552,7.848,7.848,0,0,1,1.741-2.75,7.72,7.72,0,0,1,2.744-1.776,9.882,9.882,0,0,1,3.612-.63,11.189,11.189,0,0,1,1.877.149,8.675,8.675,0,0,1,1.6.428,7.571,7.571,0,0,1,1.366.677,8.412,8.412,0,0,1,1.176.9l-.654,1.045a.682.682,0,0,1-.4.3.688.688,0,0,1-.54-.113q-.285-.165-.653-.4a5.759,5.759,0,0,0-.9-.458,7.329,7.329,0,0,0-1.247-.374,8.223,8.223,0,0,0-1.706-.155,6.905,6.905,0,0,0-2.6.469,5.515,5.515,0,0,0-1.984,1.343,5.941,5.941,0,0,0-1.259,2.115,8.32,8.32,0,0,0-.44,2.786,8.414,8.414,0,0,0,.457,2.869,6.005,6.005,0,0,0,1.307,2.151,5.582,5.582,0,0,0,2.061,1.349,7.573,7.573,0,0,0,2.72.462,8.026,8.026,0,0,0,1.111-.071,8.238,8.238,0,0,0,.992-.2,6.925,6.925,0,0,0,.915-.308c.293-.123.589-.263.891-.422V66.166h-2.65a.5.5,0,0,1-.362-.13.427.427,0,0,1-.136-.321V64.408h5.228v6.535a9.541,9.541,0,0,1-2.738,1.383" transform="translate(498.673 -55.094)"/><path d="M-459.311,76.69a.925.925,0,0,1-.474-.1.692.692,0,0,1-.263-.4l-.237-1.129q-.474.427-.933.767a5.567,5.567,0,0,1-.95.57,5,5,0,0,1-1.058.357,5.809,5.809,0,0,1-1.253.125,4.328,4.328,0,0,1-1.319-.2,3.049,3.049,0,0,1-1.075-.588,2.772,2.772,0,0,1-.725-.991,3.479,3.479,0,0,1-.267-1.42,2.647,2.647,0,0,1,.392-1.372,3.434,3.434,0,0,1,1.271-1.17,8.321,8.321,0,0,1,2.293-.838,17.393,17.393,0,0,1,3.469-.375v-.938a3.221,3.221,0,0,0-.6-2.121,2.187,2.187,0,0,0-1.771-.719,3.813,3.813,0,0,0-1.313.2,4.978,4.978,0,0,0-.915.439q-.386.244-.666.441a.958.958,0,0,1-.552.2.611.611,0,0,1-.369-.113,1.036,1.036,0,0,1-.261-.279l-.38-.677a6.865,6.865,0,0,1,2.151-1.438,6.626,6.626,0,0,1,2.555-.476,4.549,4.549,0,0,1,1.793.334,3.657,3.657,0,0,1,1.319.926,3.934,3.934,0,0,1,.808,1.437,6.03,6.03,0,0,1,.273,1.854v7.7Zm-4.538-1.294a4.288,4.288,0,0,0,1.021-.114,4.03,4.03,0,0,0,.874-.32,4.437,4.437,0,0,0,.785-.512,7.151,7.151,0,0,0,.73-.683V71.273a17.645,17.645,0,0,0-2.488.232,7.1,7.1,0,0,0-1.675.481,2.318,2.318,0,0,0-.939.7,1.51,1.51,0,0,0-.292.9,1.989,1.989,0,0,0,.155.82,1.541,1.541,0,0,0,.422.564,1.7,1.7,0,0,0,.63.321,2.887,2.887,0,0,0,.778.1" transform="translate(484.747 -59.19)"/><path d="M-442.255,56.683a1.352,1.352,0,0,1-.125.576,1.641,1.641,0,0,1-.333.475,1.525,1.525,0,0,1-.487.327,1.493,1.493,0,0,1-.588.119,1.41,1.41,0,0,1-.577-.119,1.486,1.486,0,0,1-.469-.327,1.636,1.636,0,0,1-.321-.475,1.417,1.417,0,0,1-.118-.576,1.5,1.5,0,0,1,.118-.587,1.576,1.576,0,0,1,.321-.487,1.477,1.477,0,0,1,.469-.327,1.41,1.41,0,0,1,.577-.118,1.493,1.493,0,0,1,.588.118,1.516,1.516,0,0,1,.487.327,1.578,1.578,0,0,1,.333.487,1.433,1.433,0,0,1,.125.587m-.451,15.813h-2.116V60.461h2.116Z" transform="translate(474.534 -54.996)"/><path d="M-427.354,76.69a.928.928,0,0,1-.475-.1.694.694,0,0,1-.262-.4l-.237-1.129q-.474.427-.933.767a5.562,5.562,0,0,1-.95.57,5.019,5.019,0,0,1-1.057.357,5.819,5.819,0,0,1-1.254.125,4.327,4.327,0,0,1-1.319-.2,3.047,3.047,0,0,1-1.075-.588,2.765,2.765,0,0,1-.725-.991,3.472,3.472,0,0,1-.267-1.42,2.653,2.653,0,0,1,.392-1.372,3.436,3.436,0,0,1,1.271-1.17,8.321,8.321,0,0,1,2.293-.838,17.392,17.392,0,0,1,3.469-.375v-.938a3.221,3.221,0,0,0-.6-2.121,2.186,2.186,0,0,0-1.77-.719,3.812,3.812,0,0,0-1.313.2,5.035,5.035,0,0,0-.915.439q-.386.244-.666.441a.956.956,0,0,1-.552.2.617.617,0,0,1-.369-.113,1.049,1.049,0,0,1-.26-.279l-.38-.677a6.867,6.867,0,0,1,2.15-1.438,6.633,6.633,0,0,1,2.556-.476,4.549,4.549,0,0,1,1.793.334,3.658,3.658,0,0,1,1.319.926,3.926,3.926,0,0,1,.808,1.437,6.015,6.015,0,0,1,.273,1.854v7.7Zm-4.538-1.294a4.313,4.313,0,0,0,1.023-.114,4.054,4.054,0,0,0,.872-.32,4.438,4.438,0,0,0,.785-.512,7.15,7.15,0,0,0,.73-.683V71.273a17.654,17.654,0,0,0-2.489.232,7.124,7.124,0,0,0-1.675.481,2.312,2.312,0,0,0-.938.7,1.507,1.507,0,0,0-.292.9,1.989,1.989,0,0,0,.155.82,1.542,1.542,0,0,0,.422.564,1.7,1.7,0,0,0,.629.321,2.893,2.893,0,0,0,.778.1" transform="translate(470.301 -59.19)"/><path d="M-404.892,66.814a.935.935,0,0,1-.19.2.427.427,0,0,1-.261.071.708.708,0,0,1-.392-.148c-.143-.1-.319-.208-.529-.327a4.208,4.208,0,0,0-.772-.327,3.658,3.658,0,0,0-1.122-.148,3.685,3.685,0,0,0-1.568.315,3.022,3.022,0,0,0-1.134.909,4.1,4.1,0,0,0-.69,1.438,7.124,7.124,0,0,0-.231,1.888,6.926,6.926,0,0,0,.249,1.944,4.141,4.141,0,0,0,.707,1.425,3.058,3.058,0,0,0,1.1.879,3.393,3.393,0,0,0,1.456.3,3.718,3.718,0,0,0,1.271-.184,3.72,3.72,0,0,0,.825-.41c.219-.151.4-.287.546-.41a.684.684,0,0,1,.434-.184.466.466,0,0,1,.4.2l.593.772a4.2,4.2,0,0,1-.891.832,5.549,5.549,0,0,1-1.075.576,5.8,5.8,0,0,1-1.206.338,7.6,7.6,0,0,1-1.284.107,5.258,5.258,0,0,1-2.1-.415,4.767,4.767,0,0,1-1.68-1.206,5.627,5.627,0,0,1-1.117-1.942,7.9,7.9,0,0,1-.4-2.626,7.89,7.89,0,0,1,.374-2.482,5.627,5.627,0,0,1,1.092-1.967,4.977,4.977,0,0,1,1.771-1.289,5.937,5.937,0,0,1,2.418-.463,5.7,5.7,0,0,1,2.24.41,5.373,5.373,0,0,1,1.716,1.158Z" transform="translate(460.373 -59.21)"/><path d="M-392,72.359v-17.5h2.126V61.94a6.5,6.5,0,0,1,1.711-1.313A4.581,4.581,0,0,1-386,60.133a4.363,4.363,0,0,1,1.741.327,3.386,3.386,0,0,1,1.259.927,4.119,4.119,0,0,1,.766,1.443,6.3,6.3,0,0,1,.262,1.865v7.663H-384.1V64.7a3.246,3.246,0,0,0-.622-2.121,2.319,2.319,0,0,0-1.895-.754,3.583,3.583,0,0,0-1.764.451,5.623,5.623,0,0,0-1.491,1.224v8.863Z" transform="translate(450.455 -54.859)"/><path d="M-360.9,76.69a.931.931,0,0,1-.476-.1.691.691,0,0,1-.261-.4l-.238-1.129q-.474.427-.932.767a5.594,5.594,0,0,1-.951.57,5.019,5.019,0,0,1-1.057.357,5.82,5.82,0,0,1-1.254.125,4.323,4.323,0,0,1-1.318-.2,3.064,3.064,0,0,1-1.076-.588,2.778,2.778,0,0,1-.725-.991,3.49,3.49,0,0,1-.267-1.42,2.652,2.652,0,0,1,.392-1.372,3.428,3.428,0,0,1,1.271-1.17A8.309,8.309,0,0,1-365.5,70.3a17.383,17.383,0,0,1,3.469-.375v-.938a3.221,3.221,0,0,0-.606-2.121,2.186,2.186,0,0,0-1.77-.719,3.809,3.809,0,0,0-1.313.2,4.968,4.968,0,0,0-.914.439c-.259.163-.48.309-.667.441a.955.955,0,0,1-.552.2.611.611,0,0,1-.368-.113,1.025,1.025,0,0,1-.261-.279l-.381-.677a6.882,6.882,0,0,1,2.15-1.438,6.633,6.633,0,0,1,2.555-.476,4.552,4.552,0,0,1,1.794.334,3.665,3.665,0,0,1,1.318.926,3.918,3.918,0,0,1,.808,1.437,6,6,0,0,1,.274,1.854v7.7Zm-4.538-1.294a4.3,4.3,0,0,0,1.021-.114,4.073,4.073,0,0,0,.873-.32,4.478,4.478,0,0,0,.785-.512,7.388,7.388,0,0,0,.73-.683V71.273a17.655,17.655,0,0,0-2.489.232,7.1,7.1,0,0,0-1.674.481,2.316,2.316,0,0,0-.939.7,1.506,1.506,0,0,0-.291.9,2.008,2.008,0,0,0,.153.82,1.554,1.554,0,0,0,.422.564,1.7,1.7,0,0,0,.63.321,2.885,2.885,0,0,0,.778.1" transform="translate(440.263 -59.19)"/><path d="M-343.846,56.683a1.367,1.367,0,0,1-.124.576,1.684,1.684,0,0,1-.333.475,1.539,1.539,0,0,1-.487.327,1.5,1.5,0,0,1-.589.119,1.4,1.4,0,0,1-.576-.119,1.49,1.49,0,0,1-.47-.327,1.622,1.622,0,0,1-.32-.475,1.407,1.407,0,0,1-.118-.576,1.492,1.492,0,0,1,.118-.587,1.564,1.564,0,0,1,.32-.487,1.481,1.481,0,0,1,.47-.327,1.4,1.4,0,0,1,.576-.118,1.5,1.5,0,0,1,.589.118,1.53,1.53,0,0,1,.487.327,1.617,1.617,0,0,1,.333.487,1.45,1.45,0,0,1,.124.587M-344.3,72.5h-2.115V60.461h2.115Z" transform="translate(430.05 -54.996)"/><path d="M-335.85,76.71V64.675h1.271a.523.523,0,0,1,.559.44l.166,1.306a6.737,6.737,0,0,1,1.758-1.4,4.6,4.6,0,0,1,2.245-.535,4.363,4.363,0,0,1,1.741.327,3.381,3.381,0,0,1,1.259.927,4.111,4.111,0,0,1,.767,1.443,6.3,6.3,0,0,1,.262,1.865V76.71h-2.128V69.046a3.246,3.246,0,0,0-.622-2.121,2.319,2.319,0,0,0-1.895-.754,3.582,3.582,0,0,0-1.764.451,5.623,5.623,0,0,0-1.491,1.224V76.71Z" transform="translate(425.072 -59.21)"/></g></g><text class="d" transform="translate(363 697)"><tspan x="-56.987" y="0">POWERED BY</tspan></text></g></svg>