<svg xmlns="http://www.w3.org/2000/svg" width="28.212" height="31.59" viewBox="0 0 28.212 31.59"><defs><style>.a{fill:#e40000;}</style></defs><g transform="translate(0.125)"><path class="a" d="M55.271,0A11.785,11.785,0,0,0,43.5,11.781a17.047,17.047,0,0,0,1.34,6.327l2.86-2.871a2.722,2.722,0,1,1,3.849,3.849L48.636,22.01l2.924,2.924a2.732,2.732,0,0,1,.223,3.6,37.642,37.642,0,0,0,2.786,2.775,1.1,1.1,0,0,0,.723.276,1.119,1.119,0,0,0,.723-.276c.447-.393,11.058-9.846,11.058-19.522A11.828,11.828,0,0,0,55.271,0Zm0,15.088a3.307,3.307,0,1,1,3.275-3.307A3.3,3.3,0,0,1,55.271,15.088Z" transform="translate(-38.986)"/><path class="a" d="M7.3,157.29l4.094-4.094a1.068,1.068,0,0,0-1.51-1.51L5.79,155.78,1.7,151.686a1.068,1.068,0,0,0-1.51,1.51l4.1,4.094L.2,161.383a1.068,1.068,0,0,0,1.51,1.51L5.8,158.8l4.094,4.094a1.068,1.068,0,0,0,1.51-1.51Z" transform="translate(0 -135.28)"/></g></svg>