<svg xmlns="http://www.w3.org/2000/svg" width="27.951" height="32" viewBox="0 0 27.951 32"><defs><style>.a{fill:#cddccf;}</style></defs><path class="a" d="M7.08,32v0l.165-5.774a13.978,13.978,0,1,1,6.731,1.727c-.057,0-.113,0-.168-.008s-.088-.006-.132-.008L7.082,32Zm5.848-14.075v2.627h2.627V17.925Zm1.365-9.219a2.4,2.4,0,0,1,1.65.547,1.705,1.705,0,0,1,.612,1.314,1.649,1.649,0,0,1-.345,1.01A11.665,11.665,0,0,1,14.836,12.8,5.841,5.841,0,0,0,13.3,14.484a4.191,4.191,0,0,0-.383,1.908c0,.074,0,.277.01.626h2.384a3.762,3.762,0,0,1,.182-1.506A4.041,4.041,0,0,1,16.527,14.4a10.83,10.83,0,0,0,2.1-2.113,3.044,3.044,0,0,0,.491-1.646A3.6,3.6,0,0,0,17.78,7.887a5.257,5.257,0,0,0-3.6-1.182,5.076,5.076,0,0,0-3.473,1.168,4.024,4.024,0,0,0-1.426,2.842l2.412.3a3.05,3.05,0,0,1,.926-1.739A2.511,2.511,0,0,1,14.293,8.706Z"/></svg>