<?xml version="1.0" encoding="utf-8"?>
<!-- Generator: Adobe Illustrator 21.1.0, SVG Export Plug-In . SVG Version: 6.00 Build 0)  -->
<svg version="1.1" id="Layer_1" xmlns="http://www.w3.org/2000/svg" xmlns:xlink="http://www.w3.org/1999/xlink" x="0px" y="0px"
	 viewBox="0 0 40 40" style="enable-background:new 0 0 40 40;" xml:space="preserve">
<g>
	<path d="M40,16.9c-0.1-0.4-0.3-0.8-0.7-1.1L21,2.4c-0.3-0.2-0.6-0.3-1-0.3c-0.4,0-0.7,0.1-1,0.3L0.7,15.8c-0.7,0.5-0.9,1.6-0.4,2.4
		c0.3,0.4,0.8,0.7,1.4,0.7c0.4,0,0.7-0.1,1-0.3L20,5.9l17.3,12.7c0.3,0.2,0.6,0.3,1,0.3c0.5,0,1-0.3,1.4-0.7
		C39.9,17.8,40.1,17.4,40,16.9z"/>
	<path d="M34.1,17.6c-0.9,0-1.7,0.8-1.7,1.7v15.3h-6.7v-8c0-3.1-2.6-5.7-5.7-5.7c-3.1,0-5.7,2.6-5.7,5.7v8H7.6V19.2
		c0-0.9-0.8-1.7-1.7-1.7s-1.7,0.8-1.7,1.7v17c0,0.9,0.8,1.7,1.7,1.7h10c0.9,0,1.6-0.7,1.7-1.5c0,0,0-0.1,0-0.1v-9.7
		c0-1.3,1-2.3,2.3-2.3s2.3,1,2.3,2.3v9.7c0,0,0,0.1,0,0.1c0.1,0.9,0.8,1.5,1.7,1.5h10c0.9,0,1.7-0.8,1.7-1.7v-17
		C35.7,18.3,35,17.6,34.1,17.6z"/>
</g>
</svg>
