<svg xmlns="http://www.w3.org/2000/svg" width="45.574" height="35.48" viewBox="0 0 45.574 35.48"><defs><style>.a{fill:#6d6d6d;stroke:rgba(0,0,0,0);}</style></defs><g transform="translate(0.5 0.518)"><g transform="translate(0 8.295)"><path class="a" d="M103.394,173.75l-.2-.245a24.072,24.072,0,0,1-1.981-3.075,15.038,15.038,0,0,0-1.635-2.494c-1.264-1.4-2.454-2.079-3.637-2.079H90.1c-.006,0-.564.007-1.235.007h-.952a1.48,1.48,0,0,0-1.444,1.07l-.008.029v12.282l0,.025a.455.455,0,0,1-.13.335,1.244,1.244,0,0,1-.892.256H62.693a1.384,1.384,0,0,0-1.452,1.3v4.472a1.384,1.384,0,0,0,1.452,1.3h5a5.892,5.892,0,0,0,11.675,0h8.362a5.892,5.892,0,0,0,11.675,0h3.8a2.556,2.556,0,0,0,2.613-2.488v-4.27A9.278,9.278,0,0,0,103.394,173.75Zm-7.645,12.694a2.188,2.188,0,1,1-2.185-2.081A2.137,2.137,0,0,1,95.749,186.445Zm5.025-10.833c-.046.072-.176.1-.374.091H90.359v-7.8H94.7a3.3,3.3,0,0,1,2.857,1.671c.573.79,2.089,3.276,2.167,3.4l.165.3C100.326,174.073,100.988,175.276,100.775,175.611Zm-27.248,8.752a2.083,2.083,0,1,1-2.185,2.081A2.138,2.138,0,0,1,73.527,184.364Z" transform="translate(-61.241 -165.857)"/><path class="a" d="M70.808,196.37h6.883a1.238,1.238,0,0,0,1.265-1.2v-4.82a1.238,1.238,0,0,0-1.265-1.2H70.808a1.238,1.238,0,0,0-1.265,1.2v4.82A1.238,1.238,0,0,0,70.808,196.37Z" transform="translate(-67.748 -184.345)"/><path class="a" d="M123.7,196.37h6.883a1.238,1.238,0,0,0,1.265-1.2v-4.82a1.238,1.238,0,0,0-1.265-1.2H123.7a1.238,1.238,0,0,0-1.265,1.2v4.82A1.238,1.238,0,0,0,123.7,196.37Z" transform="translate(-109.205 -184.345)"/></g><path class="a" d="M69.515,139.267q0,.054,0,.108a.927.927,0,0,0,.717.868,1.029,1.029,0,0,0,1.105-.387,11.886,11.886,0,0,1,9.5-4.984v1.564a1.062,1.062,0,0,0,.6.946,1.167,1.167,0,0,0,1.159-.069l7.6-5.021a.93.93,0,0,0-.005-1.572l-7.6-4.956a1.169,1.169,0,0,0-1.156-.063,1.06,1.06,0,0,0-.6.944V128.5C74.552,128.676,69.515,133.422,69.515,139.267Z" transform="translate(-67.726 -125.577)"/></g></svg>