<svg xmlns="http://www.w3.org/2000/svg" width="35.198" height="35.069" viewBox="0 0 35.198 35.069"><defs><style>.a{fill:#fff;stroke:#fff;stroke-width:2px;}</style></defs><g transform="translate(1 0.999)"><g transform="translate(0 0.001)"><path class="a" d="M15.5,31H2.067V2.068H15.5A1.033,1.033,0,1,0,15.5,0H1.033A1.034,1.034,0,0,0,0,1.034v31A1.034,1.034,0,0,0,1.033,33.07H15.5A1.033,1.033,0,0,0,15.5,31Z" transform="translate(0 -0.001)"/><path class="a" d="M109.782,103.867l-7.131-7.233a1.026,1.026,0,0,0-1.461,0,1.05,1.05,0,0,0,0,1.476l5.374,5.451H85.282a1.044,1.044,0,0,0,0,2.088h21.281L101.19,111.1a1.05,1.05,0,0,0,0,1.476,1.025,1.025,0,0,0,1.461,0l7.13-7.233A1.057,1.057,0,0,0,109.782,103.867Z" transform="translate(-77.012 -88.054)"/></g></g></svg>