<svg xmlns="http://www.w3.org/2000/svg" width="65.055" height="64.737" viewBox="0 0 65.055 64.737"><defs><style>.a{fill:#6d6d6d;stroke:rgba(0,0,0,0);}</style></defs><g transform="translate(-29.151 -59.567)"><path class="a" d="M37.815,101.527a13.837,13.837,0,0,1,.06-19.254L56.633,63.947a13.359,13.359,0,0,1,18.809-.017,12.633,12.633,0,0,1,.047,18.741l-6.245,6.25a20.507,20.507,0,0,0-1.288-5.069l4.517-4.522A8.792,8.792,0,0,0,60.042,66.894L41.22,85.716A8.917,8.917,0,0,0,41.2,98.134Z" transform="translate(14.08 0)"/><path class="a" d="M42.908,106.7a13.288,13.288,0,0,1-9.394-22.655l6.832-6.831c.017.381.026.744.034,1.1a15.02,15.02,0,0,0,.65,4.569l-4.556,4.56a8.793,8.793,0,0,0,12.44,12.431L67.735,81.045a8.917,8.917,0,0,0,.017-12.418l3.341-3.341c.2.128.4.235.595.334,4.641,4.8,4.513,13.312-.56,18.39L52.306,102.832A13.2,13.2,0,0,1,42.908,106.7Z" transform="translate(0 17.106)"/></g></svg>