<svg xmlns="http://www.w3.org/2000/svg" width="46.828" height="35.913" viewBox="0 0 46.828 35.913"><defs><style>.a{fill:#6d6d6d;stroke:rgba(0,0,0,0);}</style></defs><g transform="translate(0.5 0.5)"><path class="a" d="M134.772,79.556h19.7a16.5,16.5,0,0,0-5.094,4.413h-14.6a1.187,1.187,0,0,0-1.213,1.155v21.106a1.187,1.187,0,0,0,1.213,1.155h22.162a1.187,1.187,0,0,0,1.213-1.155V92.168a11.151,11.151,0,0,1,1.75-.684,4.321,4.321,0,0,0,2.183,2.457,4.56,4.56,0,0,0,.7.252v12.038a5.72,5.72,0,0,1-5.847,5.569H134.772a5.72,5.72,0,0,1-5.847-5.569V85.124A5.72,5.72,0,0,1,134.772,79.556Z" transform="translate(-128.925 -76.886)"/><path class="a" d="M13.515,60.568a13.985,13.985,0,0,0-11.352,6.09,1.192,1.192,0,0,1-.99.517,1.231,1.231,0,0,1-.321-.043A1.129,1.129,0,0,1,0,66.07v-.134c0-7.176,6.022-13,13.513-13.173V50.678a1.3,1.3,0,0,1,.732-1.157,1.43,1.43,0,0,1,1.415.078l9.3,6.064a1.138,1.138,0,0,1,.006,1.925l-9.3,6.142a1.413,1.413,0,0,1-.781.233,1.432,1.432,0,0,1-.637-.148,1.3,1.3,0,0,1-.734-1.158Z" transform="translate(20.33 -49.37)"/></g></svg>