<svg xmlns="http://www.w3.org/2000/svg" width="65" height="65" viewBox="0 0 65 65"><defs><style>.a{fill:#6d6d6d;stroke:rgba(0,0,0,0);}</style></defs><g transform="translate(-87.328 0.2)"><path class="a" d="M146.5,6.3h-8.668v-4a2,2,0,0,0-4,0v4h-12v-4a2,2,0,0,0-4,0v4h-12v-4a2,2,0,0,0-4,0v4H93.162a5.332,5.332,0,0,0-5.334,5.332V58.966A5.334,5.334,0,0,0,93.162,64.3H146.5a5.332,5.332,0,0,0,5.332-5.334V11.632A5.33,5.33,0,0,0,146.5,6.3Zm1.332,52.666A1.335,1.335,0,0,1,146.5,60.3H93.162a1.335,1.335,0,0,1-1.334-1.334V11.632A1.335,1.335,0,0,1,93.162,10.3h8.666v4a2,2,0,0,0,4,0v-4h12v4a2,2,0,0,0,4,0v-4h12v4a2,2,0,0,0,4,0v-4H146.5a1.334,1.334,0,0,1,1.332,1.332Z"/><rect class="a" width="8" height="6" transform="translate(101.828 24.3)"/><rect class="a" width="8" height="6" transform="translate(101.828 34.3)"/><rect class="a" width="8" height="6" transform="translate(101.828 44.3)"/><rect class="a" width="8" height="6" transform="translate(115.828 44.3)"/><rect class="a" width="8" height="6" transform="translate(115.828 34.3)"/><rect class="a" width="8" height="6" transform="translate(115.828 24.3)"/><rect class="a" width="8" height="6" transform="translate(129.828 44.3)"/><rect class="a" width="8" height="6" transform="translate(129.828 34.3)"/><rect class="a" width="8" height="6" transform="translate(129.828 24.3)"/></g></svg>