<svg xmlns="http://www.w3.org/2000/svg" width="64" height="51.737" viewBox="0 0 64 51.737"><defs><style>.a{fill:#6d6d6d;stroke:rgba(0,0,0,0);}</style></defs><g transform="translate(-87.328 -8.8)"><g transform="translate(87.828 9.3)"><path class="a" d="M356.856,29.7H415.5a1.98,1.98,0,1,0,0-3.941H356.856a1.98,1.98,0,1,0,0,3.941" transform="translate(-354.679 -25.759)"/><path class="a" d="M381.134,50.7h36.247a2.252,2.252,0,0,0,2.453-1.971,2.252,2.252,0,0,0-2.453-1.97H381.134a2.252,2.252,0,0,0-2.455,1.97,2.252,2.252,0,0,0,2.455,1.971" transform="translate(-356.834 -23.361)"/><path class="a" d="M356.856,71.7H415.5a1.98,1.98,0,1,0,0-3.941H356.856a1.98,1.98,0,1,0,0,3.941" transform="translate(-354.679 -20.963)"/><path class="a" d="M355.225,50.3l4.175,4.176a1.865,1.865,0,0,0,2.635,0l9.892-9.893a1.863,1.863,0,0,0-2.635-2.635l-8.574,8.576-2.859-2.858a1.863,1.863,0,1,0-2.634,2.634Z" transform="translate(-354.679 -23.438)"/></g></g></svg>