<svg xmlns="http://www.w3.org/2000/svg" width="37.953" height="32.2" viewBox="0 0 37.953 32.2"><defs><style>.a{fill:#6d6d6d;}</style></defs><g transform="translate(1383.136 -671.793)"><path class="a" d="M-1345.942,671.793h-27.241a1.855,1.855,0,0,0-1.855,1.855v20.179a1.855,1.855,0,0,0,1.855,1.855h27.241a1.855,1.855,0,0,0,1.855-1.855V673.648A1.855,1.855,0,0,0-1345.942,671.793Zm-19.762,11.474h-3.746a1.136,1.136,0,0,1-1.136-1.136,1.136,1.136,0,0,1,1.136-1.136h3.746a1.136,1.136,0,0,1,1.136,1.136A1.136,1.136,0,0,1-1365.7,683.267Zm0-4.749h-3.746a1.136,1.136,0,0,1-1.136-1.136,1.136,1.136,0,0,1,1.136-1.136h3.746a1.136,1.136,0,0,1,1.136,1.136A1.136,1.136,0,0,1-1365.7,678.518Zm15.892,7.976h-1.738V690a1.136,1.136,0,0,1-1.136,1.136,1.136,1.136,0,0,1-1.136-1.136v-3.505h-1.739a1.27,1.27,0,0,1-1.038-2l2.874-4.082a1.27,1.27,0,0,1,2.077,0l2.875,4.082A1.27,1.27,0,0,1-1349.813,686.494Z" transform="translate(-4.597)"/><path class="a" d="M-1345.184,733.1a1.855,1.855,0,0,0-1.855-1.845h-34.242a1.855,1.855,0,0,0-1.855,1.845h0v2.794a1.855,1.855,0,0,0,1.855,1.855h3.536a1.855,1.855,0,0,0,1.855-1.855v-.279h8.106v.279a1.855,1.855,0,0,0,1.855,1.855h3.536a1.855,1.855,0,0,0,1.855-1.855v-.279h8.107v.279a1.855,1.855,0,0,0,1.855,1.855h3.536a1.855,1.855,0,0,0,1.855-1.855V733.1Z" transform="translate(0 -33.755)"/></g></svg>