<svg xmlns="http://www.w3.org/2000/svg" width="36.042" height="41.928" viewBox="0 0 36.042 41.928"><defs><style>.a{fill:#6d6d6d;stroke:rgba(0,0,0,0);}</style></defs><path class="a" d="M674.983,96.883s-.74-13.5-11.2-17.426c.767-.943,1.507-1.9,2.207-2.878a22.361,22.361,0,0,0,2.4-4.021c.528-1.212.776-2.8-.509-3.779a2.333,2.333,0,0,0-.364-.225c-.025-.016-.049-.033-.074-.048-1.238-.744-3.059-.523-4.443-.248a27.452,27.452,0,0,0-3.3.953c-.755.251-1.521.491-2.3.679a3.428,3.428,0,0,1-2.574-.109c-.279-.124-.555-.249-.841-.361a7.153,7.153,0,0,0-2.712-.554,5.456,5.456,0,0,0-4.435,2.05,2.922,2.922,0,0,0,.024,3.3,19.591,19.591,0,0,0,3.874,4.3q.446.419.9.832c-10.738,3.781-11.491,17.534-11.491,17.534s-1.393,12.055,17.421,12.055C677.4,108.938,674.983,96.883,674.983,96.883Z" transform="translate(-639.589 -67.511)"/></svg>