<svg xmlns="http://www.w3.org/2000/svg" width="37.918" height="41.753" viewBox="0 0 37.918 41.753"><defs><style>.a{fill:#6d6d6d;stroke:rgba(0,0,0,0);}</style></defs><path class="a" d="M-148.837,534.07a14.693,14.693,0,0,0-12.434-11.356V520.7l1.448-1.448a1.127,1.127,0,0,0-.8-1.923h-5.721a1.127,1.127,0,0,0-.8,1.923l1.448,1.448v2.013a14.6,14.6,0,0,0-5.989,2.177,6.361,6.361,0,0,0-1.844-4.032,6.361,6.361,0,0,0-4.509-1.867,6.362,6.362,0,0,0-4.509,1.867,6.362,6.362,0,0,0-1.867,4.509v22.167a1.335,1.335,0,0,0,1.335,1.335,1.335,1.335,0,0,0,1.335-1.335V525.368a3.687,3.687,0,0,1,1.085-2.62,3.688,3.688,0,0,1,2.62-1.085,3.689,3.689,0,0,1,2.621,1.085,3.689,3.689,0,0,1,1.085,2.62v1.681a14.65,14.65,0,0,0-3.8,7.021,2.346,2.346,0,0,0-1.347,2.121,2.344,2.344,0,0,0,.993,1.915v18.307a1.669,1.669,0,0,0,1.669,1.669h26.659a1.669,1.669,0,0,0,1.669-1.669V538.107a2.344,2.344,0,0,0,.992-1.915A2.346,2.346,0,0,0-148.837,534.07Zm-3.382,20.761H-174.73a1.381,1.381,0,0,1-1.381-1.381,1.381,1.381,0,0,1,1.381-1.381h22.512a1.381,1.381,0,0,1,1.381,1.381A1.381,1.381,0,0,1-152.218,554.831Zm0-7.009H-174.73a1.381,1.381,0,0,1-1.381-1.381,1.381,1.381,0,0,1,1.381-1.381h22.512a1.381,1.381,0,0,1,1.381,1.381A1.381,1.381,0,0,1-152.218,547.822Zm0-7.009H-174.73a1.381,1.381,0,0,1-1.381-1.381,1.381,1.381,0,0,1,1.381-1.381h22.512a1.381,1.381,0,0,1,1.381,1.381A1.381,1.381,0,0,1-152.218,540.813Z" transform="translate(184.908 -516.829)"/></svg>