<svg xmlns="http://www.w3.org/2000/svg" width="27.101" height="36.8" viewBox="0 0 27.101 36.8"><defs><style>.a{fill:#d6d6d6;}</style></defs><g transform="translate(0)"><path class="a" d="M94.992,27.424a4.445,4.445,0,0,1-4.44-4.44V9.805a4.426,4.426,0,0,1,3.985-4.419l.358-.036V-.169A9.218,9.218,0,0,1,104.1-9.376a9.218,9.218,0,0,1,9.207,9.207V5.35l.358.036a4.425,4.425,0,0,1,3.985,4.419V22.984a4.445,4.445,0,0,1-4.44,4.44Zm0-19.593a1.977,1.977,0,0,0-1.974,1.974V22.984a1.976,1.976,0,0,0,1.974,1.974h18.22a1.976,1.976,0,0,0,1.974-1.974V9.805a1.976,1.976,0,0,0-1.974-1.974ZM104.1-6.91A6.749,6.749,0,0,0,97.361-.169V5.357h13.482V-.169A6.749,6.749,0,0,0,104.1-6.91Z" transform="translate(-90.552 9.376)"/><path class="a" d="M122.69,58.13a1.234,1.234,0,0,1-1.233-1.233V53.69a1.233,1.233,0,1,1,2.466,0V56.9A1.234,1.234,0,0,1,122.69,58.13Z" transform="translate(-109.14 -27.814)"/></g></svg>