<?xml version="1.0" encoding="utf-8"?>
<!-- Generator: Adobe Illustrator 23.0.1, SVG Export Plug-In . SVG Version: 6.00 Build 0)  -->
<svg version="1.1" id="teksty" xmlns="http://www.w3.org/2000/svg" xmlns:xlink="http://www.w3.org/1999/xlink" x="0px" y="0px"
	 viewBox="0 0 11.9999 24.9996" style="enable-background:new 0 0 11.9999 24.9996;" xml:space="preserve">
<style type="text/css">
	.st0{fill-rule:evenodd;clip-rule:evenodd;fill:#999999;}
</style>
<g>
	<g>
		<path class="st0" d="M11.99988,5.99969C11.99988,2.68646,9.31299,0,6.00043,0C2.68646,0,0,2.68646,0,5.99969
			c0,2.61108,1.67102,4.8266,3.99976,5.65137v12.34882l1.00146,0.99969l4.99805-3.99982L7,18.99988l2.99927-2.00049L7,14.99951
			l2.00061-1.99994L8.00012,12v-0.34882C10.32843,10.82654,11.99988,8.6109,11.99988,5.99969z M6.00043,1.99988
			c1.10394,0,1.99969,0.89569,1.99969,1.99988c0,1.10474-0.89575,1.99994-1.99969,1.99994
			c-1.10492,0-2.00067-0.8952-2.00067-1.99994C3.99976,2.89557,4.89551,1.99988,6.00043,1.99988z"/>
	</g>
</g>
</svg>
