<?xml version="1.0" encoding="utf-8"?>
<!-- Generator: Adobe Illustrator 23.0.1, SVG Export Plug-In . SVG Version: 6.00 Build 0)  -->
<svg version="1.1" id="grafika" xmlns="http://www.w3.org/2000/svg" xmlns:xlink="http://www.w3.org/1999/xlink" x="0px" y="0px"
	 viewBox="0 0 40 22" style="enable-background:new 0 0 40 22;" xml:space="preserve">
<style type="text/css">
	.st0{fill:#FFFFFF;}
</style>
<path class="st0" d="M27,3h4v4h-4V3z M28,9v4h-4V9H28z M21,3h4v4h-4V3z M22,9v4h-4V9H22z M15,3h4v4h-4V3z M16,9v4h-4V9H16z M9,3h4v4
	H9V3z M3,3h4v4H3V3z M3,9h7v4H3V9z M7,19H3v-4h4V19z M31,19H9v-4h22V19z M37,19h-4v-4h4V19z M37,13h-7V9h7V13z M37,7h-4V3h4V7z
	 M3,22h34c1.65685,0,3-1.34315,3-3V3c0-1.65685-1.34315-3-3-3H3C1.34315,0,0,1.34315,0,3v16C0,20.65685,1.34315,22,3,22z"/>
</svg>
