<?xml version="1.0" encoding="utf-8"?>
<!-- Generator: Adobe Illustrator 23.0.1, SVG Export Plug-In . SVG Version: 6.00 Build 0)  -->
<svg version="1.1" id="grafika" xmlns="http://www.w3.org/2000/svg" xmlns:xlink="http://www.w3.org/1999/xlink" x="0px" y="0px"
	 viewBox="0 0 107 90" style="enable-background:new 0 0 107 90;" xml:space="preserve">
<style type="text/css">
	.st0{fill:#5AB400;}
	.st1{display:none;}
	.st2{display:inline;fill:#5AB400;}
</style>
<g>
	<path class="st0" d="M20.0635,35.83387c0.13184-3.44922,2.02881-6.07812,4.85986-6.77441l23.87891-8.60718
		c-0.73804-1.45691-1.86481-2.63782-3.17261-3.11383c-0.93427-0.34003-1.8103-0.26935-2.53766,0.11914L14.38986,27.80335
		c-1.51611,0.30493-2.62286,1.81116-2.70642,4.00323c-0.11359,2.98077,1.70453,6.09247,4.06097,6.95013
		c0.90668,0.33002,1.75952,0.27502,2.47394-0.08337l1.9884-0.71674C20.09115,37.25916,20.03628,36.54823,20.0635,35.83387z"/>
	<path class="st0" d="M31.37756,39.99817c0.13184-3.44922,2.02881-6.07812,4.85986-6.77441l23.87891-8.60718
		c-0.73804-1.45691-1.86481-2.63782-3.17261-3.11383c-0.93427-0.34003-1.8103-0.26935-2.53766,0.11914L25.70391,31.96765
		c-1.51611,0.30493-2.62286,1.81116-2.70642,4.00324c-0.11359,2.98077,1.70453,6.09247,4.06097,6.95013
		c0.90668,0.33002,1.75952,0.27502,2.47394-0.08337l1.9884-0.71674C31.40521,41.42346,31.35034,40.71252,31.37756,39.99817z"/>
	<path class="st0" d="M69.09975,40.00642l-27.03278,9.74463c-0.76855,0.35156-1.59082,0.53027-2.44824,0.53027
		c-0.69086,0-1.38635-0.12921-2.07147-0.36212l-0.46545,0.16779c-1.51611,0.30493-2.62286,1.81116-2.70642,4.00323
		c-0.11359,2.98077,1.70453,6.09247,4.06097,6.95013c0.90668,0.33002,1.75952,0.27502,2.47394-0.08337l28.87225-10.40704
		c1.46094-0.35315,2.51849-1.83746,2.6001-3.97766C72.4833,43.93024,71.06387,41.19349,69.09975,40.00642z"/>
	<path class="st0" d="M72.38265,32.59412c0.11359-2.98083-1.70459-6.09247-4.06104-6.9502
		c-0.93427-0.34003-1.8103-0.26935-2.53766,0.11914L37.08181,36.10883c-1.51611,0.30493-2.62286,1.81116-2.70642,4.00323
		c-0.11359,2.98077,1.70453,6.09247,4.06097,6.95013c0.90668,0.33002,1.75952,0.27502,2.47394-0.08337l28.87225-10.40704
		C71.24349,36.21864,72.30105,34.73432,72.38265,32.59412z"/>
	
		<ellipse transform="matrix(0.94063 -0.33944 0.33944 0.94063 -15.86322 12.31249)" class="st0" cx="27.26419" cy="51.50196" rx="4.03197" ry="5.79066"/>
	
		<ellipse transform="matrix(0.94063 -0.33944 0.33944 0.94063 -15.13305 8.20445)" class="st0" cx="15.88627" cy="47.36074" rx="4.03197" ry="5.79066"/>
	<g class="st1">
		
			<ellipse transform="matrix(0.94063 -0.33944 0.33944 0.94063 -6.49243 24.96449)" class="st2" cx="68.11591" cy="31.04115" rx="4.03197" ry="5.79066"/>
		<polygon class="st2" points="36.37404,36.36398 65.84783,25.74008 70.384,36.35503 40.91019,46.97893 		"/>
		
			<ellipse transform="matrix(0.94063 -0.33944 0.33944 0.94063 -11.11844 11.48256)" class="st2" cx="27.26419" cy="37.52383" rx="4.03197" ry="5.79066"/>
		
			<ellipse transform="matrix(0.94063 -0.33944 0.33944 0.94063 -10.38827 7.37452)" class="st2" cx="15.88627" cy="33.38261" rx="4.03197" ry="5.79066"/>
		
			<ellipse transform="matrix(0.94063 -0.33944 0.33944 0.94063 -11.8486 15.5906)" class="st2" cx="38.64212" cy="41.66506" rx="4.03197" ry="5.79066"/>
		
			<ellipse transform="matrix(0.94063 -0.33944 0.33944 0.94063 -5.0321 16.74842)" class="st2" cx="45.36007" cy="22.75871" rx="4.03197" ry="5.79066"/>
		<polygon class="st2" points="13.61819,28.08153 43.09199,17.45763 47.62815,28.07258 18.15435,38.69648 		"/>
		
			<ellipse transform="matrix(0.94063 -0.33944 0.33944 0.94063 -5.76227 20.85646)" class="st2" cx="56.73799" cy="26.89993" rx="4.03197" ry="5.79066"/>
		<polygon class="st2" points="24.99611,32.22276 54.46991,21.59885 59.00607,32.2138 29.53227,42.83771 		"/>
	</g>
	<path class="st0" d="M71.19479,23.81257c2.60486,1.86938,4.32043,5.35693,4.18567,8.89551
		c-0.02631,0.68982-0.14154,1.3382-0.30536,1.95593l28.82349-10.38947c1.46094-0.35315,2.51849-1.83746,2.6001-3.97766
		c0.11359-2.98083-1.70459-6.09247-4.06104-6.95019c-0.93427-0.34003-1.8103-0.26935-2.53766,0.11914L71.19784,23.81159
		C71.1968,23.81184,71.19582,23.81232,71.19479,23.81257z"/>
	<path class="st0" d="M63.03854,23.56324l1.55969-0.56219c0.79541-0.38184,1.6499-0.5752,2.54443-0.5752
		c0.15393,0,0.30841,0.03015,0.46271,0.04187c0.75531-0.74658,1.68591-1.27997,2.74811-1.5412l23.87891-8.60718
		c-0.73804-1.45691-1.86481-2.63782-3.17261-3.11383c-0.93427-0.34003-1.8103-0.26935-2.53766,0.11914l-28.6521,10.3277
		C61.19851,20.60651,62.29952,21.97413,63.03854,23.56324z"/>
	<path class="st0" d="M51.66061,19.422l1.6236-0.58521c0.79541-0.38184,1.6499-0.5752,2.54443-0.5752
		c0.15387,0,0.30829,0.03015,0.46259,0.04187c0.75531-0.74658,1.68597-1.28003,2.74817-1.54126L82.9183,8.15504
		c-0.73804-1.45691-1.86481-2.63782-3.17261-3.11383c-0.93427-0.34003-1.8103-0.26935-2.53766,0.11914L48.50588,15.50611
		c-0.005,0.00104-0.00952,0.00348-0.01453,0.00452C49.82021,16.46479,50.92147,17.83259,51.66061,19.422z"/>
	<path class="st0" d="M103.21578,27.70918L72.36947,38.82813c1.92395,1.97113,3.12402,4.88971,3.01099,7.85809
		c-0.02631,0.68982-0.14154,1.3382-0.30536,1.95593l28.82349-10.38947c1.46094-0.35315,2.51849-1.83746,2.6001-3.97766
		C106.59933,31.633,105.17989,28.89625,103.21578,27.70918z"/>
	<path class="st0" d="M69.09975,53.98455l-27.03278,9.74463c-0.76855,0.35156-1.59082,0.53027-2.44824,0.53027
		c-0.69086,0-1.38635-0.12921-2.07147-0.36212l-0.46545,0.16778c-1.51611,0.30493-2.62286,1.81116-2.70642,4.00323
		c-0.11359,2.98077,1.70453,6.09247,4.06097,6.95013c0.90668,0.33002,1.75952,0.27502,2.47394-0.08337l28.87225-10.40704
		c1.46094-0.35315,2.51849-1.83746,2.6001-3.97766C72.4833,57.90837,71.06387,55.17162,69.09975,53.98455z"/>
	
		<ellipse transform="matrix(0.94063 -0.33944 0.33944 0.94063 -20.608 13.14242)" class="st0" cx="27.26419" cy="65.48009" rx="4.03197" ry="5.79066"/>
	
		<ellipse transform="matrix(0.94063 -0.33944 0.33944 0.94063 -19.87783 9.03438)" class="st0" cx="15.88627" cy="61.33886" rx="4.03197" ry="5.79066"/>
	<path class="st0" d="M8.6856,31.69268c0.13184-3.44922,2.02881-6.07812,4.85986-6.77441l23.87891-8.60718
		c-0.73804-1.45691-1.86481-2.63782-3.17261-3.11383c-0.93427-0.34003-1.8103-0.26935-2.53766,0.11914L3.01196,23.66216
		c-1.51611,0.30493-2.62286,1.81116-2.70642,4.00323c-0.11359,2.98077,1.70453,6.09247,4.06097,6.95014
		c0.90668,0.33002,1.75952,0.27502,2.47394-0.08337l1.9884-0.71674C8.71325,33.11798,8.65838,32.40704,8.6856,31.69268z"/>
	
		<ellipse transform="matrix(0.94063 -0.33944 0.33944 0.94063 -14.39128 4.11674)" class="st0" cx="4.57224" cy="43.19648" rx="4.03197" ry="5.79066"/>
	<path class="st0" d="M40.34658,15.25776l1.55969-0.56219c0.79541-0.38184,1.6499-0.5752,2.54443-0.5752
		c0.15393,0,0.30841,0.03015,0.46271,0.04187c0.75531-0.74658,1.68591-1.27997,2.74811-1.5412l23.87891-8.60718
		c-0.73804-1.45691-1.86481-2.63782-3.17261-3.11383c-0.93427-0.34003-1.8103-0.26935-2.53766,0.11914l-28.6521,10.3277
		C38.50655,12.30103,39.60757,13.66865,40.34658,15.25776z"/>
	
		<ellipse transform="matrix(0.94063 -0.33944 0.33944 0.94063 -19.13606 4.94667)" class="st0" cx="4.57224" cy="57.17461" rx="4.03197" ry="5.79066"/>
	<path class="st0" d="M103.21578,41.68731L72.36947,52.80626c1.92395,1.97113,3.12402,4.88971,3.01099,7.85809
		c-0.02631,0.68982-0.14154,1.3382-0.30536,1.95593l28.82349-10.38947c1.46094-0.35315,2.51849-1.83746,2.6001-3.97766
		C106.59933,45.61113,105.17989,42.87438,103.21578,41.68731z"/>
	<path class="st0" d="M69.03589,67.98574l-27.03277,9.74463c-0.76855,0.35156-1.59082,0.53027-2.44824,0.53027
		c-0.69086,0-1.38635-0.12921-2.07147-0.36212l-0.46545,0.16779c-1.51611,0.30493-2.62286,1.81116-2.70642,4.00323
		c-0.11359,2.98077,1.70453,6.09247,4.06097,6.95013c0.90668,0.33002,1.75952,0.27502,2.47394-0.08337l28.87225-10.40704
		c1.46094-0.35315,2.51849-1.83746,2.6001-3.97766C72.41943,71.90957,71,69.17281,69.03589,67.98574z"/>
	
		<ellipse transform="matrix(0.94063 -0.33944 0.33944 0.94063 -25.3644 13.95204)" class="st0" cx="27.20033" cy="79.48129" rx="4.03197" ry="5.79066"/>
	
		<ellipse transform="matrix(0.94063 -0.33944 0.33944 0.94063 -24.63423 9.844)" class="st0" cx="15.82241" cy="75.34006" rx="4.03197" ry="5.79066"/>
	<path class="st0" d="M103.15192,55.6885L72.3056,66.80746c1.92395,1.97113,3.12402,4.88971,3.01099,7.85809
		c-0.02631,0.68982-0.14154,1.3382-0.30536,1.95593l28.82349-10.38947c1.46094-0.35315,2.51849-1.83746,2.6001-3.97766
		C106.53546,59.61233,105.11603,56.87557,103.15192,55.6885z"/>
	
		<ellipse transform="matrix(0.94063 -0.33944 0.33944 0.94063 -23.89246 5.75629)" class="st0" cx="4.50838" cy="71.1758" rx="4.03197" ry="5.79066"/>
</g>
</svg>
