<?xml version="1.0" encoding="utf-8"?>
<!-- Generator: Adobe Illustrator 23.0.1, SVG Export Plug-In . SVG Version: 6.00 Build 0)  -->
<svg version="1.1" id="grafika" xmlns="http://www.w3.org/2000/svg" xmlns:xlink="http://www.w3.org/1999/xlink" x="0px" y="0px"
	 viewBox="0 0 32 30" style="enable-background:new 0 0 32 30;" xml:space="preserve">
<style type="text/css">
	.st0{fill:#CCCCCC;}
</style>
<g>
	<polygon class="st0" points="13.2,21 23.6,15 13.2,9 13.2,13 0,13 0,17 13.2,17 	"/>
	<path class="st0" d="M17,0C12,0,7.3,2.5,4.5,6.7l3.3,2.2C9.9,5.8,13.3,4,17,4c6.1,0,11,4.9,11,11s-4.9,11-11,11
		c-3.7,0-7.1-1.8-9.1-4.9l-3.3,2.2C7.3,27.5,12,30,17,30c8.3,0,15-6.7,15-15S25.3,0,17,0z"/>
</g>
</svg>
