<?xml version="1.0" encoding="utf-8"?>
<!-- Generator: Adobe Illustrator 25.0.0, SVG Export Plug-In . SVG Version: 6.00 Build 0)  -->
<svg version="1.1" baseProfile="tiny" id="Layer_1" xmlns="http://www.w3.org/2000/svg" xmlns:xlink="http://www.w3.org/1999/xlink"
	 x="0px" y="0px" viewBox="0 0 141.1 140.3" overflow="visible" xml:space="preserve">
<g>
	<rect x="1.6" y="1.2" fill="none" width="137.8" height="117.1"/>
	<g id="Group_1596_1_">
		<path id="Path_4142_1_" fill-rule="evenodd" fill="#FFFFFF" d="M74.1,24.1c-1,0.7-4.2,5.2-4.2,9.2s2.1,5.9,4.2,5.9
			c2.1,0,4.2-2,4.2-5.9S75.1,24.8,74.1,24.1"/>
		<path id="Path_4143_1_" fill-rule="evenodd" fill="#FFFFFF" d="M54.2,31.7c-0.4,1.2,0.1,6.7,2.6,9.7c2.5,3,5.3,3.2,7,1.9
			c1.6-1.4,1.9-4.2-0.6-7.2C60.7,33.1,55.4,31.6,54.2,31.7"/>
		<path id="Path_4144_1_" fill-rule="evenodd" fill="#FFFFFF" d="M45.7,47.6c0.7,2.5,2.3,4.7,4.4,6.2c2.6,1.5,4.6,0.9,5.4-0.5
			c0.8-1.4,0.3-3.5-2.3-5C50.9,47.3,48.2,47,45.7,47.6"/>
		<path id="Path_4145_1_" fill-rule="evenodd" fill="#FFFFFF" d="M62.3,9.6c-1.2,2.1-1.5,4.6-1.1,7c0.8,2.7,2.5,3.6,4,3.2
			c1.4-0.4,2.4-2.2,1.7-4.8C66,12.8,64.4,10.8,62.3,9.6"/>
		<path id="Path_4146_1_" fill-rule="evenodd" fill="#FFFFFF" d="M42.9,21.2c-0.1,2.4,0.7,4.8,2.2,6.7c1.9,2,3.9,2.1,5,1.1
			c1.1-1,1.2-3-0.7-5C47.6,22.3,45.3,21.3,42.9,21.2"/>
		<path id="Path_4147_1_" fill-rule="evenodd" fill="#FFFFFF" d="M30.2,41.2c1.3,2.1,3.2,3.7,5.5,4.5c2.7,0.7,4.4-0.4,4.8-1.8
			c0.3-1.4-0.6-3.2-3.3-3.9C34.8,39.6,32.3,40,30.2,41.2"/>
		<path id="Path_4148_1_" fill-rule="evenodd" fill="#FFFFFF" d="M29.1,62.9c1.9,1.6,4.2,2.4,6.6,2.4c2.8-0.2,4-1.8,3.9-3.2
			c-0.1-1.5-1.6-2.8-4.4-2.6C32.9,59.9,30.7,61.1,29.1,62.9"/>
		<path id="Path_4149_1_" fill-rule="evenodd" fill="#FFFFFF" d="M63.4,25.7c-0.9,1.7-1.1,3.7-0.6,5.6c0.7,2.1,2.1,2.8,3.2,2.4
			c1.1-0.4,1.9-1.8,1.2-3.9C66.5,28,65.1,26.6,63.4,25.7"/>
		<path id="Path_4150_1_" fill-rule="evenodd" fill="#FFFFFF" d="M47.7,38.9c0.1,1.9,0.8,3.8,2.1,5.2c1.6,1.5,3.2,1.4,4,0.6
			c0.8-0.9,0.8-2.5-0.8-4C51.5,39.5,49.6,38.8,47.7,38.9"/>
		<path id="Path_4151_1_" fill-rule="evenodd" fill="#FFFFFF" d="M84.2,25.7c0.9,1.7,1.1,3.7,0.6,5.6c-0.7,2.1-2.1,2.8-3.2,2.4
			c-1.1-0.4-1.9-1.8-1.2-3.9C81.1,28,82.5,26.6,84.2,25.7"/>
		<path id="Path_4152_1_" fill-rule="evenodd" fill="#FFFFFF" d="M99.9,38.9c-0.1,1.9-0.8,3.8-2.1,5.2c-1.6,1.5-3.2,1.4-4,0.6
			c-0.8-0.9-0.8-2.5,0.8-4C96.1,39.5,98,38.8,99.9,38.9"/>
		<path id="Path_4153_1_" fill-rule="evenodd" fill="#FFFFFF" d="M93,31.7c0.4,1.2-0.1,6.7-2.6,9.7c-2.5,3-5.3,3.2-7,1.9
			c-1.6-1.4-1.9-4.2,0.6-7.2C86.4,33.1,91.8,31.6,93,31.7"/>
		<path id="Path_4154_1_" fill-rule="evenodd" fill="#FFFFFF" d="M101.5,47.6c-0.7,2.5-2.3,4.7-4.4,6.2c-2.6,1.5-4.6,0.9-5.4-0.5
			c-0.8-1.4-0.3-3.5,2.3-5C96.3,47.3,98.9,47,101.5,47.6"/>
		<path id="Path_4155_1_" fill-rule="evenodd" fill="#FFFFFF" d="M73.2,1.2c-1.3,0.9-5.3,6.7-5.3,11.7s2.6,7.5,5.3,7.6
			c2.7,0,5.3-2.5,5.3-7.6S74.5,2.1,73.2,1.2"/>
		<path id="Path_4156_1_" fill-rule="evenodd" fill="#FFFFFF" d="M49,8.9c-0.7,1.4-1.1,8.5,1.4,12.8s6.1,5.1,8.4,3.8
			c2.3-1.4,3.3-4.9,0.7-9.2S50.6,9,49,8.9"/>
		<path id="Path_4157_1_" fill-rule="evenodd" fill="#FFFFFF" d="M29.6,26.1c0,1.6,2.5,8.2,6.6,11c4.1,2.9,7.7,2.1,9.2-0.1
			c1.5-2.2,0.9-5.8-3.2-8.7S31.1,25.5,29.6,26.1"/>
		<path id="Path_4158_1_" fill-rule="evenodd" fill="#FFFFFF" d="M22,51.4c0.7,1.4,6.1,6,11.1,6.5c5,0.5,7.7-1.9,8.1-4.5
			c0.2-2.7-2-5.5-7-6C29.2,46.8,23,50.2,22,51.4"/>
		<path id="Path_4159_1_" fill-rule="evenodd" fill="#FFFFFF" d="M28.5,79.3c1.4,0.7,8.5,1,12.8-1.7c4.3-2.7,5-6.2,3.6-8.5
			c-1.5-2.3-5-3.2-9.2-0.5C31.3,71.2,28.5,77.7,28.5,79.3"/>
		<path id="Path_4160_1_" fill-rule="evenodd" fill="#FFFFFF" d="M118.1,79.3c-1.4,0.7-8.5,1-12.8-1.7c-4.3-2.7-5-6.2-3.6-8.5
			c1.5-2.3,5-3.2,9.2-0.5C115.2,71.2,118,77.7,118.1,79.3"/>
		<path id="Path_4161_1_" fill-rule="evenodd" fill="#FFFFFF" d="M84.2,9.6c1.2,2.1,1.5,4.6,1.1,7c-0.8,2.7-2.5,3.6-4,3.2
			c-1.4-0.4-2.4-2.2-1.7-4.8C80.4,12.8,82.1,10.8,84.2,9.6"/>
		<path id="Path_4162_1_" fill-rule="evenodd" fill="#FFFFFF" d="M103.5,21.2c0.1,2.4-0.7,4.8-2.2,6.7c-1.9,2-3.9,2.1-5,1.1
			c-1.1-1-1.2-3,0.7-5C98.8,22.3,101.1,21.3,103.5,21.2"/>
		<path id="Path_4163_1_" fill-rule="evenodd" fill="#FFFFFF" d="M116.2,41.2c-1.3,2.1-3.2,3.7-5.5,4.5c-2.7,0.7-4.4-0.4-4.8-1.8
			c-0.3-1.4,0.6-3.2,3.3-3.9C111.6,39.6,114.1,40,116.2,41.2"/>
		<path id="Path_4164_1_" fill-rule="evenodd" fill="#FFFFFF" d="M117.3,62.9c-1.9,1.6-4.2,2.4-6.6,2.4c-2.8-0.2-4-1.8-3.9-3.2
			c0.1-1.5,1.6-2.8,4.4-2.6C113.5,59.9,115.7,61.1,117.3,62.9"/>
		<path id="Path_4165_1_" fill-rule="evenodd" fill="#FFFFFF" d="M97.4,8.9c0.7,1.4,1.1,8.5-1.4,12.8c-2.6,4.3-6.1,5.1-8.4,3.8
			c-2.3-1.4-3.3-4.9-0.7-9.2S95.8,9,97.4,8.9"/>
		<path id="Path_4166_1_" fill-rule="evenodd" fill="#FFFFFF" d="M116.8,26.1c0,1.6-2.5,8.2-6.6,11c-4.1,2.9-7.7,2.1-9.2-0.1
			c-1.5-2.2-0.9-5.8,3.2-8.7S115.3,25.5,116.8,26.1"/>
		<path id="Path_4167_1_" fill-rule="evenodd" fill="#FFFFFF" d="M124.4,51.4c-0.7,1.4-6.1,6-11.1,6.5c-5,0.5-7.7-1.9-8.1-4.5
			c-0.2-2.7,2-5.5,7-6C117.3,46.8,123.4,50.2,124.4,51.4"/>
		<path id="Path_4168_1_" fill-rule="evenodd" fill="#FFFFFF" d="M52.8,72.5c1.2,1.2,2.5,2.2,4,2.9c0.4,0.2,0.7,0.5,0.9,1
			c1.1,2.3,4.3,8.6,6.7,13.4c2.5-0.2,5.1-0.4,7.9-0.4l-8.9-16.8c-0.2-0.3-0.3-0.7-0.3-1.1c-0.2-2.3-0.8-4.6-1.6-6.7
			c-0.1-2.5,0.1-5.5-0.1-6.7c-0.1-1.4-1.2-1.2-1.3-0.2c-0.2,2.2-0.3,4.1-0.4,4.9c-0.1,0.7,0,1.3-0.4,0.9c-0.7-0.9-2-7.2-2.5-8.1
			c-0.5-0.9-1.6-0.7-1.4,0.8c0.4,2.4,1.4,6.9,1.5,7.2c0.1,0.3,0,0.6-0.3,0.4c-0.2-0.2-3.4-7.5-3.9-8.2c-0.4-0.7-1.6-0.7-1.5,0.7
			c0.1,1.3,3.4,8.3,3.4,8.4c0,0.1-0.2,0.3-0.3,0.3c-1.3-1.2-2.4-2.5-3.4-4c-1.3-2-2.4-3.1-3-2.5c-0.6,0.6,0.7,2.2,1.3,3.2
			c0.5,0.9,2.4,3.4,3.1,4.4l0,0c2.2,1,4.2,2.3,6,3.9c2.1,1.9-2.5,0.3-4.2-0.4c-0.4-0.2-0.9-0.4-1.2-0.8c-0.8-0.9-1.8-1.7-2.7-2.4
			c-0.6-0.5-1.5-0.6-2.3-0.4c-0.2,0.1-0.4,0.3-0.3,0.6c0,0.1,0.1,0.2,0.2,0.2C49.5,68.8,51.2,70.6,52.8,72.5"/>
		<path id="Path_4169_1_" fill-rule="evenodd" fill="#FFFFFF" d="M84.1,89.8c2.1-4.1,4.6-9,5.4-10.9c0.2-0.4,0.5-0.7,0.8-0.9
			c1.4-0.7,2.7-1.6,3.7-2.7c1.5-1.8,3-3.5,4.8-5c0.2-0.1,0.2-0.4,0.1-0.6c-0.1-0.1-0.1-0.1-0.2-0.2c-0.7-0.2-1.5-0.1-2.1,0.3
			c-0.9,0.7-1.8,1.4-2.6,2.2c-0.3,0.3-0.7,0.6-1.1,0.7c-1.6,0.6-5.9,2.2-3.9,0.4c1.7-1.5,3.6-2.7,5.6-3.6l0,0c0.6-1,2.4-3.3,2.9-4.1
			c0.6-0.9,1.7-2.4,1.2-3c-0.6-0.5-1.6,0.5-2.8,2.3c-0.9,1.4-1.9,2.6-3.2,3.7c-0.1-0.1-0.3-0.2-0.3-0.3s3.1-6.6,3.2-7.8
			c0.1-1.2-1-1.3-1.4-0.6c-0.4,0.6-3.4,7.5-3.6,7.6c-0.2,0.2-0.3-0.2-0.3-0.4c0.1-0.2,1-4.5,1.4-6.7c0.2-1.3-0.9-1.5-1.3-0.7
			c-0.5,0.8-1.7,6.6-2.3,7.5c-0.4,0.3-0.3-0.2-0.4-0.8c-0.1-0.7-0.2-2.4-0.4-4.5c-0.1-1-1.1-1.2-1.3,0.1c-0.1,1.1,0.1,3.9-0.1,6.2
			c-0.8,2-1.3,4.1-1.5,6.3c0,0.4-0.1,0.7-0.3,1l-7.4,14C79.3,89.4,81.8,89.5,84.1,89.8"/>
		<path id="Path_4170_1_" fill-rule="evenodd" fill="#FFFFFF" d="M66.1,61.1c0.6,2,1.6,3.9,2.8,5.6c0.3,0.5,0.5,1,0.5,1.6
			c-0.2,3.5-0.2,14.1-0.2,21c1.6-0.1,3.2-0.1,4.8-0.1c1.5,0,3,0,4.4,0.1l-0.2-22c0-0.5,0.1-1,0.3-1.4c1.1-2.8,1.8-5.7,2.1-8.6
			c1.3-2.9,3.3-6.2,3.8-7.6c0.7-1.7-0.7-2.1-1.4-1c-1.5,2.4-2.7,4.5-3.3,5.3c-0.5,0.7-0.8,1.4-1,0.8c-0.3-1.5,1.9-9.3,1.8-10.6
			c-0.1-1.3-1.5-1.7-2.1,0.1c-1,2.9-2.5,8.6-2.5,9c-0.1,0.3-0.4,0.7-0.6,0.3S75.9,43,75.7,42c-0.1-1-1.5-1.7-2.1-0.1
			c-0.7,1.6-1,11.4-1,11.5c0,0.2-0.3,0.2-0.5,0.2s-1.2-3.4-1.5-6.5c-0.3-3-0.9-4.9-1.9-4.6s-0.5,2.8-0.4,4.3
			c0.1,1.3,0.8,5.2,0.9,6.8l0,0c1.9,2.4,3.5,5,4.6,7.9c1.2,3.4-3-1.2-4.6-2.9c-0.4-0.5-0.7-1-0.9-1.6c-0.5-1.5-1-2.9-1.7-4.3
			c-0.5-0.9-1.3-1.6-2.4-1.8c-0.3-0.1-0.6,0.2-0.7,0.5c0,0.1,0,0.2,0.1,0.4C64.5,54.2,65.5,58.5,66.1,61.1"/>
		<path id="Path_4171_1_" fill="#FFFFFF" d="M29.1,93.9c0-0.7,0.6-1.3,1.3-1.3v-0.8h-7l-7.5,19.2L8.4,91.7H1.6v0.8
			c0.7,0,1.1,0.8,1.3,1.3v22.3c0,0.7-0.6,1.3-1.3,1.3v0.8h4.2v-0.8c-0.7,0-1.3-0.6-1.3-1.3V97.7l8.1,20.6h2.1l8.8-22.7v20.6
			c0,0.7-0.6,1.3-1.3,1.3v0.8h8.3v-0.8c-0.7-0.1-1.3-0.6-1.3-1.3L29.1,93.9z M46,91.7h-2.1l-9.5,24.5c-0.2,0.6-0.7,1.3-1.3,1.3v0.8
			h2l2.7-6.9L38,111l0.3-0.7c0.3-0.6,0.7-1.2,1.3-1.2h6.1c0.7,0,1.1,0.7,1.4,1.3l0.3,0.9l2.7,6.9h6.8v-0.8c-0.7,0-1.1-0.8-1.3-1.3
			L46,91.7z M39.6,108.4c-0.7,0-0.3-0.6-0.1-1.2l0.7-1.7l2.5-6.3l2.8,7.2l0.3,0.9l0.1,0.3l0,0.1c0.2,0.4,0.2,0.7-0.3,0.7L39.6,108.4
			z"/>
		<path id="Path_4172_1_" fill="#FFFFFF" d="M79.9,112.3h-1.6c0,2.5-1.4,5.2-5,5.2h-5.5c-0.7-0.1-1.3-0.6-1.3-1.3V93.9
			c0-0.7,0.6-1.3,1.3-1.3v-0.8h-8.3v0.8c0.7,0,1.3,0.6,1.3,1.3v22.3c0,0.7-0.6,1.3-1.3,1.3v0.8h20.4L79.9,112.3z"/>
		<path id="Path_4173_1_" fill="#FFFFFF" d="M103,112.3h-1.6c0,2.5-1.4,5.2-5,5.2h-5.5c-0.7-0.1-1.3-0.6-1.3-1.3v-10.1
			c0-0.7,0.6-1.3,1.3-1.3h3c1.6,0,3.1,0.7,3.1,3.1h0.8v-7H97c0,2.4-1.5,3.1-3.1,3.1h-3c-0.7,0-1.3-0.6-1.3-1.3v-8.7
			c0-0.7,0.6-1.3,1.3-1.3h5.2c3.6,0,5,2.7,5,5.2h1.6v-6h-20v0.8c0.7,0,1.3,0.6,1.3,1.3v22.3c0,0.7-0.6,1.3-1.3,1.3v0.8H103V112.3z"
			/>
		<path id="Path_4174_1_" fill="#FFFFFF" d="M120.4,102.7c3.1-0.7,4.9-2.2,4.9-5.2c0-4.5-4-5.8-10.8-5.8h-8.8v0.8
			c0.7,0,1.3,0.6,1.3,1.3v22.3c0,0.7-0.6,1.3-1.3,1.3v0.8h9.9c6.1,0,12.7-1.2,12.7-8C128.2,105.4,124.6,103.4,120.4,102.7
			 M112.6,93.9c0-0.7,0.6-1.3,1.3-1.3h0.5c3.4,0,4.9,1.6,4.9,5c0,3.4-1.4,4.8-4.9,4.8h-0.5c-0.7-0.1-1.3-0.6-1.3-1.3V93.9z
			 M113.9,117.5c-0.7-0.1-1.3-0.6-1.3-1.3v-11.7c0-0.7,0.6-1.3,1.3-1.3h1.6c3.7,0,6.7,2.4,6.7,7.2s-3,7.2-6.7,7.2L113.9,117.5z"/>
		<path id="Path_4175_1_" fill="#FFFFFF" d="M138.1,93.9c0-0.7,0.6-1.3,1.3-1.3v-0.8h-8.3v0.8c0.7,0,1.3,0.6,1.3,1.3v22.3
			c0,0.7-0.6,1.3-1.3,1.3v0.8h8.3v-0.8c-0.7-0.1-1.3-0.6-1.3-1.3V93.9z"/>
	</g>
	<g>
		<path fill="#FFFFFF" d="M26.6,131.4l-1.9,0.1c-0.2-1.2-1-2-2.5-2c-1.7,0-2.7,1.2-2.7,4c0,2.8,1,4.1,2.8,4.1c1.2,0,2.1-0.9,2.4-2.1
			l1.9,0.1c-0.2,1.9-1.6,3.5-4.3,3.5c-3,0-4.8-2.2-4.8-5.7c0-3.4,1.8-5.6,4.8-5.6C24.7,127.9,26.3,129.4,26.6,131.4z"/>
		<path fill="#FFFFFF" d="M28.4,127.7h1.8v4.5c0.4-0.6,1.1-1.1,2.3-1.1c1.5,0,2.7,1,2.7,2.4v5.5h-1.8v-5.2c0-0.8-0.6-1.2-1.5-1.2
			c-0.9,0-1.7,0.5-1.7,1.3v5.1h-1.8V127.7z"/>
		<path fill="#FFFFFF" d="M36.9,136.8c0-1.7,1.2-2.6,3.9-2.6l1.2,0v-0.5c0-0.9-0.6-1.3-1.5-1.3c-0.7,0-1.5,0.4-1.7,1.1h-1.6
			c0.1-1.5,1.4-2.4,3.3-2.4c2.2,0,3.2,1,3.2,2.5v5.5h-1.6l-0.2-1.4c-0.6,1.2-1.4,1.5-2.5,1.5C38,139.1,36.9,138.3,36.9,136.8z
			 M42,136.4v-1.2l-1,0c-1.4,0-2.4,0.4-2.4,1.4c0,0.8,0.6,1.3,1.4,1.3C41,137.9,42,137.1,42,136.4z"/>
		<path fill="#FFFFFF" d="M45.9,131.1h1.8v1.7c0.4-1,1.3-1.8,2.8-1.8l0,1.8c-2.1-0.1-2.7,0.7-2.7,1.7v4.5h-1.8V131.1z"/>
		<path fill="#FFFFFF" d="M58.2,133.8l-1.6,0c-0.2-0.8-0.7-1.4-1.6-1.4c-1.2,0-2,1-2,2.6c0,1.7,0.8,2.7,2,2.7c0.9,0,1.4-0.7,1.6-1.4
			h1.5c-0.2,1.7-1.5,2.7-3.2,2.7c-2.2,0-3.7-1.6-3.7-4c0-2.4,1.5-4.1,3.7-4.1C56.8,131,58,132.2,58.2,133.8z"/>
		<path fill="#FFFFFF" d="M59.4,135.1c0-2.4,1.5-4.1,3.7-4.1c2.3,0,3.7,1.7,3.7,4.1c0,2.4-1.4,4-3.7,4
			C60.8,139.1,59.4,137.5,59.4,135.1z M65,135c0-1.4-0.5-2.7-1.9-2.7c-1.4,0-1.9,1.2-1.9,2.7c0,1.4,0.5,2.7,1.9,2.7
			C64.5,137.7,65,136.5,65,135z"/>
		<path fill="#FFFFFF" d="M68,136.8c0-1.7,1.2-2.6,3.9-2.6l1.2,0v-0.5c0-0.9-0.6-1.3-1.5-1.3c-0.7,0-1.5,0.4-1.7,1.1h-1.6
			c0.1-1.5,1.4-2.4,3.3-2.4c2.2,0,3.2,1,3.2,2.5v5.5h-1.6l-0.2-1.4c-0.6,1.2-1.4,1.5-2.5,1.5C69.1,139.1,68,138.3,68,136.8z
			 M73.1,136.4v-1.2l-1,0c-1.4,0-2.4,0.4-2.4,1.4c0,0.8,0.6,1.3,1.4,1.3C72.1,137.9,73.1,137.1,73.1,136.4z"/>
		<path fill="#FFFFFF" d="M77.1,136.9v-9.1h1.8v8.9c0,0.7,0.3,1.1,0.9,1.1l0.4,0v1.2c-0.3,0.1-0.6,0.2-0.8,0.2
			C77.3,139.1,77.1,138,77.1,136.9z"/>
		<path fill="#FFFFFF" d="M81.2,128h8.5v1.7h-3.3v9.3h-1.8v-9.3h-3.4V128z"/>
		<path fill="#FFFFFF" d="M90.6,131.1h1.8v1.7c0.4-1,1.3-1.8,2.8-1.8l0,1.8c-2.1-0.1-2.7,0.7-2.7,1.7v4.5h-1.8V131.1z"/>
		<path fill="#FFFFFF" d="M96.2,136.8c0-1.7,1.2-2.6,3.9-2.6l1.2,0v-0.5c0-0.9-0.6-1.3-1.5-1.3c-0.7,0-1.5,0.4-1.7,1.1h-1.6
			c0.1-1.5,1.4-2.4,3.3-2.4c2.2,0,3.2,1,3.2,2.5v5.5h-1.6l-0.2-1.4c-0.6,1.2-1.4,1.5-2.5,1.5C97.3,139.1,96.2,138.3,96.2,136.8z
			 M101.3,136.4v-1.2l-1,0c-1.4,0-2.4,0.4-2.4,1.4c0,0.8,0.6,1.3,1.4,1.3C100.3,137.9,101.3,137.1,101.3,136.4z"/>
		<path fill="#FFFFFF" d="M111.5,133.8l-1.6,0c-0.2-0.8-0.7-1.4-1.6-1.4c-1.2,0-2,1-2,2.6c0,1.7,0.8,2.7,2,2.7
			c0.9,0,1.4-0.7,1.6-1.4h1.5c-0.2,1.7-1.5,2.7-3.2,2.7c-2.2,0-3.7-1.6-3.7-4c0-2.4,1.5-4.1,3.7-4.1
			C110.1,131,111.4,132.2,111.5,133.8z"/>
		<path fill="#FFFFFF" d="M116.5,137.8c0.9,0,1.5-0.4,1.8-1.2h1.7c-0.3,1.7-1.8,2.5-3.4,2.5c-2.2,0-3.8-1.5-3.8-4
			c0-2.4,1.4-4.1,3.7-4.1c2.3,0,3.5,1.6,3.5,3.9v0.6h-5.4C114.6,136.8,115.3,137.8,116.5,137.8z M118.3,134.3c0-1.1-0.6-2-1.8-2
			c-1.2,0-1.9,1-1.8,2H118.3z"/>
	</g>
</g>
</svg>
