<svg xmlns="http://www.w3.org/2000/svg" xmlns:xlink="http://www.w3.org/1999/xlink" width="246.526" height="254" viewBox="0 0 246.526 254"><defs><style>.a{fill:none;}.b{clip-path:url(#a);}.c{fill:#1c5723;}.c,.d,.e{fill-rule:evenodd;}.d,.h{fill:#a3bd04;}.e,.f,.g{fill:#f67912;}.g{font-size:28px;font-family:PublicSans-SemiBold, Public Sans;font-weight:600;}</style><clipPath id="a"><rect class="a" width="246.526" height="209.525"/></clipPath></defs><g transform="translate(-117 -322)"><g transform="translate(117 322)"><g class="b"><path class="c" d="M102.864,32.043c-1.845,1.225-7.463,9.378-7.463,16.415s3.688,10.529,7.463,10.6c3.771-.07,7.457-3.571,7.457-10.6s-5.617-15.189-7.457-16.415" transform="translate(26.75 8.985)"/><path class="c" d="M73.427,42.694c-.635,2.127.239,11.984,4.726,17.4s9.558,5.762,12.509,3.406c2.86-2.46,3.466-7.507-1.02-12.923s-14.01-8.107-16.215-7.883" transform="translate(20.537 11.967)"/><path class="c" d="M61.539,65.048c.1,1.671,3.291,8.422,7.873,11.088s8.262,1.59,9.737-.845c1.385-2.485.506-6.216-4.082-8.882s-12.028-2.1-13.529-1.361" transform="translate(17.255 18.067)"/><path class="d" d="M85.188,11.82c-1.01,1.181-3.246,7.773-1.9,12.525s4.512,6.411,7.078,5.736c2.535-.771,4.356-3.846,3.005-8.6S86.668,12.3,85.188,11.82" transform="translate(23.236 3.314)"/><path class="d" d="M57.645,27.927c-.37,1.511.585,8.4,3.926,12.049s6.908,3.707,8.9,1.95c1.921-1.825,2.17-5.387-1.166-9.032s-10.118-5.2-11.658-4.967" transform="translate(16.142 7.824)"/><path class="d" d="M39.938,56.5c.51,1.471,5.056,6.737,9.837,7.983s7.818-.635,8.533-3.191c.621-2.576-1.1-5.708-5.886-6.953S41.1,55.461,39.938,56.5" transform="translate(11.198 15.136)"/><path class="d" d="M38.391,87.575c.955,1.225,6.962,4.736,11.894,4.366s7.182-3.136,7.032-5.781c-.246-2.641-2.891-5.046-7.818-4.672S39.15,86.219,38.391,87.575" transform="translate(10.765 22.838)"/><path class="d" d="M86.6,34.211c-.766.971-2.321,6.276-1.1,10.008s3.8,4.947,5.812,4.326c1.991-.7,3.337-3.2,2.106-6.927s-5.632-7.082-6.822-7.407" transform="translate(23.848 9.593)"/><path class="d" d="M64.291,52.643c-.215,1.215.89,6.636,3.721,9.357s5.667,2.592,7.157,1.1c1.435-1.545,1.451-4.387-1.38-7.107s-8.288-3.621-9.5-3.351" transform="translate(18.019 14.748)"/><path class="d" d="M116.895,34.211c.761.971,2.32,6.276,1.091,10.008s-3.79,4.947-5.813,4.326c-1.99-.7-3.33-3.2-2.1-6.927s5.631-7.082,6.827-7.407" transform="translate(30.731 9.593)"/><path class="d" d="M139.86,52.643c.219,1.215-.886,6.636-3.722,9.357s-5.666,2.592-7.152,1.1c-1.435-1.545-1.456-4.387,1.375-7.107s8.293-3.621,9.5-3.351" transform="translate(35.9 14.748)"/><path class="c" d="M131.871,42.694c.635,2.127-.239,11.984-4.726,17.4s-9.558,5.762-12.509,3.406c-2.86-2.46-3.465-7.507,1.015-12.923s14.014-8.107,16.22-7.883" transform="translate(31.513 11.967)"/><path class="c" d="M143.436,65.048c-.1,1.671-3.286,8.422-7.868,11.088s-8.262,1.59-9.737-.845c-1.391-2.485-.506-6.216,4.077-8.882s12.028-2.1,13.529-1.361" transform="translate(35.114 18.067)"/><path class="e" d="M102.047,0c-2.356,1.566-9.524,11.969-9.524,20.941s4.707,13.444,9.524,13.53c4.812-.086,9.518-4.557,9.518-13.53S104.4,1.566,102.047,0" transform="translate(25.943)"/><path class="c" d="M66.42,10.766c-1.215,2.551-2.046,15.159,2.556,22.867s10.923,9.133,15.1,6.743c4.091-2.547,5.841-8.789,1.246-16.5S69.246,10.911,66.42,10.766" transform="translate(18.356 3.019)"/><path class="e" d="M39.121,34.911c-.05,2.826,4.411,14.644,11.783,19.762s13.719,3.8,16.54-.11c2.671-4.006,1.686-10.419-5.686-15.535S41.752,33.87,39.121,34.911" transform="translate(10.969 9.638)"/><path class="c" d="M28.414,71.778c1.325,2.5,10.964,10.663,19.9,11.558s13.84-3.346,14.4-8.133c.4-4.8-3.581-9.923-12.513-10.813s-19.992,5.2-21.787,7.388" transform="translate(7.967 18.03)"/><path class="e" d="M37.453,113.913c2.576,1.165,15.194,1.735,22.808-3.015s8.908-11.114,6.426-15.241c-2.621-4.041-8.9-5.667-16.515-.91s-12.639,16.34-12.719,19.166" transform="translate(10.502 25.75)"/><path class="e" d="M169.274,113.913c-2.576,1.165-15.194,1.735-22.806-3.015s-8.909-11.114-6.433-15.241c2.626-4.041,8.908-5.667,16.515-.91s12.645,16.34,12.725,19.166" transform="translate(38.945 25.75)"/><path class="d" d="M117.183,11.82c1.01,1.181,3.246,7.773,1.895,12.525s-4.511,6.411-7.082,5.736c-2.53-.771-4.356-3.846-3.005-8.6s6.712-9.188,8.192-9.663" transform="translate(30.432 3.314)"/><path class="d" d="M145.451,27.927c.375,1.511-.585,8.4-3.922,12.049s-6.906,3.707-8.9,1.95c-1.921-1.825-2.17-5.387,1.165-9.032s10.119-5.2,11.654-4.967" transform="translate(36.796 7.824)"/><path class="d" d="M164.076,56.5c-.506,1.471-5.051,6.737-9.833,7.983s-7.817-.635-8.533-3.191c-.62-2.576,1.1-5.708,5.882-6.953s11.324,1.125,12.484,2.16" transform="translate(40.822 15.136)"/><path class="d" d="M165.724,87.575c-.955,1.225-6.962,4.736-11.894,4.366s-7.182-3.136-7.032-5.781c.245-2.641,2.891-5.046,7.817-4.672s10.343,4.731,11.109,6.087" transform="translate(41.16 22.838)"/><path class="c" d="M138.5,10.766c1.22,2.551,2.041,15.159-2.556,22.867s-10.923,9.133-15.1,6.743c-4.091-2.547-5.841-8.789-1.246-16.5S135.67,10.911,138.5,10.766" transform="translate(32.767 3.019)"/><path class="e" d="M167.347,34.911c.05,2.826-4.411,14.644-11.783,19.762s-13.725,3.8-16.54-.11c-2.671-4.006-1.685-10.419,5.686-15.535s20.006-5.157,22.637-4.116" transform="translate(38.602 9.638)"/><path class="c" d="M179.067,71.778c-1.325,2.5-10.964,10.663-19.891,11.558s-13.845-3.346-14.4-8.133c-.4-4.8,3.58-9.923,12.508-10.813s20,5.2,21.787,7.388" transform="translate(40.586 18.03)"/><path class="d" d="M73.484,106.5a25.779,25.779,0,0,0,7.157,5.206,3.615,3.615,0,0,1,1.635,1.7c1.891,4.115,7.627,15.4,11.984,23.9,4.44-.425,9.192-.7,14.153-.781L92.57,106.47a5.1,5.1,0,0,1-.58-1.976,43.3,43.3,0,0,0-2.946-12.054c-.234-4.472.11-9.808-.1-11.9-.26-2.536-2.236-2.216-2.4-.27-.356,4-.53,7.367-.75,8.693-.2,1.215-.081,2.251-.755,1.625-1.28-1.64-3.581-12.833-4.476-14.408s-2.9-1.166-2.551,1.4c.675,4.252,2.446,12.355,2.6,12.809s-.06,1.1-.485.78S73.99,77.685,73.2,76.5s-2.895-1.166-2.73,1.225S76.551,92.549,76.6,92.761s-.28.493-.511.615-3.7-3.526-6.051-7.087-4.282-5.466-5.347-4.447,1.165,3.881,2.261,5.672c.955,1.556,4.366,6.011,5.536,7.942h.005a41.217,41.217,0,0,1,10.787,6.9c3.677,3.485-4.531.465-7.576-.726a6.286,6.286,0,0,1-2.141-1.38,38.978,38.978,0,0,0-4.9-4.236,4.428,4.428,0,0,0-4.061-.666.846.846,0,0,0-.256,1.48c2.616,2.032,6.677,6.813,9.138,9.673" transform="translate(17.949 21.1)"/><path class="c" d="M118.041,135.786c3.8-7.422,8.152-16.034,9.713-19.426a3.361,3.361,0,0,1,1.52-1.585,23.913,23.913,0,0,0,6.667-4.851c2.292-2.661,6.073-7.113,8.513-9a.791.791,0,0,0-.241-1.382,4.137,4.137,0,0,0-3.781.616,35.852,35.852,0,0,0-4.566,3.946,5.905,5.905,0,0,1-1.991,1.291c-2.836,1.1-10.483,3.921-7.058.675a38.522,38.522,0,0,1,10.043-6.426l.005,0c1.1-1.8,4.271-5.946,5.156-7.4,1.026-1.671,3.1-4.332,2.106-5.282s-2.781.821-4.977,4.137-5.421,6.712-5.636,6.6-.52-.375-.475-.571,5.552-11.778,5.707-14-1.81-2.246-2.545-1.141-6.032,13.365-6.433,13.659-.585-.3-.449-.73,1.79-7.968,2.42-11.923c.32-2.392-1.545-2.772-2.38-1.306s-2.976,11.894-4.166,13.419c-.63.581-.52-.384-.705-1.515-.2-1.236-.37-4.371-.7-8.092-.16-1.816-1.995-2.111-2.241.25-.2,1.95.115,6.917-.1,11.083a40.3,40.3,0,0,0-2.745,11.229,4.685,4.685,0,0,1-.54,1.835L104.939,135c4.58.1,8.981.38,13.1.79" transform="translate(29.424 22.663)"/><path class="e" d="M91.167,91.651c.931,3.886,3.636,8.047,5.1,10.093a4.59,4.59,0,0,1,.86,2.876c-.275,6.347-.32,25.206-.32,37.591,2.8-.124,5.672-.19,8.607-.19,2.681,0,5.317.055,7.883.16l-.43-39.437a6.288,6.288,0,0,1,.49-2.576,55.228,55.228,0,0,0,3.671-15.4c2.346-5.221,5.841-11.078,6.822-13.589,1.181-3.026-1.251-3.812-2.576-1.7-2.731,4.326-4.9,8.052-5.917,9.433-.935,1.26-1.406,2.506-1.805,1.406-.5-2.611,3.411-16.666,3.311-18.972s-2.611-3.01-3.712.1c-1.709,5.221-4.416,15.456-4.516,16.06s-.705,1.206-1.005.6.905-18.87.706-20.676-2.616-3.011-3.817-.2-1.74,20.372-1.805,20.641-.606.406-.94.406S99.63,72.114,99.03,66.693s-1.675-8.7-3.481-8.163-.935,5.087-.735,7.762c.175,2.321,1.451,9.369,1.661,12.25l.005-.005s5.622,6.691,8.233,14.119c2.14,6.107-5.422-2.11-8.188-5.237A8.133,8.133,0,0,1,94.9,84.6a48.662,48.662,0,0,0-3.1-7.672,5.656,5.656,0,0,0-4.227-3.122,1.084,1.084,0,0,0-1.151,1.536c1.786,3.836,3.612,11.629,4.741,16.3" transform="translate(24.203 15.577)"/><path class="f" d="M49.115,130.318a2.561,2.561,0,0,1,2.382-2.38v-1.5h-12.5l-13.5,34.289L12.143,126.438H0v1.5c1.2,0,1.96,1.361,2.38,2.38v39.893A2.559,2.559,0,0,1,0,172.591v1.48H7.5v-1.48a2.56,2.56,0,0,1-2.38-2.38V137.28l14.4,36.791h3.7L38.992,133.4v36.811a2.56,2.56,0,0,1-2.38,2.38v1.48H51.5v-1.48a2.577,2.577,0,0,1-2.382-2.38Zm30.215-3.88h-3.7L58.663,170.211c-.42,1.06-1.179,2.38-2.38,2.38v1.48h3.581l4.881-12.384.241-.659.46-1.181c.48-1.081,1.321-2.081,2.382-2.081H78.789c1.181,0,2.02,1.181,2.5,2.38l.6,1.54,4.822,12.384H98.855v-1.48c-1.2,0-1.96-1.38-2.38-2.38ZM67.887,156.266c-1.181,0-.521-1.12-.181-2.081l1.2-3.1,4.462-11.3,5,12.864.6,1.54.239.6.06.239c.3.64.36,1.241-.48,1.241Z" transform="translate(0 35.453)"/><path class="f" d="M117.353,163.289h-2.8c0,4.542-2.5,9.3-8.923,9.3H95.807a2.577,2.577,0,0,1-2.38-2.382V130.319a2.56,2.56,0,0,1,2.38-2.38v-1.5H80.922v1.5a2.544,2.544,0,0,1,2.38,2.38v39.892a2.561,2.561,0,0,1-2.38,2.382v1.48h36.431Z" transform="translate(22.69 35.453)"/><path class="f" d="M149.5,163.289h-2.8c0,4.542-2.5,9.3-8.922,9.3h-9.823a2.577,2.577,0,0,1-2.38-2.382V152.165a2.56,2.56,0,0,1,2.38-2.38h5.361c2.862,0,5.6,1.181,5.6,5.481H140.4V142.823h-1.481c0,4.28-2.74,5.461-5.6,5.461h-5.361a2.56,2.56,0,0,1-2.38-2.38V130.319a2.56,2.56,0,0,1,2.38-2.38h9.223c6.442,0,8.942,4.76,8.942,9.283h2.8V126.439H113.07v1.5a2.544,2.544,0,0,1,2.38,2.38v39.892a2.561,2.561,0,0,1-2.38,2.382v1.48H149.5Z" transform="translate(31.704 35.453)"/><path class="f" d="M171.652,146.083c5.6-1.181,8.7-3.862,8.7-9.223,0-8.1-7.083-10.422-19.407-10.422H145.223v1.5a2.544,2.544,0,0,1,2.38,2.38v39.893a2.56,2.56,0,0,1-2.38,2.38v1.48h17.686c10.942,0,22.686-2.2,22.686-14.284,0-8.882-6.321-12.385-13.943-13.7m-13.924-15.765a2.56,2.56,0,0,1,2.38-2.38h.84c6.122,0,8.682,2.781,8.682,8.923s-2.561,8.643-8.682,8.643h-.84a2.579,2.579,0,0,1-2.38-2.4Zm2.38,42.273a2.575,2.575,0,0,1-2.38-2.38V149.363a2.56,2.56,0,0,1,2.38-2.38h2.8c6.662,0,11.963,4.342,11.963,12.8,0,8.443-5.3,12.8-11.963,12.8Z" transform="translate(40.72 35.453)"/><path class="f" d="M193.418,130.319a2.56,2.56,0,0,1,2.38-2.38v-1.5H180.914v1.5a2.544,2.544,0,0,1,2.382,2.38v39.892a2.561,2.561,0,0,1-2.382,2.382v1.48H195.8v-1.48a2.577,2.577,0,0,1-2.38-2.382Z" transform="translate(50.727 35.453)"/></g></g><text class="g" transform="translate(240 570)"><tspan x="-94.92" y="0">Charcoal</tspan><tspan class="h" y="0">Trace</tspan></text></g></svg>