<svg xmlns="http://www.w3.org/2000/svg" xmlns:xlink="http://www.w3.org/1999/xlink" width="186.754" height="192.208" viewBox="0 0 186.754 192.208"><defs><style>.a,.c,.d{fill:#fff;}.b{clip-path:url(#a);}.c{fill-rule:evenodd;}.d{font-size:21px;font-family:PublicSans-SemiBold, Public Sans;font-weight:600;}</style><clipPath id="a"><rect class="a" width="186.754" height="158.725"/></clipPath></defs><g transform="translate(-117 -322)"><g transform="translate(117 322)"><g class="b"><path class="c" d="M101.055,32.043c-1.4.928-5.654,7.1-5.654,12.435s2.793,7.976,5.654,8.029c2.857-.053,5.649-2.705,5.649-8.029s-4.255-11.507-5.649-12.435" transform="translate(-2.866 -0.963)"/><path class="c" d="M73.383,42.691c-.481,1.611.181,9.079,3.58,13.182s7.241,4.365,9.476,2.58c2.167-1.863,2.626-5.687-.773-9.79s-10.613-6.142-12.284-5.972" transform="translate(-2.2 -1.282)"/><path class="c" d="M61.539,64.9c.08,1.266,2.493,6.38,5.964,8.4s6.259,1.2,7.377-.64c1.049-1.883.383-4.709-3.092-6.729S62.676,64.343,61.539,64.9" transform="translate(-1.849 -1.936)"/><path class="c" d="M84.626,11.82c-.765.894-2.459,5.889-1.437,9.488s3.418,4.857,5.362,4.345c1.921-.584,3.3-2.914,2.276-6.513s-5.081-6.96-6.2-7.32" transform="translate(-2.49 -0.355)"/><path class="c" d="M57.627,27.921c-.28,1.145.443,6.365,2.974,9.127s5.233,2.808,6.741,1.477c1.455-1.382,1.644-4.081-.884-6.842s-7.665-3.941-8.831-3.762" transform="translate(-1.73 -0.838)"/><path class="c" d="M39.938,55.886c.386,1.114,3.83,5.1,7.452,6.048s5.923-.481,6.464-2.417c.47-1.952-.837-4.324-4.459-5.267s-8.574.853-9.457,1.636" transform="translate(-1.2 -1.622)"/><path class="c" d="M38.391,86.09c.724.928,5.274,3.588,9.01,3.308s5.44-2.375,5.327-4.379c-.186-2-2.19-3.823-5.923-3.539s-7.839,3.584-8.414,4.611" transform="translate(-1.153 -2.447)"/><path class="c" d="M86.226,34.211a11.175,11.175,0,0,0-.83,7.581c.932,2.826,2.876,3.748,4.4,3.277,1.508-.527,2.528-2.421,1.6-5.247a11.158,11.158,0,0,0-5.168-5.611" transform="translate(-2.555 -1.028)"/><path class="c" d="M64.284,52.632A11.207,11.207,0,0,0,67.1,59.72c2.145,2.061,4.293,1.963,5.422.834,1.087-1.171,1.1-3.323-1.046-5.384a11.156,11.156,0,0,0-7.2-2.538" transform="translate(-1.931 -1.58)"/><path class="c" d="M115.126,34.211a11.185,11.185,0,0,1,.826,7.581c-.928,2.826-2.871,3.748-4.4,3.277-1.507-.527-2.523-2.421-1.595-5.247a11.141,11.141,0,0,1,5.172-5.611" transform="translate(-3.293 -1.028)"/><path class="c" d="M136.992,52.632a11.17,11.17,0,0,1-2.82,7.088c-2.145,2.061-4.292,1.963-5.418.834-1.087-1.171-1.1-3.323,1.042-5.384a11.161,11.161,0,0,1,7.2-2.538" transform="translate(-3.847 -1.58)"/><path class="c" d="M127.148,42.691c.481,1.611-.181,9.079-3.58,13.182s-7.241,4.365-9.476,2.58c-2.167-1.863-2.625-5.687.769-9.79s10.616-6.142,12.287-5.972" transform="translate(-3.377 -1.282)"/><path class="c" d="M139.022,64.9c-.076,1.266-2.489,6.38-5.96,8.4s-6.259,1.2-7.377-.64c-1.053-1.883-.383-4.709,3.088-6.729s9.112-1.588,10.249-1.031" transform="translate(-3.762 -1.936)"/><path class="c" d="M99.738,0c-1.785,1.186-7.215,9.067-7.215,15.864s3.566,10.185,7.215,10.25c3.645-.065,7.211-3.452,7.211-10.25S101.518,1.186,99.738,0" transform="translate(-2.78)"/><path class="c" d="M66.189,10.766c-.92,1.932-1.55,11.483,1.936,17.322S76.4,35.007,79.567,33.2c3.1-1.929,4.425-6.658.944-12.5s-12.182-9.825-14.322-9.934" transform="translate(-1.967 -0.323)"/><path class="c" d="M39.121,34.78c-.038,2.141,3.342,11.093,8.927,14.97s10.393,2.875,12.53-.083C62.6,46.632,61.855,41.775,56.27,37.9S41.114,33.992,39.121,34.78" transform="translate(-1.175 -1.033)"/><path class="c" d="M28.414,69.966c1,1.89,8.306,8.078,15.072,8.756S53.97,76.187,54.4,72.56c.3-3.633-2.713-7.517-9.479-8.191s-15.145,3.941-16.5,5.6" transform="translate(-0.854 -1.932)"/><path class="c" d="M37.453,108.56c1.952.883,11.51,1.314,17.278-2.284S61.479,97.856,59.6,94.73c-1.985-3.061-6.744-4.293-12.51-.69s-9.574,12.379-9.636,14.519" transform="translate(-1.125 -2.759)"/><path class="c" d="M161.908,108.56c-1.952.883-11.51,1.314-17.277-2.284s-6.749-8.419-4.873-11.545c1.989-3.061,6.748-4.293,12.51-.69s9.579,12.379,9.639,14.519" transform="translate(-4.173 -2.759)"/><path class="c" d="M115.086,11.82c.765.894,2.459,5.889,1.436,9.488s-3.417,4.857-5.365,4.345c-1.917-.584-3.3-2.914-2.276-6.513s5.085-6.96,6.206-7.32" transform="translate(-3.261 -0.355)"/><path class="c" d="M142,27.921c.284,1.145-.443,6.365-2.971,9.127s-5.232,2.808-6.74,1.477c-1.455-1.382-1.644-4.081.883-6.842s7.666-3.941,8.829-3.762" transform="translate(-3.943 -0.838)"/><path class="c" d="M159.593,55.886c-.383,1.114-3.826,5.1-7.449,6.048s-5.922-.481-6.464-2.417c-.469-1.952.834-4.324,4.456-5.267s8.578.853,9.457,1.636" transform="translate(-4.374 -1.622)"/><path class="c" d="M161.134,86.09c-.724.928-5.274,3.588-9.01,3.308s-5.441-2.375-5.327-4.379c.185-2,2.19-3.823,5.922-3.539s7.835,3.584,8.415,4.611" transform="translate(-4.41 -2.447)"/><path class="c" d="M133.25,10.766c.924,1.932,1.546,11.483-1.936,17.322s-8.275,6.919-11.443,5.108c-3.1-1.929-4.425-6.658-.944-12.5s12.182-9.825,14.322-9.934" transform="translate(-3.511 -0.323)"/><path class="c" d="M160.152,34.78c.038,2.141-3.342,11.093-8.927,14.97s-10.4,2.875-12.53-.083c-2.023-3.035-1.276-7.893,4.308-11.768s15.156-3.907,17.149-3.118" transform="translate(-4.136 -1.033)"/><path class="c" d="M170.746,69.966c-1,1.89-8.306,8.078-15.068,8.756s-10.488-2.534-10.912-6.161c-.3-3.633,2.712-7.517,9.476-8.191s15.149,3.941,16.5,5.6" transform="translate(-4.349 -1.932)"/><path class="c" d="M71.188,98.923a19.529,19.529,0,0,0,5.422,3.944,2.739,2.739,0,0,1,1.239,1.289c1.433,3.117,5.778,11.666,9.079,18.1,3.364-.322,6.963-.527,10.722-.592l-12-22.767a3.861,3.861,0,0,1-.439-1.5,32.8,32.8,0,0,0-2.232-9.131c-.178-3.388.083-7.43-.08-9.018-.2-1.921-1.694-1.679-1.822-.2-.27,3.027-.4,5.581-.568,6.585-.152.92-.061,1.705-.572,1.231-.97-1.243-2.713-9.722-3.391-10.915s-2.194-.884-1.932,1.06c.511,3.221,1.853,9.359,1.966,9.7s-.046.83-.368.591S71.571,77.095,70.975,76.2s-2.193-.884-2.068.928,4.6,11.229,4.641,11.389-.212.373-.387.466-2.8-2.671-4.584-5.369-3.244-4.141-4.051-3.369.883,2.94,1.713,4.3c.724,1.178,3.308,4.554,4.194,6.017h0a31.223,31.223,0,0,1,8.172,5.225c2.786,2.64-3.433.352-5.739-.55a4.762,4.762,0,0,1-1.622-1.046,29.527,29.527,0,0,0-3.713-3.209,3.354,3.354,0,0,0-3.077-.5.641.641,0,0,0-.194,1.121,65.66,65.66,0,0,1,6.923,7.328" transform="translate(-1.923 -2.261)"/><path class="c" d="M114.865,122.46c2.876-5.623,6.176-12.147,7.358-14.716a2.546,2.546,0,0,1,1.151-1.2,18.115,18.115,0,0,0,5.051-3.675,60.856,60.856,0,0,1,6.449-6.82A.6.6,0,0,0,134.691,95a3.134,3.134,0,0,0-2.864.467,27.159,27.159,0,0,0-3.459,2.989,4.473,4.473,0,0,1-1.508.978c-2.148.837-7.941,2.97-5.346.511a29.182,29.182,0,0,1,7.608-4.868l0,0c.83-1.364,3.236-4.5,3.906-5.6.777-1.266,2.349-3.281,1.6-4s-2.107.622-3.77,3.134a23.536,23.536,0,0,1-4.27,5c-.163-.083-.394-.284-.36-.433s4.206-8.923,4.323-10.608-1.372-1.7-1.928-.864-4.569,10.124-4.873,10.347-.443-.231-.34-.553,1.356-6.036,1.833-9.032c.243-1.812-1.171-2.1-1.8-.989s-2.254,9.01-3.156,10.165c-.477.44-.394-.291-.534-1.147-.155-.936-.28-3.311-.527-6.13-.121-1.375-1.511-1.6-1.7.189-.151,1.477.087,5.24-.076,8.4a30.526,30.526,0,0,0-2.08,8.507,3.549,3.549,0,0,1-.409,1.39l-10.021,19.013c3.47.08,6.8.288,9.926.6" transform="translate(-3.153 -2.428)"/><path class="c" d="M89.991,82.9a24.759,24.759,0,0,0,3.861,7.646,3.477,3.477,0,0,1,.652,2.179c-.209,4.808-.242,19.095-.242,28.477,2.117-.094,4.3-.144,6.52-.144,2.031,0,4.028.042,5.972.121L106.428,91.3a4.764,4.764,0,0,1,.371-1.952,41.837,41.837,0,0,0,2.781-11.67c1.777-3.955,4.425-8.392,5.168-10.294.894-2.292-.948-2.888-1.952-1.288-2.069,3.277-3.709,6.1-4.482,7.146-.708.954-1.065,1.9-1.368,1.065-.379-1.978,2.584-12.625,2.508-14.372s-1.978-2.28-2.812.076c-1.295,3.955-3.345,11.708-3.421,12.166s-.534.914-.761.455.686-14.3.534-15.663-1.982-2.281-2.891-.152-1.318,15.433-1.368,15.637-.459.307-.712.307S96.4,68.1,95.948,63.993,94.679,57.4,93.31,57.809s-.708,3.854-.557,5.88c.133,1.759,1.1,7.1,1.258,9.28l0,0a39.945,39.945,0,0,1,6.237,10.7c1.621,4.627-4.108-1.6-6.2-3.967a6.161,6.161,0,0,1-1.231-2.133,36.864,36.864,0,0,0-2.345-5.812,4.285,4.285,0,0,0-3.2-2.365.821.821,0,0,0-.872,1.164c1.353,2.906,2.736,8.809,3.592,12.351" transform="translate(-2.593 -1.669)"/><path class="a" d="M37.207,129.377a1.94,1.94,0,0,1,1.8-1.8v-1.136H29.538l-10.23,25.975L9.2,126.438H0v1.136c.91,0,1.485,1.031,1.8,1.8V159.6A1.938,1.938,0,0,1,0,161.4v1.121H5.683V161.4a1.939,1.939,0,0,1-1.8-1.8V134.652l10.912,27.871h2.8l11.942-30.811V159.6a1.939,1.939,0,0,1-1.8,1.8v1.121H39.011V161.4a1.952,1.952,0,0,1-1.8-1.8ZM60.1,126.438h-2.8L44.44,159.6c-.318.8-.893,1.8-1.8,1.8v1.121h2.713l3.7-9.381.182-.5.348-.894c.364-.819,1-1.576,1.8-1.576h8.3c.894,0,1.531.894,1.894,1.8l.455,1.167,3.653,9.381h9.2V161.4c-.909,0-1.485-1.046-1.8-1.8Zm-8.669,22.6c-.894,0-.395-.849-.137-1.576l.909-2.349,3.38-8.563,3.789,9.745.455,1.167.181.455.046.181c.228.485.273.94-.364.94Z" transform="translate(0 -3.799)"/><path class="a" d="M108.52,154.354H106.4c0,3.44-1.9,7.048-6.76,7.048H92.2a1.952,1.952,0,0,1-1.8-1.8v-30.22a1.939,1.939,0,0,1,1.8-1.8v-1.136H80.922v1.136a1.927,1.927,0,0,1,1.8,1.8V159.6a1.94,1.94,0,0,1-1.8,1.8v1.121h27.6Z" transform="translate(-2.431 -3.799)"/><path class="a" d="M140.668,154.354h-2.122c0,3.44-1.894,7.048-6.759,7.048h-7.442a1.952,1.952,0,0,1-1.8-1.8V145.927a1.939,1.939,0,0,1,1.8-1.8h4.061c2.168,0,4.244.894,4.244,4.152h1.122v-9.426H132.65c0,3.243-2.076,4.137-4.244,4.137h-4.061a1.939,1.939,0,0,1-1.8-1.8V129.378a1.939,1.939,0,0,1,1.8-1.8h6.987c4.88,0,6.774,3.606,6.774,7.032h2.122v-8.168H113.07v1.136a1.927,1.927,0,0,1,1.8,1.8V159.6a1.94,1.94,0,0,1-1.8,1.8v1.121h27.6Z" transform="translate(-3.397 -3.799)"/><path class="a" d="M165.244,141.32c4.244-.894,6.593-2.925,6.593-6.987,0-6.138-5.366-7.9-14.7-7.9H145.223v1.136a1.927,1.927,0,0,1,1.8,1.8V159.6a1.939,1.939,0,0,1-1.8,1.8v1.121h13.4c8.289,0,17.186-1.666,17.186-10.821,0-6.729-4.789-9.382-10.563-10.381M154.7,129.377a1.939,1.939,0,0,1,1.8-1.8h.636c4.637,0,6.577,2.107,6.577,6.76s-1.94,6.547-6.577,6.547H156.5a1.954,1.954,0,0,1-1.8-1.819Zm1.8,32.024a1.951,1.951,0,0,1-1.8-1.8V143.805a1.939,1.939,0,0,1,1.8-1.8h2.122c5.047,0,9.062,3.289,9.062,9.7s-4.016,9.7-9.062,9.7Z" transform="translate(-4.363 -3.799)"/><path class="a" d="M190.387,129.378a1.939,1.939,0,0,1,1.8-1.8v-1.136H180.914v1.136a1.928,1.928,0,0,1,1.8,1.8V159.6a1.94,1.94,0,0,1-1.8,1.8v1.121H192.19V161.4a1.952,1.952,0,0,1-1.8-1.8Z" transform="translate(-5.435 -3.799)"/></g></g><text class="d" transform="translate(209.114 509.208)"><tspan x="-71.19" y="0">CharcoalTrace</tspan></text></g></svg>