<svg xmlns="http://www.w3.org/2000/svg" xmlns:xlink="http://www.w3.org/1999/xlink" width="240" height="109.846" viewBox="0 0 240 109.846"><defs><style>.a{fill:none;}.b{fill:#bebebe;font-size:16px;font-family:PublicSans-Regular, Public Sans;letter-spacing:0.2em;}.c{clip-path:url(#a);}.d{fill:#232020;}.e{clip-path:url(#b);}.f{fill:url(#c);}.g{clip-path:url(#d);}.h{fill:url(#e);}</style><clipPath id="a"><rect class="a" width="178.474" height="69.62"/></clipPath><clipPath id="b"><path class="a" d="M17.388,38.707A13.524,13.524,0,1,1,30.913,52.232,13.539,13.539,0,0,1,17.388,38.707M17.122,0s-.186,8.43,13.791,17.171c0,0-9.647,1.066-16.657-4.494a30.9,30.9,0,1,0,42.308,8.774c-.025-.035-.048-.07-.073-.105-.077-.113-.159-.222-.236-.333a39.159,39.159,0,0,0-2.814-3.462C39.855,2.628,17.122,0,17.122,0Z"/></clipPath><radialGradient id="c" cx="0.64" cy="0.544" r="0.581" gradientTransform="matrix(1, 0, 0, -1, 0, 1.749)" gradientUnits="objectBoundingBox"><stop offset="0" stop-color="#f9a63b"/><stop offset="1" stop-color="#d86727"/></radialGradient><clipPath id="d"><path class="a" d="M43.965,43.7A13.514,13.514,0,0,1,19.995,55.71a42.653,42.653,0,0,1-5.986.429A42.237,42.237,0,0,1,.865,54.047a30.912,30.912,0,1,0,56-23.141c-.025-.035-.048-.07-.074-.105-.076-.113-.159-.222-.236-.333A38.646,38.646,0,0,0,54.079,27.4,42.3,42.3,0,0,1,43.965,43.7" transform="translate(-0.865 -27.4)"/></clipPath><radialGradient id="e" cx="0.7" cy="0.503" r="0.821" gradientTransform="matrix(0, 1, 1, 0, -0.714, 0.714)" gradientUnits="objectBoundingBox"><stop offset="0" stop-color="#f6ae4e"/><stop offset="1" stop-color="#e3842f"/></radialGradient></defs><g transform="translate(-120 -662)"><text class="b" transform="translate(240 678)"><tspan x="-119.056" y="0">TECHNOLOGY PARTNER</tspan></text><g transform="translate(150.853 702.226)"><g transform="translate(0 0)"><g class="c"><path class="d" d="M124.042,49.7c0-7.261,4.881-11.677,11.039-11.677,3.543,0,6.507,1.22,8.424,4.3,1.8-3.079,4.938-4.3,8.366-4.3,6.158,0,11.038,4.416,11.038,11.677v15.8a3.2,3.2,0,1,1-6.39,0V49.645c0-3.835-2.15-5.694-4.939-5.694-2.73,0-4.881,1.859-4.881,5.694v15.86a3.236,3.236,0,0,1-3.195,3.254,3.2,3.2,0,0,1-3.2-3.254V49.645c0-3.835-2.207-5.694-4.938-5.694s-4.938,1.859-4.938,5.694v15.86a3.2,3.2,0,1,1-6.391,0Z" transform="translate(-42.801 -13.121)"/><path class="d" d="M190.734,25.213a3.776,3.776,0,0,1,7.553,0,3.776,3.776,0,1,1-7.553,0m.581,10.342a3.2,3.2,0,0,1,6.391,0V59.782a3.2,3.2,0,1,1-6.391,0Z" transform="translate(-65.813 -7.397)"/><path class="d" d="M209.76,24.455a3.2,3.2,0,0,1,6.391,0V59.72a3.2,3.2,0,1,1-6.391,0Z" transform="translate(-72.378 -7.336)"/><path class="d" d="M225.487,53.42a15.4,15.4,0,0,1,30.792,0,15.4,15.4,0,1,1-30.792,0m24.342,0c0-5.228-3.834-9.469-8.947-9.469s-8.947,4.241-8.947,9.469c0,5.171,3.835,9.471,8.947,9.471s8.947-4.3,8.947-9.471" transform="translate(-77.805 -13.121)"/></g></g><g class="e"><rect class="f" width="92.946" height="92.946" transform="translate(-34.81 34.81) rotate(-45)"/></g><g transform="translate(0.567 17.946)"><g class="g"><rect class="h" width="79.856" height="79.856" transform="translate(-25.837 25.837) rotate(-45)"/></g></g></g></g></svg>