<svg xmlns="http://www.w3.org/2000/svg" xmlns:xlink="http://www.w3.org/1999/xlink" width="102.083" height="86.762" viewBox="0 0 102.083 86.762"><defs><style>.a,.c{fill:#fff;}.b{clip-path:url(#a);}.c{fill-rule:evenodd;}</style><clipPath id="a"><rect class="a" width="102.083" height="86.762"/></clipPath></defs><g class="b"><path class="c" d="M98.492,32.043a10.936,10.936,0,0,0-3.091,6.8c0,2.91,1.527,4.36,3.091,4.389,1.561-.029,3.088-1.479,3.088-4.389a10.948,10.948,0,0,0-3.088-6.8" transform="translate(-44.82 -15.054)"/><path class="c" d="M73.319,42.686a10.949,10.949,0,0,0,1.957,7.205c1.858,2.243,3.958,2.386,5.18,1.41,1.184-1.019,1.435-3.109-.423-5.351a10.958,10.958,0,0,0-6.714-3.264" transform="translate(-34.41 -20.052)"/><path class="c" d="M61.539,64.689a8.265,8.265,0,0,0,3.26,4.591c1.9,1.1,3.421.659,4.032-.35.574-1.029.209-2.574-1.69-3.678a8.261,8.261,0,0,0-5.6-.564" transform="translate(-28.911 -30.272)"/><path class="c" d="M83.83,11.82a7.689,7.689,0,0,0-.785,5.186c.559,1.969,1.868,2.655,2.931,2.375,1.05-.319,1.8-1.593,1.244-3.56a7.679,7.679,0,0,0-3.39-4" transform="translate(-38.933 -5.553)"/><path class="c" d="M57.6,27.913A7.7,7.7,0,0,0,59.227,32.9c1.382,1.508,2.86,1.535,3.685.807.8-.756.9-2.231-.483-3.74A7.7,7.7,0,0,0,57.6,27.913" transform="translate(-27.047 -13.109)"/><path class="c" d="M39.938,55.022a7.694,7.694,0,0,0,4.073,3.306c1.98.517,3.237-.263,3.533-1.321.257-1.067-.458-2.364-2.437-2.879a7.689,7.689,0,0,0-5.169.894" transform="translate(-18.763 -25.36)"/><path class="c" d="M38.391,83.986a7.689,7.689,0,0,0,4.925,1.808c2.04-.153,2.974-1.3,2.912-2.394-.1-1.094-1.2-2.09-3.237-1.935a7.684,7.684,0,0,0-4.6,2.521" transform="translate(-18.036 -38.266)"/><path class="c" d="M85.693,34.211a6.109,6.109,0,0,0-.454,4.144c.51,1.545,1.572,2.049,2.407,1.792.824-.288,1.382-1.323.872-2.868a6.1,6.1,0,0,0-2.825-3.067" transform="translate(-39.957 -16.072)"/><path class="c" d="M64.275,52.616a6.126,6.126,0,0,0,1.541,3.875c1.172,1.127,2.347,1.073,2.964.456.594-.64.6-1.816-.572-2.943a6.1,6.1,0,0,0-3.933-1.388" transform="translate(-30.192 -24.71)"/><path class="c" d="M112.62,34.211a6.114,6.114,0,0,1,.452,4.144c-.507,1.545-1.569,2.049-2.407,1.792-.824-.288-1.379-1.323-.872-2.868a6.09,6.09,0,0,1,2.827-3.067" transform="translate(-51.49 -16.072)"/><path class="c" d="M132.93,52.616a6.106,6.106,0,0,1-1.541,3.875c-1.172,1.127-2.346,1.073-2.962.456-.594-.64-.6-1.816.569-2.943a6.1,6.1,0,0,1,3.934-1.388" transform="translate(-60.15 -24.71)"/><path class="c" d="M120.456,42.686a10.949,10.949,0,0,1-1.957,7.205c-1.858,2.243-3.958,2.386-5.18,1.41-1.184-1.019-1.435-3.109.42-5.351a10.966,10.966,0,0,1,6.717-3.264" transform="translate(-52.801 -20.052)"/><path class="c" d="M132.768,64.689a8.248,8.248,0,0,1-3.258,4.591c-1.9,1.1-3.421.659-4.032-.35-.576-1.029-.209-2.574,1.688-3.678a8.261,8.261,0,0,1,5.6-.564" transform="translate(-58.833 -30.272)"/><path class="c" d="M96.467,0c-.976.648-3.944,4.956-3.944,8.671s1.949,5.567,3.944,5.6c1.992-.036,3.941-1.887,3.941-5.6S97.44.648,96.467,0" transform="translate(-43.468)"/><path class="c" d="M65.861,10.766c-.5,1.056-.847,6.277,1.058,9.469s4.523,3.782,6.255,2.792c1.694-1.055,2.419-3.639.516-6.831s-6.659-5.37-7.829-5.43" transform="translate(-30.756 -5.058)"/><path class="c" d="M39.121,34.6C39.1,35.766,40.947,40.66,44,42.779s5.681,1.571,6.849-.046c1.106-1.659.7-4.314-2.355-6.433s-8.284-2.136-9.374-1.7" transform="translate(-18.379 -16.149)"/><path class="c" d="M28.414,67.4c.549,1.033,4.54,4.415,8.239,4.786s5.731-1.385,5.965-3.368c.164-1.986-1.483-4.109-5.182-4.477s-8.278,2.154-9.022,3.059" transform="translate(-13.349 -30.209)"/><path class="c" d="M37.453,100.977c1.067.482,6.292.718,9.444-1.249s3.689-4.6,2.661-6.311c-1.085-1.673-3.686-2.347-6.838-.377s-5.234,6.766-5.267,7.937" transform="translate(-17.596 -43.145)"/><path class="c" d="M151.474,100.977c-1.067.482-6.292.718-9.444-1.249s-3.689-4.6-2.664-6.311c1.087-1.673,3.689-2.347,6.838-.377s5.236,6.766,5.269,7.937" transform="translate(-65.253 -43.145)"/><path class="c" d="M112.115,11.82a7.686,7.686,0,0,1,.785,5.186c-.559,1.969-1.868,2.655-2.933,2.375-1.048-.319-1.8-1.593-1.244-3.56a7.678,7.678,0,0,1,3.392-4" transform="translate(-50.989 -5.553)"/><path class="c" d="M137.117,27.913a7.69,7.69,0,0,1-1.624,4.989c-1.381,1.508-2.86,1.535-3.684.807-.8-.756-.9-2.231.482-3.74a7.7,7.7,0,0,1,4.826-2.057" transform="translate(-61.651 -13.109)"/><path class="c" d="M153.244,55.022a7.68,7.68,0,0,1-4.072,3.306c-1.98.517-3.237-.263-3.533-1.321-.257-1.067.456-2.364,2.436-2.879a7.684,7.684,0,0,1,5.169.894" transform="translate(-68.398 -25.36)"/><path class="c" d="M154.631,83.986a7.689,7.689,0,0,1-4.925,1.808c-2.04-.153-2.974-1.3-2.912-2.394.1-1.094,1.2-2.09,3.237-1.935a7.7,7.7,0,0,1,4.6,2.521" transform="translate(-68.963 -38.266)"/><path class="c" d="M125.82,10.766c.505,1.056.845,6.277-1.058,9.469s-4.523,3.782-6.255,2.792c-1.694-1.055-2.419-3.639-.516-6.831s6.659-5.37,7.829-5.43" transform="translate(-54.902 -5.058)"/><path class="c" d="M149.959,34.6c.021,1.17-1.827,6.064-4.879,8.183s-5.683,1.571-6.849-.046c-1.106-1.659-.7-4.314,2.355-6.433s8.284-2.136,9.374-1.7" transform="translate(-64.679 -16.149)"/><path class="c" d="M158.957,67.4c-.549,1.033-4.54,4.415-8.237,4.786s-5.733-1.385-5.965-3.368c-.164-1.986,1.482-4.109,5.179-4.477s8.281,2.154,9.022,3.059" transform="translate(-68.002 -30.209)"/><path class="c" d="M67.934,88.19A10.675,10.675,0,0,0,70.9,90.346a1.5,1.5,0,0,1,.677.7c.783,1.7,3.158,6.377,4.963,9.9,1.839-.176,3.806-.288,5.861-.323L75.837,88.178a2.111,2.111,0,0,1-.24-.818,17.929,17.929,0,0,0-1.22-4.991c-.1-1.852.046-4.061-.043-4.929-.108-1.05-.926-.918-1-.112-.147,1.655-.219,3.051-.311,3.6-.083.5-.033.932-.313.673-.53-.679-1.483-5.314-1.854-5.966s-1.2-.483-1.056.58c.279,1.761,1.013,5.116,1.075,5.3s-.025.454-.2.323-2.535-5.581-2.86-6.072-1.2-.483-1.13.507S69.2,82.413,69.225,82.5s-.116.2-.212.255a13.762,13.762,0,0,1-2.506-2.935c-.978-1.474-1.773-2.263-2.214-1.841s.482,1.607.936,2.349c.4.644,1.808,2.489,2.293,3.289h0a17.067,17.067,0,0,1,4.467,2.856c1.523,1.443-1.876.192-3.137-.3a2.6,2.6,0,0,1-.886-.572,16.141,16.141,0,0,0-2.03-1.754,1.833,1.833,0,0,0-1.682-.276.35.35,0,0,0-.106.613,35.89,35.89,0,0,1,3.784,4.006" transform="translate(-30.073 -35.353)"/><path class="c" d="M110.364,103.584c1.572-3.074,3.376-6.64,4.022-8.044a1.392,1.392,0,0,1,.629-.656,9.9,9.9,0,0,0,2.761-2.009,33.263,33.263,0,0,1,3.525-3.728.328.328,0,0,0-.1-.572,1.713,1.713,0,0,0-1.566.255,14.847,14.847,0,0,0-1.891,1.634,2.445,2.445,0,0,1-.824.534c-1.174.458-4.341,1.623-2.922.279a15.952,15.952,0,0,1,4.159-2.661l0,0c.454-.745,1.769-2.462,2.135-3.063.425-.692,1.284-1.794.872-2.187s-1.152.34-2.061,1.713a12.865,12.865,0,0,1-2.334,2.734c-.089-.046-.215-.155-.2-.236s2.3-4.877,2.363-5.8-.75-.93-1.054-.472-2.5,5.534-2.664,5.656-.242-.126-.186-.3.741-3.3,1-4.937c.133-.99-.64-1.148-.986-.541s-1.232,4.925-1.725,5.556c-.261.241-.215-.159-.292-.627-.085-.512-.153-1.81-.288-3.351-.066-.752-.826-.874-.928.1-.083.807.048,2.864-.041,4.589a16.686,16.686,0,0,0-1.137,4.65,1.94,1.94,0,0,1-.224.76l-5.477,10.393c1.9.043,3.719.157,5.425.327" transform="translate(-49.301 -37.972)"/><path class="c" d="M88.326,70.5a13.534,13.534,0,0,0,2.111,4.18,1.9,1.9,0,0,1,.356,1.191c-.114,2.628-.133,10.437-.133,15.566,1.157-.051,2.349-.078,3.564-.078,1.11,0,2.2.023,3.264.066L97.311,75.1a2.6,2.6,0,0,1,.2-1.067,22.869,22.869,0,0,0,1.52-6.379c.971-2.162,2.419-4.587,2.825-5.627.489-1.253-.518-1.578-1.067-.7-1.131,1.792-2.027,3.334-2.45,3.906-.387.522-.582,1.038-.748.582-.207-1.081,1.412-6.9,1.371-7.856s-1.081-1.246-1.537.041c-.708,2.162-1.829,6.4-1.87,6.65s-.292.5-.416.249.375-7.814.292-8.562-1.083-1.247-1.581-.083-.721,8.436-.748,8.547-.251.168-.389.168a17.584,17.584,0,0,1-1.135-4.795c-.251-2.245-.693-3.6-1.442-3.38s-.387,2.106-.3,3.214c.073.961.6,3.879.688,5.072l0,0a21.835,21.835,0,0,1,3.409,5.846c.886,2.529-2.245-.874-3.391-2.168a3.368,3.368,0,0,1-.673-1.166,20.15,20.15,0,0,0-1.282-3.177,2.342,2.342,0,0,0-1.75-1.293.449.449,0,0,0-.477.636A46.027,46.027,0,0,1,88.326,70.5" transform="translate(-40.553 -26.1)"/><path class="a" d="M20.338,128.044a1.06,1.06,0,0,1,.986-.986v-.621H16.146l-5.592,14.2-5.526-14.2H0v.621c.5,0,.812.564.986.986v16.519a1.06,1.06,0,0,1-.986.986v.613H3.106v-.613a1.06,1.06,0,0,1-.986-.986V130.928l5.965,15.235H9.618l6.528-16.842v15.243a1.06,1.06,0,0,1-.986.986v.613h6.164v-.613a1.067,1.067,0,0,1-.986-.986Zm12.512-1.607H31.317l-7.025,18.126c-.174.439-.488.986-.986.986v.613h1.483l2.021-5.128.1-.273.19-.489c.2-.447.547-.862.986-.862h4.54c.489,0,.837.489,1.035.986l.249.638,2,5.128h5.028v-.613c-.5,0-.812-.572-.986-.986Zm-4.738,12.351c-.489,0-.216-.464-.075-.862l.5-1.284,1.848-4.681,2.071,5.327.249.638.1.249.025.1c.125.265.149.514-.2.514Z" transform="translate(0 -59.401)"/><path class="a" d="M96.008,141.7h-1.16a3.544,3.544,0,0,1-3.695,3.852H87.086a1.067,1.067,0,0,1-.986-.986V128.045a1.06,1.06,0,0,1,.986-.986v-.621H80.922v.621a1.054,1.054,0,0,1,.986.986v16.519a1.06,1.06,0,0,1-.986.986v.613H96.008Z" transform="translate(-38.018 -59.402)"/><path class="a" d="M128.156,141.7H127a3.543,3.543,0,0,1-3.694,3.852h-4.068a1.067,1.067,0,0,1-.986-.986v-7.473a1.06,1.06,0,0,1,.986-.986h2.22a2.056,2.056,0,0,1,2.32,2.27h.613v-5.152h-.613a2.053,2.053,0,0,1-2.32,2.261h-2.22a1.06,1.06,0,0,1-.986-.986v-6.454a1.06,1.06,0,0,1,.986-.986h3.819a3.543,3.543,0,0,1,3.7,3.844h1.16v-4.465H113.07v.621a1.054,1.054,0,0,1,.986.986v16.519a1.06,1.06,0,0,1-.986.986v.613h15.086Z" transform="translate(-53.121 -59.402)"/><path class="a" d="M156.167,134.573c2.32-.489,3.6-1.6,3.6-3.819,0-3.355-2.933-4.316-8.036-4.316h-6.511v.621a1.054,1.054,0,0,1,.986.986v16.519a1.06,1.06,0,0,1-.986.986v.613h7.324c4.531,0,9.394-.911,9.394-5.915,0-3.678-2.618-5.129-5.774-5.675m-5.766-6.528a1.06,1.06,0,0,1,.986-.986h.348c2.535,0,3.6,1.152,3.6,3.695s-1.06,3.579-3.6,3.579h-.348a1.068,1.068,0,0,1-.986-.994Zm.986,17.5a1.066,1.066,0,0,1-.986-.986v-8.633a1.06,1.06,0,0,1,.986-.986h1.16c2.759,0,4.954,1.8,4.954,5.3s-2.2,5.3-4.954,5.3Z" transform="translate(-68.226 -59.401)"/><path class="a" d="M186.092,128.045a1.06,1.06,0,0,1,.986-.986v-.621h-6.164v.621a1.054,1.054,0,0,1,.986.986v16.519a1.061,1.061,0,0,1-.986.986v.613h6.164v-.613a1.067,1.067,0,0,1-.986-.986Z" transform="translate(-84.994 -59.402)"/></g></svg>