<?xml version="1.0" encoding="utf-8"?>
<!-- Generator: Adobe Illustrator 22.0.1, SVG Export Plug-In . SVG Version: 6.00 Build 0)  -->
<svg version="1.1" id="Warstwa_1" xmlns="http://www.w3.org/2000/svg" xmlns:xlink="http://www.w3.org/1999/xlink" x="0px" y="0px"
	 viewBox="0 0 60 60" style="enable-background:new 0 0 60 60;" xml:space="preserve">
<style type="text/css">
	.st0{fill:#17A500;}
</style>
<g>
	<g>
		<path class="st0" d="M30,24c-5,0-9,4-9,9s4,9,9,9s9-4,9-9S35,24,30,24z M54,15h-7.2c-1,0-2.1-0.8-2.4-1.7l-1.9-5.6
			c-0.2-0.9-1.3-1.7-2.3-1.7H19.8c-1,0-2.1,0.8-2.4,1.7l-1.9,5.6c-0.3,0.9-1.4,1.7-2.4,1.7H6c-3.3,0-6,2.7-6,6v27c0,3.3,2.7,6,6,6
			h48c3.3,0,6-2.7,6-6V21C60,17.7,57.3,15,54,15z M30,48c-8.3,0-15-6.7-15-15s6.7-15,15-15s15,6.7,15,15S38.3,48,30,48z M51.9,25.2
			c-1.2,0-2.1-0.9-2.1-2.1c0-1.2,0.9-2.1,2.1-2.1c1.2,0,2.1,0.9,2.1,2.1C54,24.3,53.1,25.2,51.9,25.2z"/>
	</g>
</g>
</svg>
