<svg xmlns="http://www.w3.org/2000/svg" xmlns:xlink="http://www.w3.org/1999/xlink" width="144.417" height="111.336" viewBox="0 0 144.417 111.336"><defs><style>.a{fill:none;}.b{clip-path:url(#a);}.c{fill:#232020;}.d{clip-path:url(#b);}.e{fill:url(#c);}.f{clip-path:url(#d);}.g{fill:url(#e);}.h{fill:#bebebe;font-size:14px;font-family:PublicSans-Light, Public Sans;font-weight:300;letter-spacing:0.2em;}</style><clipPath id="a"><rect class="a" width="144.417" height="56.335"/></clipPath><clipPath id="b"><path class="a" d="M14.07,31.321A10.944,10.944,0,1,1,25.014,42.265,10.956,10.956,0,0,1,14.07,31.321M13.854,0S13.7,6.822,25.014,13.895c0,0-7.806.862-13.479-3.637a25,25,0,1,0,34.235,7.1c-.02-.029-.039-.057-.059-.085-.062-.091-.128-.18-.191-.27a31.686,31.686,0,0,0-2.277-2.8C32.25,2.127,13.854,0,13.854,0Z"/></clipPath><radialGradient id="c" cx="0.64" cy="0.544" r="0.581" gradientTransform="matrix(1, 0, 0, -1, 0, 1.749)" gradientUnits="objectBoundingBox"><stop offset="0" stop-color="#f9a63b"/><stop offset="1" stop-color="#d86727"/></radialGradient><clipPath id="d"><path class="a" d="M35.741,40.593a10.935,10.935,0,0,1-19.4,9.715,34.514,34.514,0,0,1-4.843.347A34.177,34.177,0,0,1,.865,48.962,25.013,25.013,0,1,0,46.177,30.237c-.02-.029-.039-.057-.06-.085-.061-.091-.128-.18-.191-.27a31.271,31.271,0,0,0-2-2.482,34.231,34.231,0,0,1-8.184,13.193" transform="translate(-0.865 -27.4)"/></clipPath><radialGradient id="e" cx="0.7" cy="0.503" r="0.821" gradientTransform="matrix(0, 1, 1, 0, -0.714, 0.714)" gradientUnits="objectBoundingBox"><stop offset="0" stop-color="#f6ae4e"/><stop offset="1" stop-color="#e3842f"/></radialGradient></defs><g transform="translate(-45 -674)"><g transform="translate(0.119 -0.867)"><g transform="translate(44.881 729.868)"><g class="b"><path class="c" d="M124.042,47.474c0-5.876,3.949-9.449,8.933-9.449a7.457,7.457,0,0,1,6.816,3.479c1.457-2.491,4-3.479,6.77-3.479,4.983,0,8.932,3.573,8.932,9.449V60.261a2.586,2.586,0,1,1-5.171,0V47.428c0-3.1-1.74-4.608-4-4.608-2.209,0-3.949,1.5-3.949,4.608V60.261a2.619,2.619,0,0,1-2.585,2.633,2.589,2.589,0,0,1-2.586-2.633V47.428c0-3.1-1.786-4.608-4-4.608s-4,1.5-4,4.608V60.261a2.586,2.586,0,1,1-5.171,0Z" transform="translate(-58.304 -17.873)"/><path class="c" d="M190.734,24.492a3.056,3.056,0,0,1,6.112,0,3.056,3.056,0,1,1-6.112,0m.47,8.368a2.586,2.586,0,0,1,5.171,0v19.6a2.586,2.586,0,1,1-5.171,0Z" transform="translate(-89.651 -10.076)"/><path class="c" d="M209.76,23.845a2.586,2.586,0,0,1,5.171,0V52.381a2.586,2.586,0,1,1-5.171,0Z" transform="translate(-98.594 -9.993)"/><path class="c" d="M225.487,50.482a12.458,12.458,0,1,1,12.457,12.458,12.244,12.244,0,0,1-12.457-12.458m19.7,0a7.251,7.251,0,1,0-14.479,0,7.251,7.251,0,1,0,14.479,0" transform="translate(-105.986 -17.873)"/></g></g><g transform="translate(44.881 729.868)"><g class="d"><rect class="e" width="75.21" height="75.21" transform="translate(-28.168 28.168) rotate(-45)"/></g></g><g transform="translate(45.339 744.39)"><g class="f"><rect class="g" width="64.618" height="64.618" transform="translate(-20.907 20.907) rotate(-45)"/></g></g></g><text class="h" transform="translate(117 688)"><tspan x="-58.891" y="0">TECHNOLOGY</tspan><tspan x="-40.208" y="18">PARTNER</tspan></text></g></svg>