<svg xmlns="http://www.w3.org/2000/svg" width="71.299" height="41.591" viewBox="0 0 71.299 41.591">
  <g id="Group_267" data-name="Group 267" transform="translate(-55 -397.326)">
    <path id="Path_534" data-name="Path 534" d="M232.7,642.806A10.893,10.893,0,1,0,243.591,653.7,10.892,10.892,0,0,0,232.7,642.806Zm0,17.825a6.932,6.932,0,1,1,6.932-6.932A6.932,6.932,0,0,1,232.7,660.631Z" transform="translate(-117.292 -225.674)" fill="#aa6400"/>
    <path id="Path_535" data-name="Path 535" d="M195.893,642.806A10.893,10.893,0,1,0,206.785,653.7,10.892,10.892,0,0,0,195.893,642.806Zm0,17.825a6.932,6.932,0,1,1,6.932-6.932A6.932,6.932,0,0,1,195.893,660.631Z" transform="translate(-130 -225.674)" fill="#aa6400"/>
    <path id="Path_536" data-name="Path 536" d="M223.583,665.714H212.823a2.1,2.1,0,0,1-1.748-.936l-17-25.506a2.1,2.1,0,0,1,1.747-3.266h8.888a2.1,2.1,0,0,1,1.68.841l4.682,6.242a2.1,2.1,0,0,0,1.68.839h7.983a2.1,2.1,0,0,0,1.485-.615l3.573-3.573a2.1,2.1,0,0,0-.265-3.195l-6.511-4.651a2.1,2.1,0,0,1,1.22-3.811h6.438a2.1,2.1,0,0,1,1.485.616l9.783,9.783a2.1,2.1,0,0,1,0,2.97l-1.98,1.98a2.1,2.1,0,0,0,0,2.97l.99.991a2.1,2.1,0,0,1,0,2.97h0a2.1,2.1,0,0,1-2.97,0l-.313-.313a2.1,2.1,0,0,0-3.4.632l-6.679,15.031" transform="translate(-126.991 -230.757)" fill="#aa6400"/>
  </g>
</svg>
