<?xml version="1.0" encoding="utf-8"?>
<!-- Generator: Adobe Illustrator 23.0.1, SVG Export Plug-In . SVG Version: 6.00 Build 0)  -->
<svg version="1.1" id="grafika" xmlns="http://www.w3.org/2000/svg" xmlns:xlink="http://www.w3.org/1999/xlink" x="0px" y="0px"
	 viewBox="0 0 30 30" style="enable-background:new 0 0 30 30;" xml:space="preserve">
<style type="text/css">
	.st0{fill:#FFFFFF;}
</style>
<g>
	<rect x="28" y="28" class="st0" width="2" height="2"/>
	<polygon class="st0" points="30,20 28,20 28,22 24,22 24,24 26,24 26,28 28,28 28,26 30,26 	"/>
	<rect x="24" y="28" class="st0" width="2" height="2"/>
	<rect x="4" y="4" class="st0" width="6" height="6"/>
	<path class="st0" d="M0,0v14h14V0H0z M12,12H2V2h10V12z"/>
	<rect x="4" y="20" class="st0" width="6" height="6"/>
	<path class="st0" d="M0,16v14h14V16H0z M12,28H2V18h10V28z"/>
	<rect x="20" y="4" class="st0" width="6" height="6"/>
	<path class="st0" d="M16,0v14h14V0H16z M28,12H18V2h10V12z"/>
	<polygon class="st0" points="20,16 20,22 22,22 22,20 24,20 24,18 30,18 30,16 	"/>
	<rect x="16" y="16" class="st0" width="2" height="4"/>
	<polygon class="st0" points="20,26 20,22 18,22 18,28 16,28 16,30 20,30 20,28 24,28 24,26 	"/>
</g>
</svg>
