<svg xmlns="http://www.w3.org/2000/svg" width="37.279" height="36.686" viewBox="0 0 37.279 36.686"><defs><style>.a{fill:#d6d6d6;}</style></defs><g transform="translate(101.793 6.535)"><g transform="translate(-101.793 -6.535)"><path class="a" d="M-93.954-6.535h-5.885a1.946,1.946,0,0,0-1.954,1.951V1.3a1.962,1.962,0,0,0,1.954,1.97h5.885A1.973,1.973,0,0,0-91.987,1.3V-4.584A1.958,1.958,0,0,0-93.954-6.535Zm.2,7.8a.233.233,0,0,1-.234.233h-5.874a.233.233,0,0,1-.233-.233V-4.606a.233.233,0,0,1,.233-.233h5.875a.233.233,0,0,1,.234.233V1.269Z" transform="translate(101.793 6.535)"/><rect class="a" width="3.761" height="3.76" transform="translate(3.022 3.023)"/><path class="a" d="M-93.954,12.175h-5.885a1.943,1.943,0,0,0-1.954,1.947v5.887a1.966,1.966,0,0,0,1.954,1.974h5.885a1.977,1.977,0,0,0,1.966-1.974V14.122A1.954,1.954,0,0,0-93.954,12.175Zm.2,7.83a.2.2,0,0,1-.221.208h-5.87A.228.228,0,0,1-100.1,20V14.133a.274.274,0,0,1,.25-.262h5.871a.251.251,0,0,1,.22.262V20Z" transform="translate(101.793 3.162)"/><rect class="a" width="3.761" height="3.761" transform="translate(3.022 18.36)"/><path class="a" d="M-81.23,3.272h5.886A1.982,1.982,0,0,0-73.367,1.3V-4.584a1.966,1.966,0,0,0-1.976-1.951H-81.23a1.938,1.938,0,0,0-1.944,1.951V1.3A1.954,1.954,0,0,0-81.23,3.272Zm-.248-7.878a.233.233,0,0,1,.233-.233h5.876a.232.232,0,0,1,.232.233V1.269a.232.232,0,0,1-.232.233h-5.876a.233.233,0,0,1-.233-.233Z" transform="translate(98.436 6.535)"/><rect class="a" width="3.833" height="3.76" transform="translate(18.212 3.023)"/><path class="a" d="M-97.9,6.778h-1.3a.534.534,0,0,0-.53.519v1.3a.556.556,0,0,0,.53.543h1.239v.016a.477.477,0,0,0,.483.5h2.909v.061a.545.545,0,0,0,.534.529h1.3a.539.539,0,0,0,.528-.529V8.458a.515.515,0,0,0-.528-.5h-.652V7.3a.515.515,0,0,0-.509-.519h-.7a.5.5,0,0,0-.489.519v.661h-2.286V7.3A.533.533,0,0,0-97.9,6.778Z" transform="translate(101.42 4.135)"/><path class="a" d="M-87.661-.811V2.065a.487.487,0,0,0,.478.516h1.858a.541.541,0,0,0,.54-.516V.767a.567.567,0,0,0-.54-.546h-.639V-3.76h.079a.5.5,0,0,0,.511-.5v-.7a.5.5,0,0,0-.511-.5h-2.458a.487.487,0,0,0-.5.5v.7a.489.489,0,0,0,.5.5h.683v1.843h-.683a.507.507,0,0,0-.5.521v.1a.478.478,0,0,0,.5.488Z" transform="translate(99.458 6.34)"/><path class="a" d="M-86.195,7.112V5.85a.513.513,0,0,0-.512-.512h-1.262a.513.513,0,0,0-.512.512V7.112a.513.513,0,0,0,.512.512h1.262A.512.512,0,0,0-86.195,7.112Z" transform="translate(99.393 4.394)"/><path class="a" d="M-83.08,8.038a.552.552,0,0,0-.543.527v.507a11.838,11.838,0,0,1,1.407-1.034Z" transform="translate(98.517 3.907)"/><path class="a" d="M-84.388,9.477h-2.207a.529.529,0,0,0-.536.508V12.94a13.085,13.085,0,0,1,2.185-2.953A6.708,6.708,0,0,1-84.388,9.477Z" transform="translate(99.149 3.648)"/><path class="a" d="M-62.514,28.685l-4.826-4.825a10.586,10.586,0,0,0-1.485-13.055,10.562,10.562,0,0,0-14.92,0,10.554,10.554,0,0,0,.007,14.914A10.539,10.539,0,0,0-70.676,27.2l4.826,4.826a2.361,2.361,0,0,0,3.344.008A2.363,2.363,0,0,0-62.514,28.685Zm-8.32-4.973a7.713,7.713,0,0,1-10.9,0,7.712,7.712,0,0,1,0-10.9,7.714,7.714,0,0,1,10.9,0A7.717,7.717,0,0,1-70.834,23.712Z" transform="translate(99.094 3.965)"/></g></g></svg>