<?xml version="1.0" encoding="utf-8"?>
<!-- Generator: Adobe Illustrator 23.0.1, SVG Export Plug-In . SVG Version: 6.00 Build 0)  -->
<svg version="1.1" id="grafika" xmlns="http://www.w3.org/2000/svg" xmlns:xlink="http://www.w3.org/1999/xlink" x="0px" y="0px"
	 viewBox="0 0 110 88" style="enable-background:new 0 0 110 88;" xml:space="preserve">
<style type="text/css">
	.st0{fill:#5AB400;}
</style>
<g>
	<rect y="53" class="st0" width="110" height="35"/>
	<g>
		<path class="st0" d="M95.5,50h7.70276c-0.93042-1.4375-3.85925-3.16425-3.9404-4.60181l-0.11621-0.75909
			c-0.22946-1.49493,1.29178-2.1308,4.75568-0.57178c0.44196-1.125-0.85419-4.2616-1.97491-5.41943
			c-0.50775-0.60461-1.65021-1.20807-2.70163-1.80396c-1.02567-0.61041-2.14758-1.15393-2.38974-1.88922l-0.26389-0.72107
			c-0.51843-1.42047,0.81537-2.40881,4.47836-1.69928c0.08661-0.59467-0.27133-1.63062-1.01437-2.53198
			c-0.70135-0.92151-1.56613-1.79364-2.17581-2.2677c-0.58389-0.4931-1.88846-0.77454-3.09152-1.07764
			c-1.20493-0.30896-2.319-0.63208-2.72095-1.29486c-0.12411-0.22467-0.28433-0.42505-0.43738-0.63019
			c-0.90729-1.21057,0.14114-2.48102,3.93973-2.7243c-0.05539-0.60052-0.76526-1.43512-1.62616-2.19031
			c-0.4361-0.37317-0.88574-0.74628-1.35535-1.02942c-0.47974-0.27509-0.93268-0.49921-1.29742-0.64679
			c-0.7312-0.29736-2.02383-0.29816-3.23303-0.33521c-1.19241-0.06238-2.43665-0.02423-2.99271-0.56311l-0.5683-0.5166
			c-1.11865-1.01855-0.3942-2.51166,3.17752-3.58423c-0.19443-0.5722-1.00146-1.30927-2.07422-1.76715
			c-1.0466-0.49268-2.21518-0.86609-2.97403-1.00446c-0.74341-0.16888-2.04202,0.203-3.24194,0.48157
			c-1.20984,0.28235-2.34567,0.50995-3.00778,0.10699c-0.21478-0.14026-0.45694-0.23004-0.68405-0.3476
			c-1.3631-0.65497-1.02362-2.26764,2.22949-4.23944c-0.67892-0.99445-3.99768-1.71094-5.5867-1.4447
			c-0.78619,0.0755-1.93179,0.67438-3.0195,1.20264c-1.08377,0.49487-2.16907,1.11383-2.91183,0.89575l-0.74368-0.19122
			c-1.46414-0.37781-1.52087-2.03668,1.14282-4.65161c-0.21771-0.21759-0.59491-0.37653-1.06006-0.48633
			C65.49026,1.6416,65.23584,1.599,64.96869,1.5675c-0.27158-0.00928-0.5567-0.00348-0.84543,0.01068
			c-1.15698,0.05768-2.36621,0.27808-3.10281,0.51306c-0.3696,0.12036-0.79611,0.37402-1.24612,0.71478
			c-0.45276,0.36633-0.92688,0.79834-1.3945,1.20978c-0.93884,0.82275-1.83856,1.56287-2.61276,1.52325L55,5.5
			c-1.51132,0.07874-1.95813-1.50269,0-4.78992c-0.52472-0.28955-1.61337-0.1673-2.72296,0.12494
			c-1.10995,0.31042-2.23969,0.70532-2.8905,1.19501c-0.65927,0.44452-1.39389,1.52258-2.11026,2.51202
			c-0.72345,0.98517-1.42911,1.87378-2.17267,2.10095l-0.74362,0.19141C42.89557,7.211,42.07782,5.77277,43.21716,2.1828
			c-0.58475-0.17413-1.62537,0.16736-2.64539,0.67706c-1.00461,0.56628-1.95789,1.37238-2.50024,1.92554
			c-0.53583,0.58215-1.02802,1.71198-1.46344,2.89325c-0.44376,1.17743-0.89008,2.26361-1.58844,2.59967l-0.69189,0.33307
			c-0.71048,0.31494-1.2655,0.25317-1.69528-0.43817c-0.40524-0.65833-0.7045-1.97241-0.53421-3.80127
			c-0.63705-0.0802-1.5242,0.57159-2.36786,1.35217c-0.83566,0.797-1.63345,1.70435-2.00635,2.40076
			c-0.37344,0.70331-0.51752,2.00299-0.68701,3.216c-0.16968,1.22235-0.39508,2.31934-0.94559,2.86871l-0.56821,0.51666
			c-1.11948,1.01764-2.51077,0.12433-3.17752-3.58423c-0.5976,0.11835-1.35736,0.9054-2.02084,1.83191
			c-0.62646,0.96631-1.09579,2.12158-1.31924,2.86255c-0.20209,0.76538-0.12,1.98816,0.05121,3.24426
			c0.15137,1.24756,0.25775,2.41583-0.20673,3.03638l-0.46011,0.61487c-0.48022,0.61053-0.99341,0.81793-1.6987,0.40149
			c-0.66711-0.39758-1.52957-1.41693-2.24103-3.12579c-0.60373,0.22162-1.07147,1.22211-1.46802,2.29773
			c-0.36942,1.09448-0.67282,2.25854-0.66254,3.05884c-0.00644,0.7962,0.4664,2.01434,0.8768,3.16705
			c0.40869,1.15857,0.72906,2.2395,0.49557,2.9812l-0.26376,0.72113c-0.51962,1.41992-2.1676,1.27704-4.47836-1.69928
			c-0.47482,0.38275-0.78336,1.43365-0.94165,2.56323c-0.1069,1.14758,0.01962,2.39105,0.16699,3.15143
			c0.17319,0.77112,0.83347,1.81982,1.54782,2.84625c0.72025,1.03406,1.36395,2.01862,1.24677,2.78473l-0.11606,0.75909
			c-0.13757,0.76459-0.54538,1.18176-1.33878,1.14496c-0.79089-0.04248-2.00116-0.53735-3.4169-1.71674
			c-0.18521,0.24243-0.33566,0.63202-0.35486,1.10919c-0.01807,0.47723,0.02878,1.03571,0.11713,1.60449
			c0.17642,1.13959,0.51968,2.31158,0.8287,3.01367C6.71835,49.86121,6.75778,49.93066,6.79724,50H14.5
			c0.01151-5.31421,1.05338-10.60266,3.08475-15.49622c2.02426-4.89459,5.02808-9.3869,8.77744-13.1416
			c3.7547-3.74933,8.24701-6.75317,13.1416-8.77747C44.39734,10.55341,49.68579,9.51154,55,9.5
			c5.31421,0.01154,10.60266,1.05341,15.49622,3.08472c4.89459,2.02429,9.3869,5.02814,13.1416,8.77747
			c3.74936,3.7547,6.75317,8.24701,8.77744,13.1416C94.44662,39.39734,95.48849,44.68579,95.5,50z"/>
	</g>
	<path class="st0" d="M40,50c0-8.2843,6.7157-15,15-15s15,6.7157,15,15h20c0-19.32996-15.67004-35-35-35S20,30.67004,20,50H40z"/>
</g>
</svg>
