<svg xmlns="http://www.w3.org/2000/svg" width="74.265" height="48.906" viewBox="0 0 74.265 48.906">
  <g id="Group_270" data-name="Group 270" transform="translate(-58.287 -827.094)">
    <path id="Path_519" data-name="Path 519" d="M209.02,323.3H149.245A7.246,7.246,0,0,1,142,316.057V307h18.113l5.434,5.434H196.34L209.02,307h7.245v1.811l-5.653,5.653a5.434,5.434,0,0,0-1.592,3.844Z" transform="translate(-83.713 552.698)" fill="#aa6400"/>
    <path id="Path_520" data-name="Path 520" d="M151.811,289v9.057H150Z" transform="translate(-77.222 538.094)" fill="#aa6400"/>
    <path id="Path_521" data-name="Path 521" d="M179,296v16.3h1.811Z" transform="translate(-53.693 543.773)" fill="#aa6400"/>
    <g id="Group_258" data-name="Group 258" transform="translate(80.023 843.396)">
      <path id="Path_522" data-name="Path 522" d="M180.868,307.822V304H170v7.245h2.88Z" transform="translate(-141.019 -293.132)" fill="#aa6400"/>
      <path id="Path_523" data-name="Path 523" d="M157.311,311.245h7.557V304H154v3.934Z" transform="translate(-154 -293.132)" fill="#aa6400"/>
      <rect id="Rectangle_335" data-name="Rectangle 335" width="10.868" height="7.245" transform="translate(14.491 10.868)" fill="#aa6400"/>
      <rect id="Rectangle_336" data-name="Rectangle 336" width="10.868" height="7.245" fill="#aa6400"/>
      <rect id="Rectangle_337" data-name="Rectangle 337" width="10.868" height="7.245" transform="translate(14.491)" fill="#aa6400"/>
    </g>
    <path id="Path_524" data-name="Path 524" d="M162.113,294H149.434L144,308.491v5.434h14.491v-16.3h3.623Z" transform="translate(-82.09 542.15)" fill="#aa6400"/>
  </g>
</svg>
