<?xml version="1.0" encoding="utf-8"?>
<!-- Generator: Adobe Illustrator 23.0.1, SVG Export Plug-In . SVG Version: 6.00 Build 0)  -->
<svg version="1.1" id="grafika" xmlns="http://www.w3.org/2000/svg" xmlns:xlink="http://www.w3.org/1999/xlink" x="0px" y="0px"
	 viewBox="0 0 142 115" style="enable-background:new 0 0 142 115;" xml:space="preserve">
<style type="text/css">
	.st0{fill:#5AB400;}
</style>
<g>
	<g>
		<path class="st0" d="M40.18297,46.09114c-0.43485,0-0.883-0.10634-1.33589-0.31664
			c-0.59531-0.27677-1.36627-0.69643-2.04466-1.49255c-0.42299-0.49609-0.68979-1.08713-0.92572-1.60886
			c-0.09352-0.20746-0.17992-0.39925-0.27582-0.58534c-0.36507-0.70545-0.71399-1.409-0.96987-2.24927
			c-0.25588-0.83885-0.33611-1.63592-0.41349-2.40735l-0.04652-0.4472c-0.08593-0.80277-0.16711-1.56281-0.00475-2.34374
			c0.23024-1.10944,0.76622-1.96395,1.59367-2.54028c0.83363-0.58202,1.8016-0.62379,2.87259-0.12533l0.14527,0.06646
			c0.54404,0.24923,1.28699,0.58961,1.91886,1.33114c0.54119,0.63471,0.94566,1.41659,1.30219,2.1059
			c0.07406,0.14337,0.15001,0.28247,0.22644,0.42251c0.28864,0.53075,0.61288,1.12701,0.82603,1.82723
			c0.20698,0.67697,0.23167,1.33352,0.25398,1.91269c0.00854,0.23072,0.01614,0.44292,0.03703,0.6499
			c0.02326,0.23309,0.05839,0.46239,0.09257,0.68409c0.09732,0.64183,0.20698,1.36485,0.05934,2.07789
			c-0.31949,1.53955-1.37909,2.27823-1.72707,2.52129c-0.42488,0.29576-0.88205,0.46666-1.3582,0.50749h-0.00048
			C40.33393,46.08782,40.25893,46.09114,40.18297,46.09114z M37.21923,33.08544c-0.2687,0-0.46001,0.09542-0.62569,0.21126
			c-0.52553,0.36602-0.84312,0.88727-0.99931,1.64019c-0.11584,0.55686-0.0527,1.14695,0.02706,1.8937l0.04652,0.44387
			c0.07121,0.71209,0.14384,1.43701,0.35794,2.13866c0.22028,0.72349,0.53787,1.36153,0.87066,2.00526
			c0.10777,0.20888,0.20556,0.42346,0.30905,0.6537c0.21505,0.47615,0.41824,0.92525,0.70687,1.26421
			c0.49514,0.58107,1.08808,0.90151,1.54952,1.11562c0.29718,0.13815,0.57253,0.19844,0.82176,0.1766l0,0
			c0.21885-0.01899,0.43723-0.10349,0.64943-0.25113c0.43343-0.3024,0.95468-0.76052,1.13318-1.62073
			c0.09447-0.45669,0.01329-0.99266-0.07263-1.55949c-0.03798-0.24781-0.07691-0.50274-0.10254-0.76242
			c-0.02374-0.23642-0.03323-0.47805-0.04272-0.72539c-0.02089-0.55164-0.04035-1.0596-0.19179-1.55569
			c-0.17043-0.55923-0.44482-1.06387-0.70972-1.55142c-0.08355-0.15334-0.16473-0.30193-0.24306-0.45384
			c-0.32092-0.62-0.68456-1.3226-1.11704-1.83056c-0.42251-0.49562-0.94994-0.73726-1.4147-0.95041l-0.15049-0.06836
			C37.68969,33.14431,37.43049,33.08544,37.21923,33.08544z"/>
		<path class="st0" d="M117.69446,17.80589c0.04433-1.15977-0.12877-2.28007-0.30929-3.43259
			c-0.18022-1.15104-0.34531-2.27888-0.7226-3.37622c-0.38168-1.11027-0.6041-2.29111-1.15953-3.29848
			c-0.38524-0.69874-0.85255-1.34354-1.33714-1.95968l-10.30633,2.62834l8.33596-4.68802
			c-0.46547-0.36038-0.94851-0.6902-1.40502-1.0377c-0.95426-0.7264-1.84664-1.44543-2.91193-1.83299
			c-1.17229-0.42649-2.28784-0.57591-3.35735-0.50927c-1.17769,0.07335-2.40172,0.16532-3.37492,0.76782l-68.55829,24.712
			c-0.93842,0.58101-1.76825,1.50466-2.43999,2.51197c-0.59691,0.8951-0.91979,2.03902-1.25002,3.22264
			c-0.28911,1.03621-0.56677,2.16465-0.61359,3.38945c-0.04433,1.15976,0.28751,2.30232,0.46803,3.45491
			c0.18022,1.15098,0.42993,2.26535,0.80722,3.36269c0.38168,1.11021,0.72693,2.22304,1.28242,3.23042
			c0.57235,1.03817,1.38841,1.87346,2.11498,2.75047c0.76307,0.92115,1.49397,1.79774,2.39222,2.48153
			c0.95427,0.72639,1.97239,1.21596,3.03774,1.60352c1.17229,0.42648,2.25319,0.86211,3.32269,0.79553
			c1.17768-0.07335,2.24215-0.56997,3.21529-1.17241l68.55829-24.712c0.93842-0.58101,1.69781-1.40989,2.36955-2.41721
			c0.59686-0.8951,1.35992-1.83097,1.69016-3.01453C117.83213,20.22981,117.64764,19.0307,117.69446,17.80589z M46.59875,45.36094
			c-0.35915,1.18001-1.12899,2.05958-1.81853,2.81514c-0.78944,0.86507-1.70891,1.44656-2.80958,1.64491
			c-1.00891,0.18177-2.14459,0.17289-3.31021-0.30033c-1.00066-0.40624-1.82612-1.22007-2.70501-2.01957
			c-0.80349-0.73095-1.5708-1.54276-2.22353-2.51611c-0.61616-0.91873-1.05757-1.94911-1.49882-3.01236
			c-0.43108-1.03864-0.92536-2.0621-1.15242-3.17317c-0.22784-1.11506-0.23211-2.24601-0.21745-3.36871
			c0.01601-1.22204,0.20318-2.29214,0.5012-3.27127c0.35916-1.18007,0.71679-2.25287,1.40633-3.00837
			c0.78944-0.86513,1.81684-1.36403,2.91751-1.56237c1.00897-0.18177,2.16544-0.19649,3.33101,0.27673
			c1.00065,0.40624,2.03682,1.01212,2.91566,1.81162c0.80355,0.73095,1.37116,1.77442,2.0239,2.74777
			c0.61616,0.91873,1.16051,1.9136,1.60181,2.97685c0.43102,1.03864,0.61554,2.15307,0.84254,3.26414
			c0.22784,1.11506,0.40039,2.20938,0.38567,3.33213C46.77288,43.21994,46.89677,44.38174,46.59875,45.36094z M77.89513,31.61763
			c-2.59398,1.09935-5.2263,2.09219-7.86693,3.06207c-2.65297,0.93563-5.31335,1.85062-8.01237,2.65861
			c-2.69487,0.81938-5.41263,1.57521-8.19544,2.15064c2.50996-1.33239,5.08501-2.48426,7.68291-3.5727
			c2.59375-1.09983,5.22612-2.09261,7.86592-3.06474c2.65214-0.93795,5.31252-1.85287,8.01136-2.66134
			c2.69469-0.81992,5.41275-1.5748,8.19639-2.14797C83.06784,29.3769,80.4932,30.52972,77.89513,31.61763z"/>
	</g>
	<g>
		<path class="st0" d="M51.87179,77.11612c-0.43485,0-0.883-0.10635-1.33589-0.31665
			c-0.59531-0.27676-1.36627-0.69643-2.04466-1.49255c-0.42299-0.49609-0.68979-1.08714-0.92572-1.60886
			c-0.09352-0.20745-0.17992-0.39925-0.27582-0.58534c-0.36507-0.70544-0.71399-1.409-0.96988-2.24927
			c-0.25588-0.83884-0.33611-1.63592-0.41349-2.40736l-0.04652-0.4472c-0.08593-0.80276-0.16711-1.56281-0.00475-2.34373
			c0.23024-1.10944,0.76622-1.96396,1.59367-2.54028c0.83363-0.58202,1.8016-0.62379,2.87259-0.12533l0.14527,0.06646
			c0.54404,0.24923,1.28699,0.58961,1.91886,1.33114c0.54119,0.63471,0.94566,1.4166,1.30219,2.1059
			c0.07406,0.14336,0.15001,0.28246,0.22644,0.42251c0.28864,0.53075,0.61288,1.12701,0.82603,1.82723
			c0.20698,0.67696,0.23167,1.33352,0.25398,1.91269c0.00854,0.23072,0.01614,0.44292,0.03703,0.6499
			c0.02326,0.23309,0.0584,0.46239,0.09258,0.68409c0.09732,0.64183,0.20698,1.36485,0.05934,2.07789
			c-0.3195,1.53955-1.37909,2.27823-1.72707,2.52129c-0.42488,0.29575-0.88205,0.46666-1.3582,0.50748h-0.00048
			C52.02275,77.11279,51.94774,77.11612,51.87179,77.11612z M48.90805,64.11042c-0.2687,0-0.46001,0.09542-0.62569,0.21125
			c-0.52553,0.36602-0.84312,0.88728-0.99931,1.64019c-0.11584,0.55686-0.0527,1.14695,0.02706,1.8937l0.04652,0.44387
			c0.07121,0.7121,0.14384,1.43701,0.35794,2.13866c0.22028,0.72349,0.53787,1.36152,0.87066,2.00526
			c0.10777,0.20888,0.20556,0.42345,0.30905,0.6537c0.21505,0.47615,0.41824,0.92525,0.70687,1.26421
			c0.49514,0.58107,1.08808,0.90151,1.54952,1.11562c0.29718,0.13815,0.57253,0.19843,0.82176,0.1766l0,0
			c0.21885-0.01899,0.43723-0.10349,0.64943-0.25113c0.43343-0.30241,0.95468-0.76052,1.13318-1.62073
			c0.09447-0.4567,0.01329-0.99266-0.07263-1.55949c-0.03798-0.24781-0.07691-0.50274-0.10254-0.76242
			c-0.02374-0.23641-0.03323-0.47805-0.04272-0.72539c-0.02089-0.55164-0.04035-1.05959-0.19179-1.55569
			c-0.17043-0.55923-0.44482-1.06387-0.70972-1.55141c-0.08355-0.15334-0.16473-0.30193-0.24306-0.45384
			c-0.32092-0.62-0.68456-1.3226-1.11704-1.83056c-0.42251-0.49562-0.94994-0.73726-1.4147-0.95041l-0.15049-0.06837
			C49.37851,64.16928,49.1193,64.11042,48.90805,64.11042z"/>
		<path class="st0" d="M129.38327,48.83087c0.04433-1.15977-0.12877-2.28007-0.30928-3.43259
			c-0.18022-1.15104-0.34531-2.27888-0.7226-3.37622c-0.38169-1.11027-0.6041-2.2911-1.15953-3.29848
			c-0.38525-0.69874-0.85256-1.34354-1.33714-1.95969l-10.30633,2.62834l8.33596-4.68801
			c-0.46548-0.36038-0.94851-0.6902-1.40502-1.0377c-0.95427-0.72639-1.84664-1.44543-2.91193-1.83299
			c-1.17229-0.42649-2.28784-0.57591-3.35735-0.50927c-1.17768,0.07335-2.40172,0.16533-3.37491,0.76782l-68.55829,24.712
			c-0.93842,0.58101-1.76825,1.50465-2.43999,2.51197c-0.59692,0.8951-0.91979,2.03902-1.25002,3.22264
			c-0.28911,1.03622-0.56677,2.16465-0.61359,3.38945c-0.04433,1.15977,0.28751,2.30232,0.46803,3.4549
			c0.18022,1.15099,0.42993,2.26535,0.80722,3.36269c0.38168,1.11021,0.72693,2.22304,1.28242,3.23042
			c0.57235,1.03818,1.38841,1.87346,2.11498,2.75047c0.76307,0.92116,1.49397,1.79774,2.39222,2.48153
			c0.95427,0.7264,1.97239,1.21597,3.03774,1.60352c1.17229,0.42648,2.25319,0.86211,3.32269,0.79552
			c1.17768-0.07334,2.24215-0.56997,3.21529-1.1724l68.55829-24.712c0.93842-0.58101,1.69781-1.40989,2.36955-2.41721
			c0.59686-0.8951,1.35992-1.83097,1.69016-3.01453C129.52095,51.25478,129.33646,50.05567,129.38327,48.83087z M58.28757,76.38591
			c-0.35916,1.18001-1.12899,2.05958-1.81853,2.81514c-0.78944,0.86507-1.70891,1.44656-2.80958,1.64491
			c-1.00891,0.18177-2.14459,0.17289-3.31021-0.30032c-1.00066-0.40624-1.82612-1.22007-2.70501-2.01957
			c-0.80349-0.73096-1.5708-1.54276-2.22353-2.51611c-0.61616-0.91873-1.05758-1.94911-1.49882-3.01236
			c-0.43108-1.03864-0.92537-2.06211-1.15242-3.17317c-0.22784-1.11506-0.23211-2.24601-0.21745-3.36871
			c0.01601-1.22204,0.20318-2.29214,0.5012-3.27127c0.35915-1.18007,0.71679-2.25286,1.40633-3.00837
			c0.78944-0.86513,1.81684-1.36402,2.91751-1.56237c1.00897-0.18177,2.16544-0.19649,3.33101,0.27673
			c1.00065,0.40624,2.03682,1.01212,2.91566,1.81162c0.80355,0.73095,1.37116,1.77442,2.0239,2.74777
			c0.61616,0.91874,1.16051,1.9136,1.60181,2.97685c0.43102,1.03864,0.61554,2.15308,0.84254,3.26414
			c0.22784,1.11505,0.40039,2.20937,0.38567,3.33212C58.4617,74.24492,58.58559,75.40672,58.28757,76.38591z M89.58395,62.6426
			c-2.59399,1.09935-5.2263,2.09219-7.86693,3.06207c-2.65297,0.93563-5.31335,1.85062-8.01237,2.65861
			c-2.69486,0.81938-5.41263,1.57521-8.19543,2.15064c2.50996-1.33239,5.08501-2.48426,7.68291-3.57269
			c2.59374-1.09983,5.22612-2.09261,7.86591-3.06474c2.65214-0.93795,5.31252-1.85287,8.01137-2.66134
			c2.69468-0.81992,5.41275-1.57479,8.19639-2.14797C94.75666,60.40187,92.18202,61.5547,89.58395,62.6426z"/>
	</g>
	<g>
		<path class="st0" d="M63.53642,108.21805c-0.43485,0-0.883-0.10634-1.33589-0.31664
			c-0.59531-0.27676-1.36628-0.69643-2.04466-1.49255c-0.42299-0.49609-0.68978-1.08713-0.92572-1.60886
			c-0.09352-0.20746-0.17992-0.39925-0.27582-0.58534c-0.36507-0.70544-0.71399-1.409-0.96987-2.24927
			c-0.25588-0.83885-0.33611-1.63592-0.41349-2.40736l-0.04652-0.4472c-0.08593-0.80276-0.16711-1.56281-0.00475-2.34374
			c0.23024-1.10944,0.76621-1.96395,1.59367-2.54028c0.83363-0.58202,1.8016-0.62379,2.87259-0.12533l0.14527,0.06646
			c0.54404,0.24924,1.28699,0.58961,1.91886,1.33115c0.54119,0.63471,0.94566,1.41659,1.30219,2.1059
			c0.07406,0.14337,0.15002,0.28246,0.22645,0.42251c0.28864,0.53075,0.61288,1.12701,0.82603,1.82724
			c0.20699,0.67696,0.23167,1.33351,0.25398,1.91268c0.00854,0.23072,0.01614,0.44292,0.03703,0.64991
			c0.02326,0.23309,0.0584,0.46239,0.09258,0.68408c0.09732,0.64184,0.20699,1.36485,0.05934,2.0779
			c-0.3195,1.53955-1.37909,2.27823-1.72707,2.52129c-0.42488,0.29576-0.88205,0.46666-1.3582,0.50749h-0.00047
			C63.68739,108.21473,63.61238,108.21805,63.53642,108.21805z M60.57269,95.21235c-0.2687,0-0.46001,0.09542-0.62569,0.21126
			c-0.52552,0.36602-0.84312,0.88727-0.99931,1.64019c-0.11583,0.55686-0.0527,1.14695,0.02706,1.8937l0.04652,0.44387
			c0.07121,0.7121,0.14384,1.43701,0.35795,2.13866c0.22027,0.72349,0.53787,1.36153,0.87066,2.00526
			c0.10776,0.20888,0.20555,0.42345,0.30905,0.6537c0.21505,0.47615,0.41824,0.92525,0.70687,1.26421
			c0.49514,0.58107,1.08808,0.90151,1.54952,1.11562c0.29718,0.13815,0.57253,0.19843,0.82176,0.1766l0,0
			c0.21885-0.01899,0.43723-0.10349,0.64943-0.25114c0.43343-0.3024,0.95468-0.76051,1.13318-1.62073
			c0.09447-0.45669,0.01329-0.99266-0.07263-1.55949c-0.03798-0.24781-0.07691-0.50274-0.10255-0.76241
			c-0.02374-0.23642-0.03323-0.47805-0.04272-0.72539c-0.02089-0.55164-0.04035-1.0596-0.19179-1.55569
			c-0.17043-0.55923-0.44482-1.06387-0.70972-1.55142c-0.08355-0.15334-0.16473-0.30193-0.24306-0.45384
			c-0.32092-0.62-0.68456-1.32259-1.11704-1.83056c-0.42251-0.49561-0.94994-0.73725-1.4147-0.95041l-0.15049-0.06836
			C61.04314,95.27122,60.78394,95.21235,60.57269,95.21235z"/>
		<path class="st0" d="M141.04791,79.93281c0.04433-1.15977-0.12877-2.28008-0.3093-3.43259
			c-0.18021-1.15105-0.34531-2.27888-0.7226-3.37622c-0.38168-1.11028-0.6041-2.29111-1.15953-3.29848
			c-0.38524-0.69874-0.85255-1.34354-1.33713-1.95969l-10.30633,2.62834l8.33596-4.68801
			c-0.46547-0.36038-0.94852-0.6902-1.40503-1.0377c-0.95425-0.72639-1.84663-1.44543-2.91193-1.83299
			c-1.17229-0.42649-2.28784-0.5759-3.35735-0.50927c-1.17768,0.07335-2.40171,0.16533-3.37491,0.76781L55.94149,87.90601
			c-0.93842,0.58101-1.76825,1.50465-2.43999,2.51197c-0.59691,0.8951-0.91979,2.03902-1.25002,3.22264
			c-0.28911,1.03622-0.56677,2.16465-0.61359,3.38946c-0.04433,1.15976,0.28751,2.30232,0.46803,3.4549
			c0.18022,1.15099,0.42993,2.26535,0.80722,3.36269c0.38168,1.11021,0.72693,2.22304,1.28242,3.23042
			c0.57235,1.03817,1.38841,1.87346,2.11498,2.75047c0.76307,0.92115,1.49397,1.79774,2.39222,2.48153
			c0.95427,0.72639,1.97238,1.21597,3.03773,1.60352c1.17229,0.42648,2.25319,0.86211,3.32269,0.79552
			c1.17769-0.07334,2.24215-0.56997,3.21529-1.1724l68.55829-24.71201c0.93842-0.58101,1.69781-1.40989,2.36955-2.41721
			c0.59685-0.8951,1.35992-1.83097,1.69016-3.01453C141.18558,82.35671,141.00108,81.15761,141.04791,79.93281z M69.9522,107.48785
			c-0.35915,1.18001-1.12898,2.05958-1.81853,2.81514c-0.78944,0.86507-1.70891,1.44656-2.80958,1.64491
			c-1.00891,0.18177-2.14459,0.17289-3.31021-0.30032c-1.00066-0.40624-1.82611-1.22007-2.70501-2.01957
			c-0.80349-0.73096-1.5708-1.54276-2.22354-2.51611c-0.61616-0.91873-1.05757-1.9491-1.49882-3.01236
			c-0.43108-1.03864-0.92537-2.0621-1.15242-3.17316c-0.22784-1.11506-0.23211-2.24601-0.21745-3.36871
			c0.01601-1.22204,0.20318-2.29214,0.5012-3.27128c0.35916-1.18006,0.71679-2.25286,1.40633-3.00837
			c0.78944-0.86513,1.81684-1.36402,2.91751-1.56237c1.00897-0.18177,2.16544-0.19649,3.33101,0.27673
			c1.00065,0.40624,2.03682,1.01212,2.91566,1.81162c0.80355,0.73095,1.37116,1.77442,2.0239,2.74776
			c0.61616,0.91874,1.16051,1.9136,1.60181,2.97685c0.43102,1.03864,0.61555,2.15308,0.84254,3.26414
			c0.22784,1.11506,0.4004,2.20938,0.38567,3.33213C70.12634,105.34685,70.25023,106.50865,69.9522,107.48785z M101.24858,93.74454
			c-2.59399,1.09935-5.2263,2.09219-7.86693,3.06207c-2.65297,0.93563-5.31335,1.85062-8.01237,2.65861
			c-2.69486,0.81938-5.41263,1.57521-8.19543,2.15064c2.50996-1.33239,5.08501-2.48426,7.68291-3.5727
			c2.59374-1.09983,5.22612-2.09261,7.86592-3.06474c2.65214-0.93795,5.31252-1.85287,8.01136-2.66134
			c2.69469-0.81992,5.41275-1.57479,8.19639-2.14797C106.4213,91.50381,103.84666,92.65663,101.24858,93.74454z"/>
	</g>
	<g>
		<path class="st0" d="M35.47632,64.31673c0.04433-1.15977-0.12877-2.28007-0.30929-3.43259
			c-0.18022-1.15104-0.34531-2.27888-0.7226-3.37622c-0.38168-1.11028-0.6041-2.29111-1.15953-3.29848
			c-0.5724-1.03818-1.32141-1.96342-2.04798-2.84043c-0.76307-0.92115-1.76629-1.53284-2.66454-2.21663
			c-0.95427-0.7264-1.84664-1.44543-2.91193-1.83299c-1.17229-0.42648-2.28784-0.5759-3.35735-0.50927
			c-1.17769,0.07335-2.40172,0.16533-3.37491,0.76781c-0.93842,0.58101-1.76825,1.50466-2.43999,2.51197
			c-0.59691,0.8951-0.91979,2.03902-1.25002,3.22264c-0.28911,1.03622-0.56677,2.16465-0.61359,3.38945
			c-0.04433,1.15976,0.28751,2.30232,0.46802,3.4549c0.18022,1.15099,0.42993,2.26535,0.80722,3.36269
			c0.38168,1.11021,0.72693,2.22305,1.28242,3.23042c0.57235,1.03818,1.38841,1.87347,2.11498,2.75047
			c0.76307,0.92116,1.49397,1.79774,2.39222,2.48154c0.95427,0.72639,1.97239,1.21596,3.03774,1.60352
			c1.17229,0.42648,2.25319,0.86211,3.32269,0.79553c1.17768-0.07335,2.24215-0.56998,3.21528-1.17241
			c0.93842-0.58101,1.69781-1.40989,2.36956-2.41721c0.59685-0.8951,1.35992-1.83097,1.69016-3.01453
			C35.61399,66.74065,35.4295,65.54153,35.47632,64.31673z M32.93889,67.15971c-0.35913,1.18005-1.12897,2.05961-1.81851,2.81515
			c-0.78942,0.86507-1.70891,1.44656-2.80957,1.64494c-1.00892,0.18176-2.14459,0.17286-3.31023-0.30032
			c-1.00061-0.40625-1.82611-1.22005-2.70501-2.01956c-0.80348-0.73096-1.57076-1.54276-2.22351-2.51613
			c-0.61614-0.91872-1.05758-1.94912-1.49884-3.01234c-0.43105-1.03865-0.92537-2.06211-1.15241-3.17321
			c-0.22781-1.11502-0.23208-2.24601-0.21742-3.36868c0.01602-1.22202,0.20318-2.29211,0.5012-3.27131
			c0.35913-1.18006,0.71678-2.25283,1.40633-3.00836c0.78942-0.86514,1.81685-1.36402,2.91751-1.56234
			c1.00898-0.18176,2.16542-0.19648,3.331,0.27671c1.00067,0.40625,2.03683,1.01213,2.91567,1.81163
			c0.80354,0.73096,1.37114,1.77442,2.02389,2.7478c0.61614,0.91872,1.16054,1.91358,1.6018,2.9768
			c0.43105,1.03865,0.61555,2.15308,0.84253,3.26418c0.22787,1.11502,0.40044,2.20933,0.38572,3.33213
			C33.11306,65.01874,33.23696,66.18052,32.93889,67.15971z"/>
		<path class="st0" d="M26.52312,67.88998c-0.43485,0-0.883-0.10634-1.33589-0.31664
			c-0.59531-0.27677-1.36627-0.69643-2.04466-1.49255c-0.42299-0.49609-0.68978-1.08713-0.92572-1.60886
			c-0.09352-0.20746-0.17992-0.39925-0.27582-0.58535c-0.36507-0.70545-0.71399-1.409-0.96987-2.24927
			c-0.25588-0.83885-0.33611-1.63592-0.41349-2.40736l-0.04652-0.44719c-0.08593-0.80277-0.1671-1.56281-0.00475-2.34374
			c0.23024-1.10944,0.76621-1.96396,1.59367-2.54028c0.83363-0.58202,1.8016-0.62379,2.87259-0.12533l0.14527,0.06646
			c0.54404,0.24923,1.28699,0.58961,1.91886,1.33114c0.54119,0.63472,0.94566,1.4166,1.30218,2.1059
			c0.07406,0.14337,0.15001,0.28246,0.22645,0.42251c0.28864,0.53075,0.61288,1.12701,0.82603,1.82724
			c0.20698,0.67696,0.23167,1.33352,0.25398,1.91269c0.00854,0.23072,0.01614,0.44292,0.03703,0.64991
			c0.02326,0.23309,0.05839,0.46239,0.09257,0.68409c0.09732,0.64183,0.20698,1.36485,0.05934,2.07789
			c-0.31949,1.53955-1.37909,2.27823-1.72707,2.52129c-0.42488,0.29575-0.88205,0.46666-1.3582,0.50748h-0.00047
			C26.67409,67.88665,26.59908,67.88998,26.52312,67.88998z M23.55938,54.88428c-0.2687,0-0.46001,0.09542-0.62569,0.21125
			c-0.52553,0.36602-0.84312,0.88727-0.99931,1.64019c-0.11584,0.55686-0.0527,1.14695,0.02706,1.8937l0.04652,0.44387
			c0.07121,0.7121,0.14384,1.43701,0.35795,2.13866c0.22027,0.72349,0.53787,1.36152,0.87065,2.00526
			c0.10776,0.20888,0.20556,0.42346,0.30905,0.65371c0.21505,0.47615,0.41824,0.92524,0.70687,1.2642
			c0.49514,0.58107,1.08808,0.90151,1.54952,1.11562c0.29718,0.13815,0.57252,0.19844,0.82176,0.1766l0,0
			c0.21885-0.01899,0.43723-0.10349,0.64943-0.25113c0.43343-0.30241,0.95468-0.76051,1.13318-1.62073
			c0.09447-0.45669,0.01329-0.99266-0.07263-1.55949c-0.03798-0.24781-0.07691-0.50274-0.10254-0.76242
			c-0.02374-0.23642-0.03323-0.47805-0.04272-0.72539c-0.02089-0.55164-0.04035-1.0596-0.19179-1.55569
			c-0.17043-0.55923-0.44482-1.06387-0.70972-1.55141c-0.08355-0.15334-0.16473-0.30193-0.24306-0.45384
			c-0.32092-0.62-0.68456-1.3226-1.11704-1.83056c-0.42251-0.49562-0.94993-0.73726-1.4147-0.95041l-0.15049-0.06836
			C24.02984,54.94315,23.77064,54.88428,23.55938,54.88428z"/>
	</g>
	<g>
		<path class="st0" d="M21.79232,86.1925c0.04433-1.15977-0.12877-2.28007-0.30929-3.43259
			c-0.18022-1.15104-0.34531-2.27888-0.7226-3.37622c-0.38168-1.11028-0.60409-2.2911-1.15953-3.29848
			c-0.5724-1.03818-1.32141-1.96342-2.04799-2.84043c-0.76307-0.92115-1.76629-1.53284-2.66454-2.21663
			c-0.95427-0.72639-1.84664-1.44543-2.91193-1.83299c-1.17229-0.42648-2.28784-0.5759-3.35735-0.50927
			c-1.17769,0.07335-2.40172,0.16533-3.37491,0.76782c-0.93842,0.58101-1.76825,1.50465-2.43999,2.51197
			c-0.59691,0.8951-0.91979,2.03902-1.25002,3.22264c-0.28911,1.03622-0.56677,2.16465-0.61359,3.38946
			c-0.04433,1.15976,0.28751,2.30232,0.46802,3.4549c0.18022,1.15099,0.42993,2.26535,0.80722,3.36269
			c0.38168,1.11021,0.72693,2.22304,1.28242,3.23042c0.57235,1.03817,1.38841,1.87346,2.11498,2.75047
			C6.3763,92.2974,7.10721,93.174,8.00546,93.85778c0.95427,0.72639,1.97238,1.21597,3.03774,1.60352
			c1.17229,0.42648,2.25319,0.86211,3.32269,0.79552c1.17769-0.07334,2.24215-0.56997,3.21529-1.1724
			c0.93842-0.58101,1.69781-1.40989,2.36955-2.41721c0.59685-0.8951,1.35992-1.83098,1.69016-3.01453
			C21.92999,88.61641,21.7455,87.4173,21.79232,86.1925z M19.25489,89.03548c-0.35913,1.18006-1.12897,2.05962-1.81851,2.81515
			c-0.78942,0.86507-1.70891,1.44656-2.80957,1.64494c-1.00892,0.18176-2.14459,0.17287-3.31023-0.30032
			c-1.00061-0.40625-1.82611-1.22005-2.70501-2.01956c-0.80348-0.73096-1.57076-1.54275-2.22352-2.51613
			c-0.61614-0.91872-1.05758-1.94912-1.49884-3.01234c-0.43105-1.03865-0.92537-2.0621-1.15241-3.17321
			c-0.22781-1.11502-0.23208-2.24601-0.21743-3.36868c0.01602-1.22202,0.20318-2.29211,0.5012-3.2713
			c0.35913-1.18006,0.71678-2.25283,1.40633-3.00837c0.78942-0.86514,1.81685-1.36401,2.91751-1.56233
			c1.00898-0.18176,2.16542-0.19648,3.331,0.27671c1.00067,0.40625,2.03683,1.01212,2.91567,1.81162
			c0.80354,0.73096,1.37114,1.77442,2.02389,2.7478c0.61614,0.91872,1.16054,1.91358,1.6018,2.9768
			c0.43106,1.03865,0.61555,2.15308,0.84253,3.26418c0.22787,1.11502,0.40043,2.20933,0.38572,3.33212
			C19.42906,86.8945,19.55296,88.05629,19.25489,89.03548z"/>
		<path class="st0" d="M12.83912,89.76574c-0.43485,0-0.883-0.10634-1.33589-0.31664
			c-0.59531-0.27676-1.36627-0.69643-2.04466-1.49255c-0.42298-0.49609-0.68978-1.08713-0.92572-1.60886
			c-0.09352-0.20746-0.17992-0.39925-0.27582-0.58534c-0.36507-0.70544-0.71399-1.409-0.96987-2.24927
			c-0.25588-0.83885-0.33611-1.63592-0.41349-2.40736l-0.04652-0.4472c-0.08593-0.80276-0.1671-1.56281-0.00475-2.34374
			c0.23024-1.10944,0.76621-1.96395,1.59367-2.54028c0.83362-0.58202,1.8016-0.62379,2.87259-0.12533l0.14527,0.06646
			c0.54404,0.24924,1.28699,0.58961,1.91886,1.33115c0.54119,0.63471,0.94566,1.41659,1.30218,2.1059
			c0.07406,0.14337,0.15001,0.28246,0.22645,0.42251c0.28864,0.53075,0.61288,1.12701,0.82603,1.82724
			c0.20698,0.67696,0.23167,1.33351,0.25398,1.91268c0.00854,0.23072,0.01614,0.44292,0.03703,0.64991
			c0.02326,0.23309,0.05839,0.46239,0.09257,0.68408c0.09732,0.64184,0.20698,1.36485,0.05934,2.0779
			c-0.31949,1.53955-1.37909,2.27823-1.72707,2.52129c-0.42488,0.29576-0.88205,0.46666-1.3582,0.50749h-0.00047
			C12.99009,89.76242,12.91508,89.76574,12.83912,89.76574z M9.87538,76.76004c-0.2687,0-0.46001,0.09542-0.62569,0.21126
			c-0.52553,0.36602-0.84312,0.88727-0.99931,1.64019c-0.11583,0.55686-0.0527,1.14695,0.02706,1.8937l0.04652,0.44387
			c0.07121,0.7121,0.14384,1.43701,0.35795,2.13866c0.22027,0.72349,0.53787,1.36153,0.87066,2.00526
			c0.10776,0.20888,0.20556,0.42345,0.30905,0.6537c0.21505,0.47615,0.41824,0.92525,0.70687,1.26421
			c0.49514,0.58107,1.08808,0.90151,1.54952,1.11562c0.29718,0.13815,0.57253,0.19843,0.82176,0.1766l0,0
			c0.21885-0.01899,0.43723-0.10349,0.64943-0.25114c0.43343-0.3024,0.95468-0.76051,1.13318-1.62073
			c0.09447-0.45669,0.01329-0.99266-0.07263-1.55949c-0.03798-0.24781-0.07691-0.50274-0.10254-0.76241
			c-0.02374-0.23642-0.03323-0.47805-0.04273-0.72539c-0.02089-0.55164-0.04035-1.0596-0.19179-1.55569
			c-0.17043-0.55923-0.44482-1.06387-0.70972-1.55142c-0.08355-0.15334-0.16473-0.30193-0.24306-0.45384
			c-0.32092-0.62-0.68456-1.32259-1.11704-1.83056c-0.42251-0.49561-0.94993-0.73725-1.41469-0.95041l-0.15049-0.06836
			C10.34584,76.81891,10.08664,76.76004,9.87538,76.76004z"/>
	</g>
	<g>
		<path class="st0" d="M47.14097,95.41866c0.04433-1.15977-0.12877-2.28008-0.30928-3.43259
			c-0.18022-1.15105-0.34531-2.27888-0.7226-3.37622c-0.38168-1.11028-0.6041-2.29111-1.15953-3.29848
			c-0.57241-1.03817-1.32141-1.96342-2.04799-2.84042c-0.76307-0.92116-1.76629-1.53284-2.66454-2.21664
			c-0.95427-0.72639-1.84664-1.44543-2.91193-1.83299c-1.17229-0.42648-2.28784-0.5759-3.35735-0.50926
			c-1.17768,0.07334-2.40172,0.16532-3.37491,0.76781c-0.93842,0.58101-1.76825,1.50465-2.43999,2.51198
			c-0.59691,0.8951-0.91979,2.03902-1.25002,3.22264c-0.28911,1.03622-0.56677,2.16465-0.61359,3.38945
			c-0.04433,1.15977,0.28751,2.30232,0.46803,3.45491c0.18022,1.15098,0.42993,2.26535,0.80722,3.36269
			c0.38168,1.11021,0.72693,2.22304,1.28242,3.23042c0.57235,1.03818,1.38841,1.87347,2.11498,2.75047
			c0.76307,0.92116,1.49398,1.79774,2.39222,2.48154c0.95427,0.72639,1.97239,1.21596,3.03773,1.60352
			c1.17229,0.42648,2.25319,0.86211,3.3227,0.79553c1.17768-0.07335,2.24215-0.56998,3.21528-1.17241
			c0.93842-0.58101,1.69781-1.40989,2.36956-2.41721c0.59686-0.8951,1.35992-1.83097,1.69016-3.01453
			C47.27864,97.84256,47.09415,96.64346,47.14097,95.41866z M44.60354,98.26163c-0.35913,1.18006-1.12897,2.05962-1.81851,2.81516
			c-0.78942,0.86507-1.70891,1.44656-2.80957,1.64494c-1.00892,0.18176-2.14459,0.17286-3.31023-0.30032
			c-1.00061-0.40625-1.82611-1.22006-2.70501-2.01956c-0.80348-0.73096-1.57076-1.54276-2.22351-2.51613
			c-0.61614-0.91872-1.05758-1.94912-1.49884-3.01234c-0.43106-1.03865-0.92537-2.06211-1.15241-3.17322
			c-0.22781-1.11502-0.23208-2.246-0.21743-3.36868c0.01602-1.22201,0.20318-2.29211,0.5012-3.2713
			c0.35913-1.18006,0.71678-2.25283,1.40633-3.00836c0.78942-0.86514,1.81685-1.36402,2.91751-1.56234
			c1.00898-0.18176,2.16542-0.19647,3.331,0.27671c1.00067,0.40625,2.03683,1.01212,2.91567,1.81163
			c0.80354,0.73096,1.37114,1.77442,2.0239,2.7478c0.61614,0.91872,1.16053,1.91357,1.6018,2.97679
			c0.43106,1.03865,0.61555,2.15308,0.84253,3.26418c0.22787,1.11502,0.40043,2.20934,0.38572,3.33213
			C44.77771,96.12066,44.90161,97.28244,44.60354,98.26163z"/>
		<path class="st0" d="M38.18777,98.9919c-0.43485,0-0.883-0.10634-1.33589-0.31664
			c-0.59531-0.27677-1.36627-0.69643-2.04466-1.49255c-0.42299-0.49609-0.68978-1.08714-0.92572-1.60886
			c-0.09352-0.20746-0.17992-0.39925-0.27582-0.58534c-0.36507-0.70545-0.71399-1.409-0.96987-2.24928
			c-0.25588-0.83884-0.33611-1.63592-0.41349-2.40736l-0.04652-0.44719c-0.08593-0.80277-0.1671-1.56281-0.00475-2.34374
			c0.23024-1.10944,0.76621-1.96396,1.59367-2.54028c0.83363-0.58202,1.8016-0.62379,2.87259-0.12533l0.14527,0.06647
			c0.54404,0.24923,1.28699,0.58961,1.91886,1.33114c0.54119,0.63471,0.94566,1.4166,1.30218,2.1059
			c0.07406,0.14336,0.15002,0.28246,0.22645,0.42251c0.28864,0.53075,0.61288,1.12701,0.82603,1.82723
			c0.20698,0.67696,0.23167,1.33352,0.25398,1.91269c0.00854,0.23072,0.01614,0.44292,0.03703,0.6499
			c0.02326,0.23309,0.05839,0.46239,0.09257,0.68409c0.09732,0.64183,0.20698,1.36485,0.05934,2.07789
			c-0.31949,1.53955-1.37909,2.27823-1.72707,2.52129c-0.42488,0.29575-0.88205,0.46666-1.3582,0.50748h-0.00047
			C38.33874,98.98857,38.26373,98.9919,38.18777,98.9919z M35.22403,85.9862c-0.2687,0-0.46001,0.09542-0.62569,0.21126
			c-0.52552,0.36601-0.84312,0.88727-0.99931,1.64019c-0.11583,0.55685-0.0527,1.14694,0.02706,1.89369l0.04652,0.44388
			c0.07121,0.71209,0.14384,1.437,0.35794,2.13866c0.22028,0.72349,0.53787,1.36153,0.87066,2.00526
			c0.10776,0.20889,0.20556,0.42346,0.30905,0.6537c0.21505,0.47616,0.41824,0.92525,0.70687,1.26421
			c0.49514,0.58107,1.08808,0.90151,1.54952,1.11562c0.29718,0.13815,0.57252,0.19844,0.82175,0.1766l0,0
			c0.21885-0.01899,0.43723-0.10349,0.64943-0.25113c0.43343-0.30241,0.95468-0.76052,1.13318-1.62073
			c0.09447-0.45669,0.01329-0.99266-0.07264-1.55949c-0.03798-0.24781-0.0769-0.50274-0.10254-0.76242
			c-0.02374-0.23641-0.03323-0.47805-0.04273-0.72539c-0.02089-0.55164-0.04035-1.05959-0.19179-1.55569
			c-0.17043-0.55923-0.44482-1.06387-0.70972-1.55141c-0.08355-0.15334-0.16473-0.30193-0.24306-0.45384
			c-0.32092-0.62-0.68456-1.3226-1.11704-1.83056c-0.42251-0.49562-0.94993-0.73726-1.4147-0.95041l-0.15049-0.06836
			C35.69449,86.04507,35.43529,85.9862,35.22403,85.9862z"/>
	</g>
</g>
</svg>
