<?xml version="1.0" encoding="utf-8"?>
<!-- Generator: Adobe Illustrator 23.0.1, SVG Export Plug-In . SVG Version: 6.00 Build 0)  -->
<svg version="1.1" id="grafika" xmlns="http://www.w3.org/2000/svg" xmlns:xlink="http://www.w3.org/1999/xlink" x="0px" y="0px"
	 viewBox="0 0 38 32" style="enable-background:new 0 0 38 32;" xml:space="preserve">
<style type="text/css">
	.st0{fill:#FFFFFF;}
</style>
<g>
	
		<ellipse transform="matrix(0.94063 -0.33944 0.33944 0.94063 0.5188 9.98802)" class="st0" cx="28.8106" cy="3.51101" rx="2.51998" ry="3.61916"/>
	<polygon class="st0" points="8.97193,6.83777 27.39305,0.19784 30.22815,6.83218 11.80702,13.47212 	"/>
	
		<ellipse transform="matrix(0.94063 -0.33944 0.33944 0.94063 -2.82881 4.12933)" class="st0" cx="10.38948" cy="10.15095" rx="2.51998" ry="3.61916"/>
	
		<ellipse transform="matrix(0.94063 -0.33944 0.33944 0.94063 -5.31934 13.28698)" class="st0" cx="35.32176" cy="21.84905" rx="2.51998" ry="3.61916"/>
	<polygon class="st0" points="15.48309,25.17582 33.90421,18.53588 36.73931,25.17023 18.31819,31.81016 	"/>
	
		<ellipse transform="matrix(0.94063 -0.33944 0.33944 0.94063 -2.40163 11.63774)" class="st0" cx="32.06618" cy="12.68403" rx="2.51998" ry="3.61916"/>
	<polygon class="st0" points="12.22751,16.0108 30.64863,9.37086 33.48373,16.0052 15.06261,22.64514 	"/>
	
		<ellipse transform="matrix(0.94063 -0.33944 0.33944 0.94063 -5.29288 3.21153)" class="st0" cx="6.53386" cy="16.7357" rx="2.51998" ry="3.61916"/>
	
		<ellipse transform="matrix(0.94063 -0.33944 0.33944 0.94063 -5.74923 5.77905)" class="st0" cx="13.64506" cy="19.32397" rx="2.51998" ry="3.61916"/>
	
		<ellipse transform="matrix(0.94063 -0.33944 0.33944 0.94063 -8.21059 4.86077)" class="st0" cx="9.78944" cy="25.90073" rx="2.51998" ry="3.61916"/>
	
		<ellipse transform="matrix(0.94063 -0.33944 0.33944 0.94063 -7.75424 2.29325)" class="st0" cx="2.67824" cy="23.31246" rx="2.51998" ry="3.61916"/>
	
		<ellipse transform="matrix(0.94063 -0.33944 0.33944 0.94063 -8.66694 7.42829)" class="st0" cx="16.90064" cy="28.48899" rx="2.51998" ry="3.61916"/>
</g>
</svg>
