<?xml version="1.0" encoding="utf-8"?>
<!-- Generator: Adobe Illustrator 23.0.2, SVG Export Plug-In . SVG Version: 6.00 Build 0)  -->
<svg version="1.1" id="grafika" xmlns="http://www.w3.org/2000/svg" xmlns:xlink="http://www.w3.org/1999/xlink" x="0px" y="0px"
	 viewBox="0 0 142 115" style="enable-background:new 0 0 142 115;" xml:space="preserve">
<style type="text/css">
	.st0{fill:#FFFFFF;}
</style>
<g>
	<g>
		<path class="st0" d="M40.2,46.1c-0.4,0-0.9-0.1-1.3-0.3c-0.6-0.3-1.4-0.7-2-1.5c-0.4-0.5-0.7-1.1-0.9-1.6
			c-0.1-0.2-0.2-0.4-0.3-0.6c-0.4-0.7-0.7-1.4-1-2.2c-0.3-0.8-0.3-1.6-0.4-2.4l0-0.4c-0.1-0.8-0.2-1.6,0-2.3c0.2-1.1,0.8-2,1.6-2.5
			c0.8-0.6,1.8-0.6,2.9-0.1l0.1,0.1c0.5,0.2,1.3,0.6,1.9,1.3c0.5,0.6,0.9,1.4,1.3,2.1c0.1,0.1,0.2,0.3,0.2,0.4
			c0.3,0.5,0.6,1.1,0.8,1.8c0.2,0.7,0.2,1.3,0.3,1.9c0,0.2,0,0.4,0,0.6c0,0.2,0.1,0.5,0.1,0.7c0.1,0.6,0.2,1.4,0.1,2.1
			c-0.3,1.5-1.4,2.3-1.7,2.5c-0.4,0.3-0.9,0.5-1.4,0.5h0C40.3,46.1,40.3,46.1,40.2,46.1z M37.2,33.1c-0.3,0-0.5,0.1-0.6,0.2
			c-0.5,0.4-0.8,0.9-1,1.6c-0.1,0.6-0.1,1.1,0,1.9l0,0.4c0.1,0.7,0.1,1.4,0.4,2.1c0.2,0.7,0.5,1.4,0.9,2c0.1,0.2,0.2,0.4,0.3,0.7
			c0.2,0.5,0.4,0.9,0.7,1.3c0.5,0.6,1.1,0.9,1.5,1.1c0.3,0.1,0.6,0.2,0.8,0.2l0,0c0.2,0,0.4-0.1,0.6-0.3c0.4-0.3,1-0.8,1.1-1.6
			c0.1-0.5,0-1-0.1-1.6c0-0.2-0.1-0.5-0.1-0.8c0-0.2,0-0.5,0-0.7c0-0.6,0-1.1-0.2-1.6c-0.2-0.6-0.4-1.1-0.7-1.6
			c-0.1-0.2-0.2-0.3-0.2-0.5c-0.3-0.6-0.7-1.3-1.1-1.8c-0.4-0.5-0.9-0.7-1.4-1L38,33.3C37.7,33.1,37.4,33.1,37.2,33.1z"/>
		<path class="st0" d="M117.7,17.8c0-1.2-0.1-2.3-0.3-3.4c-0.2-1.2-0.3-2.3-0.7-3.4c-0.4-1.1-0.6-2.3-1.2-3.3
			c-0.4-0.7-0.9-1.3-1.3-2l-10.3,2.6l8.3-4.7c-0.5-0.4-0.9-0.7-1.4-1c-1-0.7-1.8-1.4-2.9-1.8c-1.2-0.4-2.3-0.6-3.4-0.5
			c-1.2,0.1-2.4,0.2-3.4,0.8L32.6,25.8c-0.9,0.6-1.8,1.5-2.4,2.5c-0.6,0.9-0.9,2-1.3,3.2c-0.3,1-0.6,2.2-0.6,3.4
			c0,1.2,0.3,2.3,0.5,3.5c0.2,1.2,0.4,2.3,0.8,3.4c0.4,1.1,0.7,2.2,1.3,3.2c0.6,1,1.4,1.9,2.1,2.8c0.8,0.9,1.5,1.8,2.4,2.5
			c1,0.7,2,1.2,3,1.6c1.2,0.4,2.3,0.9,3.3,0.8c1.2-0.1,2.2-0.6,3.2-1.2l68.6-24.7c0.9-0.6,1.7-1.4,2.4-2.4c0.6-0.9,1.4-1.8,1.7-3
			C117.8,20.2,117.6,19,117.7,17.8z M46.6,45.4c-0.4,1.2-1.1,2.1-1.8,2.8C44,49,43.1,49.6,42,49.8c-1,0.2-2.1,0.2-3.3-0.3
			c-1-0.4-1.8-1.2-2.7-2c-0.8-0.7-1.6-1.5-2.2-2.5c-0.6-0.9-1.1-1.9-1.5-3c-0.4-1-0.9-2.1-1.2-3.2c-0.2-1.1-0.2-2.2-0.2-3.4
			c0-1.2,0.2-2.3,0.5-3.3c0.4-1.2,0.7-2.3,1.4-3c0.8-0.9,1.8-1.4,2.9-1.6c1-0.2,2.2-0.2,3.3,0.3c1,0.4,2,1,2.9,1.8
			c0.8,0.7,1.4,1.8,2,2.7c0.6,0.9,1.2,1.9,1.6,3c0.4,1,0.6,2.2,0.8,3.3c0.2,1.1,0.4,2.2,0.4,3.3C46.8,43.2,46.9,44.4,46.6,45.4z
			 M77.9,31.6c-2.6,1.1-5.2,2.1-7.9,3.1c-2.7,0.9-5.3,1.9-8,2.7c-2.7,0.8-5.4,1.6-8.2,2.2c2.5-1.3,5.1-2.5,7.7-3.6
			c2.6-1.1,5.2-2.1,7.9-3.1c2.7-0.9,5.3-1.9,8-2.7c2.7-0.8,5.4-1.6,8.2-2.1C83.1,29.4,80.5,30.5,77.9,31.6z"/>
	</g>
	<g>
		<path class="st0" d="M51.9,77.1c-0.4,0-0.9-0.1-1.3-0.3c-0.6-0.3-1.4-0.7-2-1.5c-0.4-0.5-0.7-1.1-0.9-1.6
			c-0.1-0.2-0.2-0.4-0.3-0.6c-0.4-0.7-0.7-1.4-1-2.2c-0.3-0.8-0.3-1.6-0.4-2.4l0-0.4c-0.1-0.8-0.2-1.6,0-2.3c0.2-1.1,0.8-2,1.6-2.5
			c0.8-0.6,1.8-0.6,2.9-0.1l0.1,0.1c0.5,0.2,1.3,0.6,1.9,1.3c0.5,0.6,0.9,1.4,1.3,2.1c0.1,0.1,0.2,0.3,0.2,0.4
			c0.3,0.5,0.6,1.1,0.8,1.8c0.2,0.7,0.2,1.3,0.3,1.9c0,0.2,0,0.4,0,0.6c0,0.2,0.1,0.5,0.1,0.7c0.1,0.6,0.2,1.4,0.1,2.1
			c-0.3,1.5-1.4,2.3-1.7,2.5c-0.4,0.3-0.9,0.5-1.4,0.5h0C52,77.1,51.9,77.1,51.9,77.1z M48.9,64.1c-0.3,0-0.5,0.1-0.6,0.2
			c-0.5,0.4-0.8,0.9-1,1.6c-0.1,0.6-0.1,1.1,0,1.9l0,0.4c0.1,0.7,0.1,1.4,0.4,2.1c0.2,0.7,0.5,1.4,0.9,2c0.1,0.2,0.2,0.4,0.3,0.7
			c0.2,0.5,0.4,0.9,0.7,1.3c0.5,0.6,1.1,0.9,1.5,1.1c0.3,0.1,0.6,0.2,0.8,0.2l0,0c0.2,0,0.4-0.1,0.6-0.3c0.4-0.3,1-0.8,1.1-1.6
			c0.1-0.5,0-1-0.1-1.6c0-0.2-0.1-0.5-0.1-0.8c0-0.2,0-0.5,0-0.7c0-0.6,0-1.1-0.2-1.6c-0.2-0.6-0.4-1.1-0.7-1.6
			c-0.1-0.2-0.2-0.3-0.2-0.5c-0.3-0.6-0.7-1.3-1.1-1.8c-0.4-0.5-0.9-0.7-1.4-1l-0.2-0.1C49.4,64.2,49.1,64.1,48.9,64.1z"/>
		<path class="st0" d="M129.4,48.8c0-1.2-0.1-2.3-0.3-3.4c-0.2-1.2-0.3-2.3-0.7-3.4c-0.4-1.1-0.6-2.3-1.2-3.3
			c-0.4-0.7-0.9-1.3-1.3-2l-10.3,2.6l8.3-4.7c-0.5-0.4-0.9-0.7-1.4-1c-1-0.7-1.8-1.4-2.9-1.8c-1.2-0.4-2.3-0.6-3.4-0.5
			c-1.2,0.1-2.4,0.2-3.4,0.8L44.3,56.8c-0.9,0.6-1.8,1.5-2.4,2.5c-0.6,0.9-0.9,2-1.3,3.2c-0.3,1-0.6,2.2-0.6,3.4
			c0,1.2,0.3,2.3,0.5,3.5c0.2,1.2,0.4,2.3,0.8,3.4c0.4,1.1,0.7,2.2,1.3,3.2c0.6,1,1.4,1.9,2.1,2.8c0.8,0.9,1.5,1.8,2.4,2.5
			c1,0.7,2,1.2,3,1.6c1.2,0.4,2.3,0.9,3.3,0.8c1.2-0.1,2.2-0.6,3.2-1.2l68.6-24.7c0.9-0.6,1.7-1.4,2.4-2.4c0.6-0.9,1.4-1.8,1.7-3
			C129.5,51.3,129.3,50.1,129.4,48.8z M58.3,76.4c-0.4,1.2-1.1,2.1-1.8,2.8c-0.8,0.9-1.7,1.4-2.8,1.6c-1,0.2-2.1,0.2-3.3-0.3
			c-1-0.4-1.8-1.2-2.7-2c-0.8-0.7-1.6-1.5-2.2-2.5c-0.6-0.9-1.1-1.9-1.5-3c-0.4-1-0.9-2.1-1.2-3.2c-0.2-1.1-0.2-2.2-0.2-3.4
			c0-1.2,0.2-2.3,0.5-3.3c0.4-1.2,0.7-2.3,1.4-3c0.8-0.9,1.8-1.4,2.9-1.6c1-0.2,2.2-0.2,3.3,0.3c1,0.4,2,1,2.9,1.8
			c0.8,0.7,1.4,1.8,2,2.7c0.6,0.9,1.2,1.9,1.6,3c0.4,1,0.6,2.2,0.8,3.3c0.2,1.1,0.4,2.2,0.4,3.3C58.5,74.2,58.6,75.4,58.3,76.4z
			 M89.6,62.6c-2.6,1.1-5.2,2.1-7.9,3.1c-2.7,0.9-5.3,1.9-8,2.7c-2.7,0.8-5.4,1.6-8.2,2.2c2.5-1.3,5.1-2.5,7.7-3.6
			c2.6-1.1,5.2-2.1,7.9-3.1c2.7-0.9,5.3-1.9,8-2.7c2.7-0.8,5.4-1.6,8.2-2.1C94.8,60.4,92.2,61.6,89.6,62.6z"/>
	</g>
	<g>
		<path class="st0" d="M63.5,108.2c-0.4,0-0.9-0.1-1.3-0.3c-0.6-0.3-1.4-0.7-2-1.5c-0.4-0.5-0.7-1.1-0.9-1.6
			c-0.1-0.2-0.2-0.4-0.3-0.6c-0.4-0.7-0.7-1.4-1-2.2c-0.3-0.8-0.3-1.6-0.4-2.4l0-0.4c-0.1-0.8-0.2-1.6,0-2.3c0.2-1.1,0.8-2,1.6-2.5
			c0.8-0.6,1.8-0.6,2.9-0.1l0.1,0.1c0.5,0.2,1.3,0.6,1.9,1.3c0.5,0.6,0.9,1.4,1.3,2.1c0.1,0.1,0.2,0.3,0.2,0.4
			c0.3,0.5,0.6,1.1,0.8,1.8c0.2,0.7,0.2,1.3,0.3,1.9c0,0.2,0,0.4,0,0.6c0,0.2,0.1,0.5,0.1,0.7c0.1,0.6,0.2,1.4,0.1,2.1
			c-0.3,1.5-1.4,2.3-1.7,2.5c-0.4,0.3-0.9,0.5-1.4,0.5h0C63.7,108.2,63.6,108.2,63.5,108.2z M60.6,95.2c-0.3,0-0.5,0.1-0.6,0.2
			c-0.5,0.4-0.8,0.9-1,1.6c-0.1,0.6-0.1,1.1,0,1.9l0,0.4c0.1,0.7,0.1,1.4,0.4,2.1c0.2,0.7,0.5,1.4,0.9,2c0.1,0.2,0.2,0.4,0.3,0.7
			c0.2,0.5,0.4,0.9,0.7,1.3c0.5,0.6,1.1,0.9,1.5,1.1c0.3,0.1,0.6,0.2,0.8,0.2l0,0c0.2,0,0.4-0.1,0.6-0.3c0.4-0.3,1-0.8,1.1-1.6
			c0.1-0.5,0-1-0.1-1.6c0-0.2-0.1-0.5-0.1-0.8c0-0.2,0-0.5,0-0.7c0-0.6,0-1.1-0.2-1.6c-0.2-0.6-0.4-1.1-0.7-1.6
			c-0.1-0.2-0.2-0.3-0.2-0.5c-0.3-0.6-0.7-1.3-1.1-1.8c-0.4-0.5-0.9-0.7-1.4-1l-0.2-0.1C61,95.3,60.8,95.2,60.6,95.2z"/>
		<path class="st0" d="M141,79.9c0-1.2-0.1-2.3-0.3-3.4c-0.2-1.2-0.3-2.3-0.7-3.4c-0.4-1.1-0.6-2.3-1.2-3.3c-0.4-0.7-0.9-1.3-1.3-2
			l-10.3,2.6l8.3-4.7c-0.5-0.4-0.9-0.7-1.4-1c-1-0.7-1.8-1.4-2.9-1.8c-1.2-0.4-2.3-0.6-3.4-0.5c-1.2,0.1-2.4,0.2-3.4,0.8L55.9,87.9
			c-0.9,0.6-1.8,1.5-2.4,2.5c-0.6,0.9-0.9,2-1.3,3.2c-0.3,1-0.6,2.2-0.6,3.4c0,1.2,0.3,2.3,0.5,3.5c0.2,1.2,0.4,2.3,0.8,3.4
			c0.4,1.1,0.7,2.2,1.3,3.2c0.6,1,1.4,1.9,2.1,2.8c0.8,0.9,1.5,1.8,2.4,2.5c1,0.7,2,1.2,3,1.6c1.2,0.4,2.3,0.9,3.3,0.8
			c1.2-0.1,2.2-0.6,3.2-1.2l68.6-24.7c0.9-0.6,1.7-1.4,2.4-2.4c0.6-0.9,1.4-1.8,1.7-3C141.2,82.4,141,81.2,141,79.9z M70,107.5
			c-0.4,1.2-1.1,2.1-1.8,2.8c-0.8,0.9-1.7,1.4-2.8,1.6c-1,0.2-2.1,0.2-3.3-0.3c-1-0.4-1.8-1.2-2.7-2c-0.8-0.7-1.6-1.5-2.2-2.5
			c-0.6-0.9-1.1-1.9-1.5-3c-0.4-1-0.9-2.1-1.2-3.2c-0.2-1.1-0.2-2.2-0.2-3.4c0-1.2,0.2-2.3,0.5-3.3c0.4-1.2,0.7-2.3,1.4-3
			c0.8-0.9,1.8-1.4,2.9-1.6c1-0.2,2.2-0.2,3.3,0.3c1,0.4,2,1,2.9,1.8c0.8,0.7,1.4,1.8,2,2.7c0.6,0.9,1.2,1.9,1.6,3
			c0.4,1,0.6,2.2,0.8,3.3c0.2,1.1,0.4,2.2,0.4,3.3C70.1,105.3,70.3,106.5,70,107.5z M101.2,93.7c-2.6,1.1-5.2,2.1-7.9,3.1
			c-2.7,0.9-5.3,1.9-8,2.7c-2.7,0.8-5.4,1.6-8.2,2.2c2.5-1.3,5.1-2.5,7.7-3.6c2.6-1.1,5.2-2.1,7.9-3.1c2.7-0.9,5.3-1.9,8-2.7
			c2.7-0.8,5.4-1.6,8.2-2.1C106.4,91.5,103.8,92.7,101.2,93.7z"/>
	</g>
	<g>
		<path class="st0" d="M35.5,64.3c0-1.2-0.1-2.3-0.3-3.4c-0.2-1.2-0.3-2.3-0.7-3.4c-0.4-1.1-0.6-2.3-1.2-3.3c-0.6-1-1.3-2-2-2.8
			c-0.8-0.9-1.8-1.5-2.7-2.2c-1-0.7-1.8-1.4-2.9-1.8c-1.2-0.4-2.3-0.6-3.4-0.5c-1.2,0.1-2.4,0.2-3.4,0.8c-0.9,0.6-1.8,1.5-2.4,2.5
			c-0.6,0.9-0.9,2-1.3,3.2c-0.3,1-0.6,2.2-0.6,3.4c0,1.2,0.3,2.3,0.5,3.5c0.2,1.2,0.4,2.3,0.8,3.4c0.4,1.1,0.7,2.2,1.3,3.2
			c0.6,1,1.4,1.9,2.1,2.8c0.8,0.9,1.5,1.8,2.4,2.5c1,0.7,2,1.2,3,1.6c1.2,0.4,2.3,0.9,3.3,0.8c1.2-0.1,2.2-0.6,3.2-1.2
			c0.9-0.6,1.7-1.4,2.4-2.4c0.6-0.9,1.4-1.8,1.7-3C35.6,66.7,35.4,65.5,35.5,64.3z M32.9,67.2c-0.4,1.2-1.1,2.1-1.8,2.8
			c-0.8,0.9-1.7,1.4-2.8,1.6c-1,0.2-2.1,0.2-3.3-0.3c-1-0.4-1.8-1.2-2.7-2c-0.8-0.7-1.6-1.5-2.2-2.5c-0.6-0.9-1.1-1.9-1.5-3
			c-0.4-1-0.9-2.1-1.2-3.2c-0.2-1.1-0.2-2.2-0.2-3.4c0-1.2,0.2-2.3,0.5-3.3c0.4-1.2,0.7-2.3,1.4-3c0.8-0.9,1.8-1.4,2.9-1.6
			c1-0.2,2.2-0.2,3.3,0.3c1,0.4,2,1,2.9,1.8c0.8,0.7,1.4,1.8,2,2.7c0.6,0.9,1.2,1.9,1.6,3c0.4,1,0.6,2.2,0.8,3.3
			c0.2,1.1,0.4,2.2,0.4,3.3C33.1,65,33.2,66.2,32.9,67.2z"/>
		<path class="st0" d="M26.5,67.9c-0.4,0-0.9-0.1-1.3-0.3c-0.6-0.3-1.4-0.7-2-1.5c-0.4-0.5-0.7-1.1-0.9-1.6
			c-0.1-0.2-0.2-0.4-0.3-0.6c-0.4-0.7-0.7-1.4-1-2.2c-0.3-0.8-0.3-1.6-0.4-2.4l0-0.4c-0.1-0.8-0.2-1.6,0-2.3c0.2-1.1,0.8-2,1.6-2.5
			c0.8-0.6,1.8-0.6,2.9-0.1l0.1,0.1c0.5,0.2,1.3,0.6,1.9,1.3c0.5,0.6,0.9,1.4,1.3,2.1c0.1,0.1,0.2,0.3,0.2,0.4
			c0.3,0.5,0.6,1.1,0.8,1.8c0.2,0.7,0.2,1.3,0.3,1.9c0,0.2,0,0.4,0,0.6c0,0.2,0.1,0.5,0.1,0.7c0.1,0.6,0.2,1.4,0.1,2.1
			c-0.3,1.5-1.4,2.3-1.7,2.5c-0.4,0.3-0.9,0.5-1.4,0.5h0C26.7,67.9,26.6,67.9,26.5,67.9z M23.6,54.9c-0.3,0-0.5,0.1-0.6,0.2
			c-0.5,0.4-0.8,0.9-1,1.6c-0.1,0.6-0.1,1.1,0,1.9l0,0.4c0.1,0.7,0.1,1.4,0.4,2.1c0.2,0.7,0.5,1.4,0.9,2c0.1,0.2,0.2,0.4,0.3,0.7
			c0.2,0.5,0.4,0.9,0.7,1.3c0.5,0.6,1.1,0.9,1.5,1.1c0.3,0.1,0.6,0.2,0.8,0.2l0,0c0.2,0,0.4-0.1,0.6-0.3c0.4-0.3,1-0.8,1.1-1.6
			c0.1-0.5,0-1-0.1-1.6c0-0.2-0.1-0.5-0.1-0.8c0-0.2,0-0.5,0-0.7c0-0.6,0-1.1-0.2-1.6c-0.2-0.6-0.4-1.1-0.7-1.6
			c-0.1-0.2-0.2-0.3-0.2-0.5c-0.3-0.6-0.7-1.3-1.1-1.8c-0.4-0.5-0.9-0.7-1.4-1l-0.2-0.1C24,54.9,23.8,54.9,23.6,54.9z"/>
	</g>
	<g>
		<path class="st0" d="M21.8,86.2c0-1.2-0.1-2.3-0.3-3.4c-0.2-1.2-0.3-2.3-0.7-3.4c-0.4-1.1-0.6-2.3-1.2-3.3c-0.6-1-1.3-2-2-2.8
			c-0.8-0.9-1.8-1.5-2.7-2.2c-1-0.7-1.8-1.4-2.9-1.8c-1.2-0.4-2.3-0.6-3.4-0.5c-1.2,0.1-2.4,0.2-3.4,0.8C4.3,70,3.5,71,2.8,72
			c-0.6,0.9-0.9,2-1.3,3.2c-0.3,1-0.6,2.2-0.6,3.4c0,1.2,0.3,2.3,0.5,3.5c0.2,1.2,0.4,2.3,0.8,3.4c0.4,1.1,0.7,2.2,1.3,3.2
			c0.6,1,1.4,1.9,2.1,2.8c0.8,0.9,1.5,1.8,2.4,2.5c1,0.7,2,1.2,3,1.6c1.2,0.4,2.3,0.9,3.3,0.8c1.2-0.1,2.2-0.6,3.2-1.2
			c0.9-0.6,1.7-1.4,2.4-2.4c0.6-0.9,1.4-1.8,1.7-3C21.9,88.6,21.7,87.4,21.8,86.2z M19.3,89c-0.4,1.2-1.1,2.1-1.8,2.8
			c-0.8,0.9-1.7,1.4-2.8,1.6c-1,0.2-2.1,0.2-3.3-0.3c-1-0.4-1.8-1.2-2.7-2c-0.8-0.7-1.6-1.5-2.2-2.5c-0.6-0.9-1.1-1.9-1.5-3
			c-0.4-1-0.9-2.1-1.2-3.2c-0.2-1.1-0.2-2.2-0.2-3.4c0-1.2,0.2-2.3,0.5-3.3c0.4-1.2,0.7-2.3,1.4-3c0.8-0.9,1.8-1.4,2.9-1.6
			c1-0.2,2.2-0.2,3.3,0.3c1,0.4,2,1,2.9,1.8c0.8,0.7,1.4,1.8,2,2.7c0.6,0.9,1.2,1.9,1.6,3c0.4,1,0.6,2.2,0.8,3.3
			c0.2,1.1,0.4,2.2,0.4,3.3C19.4,86.9,19.6,88.1,19.3,89z"/>
		<path class="st0" d="M12.8,89.8c-0.4,0-0.9-0.1-1.3-0.3c-0.6-0.3-1.4-0.7-2-1.5c-0.4-0.5-0.7-1.1-0.9-1.6
			c-0.1-0.2-0.2-0.4-0.3-0.6c-0.4-0.7-0.7-1.4-1-2.2C7,82.7,7,81.9,6.9,81.1l0-0.4c-0.1-0.8-0.2-1.6,0-2.3c0.2-1.1,0.8-2,1.6-2.5
			c0.8-0.6,1.8-0.6,2.9-0.1l0.1,0.1c0.5,0.2,1.3,0.6,1.9,1.3c0.5,0.6,0.9,1.4,1.3,2.1c0.1,0.1,0.2,0.3,0.2,0.4
			c0.3,0.5,0.6,1.1,0.8,1.8c0.2,0.7,0.2,1.3,0.3,1.9c0,0.2,0,0.4,0,0.6c0,0.2,0.1,0.5,0.1,0.7c0.1,0.6,0.2,1.4,0.1,2.1
			c-0.3,1.5-1.4,2.3-1.7,2.5c-0.4,0.3-0.9,0.5-1.4,0.5h0C13,89.8,12.9,89.8,12.8,89.8z M9.9,76.8c-0.3,0-0.5,0.1-0.6,0.2
			c-0.5,0.4-0.8,0.9-1,1.6c-0.1,0.6-0.1,1.1,0,1.9l0,0.4c0.1,0.7,0.1,1.4,0.4,2.1c0.2,0.7,0.5,1.4,0.9,2c0.1,0.2,0.2,0.4,0.3,0.7
			c0.2,0.5,0.4,0.9,0.7,1.3c0.5,0.6,1.1,0.9,1.5,1.1c0.3,0.1,0.6,0.2,0.8,0.2l0,0c0.2,0,0.4-0.1,0.6-0.3c0.4-0.3,1-0.8,1.1-1.6
			c0.1-0.5,0-1-0.1-1.6c0-0.2-0.1-0.5-0.1-0.8c0-0.2,0-0.5,0-0.7c0-0.6,0-1.1-0.2-1.6c-0.2-0.6-0.4-1.1-0.7-1.6
			c-0.1-0.2-0.2-0.3-0.2-0.5c-0.3-0.6-0.7-1.3-1.1-1.8c-0.4-0.5-0.9-0.7-1.4-1L10.7,77C10.3,76.8,10.1,76.8,9.9,76.8z"/>
	</g>
	<g>
		<path class="st0" d="M47.1,95.4c0-1.2-0.1-2.3-0.3-3.4c-0.2-1.2-0.3-2.3-0.7-3.4c-0.4-1.1-0.6-2.3-1.2-3.3c-0.6-1-1.3-2-2-2.8
			c-0.8-0.9-1.8-1.5-2.7-2.2c-1-0.7-1.8-1.4-2.9-1.8C36.2,78,35,77.8,34,77.9c-1.2,0.1-2.4,0.2-3.4,0.8c-0.9,0.6-1.8,1.5-2.4,2.5
			c-0.6,0.9-0.9,2-1.3,3.2c-0.3,1-0.6,2.2-0.6,3.4c0,1.2,0.3,2.3,0.5,3.5c0.2,1.2,0.4,2.3,0.8,3.4c0.4,1.1,0.7,2.2,1.3,3.2
			c0.6,1,1.4,1.9,2.1,2.8c0.8,0.9,1.5,1.8,2.4,2.5c1,0.7,2,1.2,3,1.6c1.2,0.4,2.3,0.9,3.3,0.8c1.2-0.1,2.2-0.6,3.2-1.2
			c0.9-0.6,1.7-1.4,2.4-2.4c0.6-0.9,1.4-1.8,1.7-3C47.3,97.8,47.1,96.6,47.1,95.4z M44.6,98.3c-0.4,1.2-1.1,2.1-1.8,2.8
			c-0.8,0.9-1.7,1.4-2.8,1.6c-1,0.2-2.1,0.2-3.3-0.3c-1-0.4-1.8-1.2-2.7-2c-0.8-0.7-1.6-1.5-2.2-2.5c-0.6-0.9-1.1-1.9-1.5-3
			c-0.4-1-0.9-2.1-1.2-3.2c-0.2-1.1-0.2-2.2-0.2-3.4c0-1.2,0.2-2.3,0.5-3.3c0.4-1.2,0.7-2.3,1.4-3c0.8-0.9,1.8-1.4,2.9-1.6
			c1-0.2,2.2-0.2,3.3,0.3c1,0.4,2,1,2.9,1.8c0.8,0.7,1.4,1.8,2,2.7c0.6,0.9,1.2,1.9,1.6,3c0.4,1,0.6,2.2,0.8,3.3
			c0.2,1.1,0.4,2.2,0.4,3.3C44.8,96.1,44.9,97.3,44.6,98.3z"/>
		<path class="st0" d="M38.2,99c-0.4,0-0.9-0.1-1.3-0.3c-0.6-0.3-1.4-0.7-2-1.5c-0.4-0.5-0.7-1.1-0.9-1.6c-0.1-0.2-0.2-0.4-0.3-0.6
			c-0.4-0.7-0.7-1.4-1-2.2c-0.3-0.8-0.3-1.6-0.4-2.4l0-0.4c-0.1-0.8-0.2-1.6,0-2.3c0.2-1.1,0.8-2,1.6-2.5c0.8-0.6,1.8-0.6,2.9-0.1
			l0.1,0.1c0.5,0.2,1.3,0.6,1.9,1.3c0.5,0.6,0.9,1.4,1.3,2.1c0.1,0.1,0.2,0.3,0.2,0.4c0.3,0.5,0.6,1.1,0.8,1.8
			c0.2,0.7,0.2,1.3,0.3,1.9c0,0.2,0,0.4,0,0.6c0,0.2,0.1,0.5,0.1,0.7c0.1,0.6,0.2,1.4,0.1,2.1c-0.3,1.5-1.4,2.3-1.7,2.5
			c-0.4,0.3-0.9,0.5-1.4,0.5h0C38.3,99,38.3,99,38.2,99z M35.2,86c-0.3,0-0.5,0.1-0.6,0.2c-0.5,0.4-0.8,0.9-1,1.6
			c-0.1,0.6-0.1,1.1,0,1.9l0,0.4c0.1,0.7,0.1,1.4,0.4,2.1c0.2,0.7,0.5,1.4,0.9,2c0.1,0.2,0.2,0.4,0.3,0.7c0.2,0.5,0.4,0.9,0.7,1.3
			c0.5,0.6,1.1,0.9,1.5,1.1c0.3,0.1,0.6,0.2,0.8,0.2l0,0c0.2,0,0.4-0.1,0.6-0.3c0.4-0.3,1-0.8,1.1-1.6c0.1-0.5,0-1-0.1-1.6
			c0-0.2-0.1-0.5-0.1-0.8c0-0.2,0-0.5,0-0.7c0-0.6,0-1.1-0.2-1.6c-0.2-0.6-0.4-1.1-0.7-1.6c-0.1-0.2-0.2-0.3-0.2-0.5
			c-0.3-0.6-0.7-1.3-1.1-1.8c-0.4-0.5-0.9-0.7-1.4-1L36,86.2C35.7,86,35.4,86,35.2,86z"/>
	</g>
</g>
</svg>
