<?xml version="1.0" encoding="utf-8"?>
<!-- Generator: Adobe Illustrator 20.1.0, SVG Export Plug-In . SVG Version: 6.00 Build 0)  -->
<svg version="1.1" id="Warstwa_1" xmlns="http://www.w3.org/2000/svg" xmlns:xlink="http://www.w3.org/1999/xlink" x="0px" y="0px"
	 viewBox="0 0 55 55" style="enable-background:new 0 0 55 55;" xml:space="preserve">
<style type="text/css">
	.st0{fill:#FFDA44;}
	.st1{fill:#D80027;}
</style>
<g>
	<path class="st0" d="M1.7,37.1C5.6,47.5,15.7,55,27.5,55s21.9-7.5,25.8-17.9l-25.8-2.4L1.7,37.1z"/>
	<path d="M27.5,0C15.7,0,5.6,7.5,1.7,17.9l25.8,2.4l25.8-2.4C49.4,7.5,39.3,0,27.5,0z"/>
	<path class="st1" d="M1.7,17.9c-1.1,3-1.7,6.2-1.7,9.6s0.6,6.6,1.7,9.6h51.6c1.1-3,1.7-6.2,1.7-9.6s-0.6-6.6-1.7-9.6H1.7z"/>
</g>
</svg>
