<svg xmlns="http://www.w3.org/2000/svg" width="73.713" height="42.615" viewBox="0 0 73.713 42.615">
  <g id="Group_269" data-name="Group 269" transform="translate(-58.287 -683.385)">
    <path id="Path_532" data-name="Path 532" d="M161.92,647.5l-10.9-13.086a1.153,1.153,0,0,0-.885-.415h-9.35a1.15,1.15,0,0,0-.814.338l-1.629,1.629a1.151,1.151,0,0,0-.337.814v26.014a1.152,1.152,0,0,0,1.152,1.152h2.332c-.013-.191-.029-.381-.029-.576a8.638,8.638,0,1,1,17.276,0c0,.195-.016.385-.029.576h2.332a1.152,1.152,0,0,0,1.152-1.152V648.238A1.15,1.15,0,0,0,161.92,647.5Zm-7.8-.832H142.607a1.152,1.152,0,0,1-1.152-1.152v-6.911a1.152,1.152,0,0,1,1.152-1.152h6.372a1.153,1.153,0,0,1,.885.415l5.022,6.026a1.687,1.687,0,0,1,.392,1.083v.539A1.152,1.152,0,0,1,154.125,646.669Z" transform="translate(-30.187 56.295)" fill="#aa6400"/>
    <circle id="Ellipse_189" data-name="Ellipse 189" cx="6.335" cy="6.335" r="6.335" transform="translate(113.572 713.331)" fill="#aa6400"/>
    <path id="Path_533" data-name="Path 533" d="M139.919,628H97.3a2.3,2.3,0,0,0-2.3,2.3v32.249a2.3,2.3,0,0,0,2.3,2.3h1.181c-.013-.191-.029-.381-.029-.576a8.638,8.638,0,0,1,17.276,0c0,.195-.016.385-.029.576h24.216a2.3,2.3,0,0,0,2.3-2.3V630.3A2.3,2.3,0,0,0,139.919,628Z" transform="translate(-36.713 55.385)" fill="#aa6400"/>
    <circle id="Ellipse_190" data-name="Ellipse 190" cx="6.335" cy="6.335" r="6.335" transform="translate(64.046 713.331)" fill="#aa6400"/>
  </g>
</svg>
