<svg xmlns="http://www.w3.org/2000/svg" width="34.858" height="29.076" viewBox="0 0 34.858 29.076"><defs><style>.a{fill:#fff;}</style></defs><path class="a" d="M34.217,48.582,20.867,27.662a4.078,4.078,0,0,0-6.875,0L.641,48.581a4.078,4.078,0,0,0,3.438,6.272h26.7a4.078,4.078,0,0,0,3.438-6.272ZM17.429,51.332a2.223,2.223,0,1,1,2.223-2.223A2.223,2.223,0,0,1,17.429,51.332ZM20.51,35.885l-1.095,7.371a1.986,1.986,0,0,1-3.925.025L14.3,35.925a3.142,3.142,0,0,1,6.2-1A3.235,3.235,0,0,1,20.51,35.885Z" transform="translate(0 -25.778)"/></svg>