<svg xmlns="http://www.w3.org/2000/svg" width="60.287" height="69.723" viewBox="0 0 60.287 69.723"><defs><style>.a{fill:#fff;}</style></defs><path class="a" d="M1045.526-502.7a49.254,49.254,0,0,0-7.443-11.942,56.054,56.054,0,0,0-8.547-8.31l6.535-12.122a3.052,3.052,0,0,0-.568-3.631,9.638,9.638,0,0,0-6.923-3.062,15.369,15.369,0,0,0-5.929,1.524l-.13.053a9.337,9.337,0,0,1-2.737.858.732.732,0,0,1-.289-.045l-.026-.01c-3.457-1.264-6.135-2.047-8.8-2.047-3.509,0-6.488,1.381-9.374,4.345a3.081,3.081,0,0,0-.359,3.827l6.938,10.482a57.057,57.057,0,0,0-8.336,8.136,49.652,49.652,0,0,0-7.444,11.944,40.845,40.845,0,0,0-3.427,16.307,14.364,14.364,0,0,0,14.348,14.348h31.591a14.364,14.364,0,0,0,14.348-14.348A40.841,40.841,0,0,0,1045.526-502.7Zm-34.857-32.637a20.932,20.932,0,0,1,6.692,1.684,7.029,7.029,0,0,0,2.41.418,13.651,13.651,0,0,0,5.221-1.378,10.376,10.376,0,0,1,3.574-1.058,2.716,2.716,0,0,1,.792.108l-5.618,10.441h-10.055l-6.146-9.284A5.491,5.491,0,0,1,1010.668-535.336ZM1013-519H1024.6a49.853,49.853,0,0,1,8.821,8.348c6.224,7.5,9.379,15.662,9.379,24.266a8.105,8.105,0,0,1-2.379,5.8,8.152,8.152,0,0,1-5.818,2.421h-31.591a8.234,8.234,0,0,1-8.225-8.225c0-8.58,3.156-16.742,9.381-24.26A49.78,49.78,0,0,1,1013-519Z" transform="translate(-988.666 541.766)"/></svg>