<svg xmlns="http://www.w3.org/2000/svg" xmlns:xlink="http://www.w3.org/1999/xlink" width="229" height="200" viewBox="0 0 229 200"><defs><style>.a{fill:#fcfcfc;stroke:#e8e8e8;}.b{clip-path:url(#a);}.c{fill:#dcac7c;}.d{fill:#fde9b7;}.e{fill:#a17e85;opacity:0.7;}.e,.l,.m{mix-blend-mode:multiply;}.e,.l,.m,.o{isolation:isolate;}.f{fill:#ab7844;}.g{fill:#684b2e;}.h{fill:#96622c;}.i{fill:#8a4825;}.j{fill:#ad622f;opacity:0.74;}.k{fill:#cc7f47;}.l{fill:#4f1407;opacity:0.44;}.m{fill:#5b2f07;opacity:0.32;}.n{opacity:0.5;}.o{mix-blend-mode:screen;}.p{fill:#330800;}.q{fill:#661000;}.r{fill:#991700;}.s{fill:#cc1f00;}.t{fill:#ff2700;}.u,.w{fill:#fa352c;}.u{opacity:0.57;}.v{fill:#f72b1e;opacity:0.84;}.w{opacity:0.69;}.x,.y{fill:#fac600;}.x{opacity:0.64;}.z{fill:#f4e000;}</style><clipPath id="a"><rect class="a" width="229" height="200" transform="translate(1 300)"/></clipPath></defs><g class="b" transform="translate(-1 -300)"><path class="c" d="M-25.348,190.884,179.425,72.62l133.4,77.041L108.053,267.9Z" transform="translate(51.497 309.407)"/><g transform="translate(-7.843 260.961)"><path class="d" d="M213.25,174.874c5.292,5.38,20.554,5.931,23.269,10.333,6.779,10.992-9.223,15.015-20.114,21.3-11.515,6.65-24.772,13.289-39.493,11.151-7.556-1.1-16.915-9.116-22.824-12.528-12.841-7.414-2.5-13.591,3.582-22.791,2.172-3.284.72-11.691,5.3-14.338C180.4,157.944,202.811,164.261,213.25,174.874Z" transform="translate(10.275 14.584)"/><path class="e" d="M180.187,244.632l22.8-.347,7.786-2.711,24.75-2.92,6.778-7.369-4.136-3.219,17.171-1.057,2.207-5.6,9.542-7.421-8.447-1.964L256.8,208.76l14.286.591-1.286-12.2-5.353-3.684,2.128-2.841.566-4.581-7.352-11.21L247.408,168.9l-5.526,1.081-2.672-9.956-6.117-1.09-11.211-7.322-16.807-.348-6.157,2.758-4.307,6.134,39.176,11.408,21.551,19.049-20.717,34.691-3.268-1.112L202.99,235.317l-18.562,4.241Z" transform="translate(16.34 12.388)"/><path class="e" d="M146.029,168.91h14.443l8.186-4.432,6.622-1.564.86-6.909L172,153.658l-1.768.454Z" transform="translate(9.915 12.838)"/><path class="e" d="M132.512,180.3l6-1.147,9.177-10.9-3.6-3.911-4.328,1.043Z" transform="translate(7.373 14.848)"/><path class="e" d="M131.059,187.662l10.011,5.718.939,10.754,11.3,5.427,1.849,6.919,17.617,7.542,7.995-1.182.791,7.436-.443,5.843-28.147-5.839-17.319-8.551-12.236-10.636-2.85-11.54Z" transform="translate(5.125 19.234)"/><path class="f" d="M172.112,221.669l6.4-5.979h17.936l1.807,2.989,3.615,2.989-20.718,1.252Z" transform="translate(14.821 24.506)"/><path class="g" d="M171.527,229.9l.7-9.177,9.037,1.252,20.718-1.252.7,9.177-20.856,1.668Z" transform="translate(14.711 25.453)"/><path class="g" d="M239.891,181.639c-.139-.209-1.6-3.128-1.6-3.128l7.648-2.434,1.807,4.727-.606,4.251-8.849.476Z" transform="translate(27.269 17.055)"/><path class="h" d="M227.04,169l-1.738,4.31,1.738,4.658,13.7,8.9,1.6-3.893-1.6-3.128-7.369-9.525Z" transform="translate(24.826 15.723)"/><path class="f" d="M238.166,165.6l9.941,12.444-7.647,2.434-7.369-9.525-6.326-1.321,3.476-3.684Z" transform="translate(25.101 15.085)"/><path class="h" d="M248.905,201.749v-7.022l-4.658-5.075-6.118-1.113-3.406,13.209Z" transform="translate(26.598 19.399)"/><path class="f" d="M245.515,181.752l-3.337,1.182-4.589,6.883,6.118,1.113L248.366,196l1.251-9.037Z" transform="translate(27.137 18.123)"/><path class="g" d="M246.66,202.2l2.086-10.011-.835-6.048-1.251,9.037Z" transform="translate(28.843 18.948)"/><path class="f" d="M226,209.415l8.621-10.984,7.925-3.337,4.171.834-5.839,6.327-1.113,7.16Z" transform="translate(24.958 20.632)"/><path class="g" d="M245.515,205.39l-.974-9.594-5.839,6.327-1.113,7.16.446,8.553,4.143-10.082Z" transform="translate(27.137 20.764)"/><path class="h" d="M226,214.8v-7.648h13.765l.446,8.553Z" transform="translate(24.958 22.899)"/><path class="h" d="M198.561,155.8l6.4-1.669,14.808,8.481,9.455.487-.556,4.1,1.668,3.823h-11.47l-13.14-7.091-7.161-1.043Z" transform="translate(19.796 12.928)"/><path class="g" d="M227.3,158.288l-1.043,3.511-1.808.521-.556,4.1,1.668,3.823,2.92-3.823-.765-3.2Z" transform="translate(24.562 13.709)"/><path class="f" d="M198.561,156.341l3.059-5.075h7.091l11.54,5.075,11.819,3.267-1.043,3.511-1.808.521-9.455-.487-14.808-8.481Z" transform="translate(19.796 12.388)"/><path class="h" d="M172.361,151.575l7.508-1.947,7.856,2.294,12.1-.348,1.391,5.284-.834,3.406-15.712.765-13.14-1.112Z" transform="translate(14.711 12.08)"/><path class="f" d="M197.813,149.87l-15.92-1.53-8.9,2.364-.765,1.112,7.508-1.947,7.856,2.294,12.1-.348Z" transform="translate(14.843 11.838)"/><path class="h" d="M170.078,150.784l-5.527,1.251-4.588,3.806-14.13,4.971.73,4.206-1.981,3.285,1.721,1.147,17.676-4.537,6.987-6Z" transform="translate(9.643 12.298)"/><path class="g" d="M140.719,154.646l3.389,1.825,2.451,3.615.73,4.206-1.981,3.285-1.3-1.1-3.285-1.929Z" transform="translate(8.916 13.024)"/><path class="f" d="M166.633,149.628l-9.8,1.373-7.821,3.337-8.291,1.251,3.389,1.825,2.451,3.615,14.13-4.971,4.588-3.806L170.8,151Z" transform="translate(8.916 12.08)"/><path class="g" d="M119.506,170.488l4.693.261,5.579,3.285,5.683.834-.365,4.276-16.32.417Z" transform="translate(4.789 16.004)"/><path class="f" d="M134.147,157.717l-9.021,5.631-5.735,9.542,4.693.261,5.579,3.285,5.683.834,6.883-12.044-4.484-3.7-2.086-3.025Z" transform="translate(4.904 13.602)"/><path class="h" d="M139.76,168.313v-4.276l-6.883,12.044-.365,4.276,3.624-7.091Z" transform="translate(7.373 14.791)"/><path class="f" d="M120.794,181.719l3.339.22,1.64-3.814,4.24,2.155-2.329,13.14-5.11,2.016-6.807-2.4Z" transform="translate(4.223 17.44)"/><path class="g" d="M115.475,195.855l.348-5.179,6.807,2.4,5.11-2.016,1.251,4.544,3.911,7.248-17.427.209Z" transform="translate(4.168 19.801)"/><path class="h" d="M130.074,189.115l.887,15.755-3.911-7.248-1.251-4.545,2.329-13.14Z" transform="translate(6.11 17.781)"/><path class="g" d="M124.007,198.37l-1.808,5.91.9,4.8,12.236,10.636,1.46-9.246Z" transform="translate(5.433 21.248)"/><path class="f" d="M145.272,205.74l-8.76,4.728-12.792-12.1h13.7Z" transform="translate(5.719 21.248)"/><path class="h" d="M142.991,216.808,144.1,209.3l-.625-4.728-8.76,4.728-1.46,9.246Z" transform="translate(7.513 22.415)"/><path class="g" d="M167.689,227.73v-7.717l-7.091.626-9.455-5.144s-9.455-3.2-10.15-3.2-7.092,1.529-7.092,1.529l.556,5.98,11.4,5.283Z" transform="translate(7.634 23.868)"/><path class="f" d="M140.715,209.254l13.626,3.615,16.546,3.059-3.2,4.658-7.091.625-9.455-5.144-10.15-3.2L133.9,214.4Z" transform="translate(7.634 23.296)"/><path class="h" d="M165.8,223.979l-.261-9.108-3.2,4.658v7.717Z" transform="translate(12.983 24.352)"/><path class="e" d="M159.932,202.414l6.587,4.579L191.41,196.07l24.543,5.455-21.838-12.691-2.667-1.55-3.6.506-18.966,17.453Z" transform="translate(12.53 19.163)"/><path class="e" d="M214.767,199.889l-.025-8.98-10.536-6.122.013-7.188-5.635-3.065,6.245-.482,6.094,3.547.159,5.523,7.311,7.222-.021,7.4Z" transform="translate(19.8 16.674)"/><g transform="translate(164.566 187.826)"><path class="i" d="M223.787,182.829a3.433,3.433,0,0,1-1.605,1.242c-7.218,2.665-16.039,2.619-24.281,3.651-9.107,1.139-17.965,4.2-27.616,5.4-3.278.406-8.959,1.411-12.284,1.678,1.276-4.057.49-10.048-.813-13.913,2.449-.493,4.839-.34,6.974-.686,2.926-.473,5.824-.821,8.695-1.284,7.127-1.151,13.952-2.667,20.651-3.815,9.228-1.581,17.882-3.143,26.549-3.486a3.8,3.8,0,0,1,3.217,1.7C225.1,175.931,225.973,179.755,223.787,182.829Z" transform="translate(-152.552 -171.611)"/><path class="j" d="M162.1,190.967c2.626-1.183,6-1.368,8.767-2.13,2.522-.694,5.155-.878,7.667-1.51,2.6-.655,5.4-1.12,8.053-1.573,3.412-.58,6.828-1.559,10.292-2a31.375,31.375,0,0,0,5.211-1.053c-2.876-.361-6.089.538-9.014.543-3.333,0-6.486.971-9.685,1.771a58.489,58.489,0,0,1-8.812,1.669c-2.259.211-5.866-.153-7.843,1.075a20.731,20.731,0,0,1-2.325,1.735A8.94,8.94,0,0,0,162.1,190.967Z" transform="translate(-151.628 -169.541)"/><path class="j" d="M198.452,182.781a38.036,38.036,0,0,0,6.456.693c2.02.108,3.953-.712,5.868-1.37.985-.339,1.956-.72,2.945-1.042a12.468,12.468,0,0,0,1.539-.453,11.874,11.874,0,0,0-6.538.518c1.331-.555,2.6-1.218,3.935-1.774,1.082-.453,2.755-.754,3.628-1.5a6.048,6.048,0,0,1-1.421.51c-.6.219-1.226.39-1.834.588-1.258.411-2.519.827-3.811,1.118-4.919,1.11-9.908,1.139-14.858,1.49-1.689.12-2.581.93-4.236,1.132C192.878,182.889,195.715,182.163,198.452,182.781Z" transform="translate(-146.356 -170.436)"/><path class="j" d="M193.589,182.125a24.907,24.907,0,0,1-6.517,1.444c-2.663.372-5.311.934-7.922,1.429-3.058.58-6.068.91-9.081,1.711-2.124.566-4.613,1.606-6.752,1.672.794-.978.645-2.93.333-4.037a7.766,7.766,0,0,0,5.557,1.21c2.933-.459,6-1.357,8.968-1.992,2.771-.592,5.585-1.118,8.386-1.527,2.741-.4,5.168-1.574,7.906-2.307,4.716-1.262,9.534-1.354,14.308-2.02a88,88,0,0,1,10.075-.759,29.54,29.54,0,0,1-6.772,2.023c-2.525.355-5.128-.107-7.649.415-2.19.453-4.489.689-6.636,1.236C196.553,180.937,194.317,181.023,193.589,182.125Z" transform="translate(-151.399 -170.607)"/><path class="j" d="M200.627,177.416a67.684,67.684,0,0,1,8.42-1.088c2.514-.074,5.078-.113,7.573-.2a33.2,33.2,0,0,0,3.871-.192,10.132,10.132,0,0,0-.7-1.8c-.506.02-1.015.02-1.556-.007-3.236-.165-6.239.658-9.42.873a57.161,57.161,0,0,0-8.643,1.059c-6.759,1.486-14.153,2.452-20.372,5.624,4.419.421,9.564-2.041,13.82-3.114C195.9,177.991,198.343,177.765,200.627,177.416Z" transform="translate(-148.3 -171.143)"/><path class="j" d="M188.469,177.675c-8.128,3.322-17.8,5.762-26.537,4.827,1.357-1.224,4.452-1.129,6.2-1.156a33.777,33.777,0,0,0,7.781-1.08c2.773-.678,5.616-1.252,8.319-2.09,1.464-.454,3.343-.051,4.637-.8C189.141,177.382,188.528,177.579,188.469,177.675Z" transform="translate(-151.659 -170.526)"/><path class="j" d="M204.109,174.446c2.595-.316,5.215-.455,7.8-.649a21.545,21.545,0,0,0,5.5-1.036,3.836,3.836,0,0,0-1.865-1.074c-.067.015-.133.033-.2.048-4.625.923-9.458.8-14.054,1.948-2.456.617-4.883,1.377-7.359,1.946-2.552.588-5.547.77-7.92,1.868a4.891,4.891,0,0,0,2.041-.113C193.535,176.727,198.6,175.119,204.109,174.446Z" transform="translate(-147.131 -171.597)"/><path class="j" d="M172.142,178.331c-2.87.463-5.768.811-8.695,1.284-.734.12-1.574.195-2.458.261a2.063,2.063,0,0,0,.469.468c.922.646,2.087.23,3.217.033,2.99-.522,6.1.039,9.049-.561,3.16-.645,6.205-1.534,9.33-2.333,2.038-.523,4.487-.554,6.416-1.3a7.842,7.842,0,0,0,2.223-1.473C185.345,175.833,178.879,177.243,172.142,178.331Z" transform="translate(-151.837 -171.028)"/><path class="k" d="M153.3,186.83a9.029,9.029,0,0,1,1.1-4.909,5.689,5.689,0,0,1,3.523-2.5c1.568-.2,2.955.979,3.961,2.025a7.143,7.143,0,0,1,1.718,4.6,6.334,6.334,0,0,1-.668,3.584c-1.189,2.025-2.736,4.405-5.474,3.5a4.306,4.306,0,0,1-1.638-.661,7.844,7.844,0,0,1-1.2-1.356,6.691,6.691,0,0,1-1.129-2.832A8.7,8.7,0,0,1,153.3,186.83Z" transform="translate(-153.286 -170.146)"/><path class="i" d="M157.568,191.913c2.191-.059,3.9-3.072,4.275-4.89.383-1.838-.915-4.64-2.368-5.8a2.945,2.945,0,0,0-2.509-.229,4.157,4.157,0,0,0-1.989,2.4,7.912,7.912,0,0,0-.955,3.361,6.249,6.249,0,0,0,1.251,3.255C156.006,190.991,156.4,191.944,157.568,191.913Z" transform="translate(-153.148 -169.879)"/><path class="k" d="M157.617,190.708c1.093-.1,2.238-1.425,2.72-2.355a5.127,5.127,0,0,0,.421-3.084c-.282-1.425-1.512-4.546-3.455-3.708-1.638.706-2.622,3.41-2.5,5.1a7.249,7.249,0,0,0,.939,2.865C156.24,190.353,156.624,190.8,157.617,190.708Z" transform="translate(-153.003 -169.766)"/><path class="i" d="M157.319,189.534c1.268.111,2.191-1.47,2.444-2.482a5.493,5.493,0,0,0-.4-3.137c-.342-.845-1.057-2.068-2.135-1.461-1.129.636-1.36,2.262-1.63,3.412a3.1,3.1,0,0,0,.4,2.5C156.322,188.981,156.519,189.465,157.319,189.534Z" transform="translate(-152.871 -169.602)"/><path class="k" d="M157.5,188.213c1.233-.424,1.518-2.206,1.316-3.282-.144-.766-.447-2.344-1.517-1.465a4.022,4.022,0,0,0-1.2,2.914C156.195,187.012,156.57,188.532,157.5,188.213Z" transform="translate(-152.76 -169.43)"/><path class="i" d="M157.258,186.793c.841-.293,1.253-2.779.14-2.411C156.6,184.647,156.347,187.11,157.258,186.793Z" transform="translate(-152.648 -169.216)"/><path class="i" d="M161.843,189.264c-.573-.025-1.824-.2-2.394-.2a10.813,10.813,0,0,0,1.543.886c.334.027.606-.476.857-.646C161.779,189.326,161.9,189.226,161.843,189.264Z" transform="translate(-152.126 -168.329)"/><path class="i" d="M162.784,184.768a5.887,5.887,0,0,1-1.871.547c.207-.175.811-.573,1.025-.745.2-.159.444-.26.62-.424A2.525,2.525,0,0,1,162.784,184.768Z" transform="translate(-151.851 -169.253)"/><path class="i" d="M161.313,181.1a4.463,4.463,0,0,1-1.524,1.272c.359-.547.772-1.309,1.118-1.82A1.287,1.287,0,0,1,161.313,181.1Z" transform="translate(-152.062 -169.929)"/><path class="i" d="M156.2,181.029c-.078-.23-.409-.715-.513-.931q-.242.167-.469.359C155.442,180.608,156.038,180.956,156.2,181.029Z" transform="translate(-152.923 -170.015)"/><path class="i" d="M153.61,183.047a3.885,3.885,0,0,0,1.046.064,4.355,4.355,0,0,0-.847-.655C153.735,182.649,153.669,182.847,153.61,183.047Z" transform="translate(-153.225 -169.571)"/><path class="i" d="M155.911,189.86c-.1.15-.333.533-.436.694a2.171,2.171,0,0,0,.307.2A3.1,3.1,0,0,0,155.911,189.86Z" transform="translate(-152.874 -168.178)"/><g transform="translate(4.034 0)"><path class="l" d="M161.149,182.909a5.98,5.98,0,0,1,1.442,2.749,9.553,9.553,0,0,1,1.618-.8c1.6-.348,3.176-.739,4.765-1.125,3.378-.822,6.83.02,10.272-.314a65.18,65.18,0,0,0,10.239-2.08c3.435-.9,6.948-1.534,10.355-2.527,3.043-.887,6.045-1.973,9.157-2.607a24.639,24.639,0,0,1,16.071,2.2,8.95,8.95,0,0,0-.463-2.444l-.018-.052c-.1-.286-.208-.568-.33-.842l-.026-.058a10.523,10.523,0,0,0-.958-1.687,4.171,4.171,0,0,0-1.084-1.074l-.031-.02c-.062-.04-.124-.08-.188-.116l-.055-.031c-.056-.032-.113-.062-.17-.09l-.068-.033c-.055-.025-.111-.05-.166-.073l-.071-.03c-.059-.023-.119-.044-.179-.063l-.059-.02a3.449,3.449,0,0,0-1.147-.154c-8.667.343-17.321,1.9-26.549,3.486-4.945.847-9.96,1.9-15.113,2.848-.1.018-.191.037-.288.053-.686.127-1.376.249-2.067.372l-.573.1q-1.3.226-2.611.44c-.718.116-1.436.225-2.158.33-2.164.315-4.342.6-6.537.954-.152.025-.311.046-.472.068-2.013.259-4.233.162-6.5.618C158.756,180.681,160.143,181.863,161.149,182.909Z" transform="translate(-156.586 -171.611)"/><path class="m" d="M157.222,179.416c-.071.009-.144.023-.216.038C157.078,179.439,157.151,179.426,157.222,179.416Z" transform="translate(-156.62 -170.143)"/><path class="m" d="M156.7,179.535l-.017.006Z" transform="translate(-156.681 -170.121)"/><path class="m" d="M156.925,179.472l-.093.024Z" transform="translate(-156.653 -170.133)"/></g></g><path class="g" d="M206.286,230.469l-2.225-4.449,1.112-5.84,14.322-3.754,9.037-6.118,2.5,10.081L222,225.463Z" transform="translate(20.831 23.494)"/><path class="h" d="M199.38,223.485l1.668-9.316,5.005,5.284-1.112,5.84,2.225,4.449Z" transform="translate(19.95 24.22)"/><g transform="translate(169.192 177.155)"><path class="i" d="M162.8,162.8a3.6,3.6,0,0,1,2.13-.019c7.727,2.356,15.075,8,22.62,12.369,8.339,4.831,17.688,7.9,26.519,13.027,3,1.742,8.387,4.51,11.336,6.4-3.644,2.583-6.79,8.091-8.157,12.149-2.36-1.143-4.261-2.79-6.265-3.857-2.748-1.463-5.392-3.013-8.086-4.448-6.69-3.564-13.359-6.631-19.69-9.927-8.719-4.54-16.947-8.73-24.412-13.948a3.984,3.984,0,0,1-1.607-3.468C157.319,167.735,159.016,163.981,162.8,162.8Z" transform="translate(-157.18 -162.629)"/><path class="j" d="M216.249,191c-2.946-.678-5.883-2.666-8.683-3.788-2.55-1.022-4.868-2.54-7.37-3.607-2.59-1.1-5.223-2.49-7.732-3.8-3.221-1.682-6.7-3.033-9.874-4.866a32.886,32.886,0,0,0-5.026-2.428c2.175,2.128,5.433,3.417,7.882,5.27,2.79,2.112,6.039,3.308,9.223,4.67a61.632,61.632,0,0,1,8.428,4.2c2.022,1.258,4.806,3.854,7.239,4.082a21.7,21.7,0,0,1,3.046.027A9.438,9.438,0,0,0,216.249,191Z" transform="translate(-153.345 -160.771)"/><path class="j" d="M178.834,173.615a39.888,39.888,0,0,0-4.958-4.681c-1.621-1.372-3.757-1.914-5.777-2.581-1.038-.343-2.092-.642-3.125-1a13.1,13.1,0,0,0-1.573-.6,12.458,12.458,0,0,0,5.8,3.719c-1.465-.381-2.95-.636-4.417-1.016-1.193-.309-2.783-1.119-3.984-1.053a6.355,6.355,0,0,1,1.511.476c.642.2,1.272.453,1.907.672,1.314.456,2.632.909,3.9,1.486,4.818,2.2,9.007,5.34,13.37,8.192,1.489.972,2.748.86,4.261,1.743C183.563,177.064,180.731,175.868,178.834,173.615Z" transform="translate(-156.499 -162.229)"/><path class="j" d="M186.372,179.944a26.157,26.157,0,0,1,6.366,2.932c2.462,1.381,5.032,2.592,7.53,3.836,2.925,1.458,5.652,3.094,8.679,4.337,2.136.878,4.878,1.588,6.708,2.892-1.284.314-2.4,2.04-2.843,3.164a8.151,8.151,0,0,0-3.877-4.541c-2.745-1.479-5.878-2.674-8.763-4.03-2.692-1.264-5.381-2.611-7.98-4.049-2.546-1.407-5.323-1.966-8.076-3.091-4.745-1.94-8.832-4.925-13.247-7.4a92.405,92.405,0,0,1-8.906-5.765,31.007,31.007,0,0,1,6.948,2.61c2.336,1.307,4.22,3.346,6.659,4.511,2.117,1.011,4.19,2.274,6.331,3.18C183.138,179.054,185.063,180.4,186.372,179.944Z" transform="translate(-156.28 -161.576)"/><path class="j" d="M175.435,178.16a70.933,70.933,0,0,1-7.731-4.436c-2.148-1.536-4.318-3.132-6.461-4.639a34.648,34.648,0,0,0-3.359-2.3,10.588,10.588,0,0,0-.555,1.954c.436.305.86.629,1.3,1,2.6,2.193,5.635,3.412,8.432,5.253a59.764,59.764,0,0,0,7.9,4.6c6.594,3.052,13.39,6.939,20.6,8.237-3.426-3.157-9.292-4.369-13.531-6.174C179.758,180.687,177.568,179.321,175.435,178.16Z" transform="translate(-157.151 -161.847)"/><path class="j" d="M184.048,184.05c8.9,2.386,18.541,6.487,25.254,12.82-1.912.162-4.439-1.884-5.916-2.97a35.45,35.45,0,0,0-7.193-4.038c-2.75-1.2-5.491-2.521-8.282-3.537-1.512-.551-2.828-2.082-4.386-2.276C183.3,183.87,183.939,184.094,184.048,184.05Z" transform="translate(-152.233 -158.614)"/><path class="j" d="M169.4,177.4c-2.369-1.382-4.649-2.93-6.931-4.409a22.54,22.54,0,0,0-5.255-2.626,4.043,4.043,0,0,0,.877,2.083c.065.03.133.056.2.087,4.453,2.165,8.414,5.34,12.988,7.3,2.444,1.044,4.956,1.951,7.389,3.046,2.507,1.13,5.127,2.88,7.808,3.469a5.142,5.142,0,0,0-1.779-1.2C179.685,182.206,174.427,180.333,169.4,177.4Z" transform="translate(-157.174 -161.175)"/><path class="j" d="M198.608,194.247c2.695,1.435,5.338,2.986,8.086,4.448.689.367,1.439.838,2.221,1.343a2.163,2.163,0,0,0-.1-.689c-.359-1.126-1.6-1.518-2.668-2.071-2.831-1.464-5.078-3.91-7.922-5.279-3.051-1.468-6.163-2.659-9.283-3.974-2.035-.859-4.1-2.388-6.189-2.989a8.214,8.214,0,0,0-2.794-.179C185.981,187.95,192.283,190.878,198.608,194.247Z" transform="translate(-152.894 -158.456)"/><path class="k" d="M216.633,198.5a9.463,9.463,0,0,1-4.038,3.405,5.968,5.968,0,0,1-4.534-.146c-1.44-.827-1.848-2.7-2.025-4.208a7.492,7.492,0,0,1,1.484-4.939,6.66,6.66,0,0,1,2.835-2.571c2.28-.939,5.086-1.947,6.8.545a4.513,4.513,0,0,1,.95,1.592,8.317,8.317,0,0,1,.141,1.9,7.021,7.021,0,0,1-.855,3.084A8.99,8.99,0,0,1,216.633,198.5Z" transform="translate(-147.997 -157.665)"/><path class="i" d="M216.061,190.964c-1.87-1.343-5.21.094-6.681,1.373-1.487,1.294-2.181,4.46-1.7,6.355a3.094,3.094,0,0,0,1.953,1.786,4.364,4.364,0,0,0,3.188-.747,8.275,8.275,0,0,0,2.935-2.2,6.553,6.553,0,0,0,1.021-3.516C216.781,192.727,217.058,191.68,216.061,190.964Z" transform="translate(-147.71 -157.401)"/><path class="k" d="M215.078,191.593c-.979-.606-2.777-.23-3.769.242A5.387,5.387,0,0,0,209,194.147c-.669,1.37-1.622,4.761.533,5.3,1.819.449,4.359-1.186,5.329-2.672a7.619,7.619,0,0,0,1.035-2.992C216,192.765,215.968,192.144,215.078,191.593Z" transform="translate(-147.583 -157.24)"/><path class="i" d="M214.43,192.41c-.99-.9-2.765-.163-3.619.523a5.767,5.767,0,0,0-1.659,2.876c-.251.924-.429,2.4.857,2.578,1.347.185,2.573-1.028,3.53-1.818a3.255,3.255,0,0,0,1.261-2.345C214.913,193.505,215.055,192.975,214.43,192.41Z" transform="translate(-147.437 -157.106)"/><path class="k" d="M213.334,193.009c-1.3-.429-2.671.88-3.185,1.907-.366.733-1.116,2.244.339,2.19a4.225,4.225,0,0,0,2.854-1.675C213.662,194.841,214.313,193.332,213.334,193.009Z" transform="translate(-147.315 -156.931)"/><path class="i" d="M212.512,193.92c-.89-.289-2.812,1.527-1.648,1.926C211.7,196.133,213.475,194.232,212.512,193.92Z" transform="translate(-147.15 -156.749)"/><path class="i" d="M210.4,188.841c.462.385,1.4,1.329,1.872,1.691a11.519,11.519,0,0,0-.727-1.72c-.263-.235-.81.013-1.126,0C210.49,188.831,210.324,188.836,210.4,188.841Z" transform="translate(-147.173 -157.724)"/><path class="i" d="M206.674,191.986a6.147,6.147,0,0,1,1.91.731c-.283.014-1.042-.037-1.329-.029-.266.008-.537-.064-.788-.039A2.56,2.56,0,0,1,206.674,191.986Z" transform="translate(-147.909 -157.107)"/><path class="i" d="M205.511,195.966a4.705,4.705,0,0,1,2.084-.1c-.647.229-1.478.6-2.092.813A1.356,1.356,0,0,1,205.511,195.966Z" transform="translate(-148.099 -156.39)"/><path class="i" d="M209.651,199.246c-.081.242-.113.858-.163,1.1.207.008.413.008.62,0C210.014,200.079,209.738,199.409,209.651,199.246Z" transform="translate(-147.341 -155.742)"/><path class="i" d="M213.106,199.172c-.24-.2-.624-.675-.833-.718a4.5,4.5,0,0,0,.292,1.086C212.749,199.425,212.929,199.3,213.106,199.172Z" transform="translate(-146.817 -155.891)"/><path class="i" d="M215.495,191.971c.176-.062.617-.234.8-.3a2.358,2.358,0,0,0-.132-.36A3.268,3.268,0,0,0,215.495,191.971Z" transform="translate(-146.211 -157.235)"/><g transform="translate(0 3.057)"><path class="l" d="M215.22,202.033a6.29,6.29,0,0,1,.538-3.215,9.987,9.987,0,0,1-1.862-.355c-1.558-.724-3.126-1.4-4.7-2.086-3.347-1.458-5.7-4.354-8.787-6.262a68.521,68.521,0,0,0-9.884-4.763c-3.445-1.427-6.782-3.131-10.263-4.464-3.107-1.192-6.308-2.191-9.311-3.637A25.864,25.864,0,0,1,158.912,165.2a9.323,9.323,0,0,0-1.164,2.337l-.019.056c-.1.3-.187.607-.259.914l-.015.067a10.978,10.978,0,0,0-.271,2.019,4.366,4.366,0,0,0,.225,1.586l.013.036c.025.074.052.145.082.216l.026.062c.027.062.056.122.086.183l.036.07q.045.086.093.168c.013.023.026.046.04.069.036.057.072.113.109.168l.038.055a3.591,3.591,0,0,0,.86.857c7.465,5.218,15.692,9.409,24.412,13.948,4.673,2.432,9.531,4.742,14.445,7.216l.274.138q.98.5,1.964,1c.182.093.364.184.545.278q1.23.636,2.462,1.291,1.01.538,2.014,1.1c2.009,1.11,4.011,2.255,6.072,3.353.143.076.289.159.437.244,1.846,1.062,3.64,2.553,5.828,3.613C215.8,205.414,215.4,203.545,215.22,202.033Z" transform="translate(-157.18 -165.202)"/><path class="m" d="M207.735,199.744c.065.038.135.072.207.106C207.87,199.816,207.8,199.782,207.735,199.744Z" transform="translate(-147.671 -158.705)"/><path class="m" d="M208.223,199.958l.018,0Z" transform="translate(-147.579 -158.665)"/><path class="m" d="M208,199.874l.093.038Z" transform="translate(-147.62 -158.68)"/></g></g><g transform="translate(170.722 167.474)"><path class="i" d="M218.551,162.688a3.6,3.6,0,0,1-.649,2.029c-4.657,6.6-12.316,11.812-18.83,17.61-7.2,6.406-13.041,14.325-20.676,21.105-2.592,2.3-6.909,6.555-9.626,8.763-1.312-4.27-5.557-8.982-8.983-11.552,1.824-1.882,3.984-3.172,5.624-4.742,2.249-2.153,4.549-4.177,6.757-6.287,5.48-5.237,10.48-10.611,15.593-15.591,7.041-6.86,13.6-13.361,20.89-18.817a3.983,3.983,0,0,1,3.8-.441C215.58,155.941,218.614,158.728,218.551,162.688Z" transform="translate(-158.219 -154.481)"/><path class="j" d="M170.124,204.161c1.567-2.585,4.373-4.752,6.316-7.06,1.768-2.1,3.935-3.829,5.733-5.87,1.861-2.114,4-4.181,6.03-6.153,2.605-2.533,4.978-5.412,7.713-7.856a32.808,32.808,0,0,0,3.88-4.011c-2.7,1.4-4.946,4.089-7.473,5.835-2.88,1.988-5.033,4.7-7.323,7.3a61.5,61.5,0,0,1-6.63,6.689c-1.827,1.527-5.165,3.358-6.144,5.6a21.835,21.835,0,0,1-.979,2.885A9.426,9.426,0,0,0,170.124,204.161Z" transform="translate(-156.275 -150.958)"/><path class="j" d="M197.026,174.152a39.887,39.887,0,0,0,6-3.244c1.812-1.108,3-2.969,4.261-4.678.651-.879,1.263-1.786,1.927-2.654a13.1,13.1,0,0,0,1.061-1.307,12.458,12.458,0,0,0-5.346,4.339c.821-1.271,1.528-2.6,2.348-3.877.668-1.036,1.934-2.292,2.248-3.454a6.364,6.364,0,0,1-.926,1.286c-.39.548-.829,1.067-1.237,1.6-.844,1.1-1.687,2.213-2.632,3.236-3.6,3.887-7.893,6.881-11.965,10.132-1.39,1.108-1.679,2.341-2.989,3.5C192.269,177.563,194.291,175.247,197.026,174.152Z" transform="translate(-152.579 -153.579)"/><path class="j" d="M192.143,179.247a26.176,26.176,0,0,1-4.779,5.128c-2.082,1.906-4.037,3.967-6,5.95-2.3,2.323-4.707,4.4-6.836,6.885-1.5,1.755-3.036,4.136-4.846,5.465.1-1.318-1.186-2.919-2.115-3.69a8.147,8.147,0,0,0,5.526-2.261c2.265-2.142,4.382-4.744,6.571-7.061,2.045-2.161,4.165-4.291,6.346-6.311,2.133-1.977,3.533-4.439,5.464-6.7,3.328-3.9,7.442-6.847,11.174-10.265a92.831,92.831,0,0,1,8.264-6.653,30.983,30.983,0,0,1-4.655,5.782c-1.972,1.809-4.5,2.96-6.368,4.912-1.624,1.694-3.473,3.267-5,5.017C194,176.455,192.117,177.861,192.143,179.247Z" transform="translate(-156.756 -153.493)"/><path class="j" d="M195.457,169.516a71.145,71.145,0,0,1,6.634-5.954c2.131-1.559,4.326-3.12,6.43-4.682a35,35,0,0,0,3.234-2.47,10.622,10.622,0,0,0-1.681-1.139c-.428.317-.866.62-1.352.92-2.9,1.783-5,4.283-7.628,6.362a59.936,59.936,0,0,0-6.847,6.06c-4.963,5.308-10.782,10.544-14.274,16.99,4.07-2.266,7.058-7.458,10.1-10.919C191.705,172.83,193.688,171.178,195.457,169.516Z" transform="translate(-154.422 -154.333)"/><path class="j" d="M185.326,175.755c-5.054,7.711-11.967,15.578-20.082,19.971.446-1.866,3.179-3.626,4.674-4.688A35.469,35.469,0,0,0,176,185.471c2-2.237,4.113-4.426,5.952-6.759,1-1.263,2.862-2.034,3.535-3.453C185.732,175.1,185.319,175.637,185.326,175.755Z" transform="translate(-157.193 -150.578)"/><path class="j" d="M196.867,163.935c2.055-1.818,4.239-3.5,6.359-5.2a22.6,22.6,0,0,0,4.139-4.169,4.034,4.034,0,0,0-2.253.181c-.049.053-.1.109-.144.159-3.451,3.552-7.707,6.319-11,10.051-1.758,1.995-3.405,4.1-5.207,6.064-1.858,2.027-4.34,3.967-5.74,6.329a5.146,5.146,0,0,0,1.7-1.313C189.078,172.2,192.5,167.795,196.867,163.935Z" transform="translate(-153.848 -154.481)"/><path class="j" d="M171.59,186.391c-2.207,2.11-4.508,4.135-6.757,6.287-.564.539-1.246,1.1-1.971,1.688a2.2,2.2,0,0,0,.684.125c1.182.012,1.943-1.043,2.8-1.885,2.278-2.231,5.3-3.6,7.493-5.872,2.351-2.438,4.455-5.02,6.682-7.572,1.452-1.665,3.552-3.148,4.776-4.941a8.236,8.236,0,0,0,1.046-2.6C181.522,176.371,176.77,181.44,171.59,186.391Z" transform="translate(-157.641 -151.257)"/><path class="k" d="M160.445,202.632a9.47,9.47,0,0,1-1.969-4.9,5.97,5.97,0,0,1,1.559-4.261c1.236-1.108,3.139-.91,4.631-.6a7.5,7.5,0,0,1,4.225,2.956,6.664,6.664,0,0,1,1.554,3.5c.177,2.458.257,5.439-2.647,6.29a4.513,4.513,0,0,1-1.811.4,8.278,8.278,0,0,1-1.845-.46,7.032,7.032,0,0,1-2.661-1.777A9.057,9.057,0,0,1,160.445,202.632Z" transform="translate(-158.467 -147.306)"/><path class="i" d="M167.207,204.38c1.861-1.354,1.542-4.977.788-6.775-.763-1.818-3.552-3.468-5.5-3.608a3.092,3.092,0,0,0-2.307,1.3,4.366,4.366,0,0,0-.289,3.261,8.31,8.31,0,0,0,1.174,3.478,6.573,6.573,0,0,0,3.02,2.071C165.307,204.512,166.215,205.1,167.207,204.38Z" transform="translate(-158.231 -147.049)"/><path class="k" d="M166.6,203.191c.883-.74,1.088-2.565.95-3.656a5.394,5.394,0,0,0-1.472-2.918c-1.092-1.065-4.015-3.031-5.2-1.151-1,1.586-.239,4.51.869,5.9a7.628,7.628,0,0,0,2.518,1.919C165.193,203.7,165.794,203.863,166.6,203.191Z" transform="translate(-158.101 -146.919)"/><path class="i" d="M165.7,202.257c1.162-.659,1.019-2.576.637-3.6a5.766,5.766,0,0,0-2.212-2.475c-.8-.528-2.147-1.16-2.717.006-.6,1.221.17,2.766.62,3.922a3.252,3.252,0,0,0,1.833,1.931C164.512,202.373,164.97,202.672,165.7,202.257Z" transform="translate(-157.955 -146.76)"/><path class="k" d="M165.114,200.944c.815-1.1,0-2.812-.814-3.621-.581-.577-1.782-1.763-2.185-.365a4.223,4.223,0,0,0,.7,3.235C163.272,200.682,164.5,201.773,165.114,200.944Z" transform="translate(-157.797 -146.615)"/><path class="i" d="M164.156,199.775c.552-.754-.569-3.148-1.313-2.168C162.307,198.312,163.557,200.592,164.156,199.775Z" transform="translate(-157.669 -146.413)"/><path class="i" d="M169.675,199.286c-.51.318-1.7.909-2.192,1.249a11.3,11.3,0,0,0,1.863-.152c.305-.175.24-.772.356-1.068C169.656,199.376,169.7,199.217,169.675,199.286Z" transform="translate(-156.772 -146.057)"/><path class="i" d="M167.7,194.79a6.125,6.125,0,0,1-1.293,1.586c.075-.273.361-.978.444-1.255.075-.254.229-.49.284-.735A2.654,2.654,0,0,1,167.7,194.79Z" transform="translate(-156.974 -146.975)"/><path class="i" d="M164.205,192.445a4.7,4.7,0,0,1-.561,2.009c-.015-.687-.112-1.593-.116-2.241A1.341,1.341,0,0,1,164.205,192.445Z" transform="translate(-157.516 -147.384)"/><path class="i" d="M159.857,195.366c-.2-.152-.779-.375-1-.5-.072.194-.137.391-.192.589C158.951,195.452,159.675,195.4,159.857,195.366Z" transform="translate(-158.43 -146.885)"/><path class="i" d="M158.827,198.628c.263-.166.836-.381.942-.567a4.46,4.46,0,0,0-1.123-.062Q158.723,198.315,158.827,198.628Z" transform="translate(-158.434 -146.297)"/><path class="i" d="M164.839,203.172c0,.188.03.659.036.859a2.372,2.372,0,0,0,.383-.012A3.314,3.314,0,0,0,164.839,203.172Z" transform="translate(-157.269 -145.323)"/><g transform="translate(1.134 0.001)"><path class="l" d="M164.418,200.04a6.278,6.278,0,0,1,2.884,1.518,10.023,10.023,0,0,1,.921-1.657c1.175-1.253,2.307-2.531,3.453-3.81,2.433-2.722,5.92-4.049,8.7-6.385a68.527,68.527,0,0,0,7.618-7.895c2.434-2.825,5.1-5.462,7.453-8.349,2.1-2.578,4.056-5.3,6.369-7.706a25.867,25.867,0,0,1,15.212-7.66,9.315,9.315,0,0,0-1.856-1.838l-.046-.036c-.255-.189-.518-.367-.787-.532l-.058-.034a11.024,11.024,0,0,0-1.832-.89,4.358,4.358,0,0,0-1.577-.284h-.038q-.118,0-.232.011l-.067.006c-.068.006-.134.014-.2.024l-.078.012c-.063.01-.125.023-.187.036l-.08.017c-.064.015-.128.033-.192.052-.021.006-.043.011-.063.018a3.557,3.557,0,0,0-1.084.549c-7.294,5.456-13.85,11.957-20.89,18.817-3.775,3.676-7.487,7.567-11.377,11.458-.072.072-.144.146-.217.219-.518.517-1.042,1.034-1.566,1.55-.146.144-.29.288-.436.43q-.989.969-2,1.934-.829.791-1.67,1.569c-1.684,1.561-3.4,3.1-5.086,4.718-.118.112-.242.225-.368.339-1.587,1.422-3.565,2.659-5.256,4.4C161.023,199.536,162.926,199.734,164.418,200.04Z" transform="translate(-159.353 -154.482)"/><path class="m" d="M159.813,193.336c-.057.051-.112.106-.165.163C159.7,193.442,159.756,193.387,159.813,193.336Z" transform="translate(-159.379 -147.174)"/><path class="m" d="M159.433,193.733l-.011.014Z" transform="translate(-159.422 -147.099)"/><path class="m" d="M159.589,193.55l-.065.077Z" transform="translate(-159.403 -147.133)"/></g></g><g class="n" transform="translate(93.317 143.297)"><g class="o"><path d="M281.759,242.918a116.258,116.258,0,0,1-16.355,7.777H142.851a120.1,120.1,0,0,1-17-8.049c-43.2-24.933-43.406-65.244-.5-90.018,42.925-24.773,112.723-24.645,155.9.29C324.459,177.85,324.667,218.145,281.759,242.918Z" transform="translate(-93.317 -134.131)"/><path class="p" d="M272.7,237.7a119.47,119.47,0,0,1-30.627,12.041h-79.13a121.3,121.3,0,0,1-31.38-12.3c-39.092-22.576-39.3-59.054-.449-81.487s102.044-22.32,141.136.257S311.548,215.267,272.7,237.7Z" transform="translate(-91.663 -133.177)"/><ellipse class="q" cx="51.587" cy="89.355" rx="51.587" ry="89.355" transform="translate(20.607 114.748) rotate(-89.689)"/><ellipse class="r" cx="45.558" cy="78.911" rx="45.558" ry="78.911" transform="translate(31.084 108.775) rotate(-89.689)"/><ellipse class="s" cx="39.528" cy="68.467" rx="39.528" ry="68.467" transform="translate(41.56 102.802) rotate(-89.689)"/><ellipse class="t" cx="33.498" cy="58.023" rx="33.498" ry="58.023" transform="translate(52.037 96.829) rotate(-89.689)"/></g></g><g transform="translate(176.373 85.404)"><path class="u" d="M198.833,146.492s1.354,10.43-6.909,10.43-6.367,10.431-8.534,15.172-11.526,14.879-4.933,16.517,14,4.641,19.278,2.621,12.205-7.352,14.372-14.261-4.063-16.007-4.063-16.007.542,11.672-4.877,13.162-10.7-2.573-7.586-7.451,6.722-2.714,7.451-7.991S198.833,146.492,198.833,146.492Z" transform="translate(-160.794 -73.914)"/><g transform="translate(0)"><path class="v" d="M174.965,198.129s-11.64-13.058-10.186-28.868,16.214-36.429,21.411-43.3,3.221-11.855,1.454-19.073S194.09,85.4,194.09,85.4s-6.549,11.514-4.366,20.1,7.173,12.888,7.173,24.23-4.47,11.513-3.014,17.7,17.414,15.22,12.747,34.35C200.64,206.347,192.31,197.6,188.776,197.6S178.915,200.535,174.965,198.129Z" transform="translate(-162.955 -85.404)"/><path class="w" d="M200.538,133.876s3.536,22.682-4.144,23.827c-2.584.386-10.9-6.043-10.559-18.071s-7.8-29.786-13.858-29.786c0,0,7.464,3.971,6.305,14.549-1.276,11.649-6.818,11.938-9.032,23.959,0-2.576-1.472-12.854-1.894-13.551-.276,2.563.728,14.263-3.036,25.049-2.387,6.84-1.758,28.553,10.913,33.679,0,0,1.542,1.723,4.534-1.23s4.822-6.374,8.874-6.682,5.118,10.532,7.885,7.718,6.957-8.93,8.772-19C206.315,168.708,210.113,141.551,200.538,133.876Z" transform="translate(-163.224 -80.806)"/><path class="x" d="M175.039,122.189s-3.4,2.635-2.98,17.528,8.314,16.152,7.759,26.578-6.859,17.642-8.868,12.142,2.691-23.856,2.691-23.856-8.464,5.881-8.984,16.038,8.086,20.534,11.7,21.091c3.754.579,6.582-8.462,9.978-8s9.921,6.122,12.463,3.733c6.444-6.052,5.449-36.783-.408-46.463a19.228,19.228,0,0,0-16.213-9.28s9.493,19.819,4.919,26.348c0,0-.208-3.895-6.513-10.31S171.92,133.531,175.039,122.189Z" transform="translate(-162.959 -78.485)"/><path class="y" d="M186.639,136.026s1.04,13.232-5.3,13.232-4.884,13.231-6.548,19.246-4.92,18.526.139,20.6,6.539,1.362,12.152.292c4.31-.821,9.645.835,11.307-7.929s-4.682-27.087-4.682-27.087.416,14.807-3.741,16.7-8.211-3.265-5.82-9.451,5.158-3.443,5.717-10.138S186.639,136.026,186.639,136.026Z" transform="translate(-161.533 -75.882)"/><path class="z" d="M172.015,162.956c.519,7.877,6.139,13.891,5.2,18.187,0,0-3.828,1.086-5.718-6.53a13.489,13.489,0,0,0,1.454,9.05c2.564,4.812,4.781,4.468,4.781,4.468s-5.345.285-7.013-2.475a9.692,9.692,0,0,0,11.1,4.506c7.622-2.032,8.731-1.04,10.809-1.04s4.409-2.009,5.292-6.492c.727-3.685-4.252-6.529-3.628-11a29.779,29.779,0,0,1,1.316-6.184s-4.573,5.725-3.741,9.047.138,7.561-1.248,7.561-1.179-4.926-2.356-9.852-5.374-1.331-7.692-5.165-2.752-8.345-1.108-15.227c1.116-4.672,4.019-14.32,4.019-14.32S171.5,155.08,172.015,162.956Z" transform="translate(-161.815 -75.606)"/></g></g></g></g></svg>