<svg xmlns="http://www.w3.org/2000/svg" width="284.898" height="100" viewBox="0 0 284.898 100"><defs><style>.a{fill:#c0da95;}.b{fill:#dfebca;}.c{fill:#96c354;}.d{fill:#fff;}</style></defs><g transform="translate(602.449 -21)"><path class="a" d="M-602.449,96.07-559.144,71l-43.3-25.071Z"/><path class="b" d="M-602.449,45.928-559.144,71l43.3,25.071V45.928L-559.144,21Z"/><path class="c" d="M-602.449,96.07l43.3,24.93,43.3-24.93L-559.144,71Z"/></g><g transform="translate(602.449 -21)"><path class="d" d="M-476.5,86.306a19.257,19.257,0,0,1-5.821.836,18.715,18.715,0,0,1-6.765-1.16,14.882,14.882,0,0,1-5.149-3.253,14.145,14.145,0,0,1-3.285-5.018,17.482,17.482,0,0,1-1.15-6.44,18.083,18.083,0,0,1,1.117-6.482,14.322,14.322,0,0,1,3.177-5.019,14.087,14.087,0,0,1,5.007-3.241,18.034,18.034,0,0,1,6.592-1.15,20.419,20.419,0,0,1,3.426.271,15.831,15.831,0,0,1,2.926.781,13.82,13.82,0,0,1,2.493,1.236,15.349,15.349,0,0,1,2.147,1.637l-1.193,1.907a1.244,1.244,0,0,1-.726.553,1.256,1.256,0,0,1-.986-.207q-.521-.3-1.192-.736a10.508,10.508,0,0,0-1.637-.835A13.372,13.372,0,0,0-479.8,59.3a15.005,15.005,0,0,0-3.113-.282,12.6,12.6,0,0,0-4.748.856,10.064,10.064,0,0,0-3.621,2.45,10.842,10.842,0,0,0-2.3,3.859,15.184,15.184,0,0,0-.8,5.084,15.353,15.353,0,0,0,.834,5.236,10.959,10.959,0,0,0,2.385,3.925,10.187,10.187,0,0,0,3.762,2.461,13.821,13.821,0,0,0,4.964.844,14.647,14.647,0,0,0,2.027-.13,15.033,15.033,0,0,0,1.811-.358,12.642,12.642,0,0,0,1.67-.562c.535-.224,1.075-.48,1.626-.77V75.064h-4.836a.912.912,0,0,1-.661-.238.779.779,0,0,1-.249-.585V71.856h9.54V83.782a17.411,17.411,0,0,1-5,2.524"/><path class="d" d="M-452.255,86.794a1.688,1.688,0,0,1-.866-.183,1.263,1.263,0,0,1-.479-.727l-.433-2.06q-.865.78-1.7,1.4a10.159,10.159,0,0,1-1.734,1.04,9.129,9.129,0,0,1-1.93.651,10.6,10.6,0,0,1-2.286.228,7.9,7.9,0,0,1-2.408-.359,5.564,5.564,0,0,1-1.961-1.073,5.06,5.06,0,0,1-1.324-1.809,6.352,6.352,0,0,1-.487-2.591,4.831,4.831,0,0,1,.715-2.5,6.267,6.267,0,0,1,2.319-2.135,15.186,15.186,0,0,1,4.185-1.529,31.741,31.741,0,0,1,6.331-.684V72.746a5.878,5.878,0,0,0-1.1-3.87,3.99,3.99,0,0,0-3.231-1.312,6.959,6.959,0,0,0-2.4.357,9.081,9.081,0,0,0-1.669.8q-.705.445-1.215.8a1.747,1.747,0,0,1-1.007.357,1.116,1.116,0,0,1-.673-.206,1.889,1.889,0,0,1-.477-.51l-.694-1.235a12.528,12.528,0,0,1,3.925-2.624,12.092,12.092,0,0,1,4.662-.868,8.3,8.3,0,0,1,3.272.609,6.675,6.675,0,0,1,2.407,1.69,7.18,7.18,0,0,1,1.475,2.623,11.006,11.006,0,0,1,.5,3.383V86.794Zm-8.282-2.361a7.826,7.826,0,0,0,1.864-.208,7.355,7.355,0,0,0,1.594-.584,8.1,8.1,0,0,0,1.432-.934,13.042,13.042,0,0,0,1.332-1.246V76.908a32.2,32.2,0,0,0-4.541.423,12.958,12.958,0,0,0-3.057.878,4.23,4.23,0,0,0-1.713,1.279,2.755,2.755,0,0,0-.532,1.648,3.631,3.631,0,0,0,.282,1.5,2.812,2.812,0,0,0,.77,1.03,3.1,3.1,0,0,0,1.149.585,5.269,5.269,0,0,0,1.42.186"/><path class="d" d="M-439.767,57.937a2.468,2.468,0,0,1-.228,1.052,3,3,0,0,1-.607.867,2.783,2.783,0,0,1-.888.6,2.725,2.725,0,0,1-1.073.217,2.574,2.574,0,0,1-1.053-.217,2.711,2.711,0,0,1-.856-.6,2.984,2.984,0,0,1-.585-.867,2.584,2.584,0,0,1-.215-1.052,2.74,2.74,0,0,1,.215-1.072,2.874,2.874,0,0,1,.585-.889,2.7,2.7,0,0,1,.856-.6,2.573,2.573,0,0,1,1.053-.216,2.724,2.724,0,0,1,1.073.216,2.767,2.767,0,0,1,.888.6,2.881,2.881,0,0,1,.607.889,2.616,2.616,0,0,1,.228,1.072m-.823,28.858h-3.861V64.832h3.861Z"/><path class="d" d="M-420.3,86.794a1.693,1.693,0,0,1-.866-.183,1.267,1.267,0,0,1-.478-.727l-.433-2.06q-.865.78-1.7,1.4a10.151,10.151,0,0,1-1.733,1.04,9.159,9.159,0,0,1-1.929.651,10.619,10.619,0,0,1-2.288.228,7.9,7.9,0,0,1-2.407-.359A5.56,5.56,0,0,1-434.1,85.71,5.046,5.046,0,0,1-435.42,83.9a6.335,6.335,0,0,1-.488-2.591,4.841,4.841,0,0,1,.715-2.5,6.27,6.27,0,0,1,2.32-2.135,15.185,15.185,0,0,1,4.185-1.529,31.741,31.741,0,0,1,6.331-.684V72.746a5.878,5.878,0,0,0-1.1-3.87,3.989,3.989,0,0,0-3.231-1.312,6.956,6.956,0,0,0-2.4.357,9.189,9.189,0,0,0-1.67.8q-.705.445-1.215.8a1.746,1.746,0,0,1-1.008.357,1.126,1.126,0,0,1-.673-.206,1.914,1.914,0,0,1-.475-.51l-.694-1.235a12.531,12.531,0,0,1,3.923-2.624,12.105,12.105,0,0,1,4.664-.868,8.3,8.3,0,0,1,3.272.609,6.676,6.676,0,0,1,2.407,1.69,7.164,7.164,0,0,1,1.474,2.623,10.976,10.976,0,0,1,.5,3.383V86.794Zm-8.282-2.361a7.87,7.87,0,0,0,1.867-.208,7.4,7.4,0,0,0,1.592-.584,8.1,8.1,0,0,0,1.432-.934,13.045,13.045,0,0,0,1.332-1.246V76.908a32.218,32.218,0,0,0-4.542.423,13,13,0,0,0-3.057.878,4.219,4.219,0,0,0-1.712,1.279,2.75,2.75,0,0,0-.533,1.648,3.631,3.631,0,0,0,.282,1.5,2.815,2.815,0,0,0,.771,1.03,3.1,3.1,0,0,0,1.148.585,5.28,5.28,0,0,0,1.42.186"/><path class="d" d="M-397.425,68.735a1.707,1.707,0,0,1-.346.369.779.779,0,0,1-.477.129,1.293,1.293,0,0,1-.716-.27c-.26-.181-.582-.379-.965-.6a7.679,7.679,0,0,0-1.409-.6,6.675,6.675,0,0,0-2.048-.27,6.726,6.726,0,0,0-2.862.574,5.514,5.514,0,0,0-2.07,1.658,7.483,7.483,0,0,0-1.259,2.624A13,13,0,0,0-410,75.8a12.639,12.639,0,0,0,.454,3.547,7.555,7.555,0,0,0,1.291,2.6,5.581,5.581,0,0,0,2.015,1.6,6.192,6.192,0,0,0,2.657.552,6.785,6.785,0,0,0,2.32-.336,6.788,6.788,0,0,0,1.506-.748c.4-.275.731-.523,1-.748a1.248,1.248,0,0,1,.792-.336.85.85,0,0,1,.738.369l1.083,1.409a7.66,7.66,0,0,1-1.626,1.519,10.129,10.129,0,0,1-1.961,1.051,10.6,10.6,0,0,1-2.2.617,13.875,13.875,0,0,1-2.343.195,9.6,9.6,0,0,1-3.826-.758,8.7,8.7,0,0,1-3.066-2.2,10.268,10.268,0,0,1-2.038-3.544,14.411,14.411,0,0,1-.738-4.793,14.4,14.4,0,0,1,.683-4.53,10.27,10.27,0,0,1,1.993-3.589,9.082,9.082,0,0,1,3.231-2.353,10.835,10.835,0,0,1,4.412-.845,10.4,10.4,0,0,1,4.088.748,9.8,9.8,0,0,1,3.132,2.114Z"/><path class="d" d="M-392,86.795V54.859h3.88V67.781a11.851,11.851,0,0,1,3.122-2.4,8.36,8.36,0,0,1,3.946-.9,7.963,7.963,0,0,1,3.177.6,6.18,6.18,0,0,1,2.3,1.691,7.516,7.516,0,0,1,1.4,2.634,11.5,11.5,0,0,1,.478,3.4V86.795h-3.884V72.81a5.924,5.924,0,0,0-1.136-3.87,4.232,4.232,0,0,0-3.458-1.376,6.538,6.538,0,0,0-3.22.823,10.262,10.262,0,0,0-2.721,2.234V86.795Z"/><path class="d" d="M-353.846,86.794a1.7,1.7,0,0,1-.868-.183,1.261,1.261,0,0,1-.477-.727l-.434-2.06q-.865.78-1.7,1.4a10.206,10.206,0,0,1-1.735,1.04,9.158,9.158,0,0,1-1.929.651,10.62,10.62,0,0,1-2.288.228,7.889,7.889,0,0,1-2.406-.359,5.591,5.591,0,0,1-1.963-1.073A5.07,5.07,0,0,1-368.97,83.9a6.369,6.369,0,0,1-.487-2.591,4.841,4.841,0,0,1,.715-2.5,6.255,6.255,0,0,1,2.32-2.135,15.161,15.161,0,0,1,4.185-1.529,31.723,31.723,0,0,1,6.331-.684V72.746a5.878,5.878,0,0,0-1.1-3.87,3.989,3.989,0,0,0-3.231-1.312,6.952,6.952,0,0,0-2.4.357,9.07,9.07,0,0,0-1.668.8c-.472.3-.876.564-1.217.8a1.743,1.743,0,0,1-1.007.357,1.115,1.115,0,0,1-.672-.206,1.871,1.871,0,0,1-.476-.51l-.695-1.235a12.558,12.558,0,0,1,3.924-2.624,12.1,12.1,0,0,1,4.663-.868,8.306,8.306,0,0,1,3.273.609,6.689,6.689,0,0,1,2.406,1.69,7.15,7.15,0,0,1,1.474,2.623,10.945,10.945,0,0,1,.5,3.383V86.794Zm-8.282-2.361a7.838,7.838,0,0,0,1.864-.208,7.433,7.433,0,0,0,1.594-.584,8.17,8.17,0,0,0,1.432-.934,13.473,13.473,0,0,0,1.332-1.246V76.908a32.22,32.22,0,0,0-4.543.423,12.953,12.953,0,0,0-3.055.878,4.227,4.227,0,0,0-1.714,1.279,2.748,2.748,0,0,0-.531,1.648,3.664,3.664,0,0,0,.28,1.5,2.837,2.837,0,0,0,.771,1.03,3.1,3.1,0,0,0,1.15.585,5.264,5.264,0,0,0,1.42.186"/><path class="d" d="M-341.358,57.937a2.5,2.5,0,0,1-.226,1.052,3.073,3.073,0,0,1-.607.867,2.809,2.809,0,0,1-.889.6,2.73,2.73,0,0,1-1.074.217,2.561,2.561,0,0,1-1.051-.217,2.719,2.719,0,0,1-.858-.6,2.961,2.961,0,0,1-.584-.867,2.569,2.569,0,0,1-.216-1.052,2.724,2.724,0,0,1,.216-1.072,2.854,2.854,0,0,1,.584-.889,2.7,2.7,0,0,1,.858-.6,2.56,2.56,0,0,1,1.051-.216,2.729,2.729,0,0,1,1.074.216,2.793,2.793,0,0,1,.889.6,2.951,2.951,0,0,1,.607.889,2.647,2.647,0,0,1,.226,1.072m-.822,28.858h-3.86V64.832h3.86Z"/><path class="d" d="M-335.85,86.795V64.832h2.319a.954.954,0,0,1,1.02.8l.3,2.383A12.3,12.3,0,0,1-329,65.46a8.388,8.388,0,0,1,4.1-.976,7.962,7.962,0,0,1,3.177.6,6.168,6.168,0,0,1,2.3,1.691,7.5,7.5,0,0,1,1.4,2.634,11.5,11.5,0,0,1,.478,3.4V86.795h-3.884V72.81a5.924,5.924,0,0,0-1.136-3.87,4.232,4.232,0,0,0-3.458-1.376,6.538,6.538,0,0,0-3.22.823,10.262,10.262,0,0,0-2.721,2.234V86.795Z"/></g></svg>