<svg xmlns="http://www.w3.org/2000/svg" xmlns:xlink="http://www.w3.org/1999/xlink" width="480" height="614" viewBox="0 0 480 614"><defs><style>.a,.h{fill:#fff;}.a{opacity:0.9;}.b{clip-path:url(#a);}.c{fill:#dfebca;}.d{fill:#372222;}.e{fill:#96c354;}.f{fill:#603e39;}.g{fill:#4b2c27;}.i{fill:#87ad3e;}.j{fill:#4d4d4d;}</style><clipPath id="a"><rect class="a" width="480" height="614" transform="translate(0 120)"/></clipPath></defs><g class="b" transform="translate(0 -120)"><g transform="translate(-1376.085 -2035.129)"><g transform="translate(1507.035 2549.129)"><g transform="translate(22.347)"><path class="c" d="M1603.808,2896.453l-.71-.863a124.994,124.994,0,0,1-10.058-14.673c-6.565-11.251-9.527-20.7-8.8-28.085a16.081,16.081,0,0,1,5.866-11.3c4.619-3.787,8.163-2.632,10.322-1,4.386,3.323,7.519,11.991,8.381,23.189.886,11.515-.772,23.069-4.549,31.7Zm-7.7-56.07a8.294,8.294,0,0,0-5.14,2.215,14.756,14.756,0,0,0-5.37,10.367c-1.483,15.127,14.266,36.274,17.843,40.857,7.473-18.392,4.279-46.03-3.849-52.187A5.689,5.689,0,0,0,1596.112,2840.383Z" transform="translate(-1584.129 -2839.005)"/></g><g transform="translate(47.7 40.541)"><path class="c" d="M1671.593,3025.527l.167-1.152a105.08,105.08,0,0,1,4.282-16.9c2.9-8.436,8.149-19.833,16.694-26.215,4.056-3.029,6.788-2.639,8.366-1.779,2.542,1.385,3.863,5.049,3.535,9.8-.417,6.031-3.331,12.9-7.994,18.858-5.764,7.361-14.05,13.231-23.962,16.974Zm27.022-45.288a8.924,8.924,0,0,0-5.058,2.124c-14.067,10.507-19.224,35.342-20.242,41.035a52.9,52.9,0,0,0,22.248-16.1c4.5-5.744,7.306-12.344,7.7-18.107.291-4.2-.764-7.378-2.822-8.5A3.768,3.768,0,0,0,1698.615,2980.239Z" transform="translate(-1671.593 -2978.866)"/></g><g transform="translate(0 61.259)"><path class="c" d="M1543.255,3078.264a66.64,66.64,0,0,1-17.819-2.718c-11.149-3.107-19.51-13.883-18.282-20.2.433-2.226,2.438-5.815,11.015-4.847,10.223,1.156,20,7.708,26.4,13a95.344,95.344,0,0,1,11.537,11.291l.506.614-.682.411C1555.688,3075.966,1551.724,3078.264,1543.255,3078.264Zm-27.757-26.55c-4.047,0-6.5,1.347-7,3.9-1.111,5.712,7.08,15.764,17.3,18.613,17.07,4.757,26.142,1.866,28.676.778-3.207-3.658-19.4-21.208-36.466-23.136A22.427,22.427,0,0,0,1515.5,3051.714Z" transform="translate(-1507.035 -3050.339)"/></g><g transform="translate(58.865 77.671)"><path class="c" d="M1710.113,3151.93l.281-1.2a122.213,122.213,0,0,1,6.71-19.487c6.035-13.482,13.062-21.466,20.886-23.73,4.8-1.388,8.2-.114,9.334,3.494,1.519,4.826-1.319,12.848-7.229,20.438a62.033,62.033,0,0,1-28.812,20.091Zm31.418-43.61a11.635,11.635,0,0,0-3.159.506c-15.926,4.609-24.623,34.518-26.329,40.984a60.473,60.473,0,0,0,26.97-19.213c5.554-7.133,8.369-14.842,7-19.183A4.253,4.253,0,0,0,1741.531,3108.32Z" transform="translate(-1710.113 -3106.959)"/></g><g transform="translate(8.606 104.632)"><path class="c" d="M1561.981,3223.09a41.171,41.171,0,0,1-8.118-.762c-12.123-2.444-17.842-9.614-17.068-15.12.559-3.976,4.717-7.935,14.7-7.132,20.1,1.62,36.727,16.2,36.893,16.344l.809.718-.995.426C1587.576,3217.833,1575.111,3223.09,1561.981,3223.09Zm-13.008-21.748c-7.3,0-10.391,3.016-10.819,6.057-.7,4.954,5.09,11.389,15.98,13.584,13.085,2.639,28.381-2.688,32.478-4.262-3.625-2.944-18.163-13.9-35.226-15.277Q1550.11,3201.341,1548.972,3201.343Z" transform="translate(-1536.725 -3199.972)"/></g><g transform="translate(75.694 110.286)"><path class="c" d="M1768.171,3269.331l.135-1.121a114.433,114.433,0,0,1,4.727-20.148c3.29-9.777,9.358-22.444,19.583-27.267,4.418-2.084,6.987-1.316,8.364-.3,2.217,1.63,3.086,5.072,2.448,9.692-.888,6.418-4.582,14.234-9.881,20.908a56.629,56.629,0,0,1-24.319,17.844Zm29.465-48.487a10.717,10.717,0,0,0-4.433,1.191c-16.934,7.988-22.414,38.843-23.372,45.195,20.865-8.332,30.844-27.151,32.239-37.236.559-4.039-.134-7.1-1.9-8.4A4.175,4.175,0,0,0,1797.635,3220.845Z" transform="translate(-1768.171 -3219.475)"/></g><g transform="translate(22.294 152.665)"><path class="c" d="M1599.95,3389.853c-7.229,0-13.993-3.664-15.646-8.877-1.431-4.511,1.472-8.929,7.963-12.12,8.917-4.384,21-3.43,29.574-1.859a105,105,0,0,1,16.567,4.479l1.123.43-.941.748c-.178.142-18.019,14.194-35.359,16.943A21,21,0,0,1,1599.95,3389.853Zm8.358-22.8c-5.487,0-10.907.808-15.435,3.034-5.9,2.9-8.482,6.622-7.261,10.474,1.491,4.7,9.006,9.011,17.4,7.68,14.672-2.326,29.77-12.959,33.725-15.9C1632.928,3371.017,1620.456,3367.053,1608.308,3367.053Z" transform="translate(-1583.947 -3365.68)"/></g><g transform="translate(96.904 151.252)"><path class="c" d="M1841.34,3404.6l.215-1.139a141.085,141.085,0,0,1,5.911-20.809c5.331-14.083,11.544-21.426,18.467-21.824,4.26-.247,7.134,1.9,7.886,5.894.989,5.245-1.673,12.891-6.946,19.953a50.193,50.193,0,0,1-24.431,17.565Zm25.261-42.419q-.288,0-.589.017c-13.79.793-21.461,33.7-22.871,40.355a48.862,48.862,0,0,0,22.632-16.7c4.974-6.662,7.6-14.072,6.7-18.878C1871.877,3363.826,1869.853,3362.177,1866.6,3362.177Z" transform="translate(-1841.34 -3360.805)"/></g><g transform="translate(46.364 190.422)"><path class="c" d="M1682.84,3520.507c-7.548,0-13.966-3.829-15.5-8.444-.742-2.229-1.32-7.882,9.312-12.248,10.272-4.218,21.136-4.244,28.441-3.523a69.358,69.358,0,0,1,13.536,2.6l.9.3-.566.764c-.109.148-11.161,14.829-30.478,19.832A22.519,22.519,0,0,1,1682.84,3520.507Zm14.988-23.183a54.541,54.541,0,0,0-20.658,3.76c-6.733,2.765-9.842,6.608-8.531,10.545,1.684,5.058,10.572,9.142,19.5,6.828,16.284-4.218,26.548-15.479,29.1-18.543A75.441,75.441,0,0,0,1697.828,3497.324Z" transform="translate(-1666.984 -3495.937)"/></g><g transform="translate(41.17 56.029)"><path class="c" d="M1751.076,3219.433c-18.021-13.251-34.6-31.33-49.272-53.731a342.969,342.969,0,0,1-31.348-61.507,419.876,419.876,0,0,1-21.39-71.656l1.351-.242a418.45,418.45,0,0,0,21.326,71.42c14.2,35.838,39.624,84.812,80.147,114.612Z" transform="translate(-1649.065 -3032.296)"/></g></g><g transform="translate(1777.881 2508.301)"><g transform="translate(0 0)"><path class="c" d="M2467.193,2921.869l.13-.976c.03-.221,2.787-22.532-10.307-59.675-2.658-7.539-5.08-14-7.218-19.705-8.508-22.7-12.03-32.1-3.386-39.191a10.713,10.713,0,0,1,8.957-2.525c8.879,1.564,16.471,13.341,18.586,16.913,1.542,2.6,2.446,2.943,2.64,2.858.276-.121.914-1.306.558-5.28a80.076,80.076,0,0,0-3.3-15.027l-.187-.619c-5.953-19.67-14.106-46.608-3.747-53.149,2.844-1.8,5.433-2.342,7.911-1.67,5.426,1.472,9.116,8.6,13.024,16.149q.454.877.912,1.759c6.055,11.612,7.783,11.226,7.858,11.2.058-.018,1.4-.558.144-10.4-.141-1.095-.292-2.248-.449-3.449-1.241-9.458-2.94-22.41-2.675-33.652.32-13.572,3.359-21.712,9.293-24.886,5.253-2.811,10.238-3.152,14.817-1.014,8.2,3.827,14.558,15.568,18.4,33.954,3.831,18.345.129,33.766-2.083,42.979-1.213,5.051-2.17,9.041-.814,9.524,1.192.422,4.532-2.646,7.767-5.611,5.929-5.437,14.054-12.883,21.792-12.3,3.391.254,6.44,2.03,9.061,5.277a11.664,11.664,0,0,1,2.709,8.923c-1.162,10.022-14.143,20.119-23.621,27.491-2.53,1.968-4.715,3.668-6.254,5.052-2.161,1.943-2.154,2.5-2.146,2.562,0,.01.151.4,2.025.189a57.644,57.644,0,0,0,5.9-1.224c4.941-1.18,11.091-2.647,16.516-2.273,6.51.451,10.588,3.557,12.12,9.232a10.052,10.052,0,0,1-.91,7.924c-4.148,7.164-17.432,10.659-28.1,13.468-6.644,1.748-12.919,3.4-14.662,5.41-1.877,2.165-2.585,3.765-2.229,5.037.641,2.286,4.91,4.058,12.068,6.347a2.859,2.859,0,0,1,2.133,3.049c-.24,5.406-11.743,17.6-27.973,29.645-18.746,13.915-38.536,23.925-54.3,27.463ZM2453.483,2801a9.634,9.634,0,0,0-6.2,2.381c-7.885,6.472-4.7,14.961,3.8,37.649,2.14,5.709,4.565,12.179,7.227,19.731,6.9,19.577,9.356,34.911,10.2,44.327a89.118,89.118,0,0,1,.274,15.01c15.424-3.677,34.619-13.479,52.848-27.011,15.669-11.631,27.2-23.661,27.42-28.6a1.5,1.5,0,0,0-1.18-1.681c-7.963-2.546-12.155-4.372-12.971-7.284-.493-1.757.305-3.76,2.513-6.306,2.021-2.33,7.9-3.879,15.35-5.838,10.427-2.744,23.4-6.158,27.266-12.829a8.618,8.618,0,0,0,.772-6.878c-3.152-11.675-17.5-8.249-26.993-5.983-5.557,1.327-8.91,2.128-9.552.11-.54-1.7,2.328-4.02,8.867-9.106,8.762-6.815,22-17.115,23.1-26.566a10.2,10.2,0,0,0-2.413-7.9c-2.407-2.982-5.055-4.543-8.1-4.771-7.152-.536-15.019,6.677-20.762,11.944-4.329,3.97-7.19,6.591-9.153,5.893-2.52-.9-1.594-4.75-.061-11.137,2.185-9.1,5.842-24.334,2.074-42.378-3.748-17.946-9.845-29.354-17.635-32.991-4.165-1.945-8.737-1.615-13.589.98-12.522,6.7-8.38,38.28-5.905,57.149.157,1.2.309,2.356.449,3.453,1.252,9.775.15,11.492-1.094,11.883-1.319.414-3.585-.565-9.485-11.88q-.46-.882-.914-1.762c-3.765-7.272-7.322-14.142-12.165-15.456-2.087-.567-4.318-.074-6.819,1.506-9.475,5.983-1.169,33.43,4.327,51.591l.187.62c2.948,9.74,5.014,20.625,1.977,21.96-1.238.544-2.709-.6-4.374-3.415-4.2-7.1-11.046-15.1-17.643-16.261A9.5,9.5,0,0,0,2453.483,2801Z" transform="translate(-2441.419 -2698.153)"/><g transform="translate(0.667 24.947)"><path class="c" d="M2444.738,3016.506l-1.017-.921c39.869-44.051,57.012-104.592,64.373-147.623,7.98-46.649,6.5-83.322,6.485-83.686l1.371-.06c.016.366,1.5,37.186-6.5,83.978-4.7,27.488-11.71,52.994-20.83,75.812C2477.209,2972.548,2462.446,2996.94,2444.738,3016.506Z" transform="translate(-2443.72 -2784.216)"/></g><g transform="translate(62.429 110.69)"><path class="c" d="M2657.259,3096.281l-.468-1.29c8.078-2.932,27.074-14.851,27.265-14.971l.73,1.162C2684,3081.675,2665.475,3093.3,2657.259,3096.281Z" transform="translate(-2656.791 -3080.019)"/></g><g transform="translate(45.476 87.476)"><path class="c" d="M2617.506,3024.288c-7.345-4.087-18.721-22.848-19.2-23.645l1.175-.709c.116.192,11.666,19.244,18.694,23.154Z" transform="translate(-2598.305 -2999.934)"/></g><g transform="translate(27.851 148.561)"><path class="c" d="M2554.91,3245.253c-8.663-6.49-17.056-33.048-17.409-34.175l1.31-.41c.085.272,8.613,27.261,16.923,33.487Z" transform="translate(-2537.5 -3210.668)"/></g><g transform="translate(54.609 144.796)"><path class="c" d="M2629.943,3208.772l-.13-1.366c15.223-1.444,29.422-9.643,29.564-9.725l.692,1.186C2659.925,3198.95,2645.474,3207.3,2629.943,3208.772Z" transform="translate(-2629.813 -3197.681)"/></g></g></g><g transform="translate(1577.717 2512.156)"><path class="c" d="M1937.873,2988.07c108.3-45.978,21.167-91.051,45.8-140.273,34.175-68.29,22.509-124.3-43.183-134.894s-163.733,38.945-183.189,83c-26.9,60.907,38.932,82.783,45.9,105.035C1810.352,2923.786,1745.078,3069.917,1937.873,2988.07Z" transform="translate(-1750.877 -2711.455)"/></g><g transform="translate(1597.977 2496.696)"><g transform="translate(56.858)"><path class="d" d="M2105.968,2758.023s22.334-1.38,16.864-25.044c0,0,10.136-4.66,8.879-22.9s-19.618-19.3-19.618-19.3,4.464-11.2-5.239-17.669-14.512,4.123-14.512,4.123-3.361-20.989-27.131-18.983-24.624,21.533-24.624,21.533-16.027-1.448-21.437,13.418,3.547,20.131,3.547,20.131-7.028,3.807-5.574,15.437,12.95,15.928,24.7,16.789S2105.968,2758.023,2105.968,2758.023Z" transform="translate(-2016.924 -2658.116)"/></g><g transform="translate(0 92.383)"><path class="e" d="M2035.409,3057.766c-9.4-31.007-54.7-50.623-54.7-50.623l-28.138,14.405-5.757,2.555-3.641-2.929-4.921-6.053c-6.359,1.808-23.951,8.787-39.341,12.414s-34.909-1.259-34.909-1.259c3.313-15.746,8.755-40.484,8.755-40.484-5.954-1.3-21.377-8.966-21.377-8.966s-8.068,12.909-13.645,24.168-25.625,43.521-12.7,61.752,73.508,17.048,73.508,17.048c-9.087,24.33-12.011,103.708-11.962,121.392,12.321,26.619,85.474-1.939,127.267-11.856-1.054-17.145-3.224-33.084-1.836-48.08C2014.079,3118.932,2044.807,3088.772,2035.409,3057.766Z" transform="translate(-1820.771 -2976.826)"/></g><g transform="translate(115.679 83.938)"><path class="f" d="M2265.115,2987.867s-14.637-18.652-19.58-36.341-25.687,31.538-25.687,31.538l1.8,11.368,5.745,10.072,19.657-2.883Z" transform="translate(-2219.848 -2947.69)"/></g><g transform="translate(115.679 83.938)"><path class="g" d="M2245.535,2951.526c-4.943-17.689-25.687,31.538-25.687,31.538l1.8,11.368,1.26,2.986a16.8,16.8,0,0,0,10.608-1.836c7.355-4.237,13.564-24.19,15.369-34.56A76.8,76.8,0,0,1,2245.535,2951.526Z" transform="translate(-2219.848 -2947.69)"/></g><g transform="translate(150.217 135.549)"><path class="h" d="M2361.354,3172.729l-1.369-.1c1.041-14.214-4.549-25.917-9.421-33.231A60.344,60.344,0,0,0,2339,3126.54l1.5-.8a62.862,62.862,0,0,1,11.2,12.894C2356.7,3146.13,2362.424,3158.126,2361.354,3172.729Z" transform="translate(-2339.001 -3125.743)"/></g><g transform="translate(70.692 174.084)"><path class="i" d="M2173.083,3258.682s-28.361,22.081-36.947,50.836l-69.048-7.743s-2.2,18.129-2.438,27.061c0,0,53.82,20.5,73.864,24.132s24.07,1.762,40.665-24.246,18.672-36.33,21.022-46.93" transform="translate(-2064.649 -3258.682)"/></g><g transform="translate(70.692 176.215)"><path class="i" d="M2174.8,3266.034s-24.788,33.644-33.487,62.774l-70.368-13.468s-3,9.98-6.3,18.717c0,0,58.262,34.958,74.818,37.954,20.306,3.675,24.384,1.785,41.2-24.563q4.075-6.386,7.555-12.379c5.387-13.853,14.075-32.777,18.275-49.608Z" transform="translate(-2064.649 -3266.034)"/></g><g transform="translate(75.385 38.217)"><path class="f" d="M2081.217,2812.819s-3.394,20.782,10.157,44.245,30.542,27.492,39.565,22.294,16.321-34.049,15.881-39.842-10.014-32.423-10.014-32.423-26.635-21.828-32.52-16.209S2081.217,2812.819,2081.217,2812.819Z" transform="translate(-2080.839 -2789.959)"/></g><g transform="translate(65.811 16.441)"><path class="d" d="M2052.637,2764.569s6.392,7.708,22.064,1.615c16.839-6.546,13.937-21.163,13.937-21.163s4.815,9,17.647,10.8c0,0,3.612,17.249,9.707,20.877s-4.07-12.686,9.2-14.164-.246-36.173-.246-36.173l-31.5-11.525-23.393,8.659s-20.929,10.418-22.084,18.331S2052.637,2764.569,2052.637,2764.569Z" transform="translate(-2047.812 -2714.835)"/></g><g transform="translate(35.725 40.101)"><path class="f" d="M1944.017,2838.991s3.719-25.224,18.827-36.794c11.47-8.785,23.04-6.877,31.232,1.61,5.939,6.153-2.434,6.4-7.2,4.615-2.707-1.016-10.239-3.774-12.189-.748-1.385,2.15,7.926,3.893,9.369,9.76s-.169,6.406-1.475,12.28c-1,4.508-3.253,5.091-6.93,6.119s-4.945.646-4.945.646-.416-1.293-6.308,8.647C1961.127,2850.644,1944.017,2838.991,1944.017,2838.991Z" transform="translate(-1944.017 -2796.458)"/></g><g transform="translate(17.779 184.198)"><path class="j" d="M1926.164,3352.179l1.66-.444a3.366,3.366,0,0,0,2.336-4.279l-15.616-48.764a4.553,4.553,0,0,0-3.881-3.142l-23.243-1.964a3.523,3.523,0,0,0-2.218.558l-3.094,2.013Z" transform="translate(-1882.107 -3293.574)"/></g><g transform="translate(16.982 186.706)"><path d="M1880.721,3302.239l26.233,3.292a2.42,2.42,0,0,1,2.017,1.709l15.241,51.085-24.39-3.991a4.576,4.576,0,0,1-3.574-2.989l-16.818-47.5A1.209,1.209,0,0,1,1880.721,3302.239Z" transform="translate(-1879.358 -3302.228)"/></g><g transform="translate(18.003 198.587)"><path class="f" d="M1940.918,3366.536s-7.593-6.471-9.932-11.252-12.175-6.845-15.679-8.83-8.718-1.6-3.63,7.609c0,0-12.632-3.229-18.195-5.941s-9-5.6-10.215-4.758.307,8.925,6.193,12.479a14.379,14.379,0,0,0,5.07,9.448,18.288,18.288,0,0,0,9.85,9.748c7.283,2.838,32.774,11.426,32.774,11.426Z" transform="translate(-1882.88 -3343.214)"/></g><g transform="translate(78.133 168.696)"><path class="e" d="M2192.161,3240.094s-24.469,33.21-33.055,61.965l-60.7-7.477s-7.947,20.005-8.091,21.724c0,0,46.918,24.771,66.962,28.4s24.069,1.762,40.665-24.247,25.662-47.413,28.013-58.013" transform="translate(-2090.318 -3240.094)"/></g><g transform="translate(128.651 65.671)"><circle class="f" cx="11.84" cy="11.84" r="11.84" transform="translate(0 1.681) rotate(-4.071)"/></g><g transform="translate(113.479 119.955)"><path class="h" d="M2216.261,3082.67s1.968,4.609,14.457,3.219,26.094-13.943,26.094-13.943a30.635,30.635,0,0,1,5.587,4.481s-16.533,20.942-35.477,19.987-14.115-12.651-14.115-12.651Z" transform="translate(-2212.258 -3071.946)"/></g><g transform="translate(65.959 219.58)"><path class="h" d="M2055.847,3415.638s10.487,2.875,12.738,3.6c0,0-3.083,15.809-8.091,21.724,0,0-10.877-3.817-12.174-5.21C2048.321,3435.755,2054.214,3430.091,2055.847,3415.638Z" transform="translate(-2048.321 -3415.638)"/></g><g transform="translate(30.61 80.431)"><path class="h" d="M1951.867,2943.93s-3.3,10.362-4.118,12.581c0,0-15.671-3.722-21.377-8.966,0,0,4.256-10.713,5.7-11.952C1932.073,2935.593,1937.492,2941.711,1951.867,2943.93Z" transform="translate(-1926.372 -2935.593)"/></g><g transform="translate(76.755 135.256)"><path class="h" d="M2086.252,3184.741a.673.673,0,0,1-.1-.007.686.686,0,0,1-.584-.775,102.212,102.212,0,0,1,7.2-23.914,81.967,81.967,0,0,1,11.905-19.622,56.944,56.944,0,0,1,20.082-15.63.686.686,0,1,1,.569,1.249c-16.663,7.6-26.21,22.967-31.285,34.521a100.842,100.842,0,0,0-7.112,23.587A.687.687,0,0,1,2086.252,3184.741Z" transform="translate(-2085.564 -3124.732)"/></g></g><g transform="translate(1785.249 2440.788)"><g transform="translate(0 0)"><path class="c" d="M2482,2516.684a4.3,4.3,0,0,1-3.049-1.227,4.562,4.562,0,0,1-.215-6.393,4.313,4.313,0,0,1,3.128-1.437h0a4.335,4.335,0,0,1,3.248,1.223,4.561,4.561,0,0,1,.215,6.393,4.347,4.347,0,0,1-3.158,1.438Q2482.086,2516.684,2482,2516.684Zm-.089-7.685a2.948,2.948,0,0,0-2.165,1,3.058,3.058,0,0,0-.837,2.28,3.019,3.019,0,0,0,.987,2.187,3.114,3.114,0,0,0,4.422-.148,3.021,3.021,0,0,0,.839-2.249,3.06,3.06,0,0,0-.989-2.218,2.975,2.975,0,0,0-2.258-.847Zm-.241-3.831a2.959,2.959,0,0,1-2.948-2.819c-.335-7.5.13-9.523.522-10.358.8-2.337,3.129-4.563,7.121-6.8a1.645,1.645,0,0,0,.17-.107c1.757-1.307,2.488-4.181,2.17-8.544a5.047,5.047,0,0,0-2.155-4.011,8.69,8.69,0,0,0-5.715-1.52,8.235,8.235,0,0,0-6.63,3.066,7.746,7.746,0,0,0-1.491,3.97,2.959,2.959,0,0,1-2.836,2.567h0a2.952,2.952,0,0,1-3.024-3.3,13.4,13.4,0,0,1,3.484-7.835c2.493-2.655,5.939-4.075,10.242-4.219,4.227-.144,7.641.846,10.146,2.938a10.543,10.543,0,0,1,3.965,7.8,1.618,1.618,0,0,0,.041.287,17.832,17.832,0,0,1-.15,6.444,10.62,10.62,0,0,1-4.385,7.093,2.974,2.974,0,0,1-.6.333,9.861,9.861,0,0,0-4.678,3.861,1.484,1.484,0,0,0-.2.58,59.306,59.306,0,0,0-.107,7.55,2.956,2.956,0,0,1-2.845,3.021Zm-.359-35.542a9.727,9.727,0,0,1,6.074,1.812,6.406,6.406,0,0,1,2.689,5.027c.358,4.9-.532,8.09-2.722,9.718a2.992,2.992,0,0,1-.318.2c-3.653,2.049-5.841,4.1-6.5,6.082l-.034.084c-.351.716-.706,2.987-.4,9.736a1.576,1.576,0,0,0,3.151-.108,59.081,59.081,0,0,1,.12-7.774,2.849,2.849,0,0,1,.393-1.113,11.207,11.207,0,0,1,5.309-4.4,1.588,1.588,0,0,0,.32-.176,9.174,9.174,0,0,0,3.841-6.2,16.86,16.86,0,0,0,.167-5.923,3.094,3.094,0,0,1-.073-.521,9.1,9.1,0,0,0-3.473-6.821c-2.239-1.869-5.34-2.75-9.221-2.62a12.8,12.8,0,0,0-9.288,3.787,12.059,12.059,0,0,0-3.121,7.053,1.6,1.6,0,0,0,.41,1.267,1.547,1.547,0,0,0,1.2.5h0a1.578,1.578,0,0,0,1.519-1.359,9.071,9.071,0,0,1,1.778-4.657,9.648,9.648,0,0,1,7.66-3.586Q2481.055,2469.626,2481.314,2469.626Z" transform="translate(-2466.837 -2465.242)"/></g></g><g transform="translate(1777.358 2552.375)"><g transform="translate(0 0)"><path class="h" d="M2441.766,2863.1h-.008a2.15,2.15,0,0,1-2.121-2.473,12.011,12.011,0,0,1,3.366-6.947,12.7,12.7,0,0,1,9.376-3.481q5.792,0,9.083,2.94a9.32,9.32,0,0,1,3.289,7.05,2.14,2.14,0,0,0,.04.373,16.446,16.446,0,0,1-.346,5.858,9.4,9.4,0,0,1-4.106,6.166,2.181,2.181,0,0,1-.443.227,9.943,9.943,0,0,0-4.858,3.75,2.017,2.017,0,0,0-.305.768,55.377,55.377,0,0,0-.356,7.28,2.146,2.146,0,0,1-2.144,2.126h0a2.147,2.147,0,0,1-2.144-2.125q-.087-7.91.769-9.518,1.128-3.038,6.666-5.905a2.123,2.123,0,0,0,.233-.137q2.866-1.984,2.609-8.584a5.427,5.427,0,0,0-2.15-4.344,8.812,8.812,0,0,0-5.777-1.77,8.487,8.487,0,0,0-6.875,2.926,7.908,7.908,0,0,0-1.68,4A2.146,2.146,0,0,1,2441.766,2863.1Zm10.554,25.1a3.479,3.479,0,0,1,2.575,1.068,3.674,3.674,0,0,1,0,5.148,3.6,3.6,0,0,1-5.12,0,3.674,3.674,0,0,1,0-5.148A3.445,3.445,0,0,1,2452.319,2888.2Z" transform="translate(-2439.613 -2850.202)"/></g></g><g transform="translate(1642.924 2433.698)"><g transform="translate(0 0)"><path class="c" d="M2035.708,2440.79a45.945,45.945,0,0,0-24.064,9.563c-3.4,2.674-7.188,6.049-8.163,10.463-.915,4.141,1.033,7.711,4.654,9.715,3.725,2.06,8.255,2.872,12.443,3.295a45.863,45.863,0,0,0,13.878-.742,44.171,44.171,0,0,0,7.012-2.065,20.973,20.973,0,0,0,5.542-2.763,4.035,4.035,0,0,0,1.606-4.515,5.308,5.308,0,0,0-4.323-3.155,41.913,41.913,0,0,0-7.082-.239c-2.546.008-5.093.076-7.635.225a96.98,96.98,0,0,0-14.833,1.945,61.368,61.368,0,0,0-24.225,10.707,46.755,46.755,0,0,0-8.872,8.742c-2.575,3.353-4.981,7.242-5.658,11.482a10.219,10.219,0,0,0,4.2,10.336c3.575,2.571,8.224,3.7,12.536,4.156,9.731,1.027,19.656-1.652,28.843-4.6a151.692,151.692,0,0,0,27.084-11.7q3.26-1.8,6.426-3.768c1.042-.644.085-2.294-.962-1.646a150.052,150.052,0,0,1-23.7,11.933,124.9,124.9,0,0,1-24.87,7.305,46.819,46.819,0,0,1-13.055.545c-4.03-.459-8.6-1.6-11.8-4.227-6.963-5.725-.257-15.714,4.189-20.769,11.021-12.531,27.785-17.437,43.934-18.487a134.041,134.041,0,0,1,13.424-.213c1.664.059,5.973.883,4.415,3.564-.929,1.6-3.434,2.386-5.035,3.042a43.791,43.791,0,0,1-24.987,2.405c-3.44-.688-7.688-1.621-10.074-4.425-3.187-3.746-.473-8.64,2.4-11.6a43.463,43.463,0,0,1,26.755-12.606c1.211-.114,1.223-2.021,0-1.906Z" transform="translate(-1975.832 -2440.785)"/></g></g><g transform="translate(1749.714 2430.806)"><path class="c" d="M2396.952,2504.624c-14.035,0-27.238-3.812-37.178-10.732-10.015-6.974-15.531-16.27-15.531-26.177s5.516-19.2,15.531-26.176c9.94-6.921,23.144-10.733,37.178-10.733s27.238,3.812,37.178,10.733c10.015,6.973,15.531,16.27,15.531,26.176s-5.516,19.2-15.531,26.177C2424.19,2500.812,2410.987,2504.624,2396.952,2504.624Zm0-72.445c-28.308,0-51.337,15.941-51.337,35.536s23.03,35.536,51.337,35.536,51.337-15.941,51.337-35.536S2425.26,2432.178,2396.952,2432.178Z" transform="translate(-2344.243 -2430.806)"/></g><g transform="translate(1751.761 2496.541)"><g transform="translate(0 0)"><path class="c" d="M2359.029,2668.726a9.3,9.3,0,0,1-1.38-.1,8.412,8.412,0,0,1-4.724-2.281,4.963,4.963,0,0,1-1.568-4.254c.452-3.015,4.011-4.99,7.933-4.4a8.415,8.415,0,0,1,4.724,2.28,4.963,4.963,0,0,1,1.568,4.255h0C2365.183,2666.877,2362.374,2668.726,2359.029,2668.726Zm-1.142-9.772c-2.666,0-4.877,1.36-5.174,3.337a3.63,3.63,0,0,0,1.185,3.084,7.04,7.04,0,0,0,3.954,1.89c3.171.476,6.032-.98,6.372-3.247h0a3.627,3.627,0,0,0-1.184-3.084,7.037,7.037,0,0,0-3.954-1.89A8.1,8.1,0,0,0,2357.888,2658.953Z" transform="translate(-2351.308 -2657.582)"/></g></g><g transform="translate(1870.884 2634.823)"><g transform="translate(0 0)"><circle class="c" cx="3.816" cy="3.816" r="3.816" transform="translate(0 5.396) rotate(-45)"/></g></g><g transform="translate(1562.134 2573.721)"><g transform="translate(0 0)"><circle class="c" cx="3.338" cy="3.338" r="3.338"/></g></g><g transform="translate(1630.912 2757.913)"><circle class="h" cx="3.237" cy="3.237" r="3.237" transform="translate(0 0)"/></g><g transform="translate(1599.751 2518.145)"><g transform="translate(0 70.304)"><g transform="translate(0 8.613)"><circle class="h" cx="4.957" cy="4.957" r="4.957"/></g><g transform="translate(0.563)"><circle class="h" cx="2.667" cy="2.667" r="2.667"/></g></g><g transform="translate(196.019 94.674)"><circle class="h" cx="4.848" cy="4.848" r="4.848"/><g transform="translate(1.37 15.817)"><circle class="h" cx="2.642" cy="2.642" r="2.642"/></g></g><g transform="translate(54.134 0)"><g transform="translate(115.163)"><g transform="translate(0)"><circle class="h" cx="4.848" cy="4.848" r="4.848" transform="translate(0 8.904) rotate(-66.673)"/></g></g><g transform="translate(0 98.982)"><path class="h" d="M2019.388,3077.392a2.935,2.935,0,1,1-1.94-3.669A2.935,2.935,0,0,1,2019.388,3077.392Z" transform="translate(-2013.648 -3073.591)"/></g></g></g><g transform="translate(1602.722 2508.026)"><g transform="translate(0 0)"><path class="c" d="M1842.076,2736.515a3.948,3.948,0,0,1-.955-.121,3.608,3.608,0,0,1-2.308-1.722,3.813,3.813,0,0,1,1.291-5.189,3.593,3.593,0,0,1,2.184-.547,2.527,2.527,0,0,1-1.279-2.808c1.4-5.9,2.218-7.394,2.717-7.971,1.156-1.663,3.481-2.891,7.1-3.754a1.11,1.11,0,0,0,.136-.04c1.609-.608,2.783-2.645,3.491-6.054a3.951,3.951,0,0,0-.763-3.483,6.881,6.881,0,0,0-4.025-2.392,6.52,6.52,0,0,0-5.712.894,6.1,6.1,0,0,0-1.981,2.674,2.5,2.5,0,0,1-2.92,1.467h-.007a2.517,2.517,0,0,1-1.712-3.407,10.942,10.942,0,0,1,4.49-5.375,11.522,11.522,0,0,1,8.98-1.028,11.9,11.9,0,0,1,7.3,4.575,8.632,8.632,0,0,1,1.371,7.042,1.122,1.122,0,0,0-.027.2,14.484,14.484,0,0,1-1.552,5.023,8.7,8.7,0,0,1-5.043,4.6,2.522,2.522,0,0,1-.567.134,7.826,7.826,0,0,0-4.408,1.927,1.027,1.027,0,0,0-.246.344,47.228,47.228,0,0,0-1.752,5.834,2.521,2.521,0,0,1-2.382,1.885,3.608,3.608,0,0,1,1.78,1.549,3.813,3.813,0,0,1-1.291,5.189A3.62,3.62,0,0,1,1842.076,2736.515Zm-.054-6.215a2.269,2.269,0,0,0-1.2.355,2.342,2.342,0,0,0-1.094,1.5,2.313,2.313,0,0,0,.269,1.816,2.251,2.251,0,0,0,1.459,1.089,2.279,2.279,0,0,0,1.823-.273,2.311,2.311,0,0,0,1.088-1.479,2.341,2.341,0,0,0-.263-1.84,2.281,2.281,0,0,0-1.483-1.095h0A2.463,2.463,0,0,0,1842.022,2730.3Zm5.569-29.51a9.987,9.987,0,0,1,2.408.312,8.2,8.2,0,0,1,4.8,2.906,5.3,5.3,0,0,1,1,4.606c-.814,3.928-2.237,6.237-4.342,7.033a2.524,2.524,0,0,1-.3.092c-3.255.776-5.379,1.863-6.312,3.229l-.057.072c-.344.382-1.117,1.852-2.433,7.406a1.139,1.139,0,0,0,2.211.551,47.171,47.171,0,0,1,1.828-6.051,2.4,2.4,0,0,1,.575-.8,9.172,9.172,0,0,1,5.162-2.275,1.15,1.15,0,0,0,.259-.059,7.272,7.272,0,0,0,4.276-3.9,13.46,13.46,0,0,0,1.426-4.516,2.61,2.61,0,0,1,.06-.433,7.216,7.216,0,0,0-1.168-5.962,10.589,10.589,0,0,0-6.5-4.016,10.2,10.2,0,0,0-7.944.873,9.6,9.6,0,0,0-3.926,4.722,1.15,1.15,0,0,0,.035.959,1.119,1.119,0,0,0,.741.591l-.159.667.166-.666a1.135,1.135,0,0,0,1.325-.669,7.2,7.2,0,0,1,6.881-4.678Z" transform="translate(-1837.143 -2697.206)"/></g></g></g></g></svg>