<svg xmlns="http://www.w3.org/2000/svg" width="33.463" height="29.818" viewBox="0 0 33.463 29.818"><defs><style>.a{stroke:#000;}</style></defs><g transform="translate(-10.5 -38)"><g transform="translate(11 38.5)"><path class="a" d="M39.043,43.178H33.1l-1.551-3.83A1.354,1.354,0,0,0,30.3,38.5H24.18a1.344,1.344,0,0,0-1.252.848l-1.551,3.83H15.426A4.43,4.43,0,0,0,11,47.6V62.892a4.43,4.43,0,0,0,4.426,4.426h23.61a4.43,4.43,0,0,0,4.426-4.426V47.6A4.424,4.424,0,0,0,39.043,43.178ZM25.088,41.2h4.294l.8,1.968H24.286l.8-1.968ZM40.766,62.892a1.728,1.728,0,0,1-1.723,1.723H15.426A1.728,1.728,0,0,1,13.7,62.892V47.6a1.728,1.728,0,0,1,1.723-1.723h23.61A1.728,1.728,0,0,1,40.759,47.6V62.892Z" transform="translate(-11 -38.5)"/><path class="a" d="M150.669,179.7a6.269,6.269,0,1,0,6.269,6.269A6.279,6.279,0,0,0,150.669,179.7Zm0,10.246a3.977,3.977,0,1,1,3.977-3.977A3.985,3.985,0,0,1,150.669,189.946Z" transform="translate(-134.434 -169.218)"/></g></g></svg>