<svg xmlns="http://www.w3.org/2000/svg" width="23.803" height="26.701" viewBox="0 0 23.803 26.701"><defs><style>.a{stroke:#000;stroke-width:0.5px;}</style></defs><g transform="translate(-26.65 0.25)"><g transform="translate(26.9)"><path class="a" d="M49.476,3.771H44.025V2.882A2.885,2.885,0,0,0,41.143,0H35.961a2.885,2.885,0,0,0-2.882,2.882v.889H27.627a.727.727,0,0,0,0,1.454h1.314V22.312A3.894,3.894,0,0,0,32.831,26.2H44.272a3.894,3.894,0,0,0,3.889-3.889V5.225h1.314a.727.727,0,1,0,0-1.454ZM34.533,2.882a1.43,1.43,0,0,1,1.427-1.427h5.182A1.43,1.43,0,0,1,42.57,2.882v.889H34.533Zm12.174,19.43a2.439,2.439,0,0,1-2.435,2.435H32.831A2.439,2.439,0,0,1,30.4,22.312V5.225H46.713V22.312Z" transform="translate(-26.9)"/><path class="a" d="M230.427,159.707a.724.724,0,0,0,.727-.727V146.127a.727.727,0,0,0-1.454,0v12.847A.729.729,0,0,0,230.427,159.707Z" transform="translate(-218.776 -137.568)"/><path class="a" d="M142.327,172.907a.724.724,0,0,0,.727-.727V160.927a.727.727,0,0,0-1.454,0V172.18A.728.728,0,0,0,142.327,172.907Z" transform="translate(-135.421 -151.57)"/><path class="a" d="M318.527,172.907a.724.724,0,0,0,.727-.727V160.927a.727.727,0,0,0-1.454,0V172.18A.724.724,0,0,0,318.527,172.907Z" transform="translate(-302.13 -151.57)"/></g></g></svg>