<svg xmlns="http://www.w3.org/2000/svg" width="29.404" height="15.519" viewBox="0 0 29.404 15.519"><g transform="translate(0 -77.131)"><g transform="translate(0 77.131)"><path d="M28.054,77.131H1.35A1.35,1.35,0,0,0,0,78.482V91.3a1.35,1.35,0,0,0,1.35,1.35h26.7A1.35,1.35,0,0,0,29.4,91.3V78.482A1.35,1.35,0,0,0,28.054,77.131ZM19.4,80.4a.345.345,0,0,1,.345-.345H21.6a.345.345,0,0,1,.345.345v1.664a.345.345,0,0,1-.345.345H19.74a.345.345,0,0,1-.345-.345Zm0,3.662v1.663a.345.345,0,0,1-.345.345h-1.86a.345.345,0,0,1-.345-.345V84.059a.345.345,0,0,1,.345-.345h1.86A.345.345,0,0,1,19.4,84.059Zm-1.767-4.007a.345.345,0,0,1,.345.345v1.664a.345.345,0,0,1-.345.345h-1.86a.345.345,0,0,1-.345-.345V80.4a.345.345,0,0,1,.345-.345Zm-2.156,4.007v1.663a.345.345,0,0,1-.345.345h-1.86a.345.345,0,0,1-.345-.345V84.059a.345.345,0,0,1,.345-.345h1.86A.345.345,0,0,1,15.473,84.059ZM11.453,80.4a.345.345,0,0,1,.345-.345h1.86A.345.345,0,0,1,14,80.4v1.663a.345.345,0,0,1-.345.345H11.8a.345.345,0,0,1-.345-.345V80.4Zm.1,3.662v1.663a.345.345,0,0,1-.345.345H9.346A.345.345,0,0,1,9,85.723V84.059a.345.345,0,0,1,.345-.345h1.86A.345.345,0,0,1,11.55,84.059Zm-8.042-2V80.4a.345.345,0,0,1,.345-.345h1.86a.345.345,0,0,1,.345.345v1.664a.345.345,0,0,1-.345.345H3.854A.345.345,0,0,1,3.509,82.061Zm2.832,7.324A.345.345,0,0,1,6,89.73H4.136a.345.345,0,0,1-.345-.345V87.721a.345.345,0,0,1,.345-.345H6a.345.345,0,0,1,.345.345Zm1.287-3.662a.345.345,0,0,1-.345.345H5.424a.345.345,0,0,1-.345-.345V84.059a.345.345,0,0,1,.345-.345h1.86a.345.345,0,0,1,.345.345ZM7.48,82.061V80.4a.345.345,0,0,1,.345-.345H9.686a.345.345,0,0,1,.345.345v1.664a.345.345,0,0,1-.345.345H7.825A.345.345,0,0,1,7.48,82.061Zm14.367,7.324a.345.345,0,0,1-.345.345H8.317a.345.345,0,0,1-.345-.345V87.721a.345.345,0,0,1,.345-.345H21.5a.345.345,0,0,1,.345.345v1.663Zm1.471-3.662a.345.345,0,0,1-.345.345h-1.86a.345.345,0,0,1-.345-.345V84.059a.345.345,0,0,1,.345-.345h1.86a.345.345,0,0,1,.345.345Zm.049-3.662V80.4a.345.345,0,0,1,.345-.345h1.86a.345.345,0,0,1,.345.345v1.663a.345.345,0,0,1-.345.345H23.713A.345.345,0,0,1,23.368,82.061Zm2.66,7.324a.345.345,0,0,1-.345.345h-1.86a.345.345,0,0,1-.345-.345V87.721a.345.345,0,0,1,.345-.345h1.86a.345.345,0,0,1,.345.345Z" transform="translate(0 -77.131)"/></g></g></svg>