<svg xmlns="http://www.w3.org/2000/svg" width="66.16" height="58.732" viewBox="0 0 66.16 58.732"><defs><style>.a{fill:#fff;}.b{fill:#65cb00;}</style></defs><g transform="translate(-11 -38.5)"><path class="a" d="M68.152,48.034H56.038l-3.16-7.806A2.76,2.76,0,0,0,50.326,38.5H37.861a2.739,2.739,0,0,0-2.552,1.729l-3.16,7.806H20.021A9.029,9.029,0,0,0,11,57.055V88.211a9.029,9.029,0,0,0,9.021,9.021H68.138a9.029,9.029,0,0,0,9.021-9.021V57.055a9.017,9.017,0,0,0-9.008-9.021ZM39.711,44.01h8.751l1.621,4.011H38.077l1.634-4.011Zm31.952,44.2a3.522,3.522,0,0,1-3.511,3.511H20.021a3.522,3.522,0,0,1-3.511-3.511V57.055a3.522,3.522,0,0,1,3.511-3.511H68.138a3.522,3.522,0,0,1,3.511,3.511V88.211Z"/><path class="b" d="M159.471,179.7a15.071,15.071,0,1,0,15.071,15.071A15.095,15.095,0,0,0,159.471,179.7Zm0,24.633a9.561,9.561,0,1,1,9.561-9.561,9.579,9.579,0,0,1-9.561,9.561Z" transform="translate(-115.385 -122.131)"/></g></svg>