<svg xmlns="http://www.w3.org/2000/svg" width="27.38" height="27.38" viewBox="0 0 27.38 27.38"><defs><style>.a{stroke-linecap:round;stroke-linejoin:round;}.b,.c{stroke:none;}</style></defs><g class="a" transform="translate(1 1)"><path class="b" d="M 12.69018745422363 25.88037872314453 C 9.180987358093262 25.88037872314453 5.87249755859375 24.5044994354248 3.374187469482422 22.00618934631348 C 0.8758774399757385 19.50787925720215 -0.5000025629997253 16.19938850402832 -0.5000025629997253 12.69018936157227 C -0.5000025629997253 9.180989265441895 0.8758774399757385 5.872499465942383 3.374187469482422 3.374189376831055 C 5.87249755859375 0.8758793473243713 9.180987358093262 -0.5000006556510925 12.69018745422363 -0.5000006556510925 C 14.47671699523926 -0.5000006556510925 16.19818687438965 -0.1458506435155869 17.80677795410156 0.5526193380355835 C 19.22374153137207 1.16788649559021 20.49020957946777 2.021952152252197 21.57817459106445 3.095101356506348 L 25.02682685852051 -0.3535506427288055 L 25.8803768157959 -1.207110643386841 L 25.8803768157959 -6.384277639881475e-07 L 25.8803768157959 11.10390949249268 L 25.8803768157959 11.60390949249268 L 25.3803768157959 11.60390949249268 L 14.27645778656006 11.60390949249268 L 13.0693473815918 11.60390949249268 L 13.92290782928467 10.75035953521729 L 18.63746643066406 6.035809993743896 C 16.91907119750977 4.467080116271973 14.92074680328369 3.672549247741699 12.69018745422363 3.672549247741699 C 7.717847347259521 3.672549247741699 3.672547340393066 7.717849254608154 3.672547340393066 12.69018936157227 C 3.672547340393066 17.66252899169922 7.717847347259521 21.70782852172852 12.69018745422363 21.70782852172852 C 16.47077751159668 21.70782852172852 19.8508472442627 19.29286003112793 21.10106658935547 15.69847965240479 L 21.21784782409668 15.36273956298828 L 21.57331657409668 15.36273956298828 L 24.90448760986328 15.36273956298828 L 25.55405807495117 15.36273956298828 L 25.38783836364746 15.99068927764893 C 24.65876770019531 18.74495887756348 23.02034759521484 21.24674987792969 20.77438735961914 23.03520011901855 C 18.43689727783203 24.89653015136719 15.6414270401001 25.88037872314453 12.69018745422363 25.88037872314453 Z"/><path class="c" d="M 12.69018745422363 0 C 5.710586547851563 0 -1.9073486328125e-06 5.710578918457031 -1.9073486328125e-06 12.69018936157227 C -1.9073486328125e-06 19.6697883605957 5.710586547851563 25.38037872314453 12.69018745422363 25.38037872314453 C 18.55939674377441 25.38037872314453 23.47684669494629 21.25606918334961 24.90448760986328 15.86273956298828 L 21.57331848144531 15.86273956298828 C 20.30429840087891 19.51116943359375 16.81449699401855 22.20782852172852 12.69018745422363 22.20782852172852 C 7.455488204956055 22.20782852172852 3.172548294067383 17.92488861083984 3.172548294067383 12.69018936157227 C 3.172548294067383 7.455490112304688 7.455488204956055 3.172550201416016 12.69018745422363 3.172550201416016 C 15.38685703277588 3.172550201416016 17.60763740539551 4.282939910888672 19.35253715515137 6.027839660644531 L 14.27645778656006 11.10390949249268 L 25.3803768157959 11.10390949249268 L 25.3803768157959 0 L 21.57331848144531 3.807060241699219 C 19.35253715515137 1.427648544311523 16.17998886108398 0 12.69018745422363 0 M 25.38059997558594 -1.000028610229492 C 25.50942611694336 -1.000030517578125 25.63932991027832 -0.9751300811767578 25.76305770874023 -0.9238815307617188 C 26.13673782348633 -0.7691001892089844 26.3803768157959 -0.4044609069824219 26.3803768157959 0 L 26.3803768157959 11.10390949249268 C 26.3803768157959 11.65618896484375 25.93265724182129 12.10390949249268 25.3803768157959 12.10390949249268 L 14.27645778656006 12.10390949249268 C 13.87199783325195 12.10390949249268 13.50735759735107 11.86026954650879 13.35257720947266 11.4865894317627 C 13.19779777526855 11.11291980743408 13.28335762023926 10.68279933929443 13.5693473815918 10.39679908752441 L 17.90392875671387 6.062227249145508 C 16.37185859680176 4.807407379150391 14.62231349945068 4.172550201416016 12.69018745422363 4.172550201416016 C 7.993547439575195 4.172550201416016 4.172548294067383 7.993549346923828 4.172548294067383 12.69018936157227 C 4.172548294067383 17.3868293762207 7.993547439575195 21.20782852172852 12.69018745422363 21.20782852172852 C 16.25815773010254 21.20782852172852 19.44844818115234 18.92778015136719 20.62881851196289 15.53421974182129 C 20.76865768432617 15.13218975067139 21.14765739440918 14.86273956298828 21.57331848144531 14.86273956298828 L 24.90448760986328 14.86273956298828 C 25.21484756469727 14.86273956298828 25.50760650634766 15.00683975219727 25.6969165802002 15.25277900695801 C 25.88622665405273 15.4987096786499 25.95060729980469 15.8186092376709 25.87119674682617 16.11862945556641 C 25.11479759216309 18.97611999511719 23.41533660888672 21.57137870788574 21.08585739135742 23.42634010314941 C 18.65892791748047 25.35888862609863 15.75575733184814 26.38037872314453 12.69018745422363 26.38037872314453 C 9.047428131103516 26.38037872314453 5.613388061523438 24.95248985290527 3.020637512207031 22.35973930358887 C 0.427886962890625 19.76698875427246 -1.000001907348633 16.33295059204102 -1.000001907348633 12.69018936157227 C -1.000001907348633 9.047430038452148 0.427886962890625 5.613378524780273 3.020637512207031 3.0206298828125 C 5.613388061523438 0.4278888702392578 9.047428131103516 -1 12.69018745422363 -1 C 14.5456371307373 -1 16.3341064453125 -0.6319313049316406 18.00591659545898 0.09398841857910156 C 19.3260612487793 0.6672039031982422 20.52079010009766 1.439897537231445 21.56901550292969 2.39714241027832 L 24.67326736450195 -0.7071113586425781 C 24.86456871032715 -0.8984050750732422 25.12036323547363 -1.000024795532227 25.38059997558594 -1.000028610229492 Z"/></g></svg>