<svg xmlns="http://www.w3.org/2000/svg" width="28.17" height="30.154" viewBox="0 0 28.17 30.154">
  <g id="skip-icon" transform="translate(1.5 1.5)">
    <g id="Group_381" data-name="Group 381">
      <path id="Path_1362" data-name="Path 1362" d="M29.344,25.6H22.261a3.491,3.491,0,0,1-3.486-3.486V5.042a3.491,3.491,0,0,1,3.486-3.486h7.2a.778.778,0,0,0,0-1.556h-7.2a5.048,5.048,0,0,0-5.042,5.042V22.112a5.048,5.048,0,0,0,5.042,5.042h7.082a.778.778,0,1,0,0-1.556Z" transform="translate(-17.219)" fill="none" stroke="#fff" stroke-width="3"/>
      <path id="Path_1363" data-name="Path 1363" d="M139.507,141.5l-4.944-4.944a.778.778,0,0,0-1.1,1.1l3.619,3.619H121.3a.778.778,0,1,0,0,1.556h15.784l-3.619,3.619a.781.781,0,0,0,.547,1.331.759.759,0,0,0,.547-.231L139.5,142.6A.777.777,0,0,0,139.507,141.5Z" transform="translate(-114.566 -128.469)" fill="none" stroke="#fff" stroke-width="3"/>
    </g>
  </g>
</svg>
