<svg xmlns="http://www.w3.org/2000/svg" width="55.342" height="63.358" viewBox="0 0 55.342 63.358"><defs><style>.a{fill:#65cb00;}</style></defs><path class="a" d="M-20.3-28.213A27.67,27.67,0,0,0-47.976-.542,27.654,27.654,0,0,0-33.631,23.709l-.325,11.436L-20.9,27.1c.2,0,.394.031.6.031A27.67,27.67,0,0,0,7.366-.542,27.67,27.67,0,0,0-20.3-28.213Zm3.524,43.8h-7.09V-7.241h7.09Zm-3.593-25.619a3.468,3.468,0,0,1-3.686-3.551,3.467,3.467,0,0,1,3.732-3.6,3.564,3.564,0,0,1,3.785,3.6A3.573,3.573,0,0,1-20.374-10.036Z" transform="translate(47.976 28.213)"/></svg>