<svg xmlns="http://www.w3.org/2000/svg" xmlns:xlink="http://www.w3.org/1999/xlink" width="218" height="200" viewBox="0 0 218 200"><defs><style>.a{fill:#fcfcfc;stroke:#e8e8e8;}.b{clip-path:url(#a);}.c{fill:#dcac7c;}.d{fill:#e0e0e0;mix-blend-mode:multiply;isolation:isolate;}.e{fill:#272b3b;}.f{fill:url(#b);}.ad,.g{fill:#fff;}.h{fill:url(#c);}.i{fill:url(#d);}.j{fill:url(#e);}.k{fill:#424646;}.l{fill:url(#f);}.m{fill:url(#g);}.n{fill:url(#h);}.o{fill:#bed797;}.p{fill:#235600;}.q{fill:#488100;}.r{fill:#6ca132;}.s{fill:url(#i);}.t{fill:url(#k);}.u{fill:url(#l);}.v{fill:url(#m);}.w{fill:url(#n);}.x{fill:url(#o);}.y{fill:#585858;}.z{fill:#1962ba;}.aa,.ac{fill:#ce9180;}.ab{fill:#edbb98;}.ac{opacity:0.4;}.ad{opacity:0.1;}.ae{fill:#474747;}.af{fill:none;stroke:#474747;stroke-linecap:round;stroke-miterlimit:10;stroke-width:2.99px;}</style><clipPath id="a"><rect class="a" width="218" height="200" transform="translate(12 300)"/></clipPath><linearGradient id="b" x1="1.07" y1="-0.244" x2="0.025" y2="1.121" gradientUnits="objectBoundingBox"><stop offset="0.016" stop-color="#505563"/><stop offset="0.754" stop-color="#383b45"/></linearGradient><linearGradient id="c" x1="0.099" y1="1.213" x2="0.89" y2="-0.318" gradientUnits="objectBoundingBox"><stop offset="0.003" stop-color="#424646"/><stop offset="0.774" stop-color="#667175"/></linearGradient><linearGradient id="d" x1="0" y1="0.5" x2="1" y2="0.5" xlink:href="#c"/><linearGradient id="e" y1="0.5" x2="1" y2="0.5" gradientUnits="objectBoundingBox"><stop offset="0.226" stop-color="#667175"/><stop offset="0.997" stop-color="#424646"/></linearGradient><linearGradient id="f" x1="0.813" y1="0.258" x2="0.48" y2="0.498" xlink:href="#e"/><linearGradient id="g" x1="0.804" y1="0.12" x2="0.316" y2="0.605" xlink:href="#c"/><linearGradient id="h" x1="0.609" y1="1.296" x2="0.443" y2="0.081" xlink:href="#b"/><linearGradient id="i" x1="0.837" y1="-0.192" x2="0.084" y2="1.346" gradientUnits="objectBoundingBox"><stop offset="0.226" stop-color="#bed797"/><stop offset="0.997" stop-color="#488100"/></linearGradient><linearGradient id="k" x1="1.583" y1="-0.079" x2="-0.092" y2="0.816" xlink:href="#i"/><linearGradient id="l" x1="-0.786" y1="0.494" x2="1.079" y2="0.503" xlink:href="#i"/><linearGradient id="m" x1="0" y1="0.5" x2="1" y2="0.5" xlink:href="#i"/><linearGradient id="n" x1="-0.713" y1="0.5" x2="4.819" y2="0.5" gradientUnits="objectBoundingBox"><stop offset="0.003" stop-color="#488100"/><stop offset="0.774" stop-color="#bed797"/></linearGradient><linearGradient id="o" x1="0.367" y1="-0.344" x2="0.616" y2="0.52" xlink:href="#i"/></defs><g class="b" transform="translate(-12 -300)"><path class="c" d="M-25.348,190.884,179.425,72.62l133.4,77.041L108.053,267.9Z" transform="translate(51.497 309.407)"/><g transform="translate(144.611 1265.582)"><path class="d" d="M190.408-603.766l-80.883,46.7a12.682,12.682,0,0,1-11.475,0L62.274-577.723c-3.169-1.829-3.169-4.8,0-6.625l80.883-46.7a12.682,12.682,0,0,1,11.475,0l35.777,20.656C193.577-608.562,193.577-605.6,190.408-603.766Z" transform="translate(-103.774 -225.513)"/><path d="M766.757-557.232l-2.733-2.284-5-4.787,5-.715,2.733.715.423,3.777Z" transform="translate(-681.669 -281.226)"/><g transform="translate(67.467 -845.29)"><path class="e" d="M718.815-550.627c0,4.459-3.761,11.074-7.623,13.3s-8.921-1.846-8.921-6.3a13.566,13.566,0,0,1,6.992-12.11C713.2-557.832,718.815-555.086,718.815-550.627Z" transform="translate(-702.224 556.984)"/><ellipse class="f" cx="9.888" cy="5.709" rx="9.888" ry="5.709" transform="matrix(0.5, -0.866, 0.866, 0.5, 0, 17.126)"/><ellipse class="g" cx="6.962" cy="4.02" rx="6.962" ry="4.02" transform="translate(3.43 15.563) rotate(-60)"/><path d="M754.289-506.607a4.486,4.486,0,0,1-2.029,3.515c-1.121.647-2.029.122-2.029-1.172a4.485,4.485,0,0,1,2.029-3.515C753.38-508.426,754.289-507.9,754.289-506.607Z" transform="translate(-741.867 516.979)"/></g><path class="h" d="M674.268-780.668s11.434,14.81,13.187,27.41c.977,7.015,0,17.148,0,17.148l-1.011.623s-.194-9.24-7.734-5.271a15.228,15.228,0,0,0-8.209,15.09l-6.218,3.83-2.421-50.1,10.451-5.5Z" transform="translate(-601.355 -102.971)"/><g transform="translate(81.433 -872.333)"><path class="i" d="M784.98-712.337s1.074-2.928,2.3-3.123c.722-.115,6.234,2.388,6.234,3.45s-.25,4.143-.835,4.333c-.813.264-5.074-3.015-5.074-3.015l-2.011.43Z" transform="translate(-784.557 715.464)"/><path class="j" d="M782.543-711.177s1.613-2.873,2.3-3.123,5.809,2.5,5.809,3.561.125,4.248-.437,4-5.047-2.79-5.047-2.79l-2.011.43Z" transform="translate(-782.543 714.515)"/><path class="k" d="M794.947-708.593c-.034.134.435,3.18.435,3.18l2.662,1.4c-.4-1.461-.842-2.913-1.2-4.376C796.07-708.782,795.4-708.935,794.947-708.593Z" transform="translate(-792.795 709.941)"/><path class="g" d="M809.081-704.416a32.514,32.514,0,0,0-3.192-2.108c.36,1.463.8,2.915,1.2,4.376l1.991,1.045A6.9,6.9,0,0,0,809.081-704.416Z" transform="translate(-801.841 708.074)"/></g><path class="l" d="M523.539-854.253l11.948-6.289a1.57,1.57,0,0,0,.075-2.737l-27.553-16.477a3.516,3.516,0,0,0-3.6,0l-9.883,5.881Z" transform="translate(-463.033 -20.653)"/><g transform="translate(64.077 -880.407)"><path class="m" d="M682.455-757.069l9.51-4.959c1.667.115,8.556,12.974,8.143,17.836-.378.573-17.653,9.14-17.653,9.14Z" transform="translate(-682.455 762.029)"/><path class="g" d="M699.012-744.941l-16.557-9.53v-2.6l9.51-4.959S698.776-753.647,699.012-744.941Z" transform="translate(-682.455 762.029)"/><path class="k" d="M682.455-686.724l12.758,7.48s-12.758,6.865-12.758,6.437Z" transform="translate(-682.455 699.782)"/></g><g transform="translate(9.322 -811.198)"><path class="e" d="M384.182-354.11c0,4.661-3.464,11.71-7.5,14.04s-9.7-1.736-9.962-6.39c-.363-6.438,2.71-10.687,7.216-13.028C378.493-361.856,384.182-358.772,384.182-354.11Z" transform="translate(-366.69 360.756)"/><ellipse class="n" cx="10.337" cy="5.968" rx="10.337" ry="5.968" transform="matrix(0.5, -0.866, 0.866, 0.5, 0.238, 17.904)"/><ellipse class="g" cx="6.613" cy="3.818" rx="6.613" ry="3.818" transform="matrix(0.5, -0.866, 0.866, 0.5, 4.489, 15.886)"/><ellipse cx="3.029" cy="1.749" rx="3.029" ry="1.749" transform="translate(8.074 13.817) rotate(-60)"/></g><path class="o" d="M121.526-616.592,81.314-639.6v-55.663l40.213,23.006Z" transform="translate(-121.477 -173.568)"/><path class="p" d="M126.658-608.18,89.169-629.627v-52.755l37.488,21.447Z" transform="translate(-127.97 -184.214)"/><path class="q" d="M89.169-527.39l37.082-22.744.407-8.564v52.755Z" transform="translate(-127.97 -286.451)"/><g transform="translate(-40.667 -863.653)"><rect class="r" width="1.295" height="8.98" transform="translate(1.295 8.98) rotate(180)"/><rect class="r" width="1.295" height="8.98" transform="translate(1.295 45.635) rotate(180)"/><rect class="r" width="1.295" height="8.98" transform="translate(41.365 46.445) rotate(180)"/><rect class="r" width="1.295" height="8.98" transform="translate(41.365 70.363) rotate(180)"/></g><path class="s" d="M184.4-882.5l-62.877,36.843L81.314-868.829l62.88-36.411Z" transform="translate(-121.477)"/><path class="i" d="M380.626-459.285,318.7-422.714v-3.2l61.025-37.125.9,1.481Z" transform="translate(-317.699 -365.524)"/><path class="t" d="M376.1-718.665,313.22-681.822V-737.24L376.1-774.082v55.417Z" transform="translate(-313.169 -108.415)"/><path class="u" d="M-40.163-705.484l-25.483-2.144v56.438l25.483,1.37Z" transform="translate(0 -163.346)"/><path class="v" d="M-65.646-710.03l25.484,2.144v-.761l-24.856-1.888Z" transform="translate(0 -160.944)"/><path class="w" d="M313.219-561.615l9.272,18.263-.663,60.1-8.609-22.864Z" transform="translate(-313.169 -284.039)"/><path class="x" d="M321.828-484.2h1.385l.754-60.406s-8.95-17.505-9.468-17.952-1.28,0-1.28,0l9.272,18.263Z" transform="translate(-313.169 -283.092)"/></g><g transform="translate(406.28 -295.795)"><ellipse class="y" cx="18.961" cy="8.413" rx="18.961" ry="8.413" transform="translate(-358.258 774.395)"/><g transform="translate(-369.793 725.008)"><ellipse class="z" cx="18.961" cy="8.413" rx="18.961" ry="8.413" transform="translate(5.452 36.208)"/><path class="aa" d="M-350.828,774.93c13.222-.083,28.216-8.383,14.529-27.98-7.609-10.894-10.617-13.15-10.617-13.15l6.24-5.417c.484-.922-.51-1.91-1.61-1.6l-1.931.282a4.52,4.52,0,0,1-3.55-1.052l-.156-.169a2.814,2.814,0,0,0-3.415-.455l-1.416.83a4.9,4.9,0,0,1-3.927.092,27.263,27.263,0,0,0-3.837-.4c-.415-.043-.7.353-.486.666l6.319,6.98a34.438,34.438,0,0,0-12.388,14.922C-375.173,767.245-363.831,775.011-350.828,774.93Z" transform="translate(369.793 -725.008)"/><path class="ab" d="M-348.97,775.963c12.8-.082,27.554-7.409,14.3-26.941-7.368-10.857-10.511-14.05-10.511-14.05l6.043-5.4a1.213,1.213,0,0,0-1.559-1.6l-1.87.281a4.3,4.3,0,0,1-3.438-1.049l-.151-.169a2.667,2.667,0,0,0-3.307-.453l-1.371.827a4.62,4.62,0,0,1-3.8.091,25.668,25.668,0,0,0-3.716-.4.445.445,0,0,0-.47.664l6.119,6.957a34.008,34.008,0,0,0-12,14.871C-372.544,768.3-361.562,776.044-348.97,775.963Z" transform="translate(368.166 -725.804)"/><path class="ac" d="M-312.477,753.513c-6.062-10.432-10.511-14.05-10.511-14.05l6.043-5.4c.469-.919.126-1.27-.939-.961,0,0-4.274,3.808-6.378,3.08-.166.646-.4,3.524-.878,3.426,0,0,7.9,7.216,11.459,16.894,5.272,14.325-.25,23.508-20.131,23.106C-315.806,781.692-299.376,776.056-312.477,753.513Z" transform="translate(345.972 -730.294)"/><path class="aa" d="M-329.947,741.179l-1.584-4.292s.209.87-.648.643-.856-.227-1.616-.481c-.153-.051-2.555-1.789-2.664-1.729-.084.045,5.65,5.821,5.65,5.821Z" transform="translate(347.725 -731.834)"/><path class="aa" d="M-326.985,755.51l-3.07,8.592,5.4-8.592Z" transform="translate(343.485 -745.202)"/><path class="ad" d="M-339.358,793.481c0,5.928-4.341,9.876-8.911,9.493-7.5-.629-11.937-4.71-9.974-16.167.5-2.921,5.219-11.17,7.341-12.6s-5.015,16.853,4.982,1.005C-343.628,771.579-339.358,787.553-339.358,793.481Z" transform="translate(362.454 -757.527)"/><path class="ad" d="M-338.116,728.238a5.976,5.976,0,0,1,2.337,0c1.168.264,2.629,1.123,3.943.463s1.972-2.2,3.578-1.3,2.483,2.158,3.87,2.026,5.258-.992,2.483.4-3.252,2.511-6.738,2.049-3.649-1.718-5.211-1.454S-338.116,728.238-338.116,728.238Z" transform="translate(348.821 -726.41)"/><g transform="translate(13.942 7.988)"><path class="ae" d="M-323.505,751.731c-.447,0-.928-.017-1.446-.056-2.268-.171-3.328-.608-3.543-1.46a1.441,1.441,0,0,1,.65-1.568l.922,1.194c-.016.011-.034.024-.051.037a7.124,7.124,0,0,0,2.129.38c4.1.309,5.495-.866,5.508-.878h0a1.109,1.109,0,0,1-.429,1.8A11.108,11.108,0,0,1-323.505,751.731Z" transform="translate(328.538 -748.646)"/></g><g transform="translate(13.834 8.347)"><path class="ae" d="M-322.96,754.125a7.336,7.336,0,0,1-2.644-.516c-2.332-.9-3.3-1.681-3.251-2.623a1.381,1.381,0,0,1,1.123-1.28l.7,1-.2-.418.181.687a1.478,1.478,0,0,0-.307.125,6.825,6.825,0,0,0,2.261,1.184,5,5,0,0,0,5.868-1.3.328.328,0,0,1,.422-.052h0a.99.99,0,0,1,.107,1.574A6.5,6.5,0,0,1-322.96,754.125Z" transform="translate(328.857 -749.706)"/></g><path class="af" d="M-309.932,755.668a10.51,10.51,0,0,1,1.938,3.4,10.2,10.2,0,0,1,.589,2.329" transform="translate(330.162 -745.307)"/><path class="af" d="M-307.229,757.484a11.582,11.582,0,0,1,3.074,2.624,34.348,34.348,0,0,1,2.9,5.3" transform="translate(328.372 -746.509)"/></g><ellipse class="y" cx="18.961" cy="8.413" rx="18.961" ry="8.413" transform="translate(-336.967 767.974)"/><g transform="translate(-342.42 731.767)"><path class="aa" d="M-269.828,794.93c13.222-.083,28.216-8.383,14.529-27.98-7.609-10.894-10.617-13.15-10.617-13.15l6.24-5.417c.484-.922-.51-1.91-1.61-1.6l-1.931.281a4.521,4.521,0,0,1-3.55-1.052l-.156-.169a2.814,2.814,0,0,0-3.415-.454l-1.416.83a4.9,4.9,0,0,1-3.927.092,27.245,27.245,0,0,0-3.837-.4c-.415-.043-.7.353-.486.666l6.319,6.98a34.438,34.438,0,0,0-12.388,14.922C-294.173,787.245-282.831,795.011-269.828,794.93Z" transform="translate(288.793 -745.008)"/><path class="ab" d="M-267.97,795.963c12.8-.083,27.554-7.409,14.3-26.941-7.368-10.857-10.511-14.05-10.511-14.05l6.043-5.4a1.213,1.213,0,0,0-1.559-1.6l-1.87.28a4.3,4.3,0,0,1-3.438-1.049l-.151-.169a2.667,2.667,0,0,0-3.307-.453l-1.371.827a4.62,4.62,0,0,1-3.8.091,25.669,25.669,0,0,0-3.716-.4.445.445,0,0,0-.47.664l6.119,6.957a34.008,34.008,0,0,0-12,14.871C-291.544,788.3-280.562,796.044-267.97,795.963Z" transform="translate(287.166 -745.804)"/><path class="ac" d="M-231.477,773.513c-6.062-10.432-10.511-14.05-10.511-14.05l6.043-5.4c.469-.919.126-1.27-.939-.961,0,0-4.274,3.808-6.378,3.08-.166.646-.4,3.524-.878,3.426,0,0,7.9,7.215,11.459,16.894,5.272,14.325-.25,23.508-20.131,23.106C-234.806,801.692-218.376,796.056-231.477,773.513Z" transform="translate(264.972 -750.294)"/><path class="aa" d="M-248.947,761.179l-1.584-4.292s.209.87-.648.643-.856-.227-1.616-.481c-.153-.051-2.555-1.789-2.664-1.729-.084.045,5.65,5.821,5.65,5.821Z" transform="translate(266.725 -751.834)"/><path class="aa" d="M-245.985,775.51l-3.07,8.592,5.4-8.592Z" transform="translate(262.485 -765.202)"/><path class="ad" d="M-258.358,813.481c0,5.928-4.341,9.876-8.911,9.493-7.5-.629-11.937-4.71-9.974-16.167.5-2.921,5.219-11.17,7.341-12.6s-5.015,16.853,4.982,1.005C-262.628,791.579-258.358,807.553-258.358,813.481Z" transform="translate(281.454 -777.527)"/><path class="ad" d="M-257.116,748.238a5.977,5.977,0,0,1,2.337,0c1.168.264,2.629,1.123,3.943.463s1.972-2.2,3.578-1.3,2.483,2.158,3.87,2.026,5.258-.992,2.483.4-3.252,2.511-6.738,2.049-3.649-1.718-5.211-1.454S-257.116,748.238-257.116,748.238Z" transform="translate(267.821 -746.41)"/><g transform="translate(13.942 7.988)"><path class="ae" d="M-242.505,771.731c-.447,0-.928-.017-1.446-.056-2.268-.171-3.328-.608-3.543-1.46a1.441,1.441,0,0,1,.65-1.568l.922,1.194c-.016.011-.034.024-.051.038a7.123,7.123,0,0,0,2.129.38c4.1.309,5.495-.866,5.508-.878h0a1.109,1.109,0,0,1-.429,1.8A11.111,11.111,0,0,1-242.505,771.731Z" transform="translate(247.538 -768.646)"/></g><g transform="translate(13.834 8.347)"><path class="ae" d="M-241.96,774.125a7.336,7.336,0,0,1-2.644-.516c-2.333-.9-3.3-1.681-3.251-2.623a1.381,1.381,0,0,1,1.123-1.28l.7,1-.2-.418.181.687a1.468,1.468,0,0,0-.307.125,6.828,6.828,0,0,0,2.261,1.183,5,5,0,0,0,5.868-1.3.328.328,0,0,1,.422-.052h0a.99.99,0,0,1,.107,1.574A6.5,6.5,0,0,1-241.96,774.125Z" transform="translate(247.857 -769.706)"/></g><path class="af" d="M-228.932,775.668a10.512,10.512,0,0,1,1.938,3.4,10.206,10.206,0,0,1,.589,2.329" transform="translate(249.162 -765.307)"/><path class="af" d="M-226.229,777.484a11.583,11.583,0,0,1,3.074,2.624,34.351,34.351,0,0,1,2.9,5.3" transform="translate(247.372 -766.509)"/></g><g transform="translate(-363.71 738.188)"><path class="aa" d="M-332.828,813.93c13.222-.083,28.216-8.383,14.529-27.98-7.609-10.894-10.617-13.15-10.617-13.15l6.24-5.417c.484-.922-.51-1.91-1.61-1.6l-1.931.282a4.521,4.521,0,0,1-3.55-1.052l-.156-.169a2.814,2.814,0,0,0-3.415-.455l-1.416.83a4.9,4.9,0,0,1-3.927.092,27.264,27.264,0,0,0-3.837-.4c-.415-.043-.7.353-.486.667l6.319,6.98a34.438,34.438,0,0,0-12.388,14.922C-357.173,806.245-345.831,814.011-332.828,813.93Z" transform="translate(351.793 -764.008)"/><path class="ab" d="M-330.97,814.963c12.8-.083,27.554-7.409,14.3-26.941-7.368-10.857-10.511-14.05-10.511-14.05l6.043-5.4a1.213,1.213,0,0,0-1.559-1.6l-1.87.28a4.3,4.3,0,0,1-3.438-1.049l-.151-.169a2.667,2.667,0,0,0-3.307-.453l-1.371.827a4.62,4.62,0,0,1-3.8.091,25.67,25.67,0,0,0-3.716-.4.445.445,0,0,0-.47.664l6.119,6.957a34.008,34.008,0,0,0-12,14.871C-354.544,807.3-343.562,815.044-330.97,814.963Z" transform="translate(350.166 -764.804)"/><path class="ac" d="M-294.477,792.513c-6.062-10.432-10.511-14.05-10.511-14.05l6.043-5.4c.469-.919.126-1.27-.94-.961,0,0-4.274,3.808-6.378,3.08-.166.646-.4,3.524-.878,3.426,0,0,7.9,7.215,11.459,16.894,5.272,14.325-.25,23.508-20.131,23.106C-297.806,820.692-281.376,815.056-294.477,792.513Z" transform="translate(327.972 -769.294)"/><path class="aa" d="M-311.947,780.179l-1.584-4.292s.209.87-.648.643-.856-.227-1.616-.481c-.153-.051-2.555-1.789-2.664-1.729-.084.045,5.65,5.821,5.65,5.821Z" transform="translate(329.725 -770.834)"/><path class="aa" d="M-308.985,794.51l-3.07,8.592,5.4-8.592Z" transform="translate(325.485 -784.202)"/><path class="ad" d="M-321.358,832.481c0,5.928-4.341,9.876-8.911,9.493-7.5-.629-11.937-4.71-9.974-16.167.5-2.921,5.219-11.17,7.341-12.6s-5.015,16.853,4.982,1.005C-325.628,810.579-321.358,826.553-321.358,832.481Z" transform="translate(344.454 -796.527)"/><path class="ad" d="M-320.116,767.238a5.977,5.977,0,0,1,2.337,0c1.168.264,2.629,1.123,3.943.463s1.972-2.2,3.578-1.3,2.483,2.158,3.87,2.026,5.258-.992,2.483.4-3.252,2.511-6.738,2.049-3.649-1.718-5.211-1.454S-320.116,767.238-320.116,767.238Z" transform="translate(330.821 -765.41)"/><g transform="translate(13.942 7.988)"><path class="ae" d="M-305.505,790.731c-.447,0-.928-.017-1.446-.056-2.268-.171-3.328-.608-3.543-1.46a1.441,1.441,0,0,1,.65-1.568l.922,1.194c-.016.011-.034.024-.051.037a7.119,7.119,0,0,0,2.129.38c4.1.309,5.495-.866,5.508-.878h0a1.11,1.11,0,0,1-.429,1.8A11.112,11.112,0,0,1-305.505,790.731Z" transform="translate(310.538 -787.646)"/></g><g transform="translate(13.834 8.347)"><path class="ae" d="M-304.96,793.125a7.336,7.336,0,0,1-2.644-.516c-2.332-.9-3.3-1.681-3.251-2.623a1.381,1.381,0,0,1,1.123-1.28l.7,1-.2-.418.181.687a1.472,1.472,0,0,0-.307.125,6.826,6.826,0,0,0,2.261,1.183,5,5,0,0,0,5.868-1.3.328.328,0,0,1,.422-.052h0a.99.99,0,0,1,.107,1.574A6.5,6.5,0,0,1-304.96,793.125Z" transform="translate(310.857 -788.706)"/></g><path class="af" d="M-291.932,794.668a10.512,10.512,0,0,1,1.938,3.4,10.2,10.2,0,0,1,.589,2.329" transform="translate(312.162 -784.306)"/><path class="af" d="M-289.229,796.484a11.582,11.582,0,0,1,3.074,2.624,34.348,34.348,0,0,1,2.9,5.3" transform="translate(310.372 -785.509)"/></g></g></g></svg>