<svg xmlns="http://www.w3.org/2000/svg" xmlns:xlink="http://www.w3.org/1999/xlink" width="233" height="200" viewBox="0 0 233 200"><defs><style>.a{fill:#fcfcfc;stroke:#e8e8e8;}.b{clip-path:url(#a);}.c{fill:#86b529;}.d{fill:#c57716;}.e{fill:#ecaf59;}.f{fill:#ce8939;}.g{fill:#f7c372;}.h{fill:#b8722c;}.i{fill:#815938;}.j{fill:#417736;}.j,.k,.q,.v{opacity:0.74;}.k{fill:#ccc3b9;}.l{fill:#f1ba73;}.m{fill:#dc9f5b;}.n{fill:#6f4729;}.o{fill:#d99277;}.aa,.ab,.ak,.at,.o,.s,.t{opacity:0.32;}.aa,.ab,.af,.at,.o,.s,.t,.u,.v,.w{mix-blend-mode:multiply;isolation:isolate;}.p{fill:#8a4825;}.q{fill:#ad622f;}.r{fill:#cc7f47;}.s,.w{fill:#4f1407;}.t,.u,.v{fill:#5b2f07;}.af,.u{opacity:0.55;}.w{opacity:0.44;}.x{fill:#d68c47;}.y{fill:#c4763c;}.z{fill:#d38d38;}.aa{fill:#cdad9a;}.ab{fill:#996e4e;}.ac{fill:#fbde98;}.ad{fill:#8f5e3a;}.ae{fill:url(#b);}.af,.at{fill:#dbae9b;}.ag{fill:url(#c);}.ah{fill:url(#d);}.ai{fill:url(#e);}.aj{fill:url(#f);}.al{fill:url(#g);}.am{fill:url(#h);}.an{fill:url(#i);}.ao{fill:url(#j);}.ap{fill:url(#k);}.aq{fill:url(#l);}.ar{fill:url(#m);}.as{fill:url(#n);}.au{fill:url(#o);}.av{fill:url(#p);}.aw{fill:url(#q);}.ax{fill:url(#r);}.ay{fill:url(#s);}.az{fill:url(#t);}.ba{fill:url(#u);}.bb{fill:url(#v);}.bc{fill:url(#w);}.bd{fill:url(#x);}</style><clipPath id="a"><rect class="a" width="233" height="200" transform="translate(-3 300)"/></clipPath><linearGradient id="b" x1="0.686" y1="0.36" x2="0.096" y2="0.983" gradientUnits="objectBoundingBox"><stop offset="0" stop-color="#f8c37e"/><stop offset="1" stop-color="#ffe4bd"/></linearGradient><linearGradient id="c" x1="0.15" y1="-0.158" x2="0.641" y2="0.974" gradientUnits="objectBoundingBox"><stop offset="0" stop-color="#ffe4bd"/><stop offset="0.775" stop-color="#ffd495"/><stop offset="1" stop-color="#f9c077"/></linearGradient><linearGradient id="d" x1="1.013" y1="0.898" x2="0.567" y2="0.498" gradientUnits="objectBoundingBox"><stop offset="0" stop-color="#ffd495"/><stop offset="1" stop-color="#d0723c"/></linearGradient><linearGradient id="e" x1="0.532" y1="0.282" x2="0.333" y2="1.61" gradientUnits="objectBoundingBox"><stop offset="0" stop-color="#f9c077"/><stop offset="0.225" stop-color="#ffd495"/><stop offset="1" stop-color="#ffe4bd"/></linearGradient><linearGradient id="f" x1="0.588" y1="-0.162" x2="0.468" y2="1.049" gradientUnits="objectBoundingBox"><stop offset="0" stop-color="#ffd69b"/><stop offset="0.011" stop-color="#ffd69c"/><stop offset="0.163" stop-color="#ffdeae"/><stop offset="0.322" stop-color="#ffe2b9"/><stop offset="0.503" stop-color="#ffe4bd"/><stop offset="0.668" stop-color="#ffe0b4"/><stop offset="0.937" stop-color="#ffd69b"/><stop offset="1" stop-color="#ffd495"/></linearGradient><linearGradient id="g" x1="17.775" y1="-12.349" x2="17.214" y2="-11.677" xlink:href="#b"/><linearGradient id="h" x1="28.181" y1="-6.689" x2="27.697" y2="-7.013" xlink:href="#d"/><linearGradient id="i" x1="32.132" y1="-13.401" x2="31.963" y2="-12.392" xlink:href="#e"/><linearGradient id="j" x1="26.851" y1="-7.033" x2="26.743" y2="-6.203" xlink:href="#f"/><linearGradient id="k" x1="0.402" y1="0.868" x2="0.772" y2="-0.157" xlink:href="#b"/><linearGradient id="l" x1="0.146" y1="1.217" x2="0.793" y2="-0.064" xlink:href="#d"/><linearGradient id="m" x1="0.418" y1="0.878" x2="0.609" y2="-0.09" xlink:href="#d"/><linearGradient id="n" x1="0.353" y1="0.697" x2="0.742" y2="0.076" xlink:href="#b"/><linearGradient id="o" x1="0.943" y1="0.375" x2="-0.47" y2="1.216" xlink:href="#d"/><linearGradient id="p" x1="3.655" y1="-6.547" x2="4.147" y2="-7.172" xlink:href="#b"/><linearGradient id="q" x1="1.141" y1="-40.706" x2="1.804" y2="-41.332" xlink:href="#b"/><linearGradient id="r" x1="1.353" y1="-68.088" x2="2.022" y2="-69.132" xlink:href="#d"/><linearGradient id="s" x1="1.597" y1="-63.19" x2="1.809" y2="-64.194" xlink:href="#d"/><linearGradient id="t" x1="0.787" y1="-31.706" x2="1.144" y2="-32.431" xlink:href="#b"/><linearGradient id="u" x1="9.033" y1="-93.444" x2="9.35" y2="-94.214" xlink:href="#b"/><linearGradient id="v" x1="-4.461" y1="86.865" x2="-4.138" y2="85.726" xlink:href="#d"/><linearGradient id="w" x1="-3.76" y1="31.933" x2="-3.092" y2="30.931" xlink:href="#b"/><linearGradient id="x" x1="-2.103" y1="33.733" x2="-1.477" y2="34.509" gradientUnits="objectBoundingBox"><stop offset="0" stop-color="#ffd69b"/><stop offset="0.006" stop-color="#ffd69c"/><stop offset="0.085" stop-color="#ffdeae"/><stop offset="0.168" stop-color="#ffe2b9"/><stop offset="0.262" stop-color="#ffe4bd"/><stop offset="0.331" stop-color="#ffe0b5"/><stop offset="0.536" stop-color="#ffd9a3"/><stop offset="0.753" stop-color="#ffd598"/><stop offset="1" stop-color="#ffd495"/></linearGradient></defs><g class="b" transform="translate(3 -300)"><path class="c" d="M-25.348,190.884,179.425,72.62l133.4,77.041L108.053,267.9Z" transform="translate(51.497 309.407)"/><g transform="translate(87.557 227.012)"><g transform="translate(59.105 156.362)"><path class="d" d="M102.633,231.565s1.146-1.083,1.093-1.336c-.562-2.7-2.442-5.137-2.537-5.692-1.132-6.658-2.861-13.142-3.967-19.795-1.912-11.487-5.757-22.575-7.689-34.063l-.37-2.209c-.657-3.913-1.331-7.84-2.175-11.685a4.762,4.762,0,0,1-1.146.374c-1.1.194-2.2.122-3.3.265-1.4.182-2.779.515-4.181.663a71.5,71.5,0,0,0-10.271,3.03s2.974,15.428,3.26,17.347c2.059,13.8,5.666,27.179,7.9,40.928.479,2.953,1.252,5.649,1.915,8.645.158.712,1.424,4.02,2.3,6.888C89.745,234.5,96.617,233.687,102.633,231.565Z" transform="translate(-68.093 -156.425)"/><path class="e" d="M104,230.166c-.588-2.828-1.028-6.248-1.13-6.848-1.115-6.581-2.826-12.987-3.916-19.563-1.881-11.352-5.7-22.307-7.6-33.661l-.365-2.184c-.647-3.866-1.311-7.748-2.145-11.548a4.792,4.792,0,0,1-1.145.373c-1.1.195-2.2.126-3.3.27-1.4.184-2.779.516-4.18.666a72.55,72.55,0,0,0-10.272,3.022s3.669,15.084,3.95,16.982c2.023,13.636,5.594,26.859,7.79,40.448.472,2.919.5,5.745,1.157,8.706.156.7,1.413,3.972,2.278,6.805A72.647,72.647,0,0,0,104,230.166Z" transform="translate(-68.371 -156.362)"/><path class="f" d="M94.519,187.365c-.005,0-.008.005-.014.006-.89.106-1.948.184-2.366,1.245a5.816,5.816,0,0,0-.32,2.706,10.642,10.642,0,0,0,.9,3.738c.523,1.041,1.507,2.527,2.381.973a5.161,5.161,0,0,0,1.049-2.943,26.859,26.859,0,0,0-.407-2.686C95.621,189.684,95.356,187.51,94.519,187.365Z" transform="translate(-71.636 -160.999)"/><path class="g" d="M84.49,226.382c-.478-2.833-.751-5.641-1.114-8.453-.787-6.087-.6-12.221-1.624-18.286a64.166,64.166,0,0,0-2.8-11.285c-.95-2.559-2.111-4.79-2.863-7.437-.7-2.477-1.726-5.026-1.825-7.668a44.13,44.13,0,0,0-1.014-7.848c-.361-1.629-.781-3.187-1.177-4.773l-.348.118c.345,3.14,1.332,6.528,1.838,9.527.6,3.557,1.271,7.072,2.06,10.63,1.85,8.344,4.882,16.363,5.99,24.941.578,4.478.556,9.033,1.309,13.479.8,4.7,1.4,10.469,3.409,14.874l.407-.032C86.55,231.749,84.9,228.835,84.49,226.382Z" transform="translate(-68.637 -157.001)"/><path class="g" d="M84.927,216.932c-1.279-5.7-.282-11.542-1.567-17.347-.689-3.112-.58-6.074-1.113-9.131a42.34,42.34,0,0,0-2.662-9.257c-2.056-4.8-2.26-10.218-3.4-15.352-.367-1.658-1.449-3.952-1.876-5.905l-.022.006c.316,2.909,1.124,5.951,1.617,8.771.575,3.3,1.312,6.573,2.042,9.866,1.512,6.822,3.774,13.317,4.622,20.193.335,2.713.957,5.359,1.348,8.082.479,3.335.019,6.8.455,10.156.4,3.068,1.007,6.067,1.685,9.126.452,2.044,1.043,6.059,2.561,7.8l.372-.035C88.088,228.241,86.182,222.53,84.927,216.932Z" transform="translate(-69.02 -156.897)"/><path class="g" d="M90.678,232.536a26.342,26.342,0,0,1-.691-3.8c-.459-2.69-1.213-5.331-1.917-7.964a65.44,65.44,0,0,1-1.915-7.964c-.341-2.53.127-5.207.058-7.8-.071-2.682-.492-5.262-.538-7.913a46.052,46.052,0,0,0-.929-9.136,69.418,69.418,0,0,0-2.4-8.639c-.507-1.4-1.229-2.619-1.629-4.079-.363-1.326-.4-2.623-.757-3.947-.743-2.731-1.2-5.581-1.806-8.3a14.065,14.065,0,0,0-1.265-3.835c-.21.06-.422.12-.634.182.559,2.265,1.362,4.452,1.984,6.76.911,3.375,1.38,6.929,2.142,10.369,1.426,6.435,3.649,12.524,4.052,19.125.432,7.071.647,14.447,1.879,21.495a68.671,68.671,0,0,0,2.218,9.326c.583,1.8,1.2,3.616,1.693,5.437.142.523.274,1.155.436,1.8l.433-.05C90.937,233.244,90.8,232.9,90.678,232.536Z" transform="translate(-69.313 -156.779)"/><g transform="translate(9.857 1.58)"><path class="g" d="M79.683,158.388c.282,1.6.674,3.233,1.11,4.853-.171-1.652-.28-3.345-.435-5.021C80.148,158.271,79.922,158.327,79.683,158.388Z" transform="translate(-79.683 -158.22)"/><path class="g" d="M92.766,229.433a49.1,49.1,0,0,1-1.23-4.839c-.823-3.715-1.422-7.434-2.061-11.149-.6-3.517-1.285-6.984-1.7-10.386-.42-3.45-.219-6.576-.35-10-.261-6.821-2.136-13.625-3.932-20.283-.7-2.6-1.683-5.6-2.506-8.652.082.791.179,1.573.3,2.34.582,3.592,1.44,7.184,2.368,10.706.993,3.77,1.908,7.653,2.733,11.422.938,4.282.714,8.354.989,12.659a137.254,137.254,0,0,0,1.6,16.361,69.34,69.34,0,0,0,2.584,9.123c.788,2.45,1.3,5.147,2.7,7.279l.368-.055C94.173,232.4,93.273,230.941,92.766,229.433Z" transform="translate(-79.878 -159.103)"/></g><path class="g" d="M83.209,157.731A122.273,122.273,0,0,0,86.5,178.186c1.05,3.893,2.487,7.584,3.347,11.656a57.8,57.8,0,0,1,.8,14.8,57.056,57.056,0,0,0,1.913,17.512c.624,2.266,1.652,4.393,2.436,6.629.472,1.347,1.364,2.574,1.955,3.883l.133-.024c-1.607-6.414-4.14-12.626-5.227-19.142-1.146-6.866-.134-13.351-.659-20.125-.53-6.845-3.393-13.1-4.9-19.583-1.275-5.477-1.876-10.784-2.644-16.135C83.5,157.685,83.354,157.709,83.209,157.731Z" transform="translate(-70.354 -156.556)"/><path class="g" d="M93.333,167.106c-.219.984-.42,1.974-.614,2.965-.456,2.329-.418,5.06-1.068,7.231-1.428-1.078-1.626-5.685-2-7.394-.544-2.459-1.266-4.937-1.692-7.433-.305-1.791-.356-3.612-.548-5.418-.169.014-.338.03-.508.052l-.28.041c.4,3.724.966,7.441,1.612,11.166.488,2.809.768,5.737,1.481,8.489.471,1.819.941,4.932,2.253,6.284,1.72-2.16,1.122-8,1.447-10.8.094-.806.229-1.6.387-2.395q-.158-.94-.315-1.883Z" transform="translate(-70.864 -156.466)"/><path class="g" d="M91.626,164.813c-.766-2.361-.554-5.455-.514-8.123a3.926,3.926,0,0,1-.4.094c-.207.037-.414.062-.622.083.067,1.857.176,3.677.4,5.538.355,2.95.7,5.74,1.312,8.708.5-2.852.824-5.778,1.249-8.655q-.191-1.061-.394-2.118A21.306,21.306,0,0,1,91.626,164.813Z" transform="translate(-71.384 -156.411)"/><path class="g" d="M99.123,191.862c-.291,1.306-.48,2.6-.674,3.537-.175.85-.343,2.946-.919,3.621-1.169,1.368-1.293-.418-1.237-1.682.119-2.673,1.049-5.777,1.4-8.483a19.089,19.089,0,0,0,.136-2.08c-.054-.217-.107-.435-.162-.651-.408,2.929-1.19,5.9-1.568,8.729-.344,2.559-.975,6.4.009,8.835,1.944-.27,2.359-5.8,2.761-7.5a20.346,20.346,0,0,1,.747-2.383Q99.371,192.833,99.123,191.862Z" transform="translate(-72.205 -160.813)"/><path class="g" d="M100.755,201.293c-3.406,6.765-6.891,15.412-6.029,20.375.56,3.219,2.067,5.909,2.978,8.873.821,2.671,1.735,5.554,2.467,8.367h0q.381-.075.762-.156h0c-.54-6.092-3.6-11.706-4.9-17.585-.93-4.2,2.22-11.891,5.07-18.379Q100.931,202.041,100.755,201.293Z" transform="translate(-72.056 -163.082)"/><path class="g" d="M103.162,211.871l-.009-.049c-.084-.509-.177-1.015-.268-1.523-3.289,5.825-6.269,13.054-4.179,17.433a62.516,62.516,0,0,1,3.913,12.106c.377-.088.752-.178,1.126-.273-.48-1.867-1.077-3.726-1.306-5.063a51.909,51.909,0,0,0-2.451-8.321c-1.028-3.042-.269-5.911.845-8.952C101.2,216.225,102.122,214.139,103.162,211.871Z" transform="translate(-72.568 -164.429)"/><path class="g" d="M104.651,218.241q-.165-.8-.322-1.6c-1.76,2.86-3.575,6.01-3.134,9.266.418,3.085,3.013,10.012,5.15,14.019.344-.1.684-.207,1.024-.316a62.4,62.4,0,0,0-3.423-9.458,16.8,16.8,0,0,1-1.053-5.513C102.7,222.069,103.767,220.246,104.651,218.241Z" transform="translate(-73.034 -165.378)"/><path class="f" d="M108.082,233.834a.55.55,0,0,0,.141.085c-.058-.4-.1-.7-.124-.835-.651-3.844-1.505-7.628-2.321-11.421C104.683,224.248,103.843,230.435,108.082,233.834Z" transform="translate(-73.597 -166.129)"/><path class="h" d="M107.935,231.948c-.44-2.391-.944-4.762-1.456-7.131C105.5,226.8,104.962,230.111,107.935,231.948Z" transform="translate(-73.718 -166.6)"/><path class="h" d="M94.9,189.537c-.218-.947-1.423-1.882-1.786-.077-.432,2.152-.313,5.975.96,5.62.861-.241,1.157-2.818,1.052-3.588C95.045,190.861,95.044,190.144,94.9,189.537Z" transform="translate(-71.802 -161.159)"/><path class="i" d="M85.711,158.8c-.047-.343-.065-1.055-.156-1.508-.441.075-.883.156-1.324.234.053,1.45.782,2.4,1.255,6.24A16.417,16.417,0,0,0,85.711,158.8Z" transform="translate(-70.506 -156.502)"/><path class="i" d="M76.664,164.238a13.371,13.371,0,0,0-.977-4.758c-.3.088-.6.176-.891.265C75.334,161.281,76.311,162.593,76.664,164.238Z" transform="translate(-69.096 -156.828)"/><path class="i" d="M94.336,243.4a43.006,43.006,0,0,1-1.426-4.141,18.662,18.662,0,0,0,1.248,6.245q.582-.071,1.164-.151A16.988,16.988,0,0,0,94.336,243.4Z" transform="translate(-71.805 -168.76)"/><path class="i" d="M105.677,242.971c-.537-.873-.867-2.336-1.583-3.435a16.345,16.345,0,0,0,1.428,4.176c.2-.054.4-.11.6-.166A4.771,4.771,0,0,1,105.677,242.971Z" transform="translate(-73.477 -168.802)"/></g><path class="j" d="M105.747,282.685c1.176.718,2.222,2.264-9.743,2.264-5.371,0-9.711-1.714-9.705-2.417s4.364-1.238,9.733-1.2S105.021,282.243,105.747,282.685Z" transform="translate(-11.711 -18.691)"/><path class="j" d="M124.627,282.419c.866.458,1.636,1.441-7.159,1.432-3.947,0-7.139-1.1-7.135-1.544s3.206-.785,7.153-.754A23.057,23.057,0,0,1,124.627,282.419Z" transform="translate(-15.305 -18.724)"/><path class="k" d="M208.287,283.339c1.573.278,3.092,2.061-6.081,2.049-4.117-.005-8.832-1.718-8.828-2.165s3.344-.783,7.461-.751A34.426,34.426,0,0,1,208.287,283.339Z" transform="translate(-27.726 -18.861)"/><path class="j" d="M167.8,281.049c1.573.278,3.092,2.061-6.081,2.049-4.117-.005-8.832-1.719-8.828-2.165s3.344-.784,7.461-.752A34.339,34.339,0,0,1,167.8,281.049Z" transform="translate(-21.67 -18.518)"/><path class="k" d="M192.479,274.118c1.284.227,2.523,1.681-4.962,1.672-3.36-.005-7.207-1.4-7.2-1.767s2.728-.64,6.088-.613A28.047,28.047,0,0,1,192.479,274.118Z" transform="translate(-25.772 -17.506)"/><path class="j" d="M168.288,251.348c5.371,3.587-29.577,24.864-52.572,23.589-37.763-2.095-91.574-23.118-91.574-28.649S54.8,236.275,92.623,236.275,163.154,247.92,168.288,251.348Z" transform="translate(-2.414 -11.952)"/><g transform="translate(110.008 175.881)"><path class="l" d="M182.123,206.661a27.089,27.089,0,1,1-27.088-27.347A27.2,27.2,0,0,1,182.123,206.661Z" transform="translate(-127.948 -179.314)"/><path class="m" d="M173.432,193.461a28.345,28.345,0,0,0-2.505-2.394c-4.088-3.541-8.885-4.892-14.206-5.4a35.529,35.529,0,0,0-5.587-.168,9.463,9.463,0,0,0-4.013,1.3,23.377,23.377,0,0,0-6.292,4.763,26.5,26.5,0,0,0-6.043,10.181c-1.156,3.671-1.94,8.006-1.18,11.823a17.935,17.935,0,0,0,3.155,7.264,22.265,22.265,0,0,0,15.127,8.856,26.4,26.4,0,0,0,11.172-.725,21.83,21.83,0,0,0,8.232-4.762,28.128,28.128,0,0,0,7.339-14.73c.243-2.972-.754-5.722-1.35-8.566a10.313,10.313,0,0,0-1.038-3.007A20.893,20.893,0,0,0,173.432,193.461Z" transform="translate(-128.749 -180.232)"/><path class="l" d="M167.185,194.45a18.948,18.948,0,0,0-3.567-2.188c-5.905-2.709-14.46-3.113-19.446,1.612a24.635,24.635,0,0,0-4.936,7.147c-1.492,3.079-1.369,6.343-1.544,9.651a15.076,15.076,0,0,0,2.145,9.22c2.439,3.614,6.6,5.349,10.749,6.115a26.115,26.115,0,0,0,6.663.833,34.8,34.8,0,0,0,7.569-1.466,13.1,13.1,0,0,0,6.284-3.658,24.115,24.115,0,0,0,4.687-8.186,15.873,15.873,0,0,0-.548-9.837c-1.127-3.093-3.17-4.973-5.513-7.1C168.907,195.849,168.068,195.121,167.185,194.45Z" transform="translate(-129.401 -180.951)"/><path class="m" d="M168.381,199.64a15.724,15.724,0,0,0-9.259-4.762,21.372,21.372,0,0,0-5-.029,17.829,17.829,0,0,0-5.047,1.682,6.846,6.846,0,0,0-3.351,2.152,14.071,14.071,0,0,0-2.115,3.655,17.339,17.339,0,0,0-.934,8.206,22.282,22.282,0,0,0,2.112,8.4c1.313,2.44,3.4,3.438,5.962,4.33,2.683.933,6.121,1.942,8.979,1.422,6.44-1.17,12.224-5.058,13.09-11.935A16.129,16.129,0,0,0,168.381,199.64Z" transform="translate(-130.132 -181.618)"/><path class="l" d="M170.232,207.707c-.077-.208-.162-.412-.254-.613a14.6,14.6,0,0,0-2.965-4.421c-2.215-2-5.256-2.664-8.109-3.272-4.55-.971-8.854,1.882-10.856,5.82-2.858,5.625-.344,13.643,5.294,16.609a6.9,6.9,0,0,0,3.824.818,21.3,21.3,0,0,0,8.788-2.575c2.869-1.572,3.825-4.335,4.573-7.342A8.578,8.578,0,0,0,170.232,207.707Z" transform="translate(-130.777 -182.29)"/><path class="m" d="M165.012,205.965a5.269,5.269,0,0,0-1.226-.966,10.8,10.8,0,0,0-4.791-1.414,15.882,15.882,0,0,0-4.307.211c-2.268.543-3.725,3.359-4.29,5.43a9.05,9.05,0,0,0,.395,6.1c2.559,5.53,11.967,6.67,15.5,1.444a7.706,7.706,0,0,0,.2-8.713A12.424,12.424,0,0,0,165.012,205.965Z" transform="translate(-131.254 -182.937)"/><path class="l" d="M159.35,216.941a3.154,3.154,0,0,0,.9-.067,6.1,6.1,0,0,0,2.564-1.24,8.927,8.927,0,0,0,1.749-1.778c.764-1.15.213-3-.429-4.187a5.963,5.963,0,0,0-2.885-2.681c-3.673-1.5-8.123,2.136-7.119,5.924a5.081,5.081,0,0,0,3.744,3.733A7.9,7.9,0,0,0,159.35,216.941Z" transform="translate(-131.842 -183.401)"/><g transform="translate(29.219 0.451)"><path class="n" d="M163.448,191.035c.323-1.631.833-3.281,1.334-4.969.536-1.8.474-3.723.933-5.539.046-.182.076-.364.1-.546-.236-.05-.474-.093-.711-.137-.176,1.592-.741,3.163-.976,4.753-.532,3.6-1.077,7.244-1.709,10.816a16.194,16.194,0,0,0,.691-1.885C163.246,192.7,163.288,191.841,163.448,191.035Z" transform="translate(-162.324 -179.844)"/><path class="n" d="M162.406,198.151a2.288,2.288,0,0,0-.1.6C162.342,198.554,162.371,198.35,162.406,198.151Z" transform="translate(-162.306 -182.582)"/></g><path class="n" d="M128.905,218.571c.606-.18,1.213-.35,1.834-.5,2.61-.622,5.2-1.089,7.754-1.809,1.2-.338,2.406-.773,3.593-1.192.758-.268,2.638-.692,3.117-1.3-5.423,1.4-10.921,3.162-16.437,4.187C128.812,218.165,128.854,218.369,128.905,218.571Z" transform="translate(-128.07 -184.468)"/><ellipse class="n" cx="1.976" cy="2.104" rx="1.976" ry="2.104" transform="translate(25.627 26.053)"/><path class="n" d="M161.338,242.4a26.907,26.907,0,0,0,2.95-.306c-.168-1.654-.183-5.259-.165-6.467C164.056,237.809,162.585,240.436,161.338,242.4Z" transform="translate(-132.942 -187.736)"/><path class="o" d="M176.959,222c-3.738,2.548-7.862,3.432-12.257,3.933a46.835,46.835,0,0,1-16.952-1.114,29.326,29.326,0,0,1-19.571-17.491,27.771,27.771,0,0,0-.231,3.519,27.063,27.063,0,0,0,53.123,7.579A22.5,22.5,0,0,1,176.959,222Z" transform="translate(-127.948 -183.504)"/></g><g transform="translate(26.75 186.117)"><g transform="translate(35.277 21.074)"><path class="p" d="M76.175,216.852a4.645,4.645,0,0,1,2.657-.718c10.426.428,21.446,5.086,32.3,8.094,12,3.323,24.681,4.113,37.39,7.646,4.315,1.2,11.953,2.905,16.254,4.3-3.715,4.415-5.853,12.324-6.241,17.842-3.321-.661-6.235-2.1-9.087-2.78-3.911-.933-7.719-2.01-11.556-2.926-9.522-2.276-18.857-3.937-27.843-5.995-12.377-2.834-24.026-5.392-35.056-9.483a5.149,5.149,0,0,1-3.139-3.812C70.936,224.8,71.834,219.558,76.175,216.852Z" transform="translate(-71.529 -216.13)"/><path class="q" d="M163.138,237.367c-3.9.112-8.222-1.415-12.086-1.906-3.521-.447-6.912-1.589-10.386-2.107-3.6-.538-7.34-1.413-10.9-2.232-4.574-1.052-9.361-1.609-13.928-2.865a42.486,42.486,0,0,0-7.072-1.4c3.413,1.953,7.9,2.5,11.569,4.022,4.175,1.731,8.626,2.167,13.049,2.834a79.335,79.335,0,0,1,11.9,2.506c2.937.913,7.263,3.251,10.379,2.744,1.285-.209,2.328-.887,3.816-.958A12.141,12.141,0,0,0,163.138,237.367Z" transform="translate(-77.098 -217.735)"/><path class="q" d="M100.884,225.745a35.027,35.027,0,0,0-9.675-4.907c-2.84-.845-5.979-.618-8.908-1.021-2.354-.323-4.965-1.339-7.411-1.537a9.53,9.53,0,0,0-2.284,3.3,8.743,8.743,0,0,0,2.026.661c3.7.718,7.654.634,11.362,1.281,6.737,1.176,13,3.742,19.378,5.885,2.177.731,3.716.18,5.893.791C107.919,228.517,103.989,227.945,100.884,225.745Z" transform="translate(-71.69 -216.452)"/><path class="q" d="M113.9,233.173a33.817,33.817,0,0,1,8.912,1.591c3.527.924,7.134,1.6,10.662,2.344,4.131.868,8.072,2.025,12.261,2.593,2.955.4,6.614.4,9.325,1.43-1.5.81-2.336,3.331-2.522,4.881a10.535,10.535,0,0,0-6.326-4.413c-3.911-.956-8.218-1.43-12.266-2.183-3.778-.7-7.576-1.512-11.295-2.462-3.64-.93-7.293-.725-11.1-1.235-6.563-.879-12.643-3.278-18.967-4.933a119.665,119.665,0,0,1-13.009-4.3,40.078,40.078,0,0,1,9.534,1c3.346.873,6.364,2.808,9.792,3.471,2.977.575,5.979,1.478,8.951,1.913C109.565,233.114,112.411,234.172,113.9,233.173Z" transform="translate(-72.732 -217.678)"/><path class="q" d="M97.266,234.357a91.941,91.941,0,0,1-11.108-3.028c-3.186-1.22-6.417-2.508-9.587-3.7a44.971,44.971,0,0,0-4.946-1.778,13.685,13.685,0,0,0-.058,2.624c.645.24,1.281.5,1.945.822,3.965,1.894,8.154,2.43,12.249,3.818A77.3,77.3,0,0,0,97.134,236.3c9.237,1.666,19,4.312,28.437,3.585-5.312-2.83-13.038-2.433-18.925-3.31C103.49,236.106,100.309,235.112,97.266,234.357Z" transform="translate(-71.529 -217.585)"/><path class="q" d="M125.043,244.08c11.908.081,25.289,2.069,35.741,7.8-2.336.825-6.161-.909-8.362-1.786a45.824,45.824,0,0,0-10.3-2.705c-3.826-.6-7.684-1.362-11.5-1.723-2.069-.2-4.211-1.68-6.223-1.416C124.051,244.1,124.921,244.17,125.043,244.08Z" transform="translate(-79.423 -220.311)"/><path class="q" d="M89.764,237.192c-3.412-.956-6.765-2.148-10.1-3.253a29.188,29.188,0,0,0-7.423-1.572,5.207,5.207,0,0,0,1.775,2.318c.091.015.184.026.274.044,6.271,1.256,12.257,3.935,18.61,4.889,3.4.51,6.831.824,10.228,1.4,3.5.6,7.346,1.93,10.889,1.794a6.636,6.636,0,0,0-2.614-.923C104.192,239.853,97.01,239.222,89.764,237.192Z" transform="translate(-71.636 -218.559)"/><path class="q" d="M144.928,252.858c3.836.917,7.645,1.993,11.556,2.926.981.234,2.072.578,3.214.955a2.846,2.846,0,0,0-.344-.83c-.816-1.291-2.493-1.377-4.011-1.72-4.016-.907-7.621-3.233-11.62-4.017-4.293-.842-8.569-1.316-12.9-1.945-2.823-.409-5.905-1.647-8.708-1.72a10.629,10.629,0,0,0-3.551.685C127.095,249.1,135.926,250.706,144.928,252.858Z" transform="translate(-78.564 -220.673)"/><path class="r" d="M182.719,250.638a12.235,12.235,0,0,1-3.938,5.571,7.72,7.72,0,0,1-5.716,1.293c-2.068-.565-3.187-2.767-3.9-4.6a9.682,9.682,0,0,1,.248-6.656,8.6,8.6,0,0,1,2.705-4.137c2.545-1.914,5.723-4.09,8.68-1.533a5.825,5.825,0,0,1,1.707,1.681,10.671,10.671,0,0,1,.794,2.323,9.075,9.075,0,0,1-.065,4.134A11.709,11.709,0,0,1,182.719,250.638Z" transform="translate(-86.058 -219.612)"/><path class="p" d="M180.341,241.945a7.716,7.716,0,0,0-1.993-.164,5.407,5.407,0,0,0-1.578.221,6.384,6.384,0,0,0-3.306,1.873,14.033,14.033,0,0,0-1.758,3.411,6.551,6.551,0,0,0-.8,2.883c0,1.47.188,3.329,1.315,4.4a5.121,5.121,0,0,1,.571.633c1.221,1.6,3.912,1.228,5.45.3a8.629,8.629,0,0,0,2.6-2.485,7.962,7.962,0,0,0,1.116-2.1c.114-.363.09-.734.179-1.091.1-.414.31-.8.4-1.231a8.578,8.578,0,0,0,.243-1.387,6.508,6.508,0,0,0-.245-1.423c-.069-.386.025-.742-.04-1.135a3.9,3.9,0,0,0-1.16-2.183A2.36,2.36,0,0,0,180.341,241.945Z" transform="translate(-86.392 -219.967)"/><path class="r" d="M179.775,243.554a6.11,6.11,0,0,0-4.229,1.006,5.16,5.16,0,0,0-2.3,3.229,12.538,12.538,0,0,0-.6,3.117,4.287,4.287,0,0,0,1.935,3.841c1.962.958,4.417-.424,5.592-2.021a13.374,13.374,0,0,0,1.2-2.516,5.265,5.265,0,0,0,.583-1.475,6.879,6.879,0,0,0-.759-4.188A2.305,2.305,0,0,0,179.775,243.554Z" transform="translate(-86.651 -220.218)"/><path class="p" d="M179.638,245.222a3.978,3.978,0,0,0-2.641.264,7.074,7.074,0,0,0-1.689,1.463,3.573,3.573,0,0,0-.9,1.845c-.45,1.692-.571,3.956,1.145,5.032a2.328,2.328,0,0,0,1.056.2,2.78,2.78,0,0,0,2.1-.874,6.98,6.98,0,0,0,2.475-6.115A2.1,2.1,0,0,0,179.638,245.222Z" transform="translate(-86.873 -220.463)"/><path class="r" d="M178.9,246.56a2.749,2.749,0,0,0-2.2.689,5.135,5.135,0,0,0-1.167,1.855c-.475,1.333-.378,3.133,1.163,3.621,1.27.4,2.466-1.305,2.92-2.265a5.352,5.352,0,0,0,.622-2.284A1.477,1.477,0,0,0,178.9,246.56Z" transform="translate(-87.046 -220.678)"/><path class="p" d="M178.574,248.474a1.256,1.256,0,0,0-1.079.237,3.488,3.488,0,0,0-.946,1.381c-.214.451-.392.921.023,1.281a1.351,1.351,0,0,0,1.167.254,2.26,2.26,0,0,0,1.053-.651,1.855,1.855,0,0,0,.548-1.265A1.224,1.224,0,0,0,178.574,248.474Z" transform="translate(-87.202 -220.962)"/><path class="p" d="M173.508,240.319c.7.331,2.177,1.207,2.891,1.5a14.68,14.68,0,0,0-1.47-1.914c-.4-.209-1.007.281-1.409.361C173.619,240.275,173.414,240.337,173.508,240.319Z" transform="translate(-86.777 -219.679)"/><path class="p" d="M168.386,247.636a7.953,7.953,0,0,1,2.627.292c-.35.111-1.315.293-1.673.4-.329.1-.691.094-1,.208A3.4,3.4,0,0,1,168.386,247.636Z" transform="translate(-86.005 -220.842)"/><path class="p" d="M170.143,258.445c.742-.055,1.921-.693,2.652-.6a3.578,3.578,0,0,1-1.686,1.18C170.739,259.057,170.169,258.924,170.143,258.445Z" transform="translate(-86.278 -222.368)"/><path class="p" d="M176.911,258.956c-.022.329.138,1.109.156,1.434.261-.056.52-.125.775-.2C177.637,259.878,177.072,259.131,176.911,258.956Z" transform="translate(-87.29 -222.535)"/><path class="p" d="M185.689,250.009c.037-.216.071-.429.1-.637a1.73,1.73,0,0,0-.922.368A7.893,7.893,0,0,0,185.689,250.009Z" transform="translate(-88.481 -221.102)"/><g transform="translate(0.001 5.593)"><path class="s" d="M154.634,250.4a8.118,8.118,0,0,1-.372-4.194,12.9,12.9,0,0,1-2.444.163c-2.182-.4-4.362-.731-6.553-1.077-4.658-.732-8.541-3.588-13.024-4.965a88.25,88.25,0,0,0-13.9-2.735c-4.771-.662-9.5-1.705-14.281-2.238-4.272-.476-8.6-.683-12.824-1.511a33.416,33.416,0,0,1-18.971-11.14,12.058,12.058,0,0,0-.695,3.3l-.005.075c-.027.41-.036.82-.026,1.227l0,.087a14.214,14.214,0,0,0,.318,2.612,5.639,5.639,0,0,0,.8,1.91l.027.04c.056.083.114.165.174.244.017.023.035.045.053.068.054.069.109.135.166.2.022.026.044.052.067.077.055.061.112.121.17.179l.074.073c.062.06.126.117.191.173.021.019.042.038.064.056a4.63,4.63,0,0,0,1.355.791c11.03,4.091,22.679,6.65,35.056,9.483,6.633,1.519,13.456,2.823,20.4,4.316l.389.083c.924.2,1.852.406,2.781.613.258.057.514.112.772.171q1.744.393,3.5.811,1.439.344,2.874.713c2.874.733,5.749,1.514,8.682,2.214.2.048.414.1.626.162,2.654.726,5.382,2.006,8.461,2.618C156.468,254.44,155.348,252.238,154.634,250.4Z" transform="translate(-71.531 -222.707)"/><path class="t" d="M173.837,260.685c.094.026.193.047.293.065C174.03,260.731,173.931,260.711,173.837,260.685Z" transform="translate(-86.832 -228.387)"/><path class="t" d="M174.787,260.836l.024,0Z" transform="translate(-86.974 -228.41)"/><path class="t" d="M174.365,260.79l.128.018Z" transform="translate(-86.911 -228.403)"/></g></g><path class="u" d="M151.574,249.552a18.227,18.227,0,0,1,7.89-14.883c-3.82-1-8.1-2.005-10.94-2.8-12.708-3.534-25.393-4.324-37.39-7.646-10.855-3.007-21.876-7.666-32.3-8.094a4.645,4.645,0,0,0-2.657.718,9.471,9.471,0,0,0-1.446,1.106h0l-.006.005a9.542,9.542,0,0,0-.681.71c-.051.06-.1.122-.145.182-.155.188-.3.378-.441.576-.059.083-.112.169-.168.254-.119.182-.233.367-.338.555-.052.091-.1.183-.149.276-.1.192-.193.386-.28.583-.024.054-.054.1-.076.157l.006,0c-.065.155-.129.31-.187.467l0,0c-.027.072-.047.147-.071.219-.061.179-.122.356-.175.537-.026.09-.047.18-.07.27-.048.184-.1.367-.136.553-.019.09-.033.181-.05.272-.035.187-.071.375-.1.564-.012.088-.02.175-.031.264l-.006,0c-.005.044,0,.088-.009.133-.016.15-.034.3-.045.448,0,.014,0,.029,0,.043l-.005.075c0,.038,0,.077,0,.115q-.029.5-.021,1c0,.038,0,.077,0,.115l0,.087c0,.013,0,.024,0,.036,0,.15.014.3.024.446,0,.043,0,.086,0,.128l.006,0q.022.31.057.617c.009.075.019.148.029.223.052.392.114.782.2,1.16a5.761,5.761,0,0,0,.286.908l0,.006h-.009c.007.018.016.032.024.049.017.043.038.084.057.127q.088.2.191.394c.038.071.077.142.117.211s.078.137.121.2l.008.014.027.04c.056.083.114.165.174.244l.01.013.025.032.018.023.045.055c.027.034.054.066.082.1.013.015.025.031.038.046s.044.052.067.077c.055.061.112.121.17.179l.03.03.034.034.01.009.016.015.072.065c.034.031.068.063.1.094s.042.038.064.056.066.044.1.069c.058.046.112.1.172.141h0c.082.06.172.107.258.161.06.037.117.077.178.111a4.669,4.669,0,0,0,.649.308c4.137,1.534,8.36,2.853,12.676,4.051,7.193,2,14.645,3.661,22.38,5.432.491.112.987.22,1.48.33h0q1.519.339,3.049.669l1.29.276q1.852.392,3.72.779l5.343,1.1.467.1.474.1c1.678.349,3.358.7,5.052,1.065l.3.066.321.071c2.1.458,4.219.932,6.345,1.44q1.439.344,2.874.713c1.522.389,3.047.788,4.579,1.185,1.36.351,2.724.7,4.1,1.029.344.083.717.192,1.086.3.107.031.213.062.321.1.159.049.32.1.48.151l.416.137A17.6,17.6,0,0,1,151.574,249.552Z" transform="translate(-36.253 -195.056)"/><g transform="translate(19.076 28.939)"><path class="p" d="M57.125,226.1a4.656,4.656,0,0,1,2.657-.718c10.426.428,21.446,5.087,32.3,8.094,12,3.323,24.681,4.114,37.389,7.646,4.316,1.2,11.953,2.905,16.254,4.3-3.715,4.415-5.853,12.324-6.24,17.842-3.321-.66-6.235-2.1-9.088-2.78-3.911-.933-7.719-2.01-11.556-2.926-9.522-2.276-18.857-3.937-27.843-5.994-12.376-2.835-24.026-5.392-35.056-9.484a5.149,5.149,0,0,1-3.139-3.812C51.886,234.052,52.784,228.806,57.125,226.1Z" transform="translate(-52.479 -225.378)"/><path class="q" d="M144.088,246.614c-3.9.112-8.222-1.415-12.086-1.906-3.52-.446-6.912-1.589-10.386-2.107-3.6-.537-7.34-1.412-10.9-2.232-4.574-1.053-9.36-1.61-13.927-2.865a42.522,42.522,0,0,0-7.073-1.4c3.414,1.953,7.9,2.5,11.569,4.022,4.175,1.732,8.626,2.167,13.049,2.834a79.335,79.335,0,0,1,11.9,2.506c2.937.913,7.263,3.251,10.38,2.744,1.285-.209,2.327-.887,3.815-.958A12.14,12.14,0,0,0,144.088,246.614Z" transform="translate(-58.048 -226.982)"/><path class="q" d="M81.834,234.992a35.014,35.014,0,0,0-9.675-4.906c-2.84-.846-5.979-.619-8.908-1.021-2.354-.324-4.965-1.339-7.411-1.538a9.53,9.53,0,0,0-2.284,3.3,8.748,8.748,0,0,0,2.027.661c3.7.718,7.653.634,11.361,1.282,6.737,1.176,13,3.741,19.378,5.884,2.177.731,3.716.181,5.893.791C88.869,237.764,84.939,237.192,81.834,234.992Z" transform="translate(-52.64 -225.699)"/><path class="q" d="M94.847,242.42a33.818,33.818,0,0,1,8.912,1.592c3.527.924,7.134,1.6,10.662,2.343,4.131.869,8.072,2.026,12.261,2.594,2.955.4,6.614.4,9.326,1.429-1.5.81-2.337,3.331-2.522,4.881a10.535,10.535,0,0,0-6.326-4.413c-3.911-.956-8.217-1.429-12.266-2.183-3.778-.7-7.576-1.512-11.294-2.462-3.641-.93-7.293-.725-11.1-1.234-6.563-.879-12.643-3.278-18.967-4.933a119.663,119.663,0,0,1-13.009-4.3,39.985,39.985,0,0,1,9.534,1c3.346.873,6.365,2.807,9.793,3.47,2.977.575,5.979,1.478,8.951,1.913C90.515,242.362,93.361,243.42,94.847,242.42Z" transform="translate(-53.682 -226.926)"/><path class="q" d="M78.216,243.6a91.671,91.671,0,0,1-11.108-3.028c-3.185-1.22-6.416-2.508-9.586-3.7a44.876,44.876,0,0,0-4.947-1.779,13.753,13.753,0,0,0-.058,2.624c.645.24,1.281.5,1.946.822,3.964,1.894,8.153,2.43,12.248,3.819a77.3,77.3,0,0,0,11.374,3.182c9.237,1.666,19,4.312,28.437,3.585-5.311-2.83-13.038-2.433-18.925-3.31C84.44,245.353,81.26,244.359,78.216,243.6Z" transform="translate(-52.479 -226.832)"/><path class="q" d="M105.993,253.328c11.908.081,25.289,2.069,35.741,7.8-2.337.826-6.161-.909-8.362-1.785a45.753,45.753,0,0,0-10.306-2.705c-3.826-.6-7.684-1.362-11.5-1.724-2.07-.2-4.212-1.68-6.224-1.416C105,253.345,105.871,253.417,105.993,253.328Z" transform="translate(-60.373 -229.558)"/><path class="q" d="M70.715,246.44c-3.413-.956-6.766-2.149-10.1-3.254a29.144,29.144,0,0,0-7.423-1.571,5.209,5.209,0,0,0,1.775,2.317c.091.015.184.026.274.044,6.271,1.256,12.257,3.935,18.61,4.889,3.4.51,6.831.824,10.228,1.4,3.5.6,7.347,1.929,10.889,1.793a6.637,6.637,0,0,0-2.613-.923C85.143,249.1,77.96,248.47,70.715,246.44Z" transform="translate(-52.586 -227.806)"/><path class="q" d="M125.878,262.105c3.836.917,7.645,1.993,11.556,2.926.981.235,2.072.579,3.214.955a2.846,2.846,0,0,0-.344-.83c-.816-1.291-2.493-1.377-4.01-1.72-4.017-.907-7.621-3.233-11.621-4.017-4.293-.842-8.569-1.316-12.9-1.944-2.823-.41-5.905-1.648-8.708-1.72a10.606,10.606,0,0,0-3.551.685C108.046,258.348,116.876,259.953,125.878,262.105Z" transform="translate(-59.514 -229.921)"/><path class="r" d="M163.669,259.885a12.235,12.235,0,0,1-3.938,5.571,7.714,7.714,0,0,1-5.715,1.294c-2.069-.564-3.188-2.767-3.9-4.6a9.674,9.674,0,0,1,.247-6.656,8.608,8.608,0,0,1,2.705-4.138c2.544-1.914,5.723-4.089,8.68-1.533a5.835,5.835,0,0,1,1.707,1.681,10.665,10.665,0,0,1,.794,2.323,9.073,9.073,0,0,1-.065,4.133A11.624,11.624,0,0,1,163.669,259.885Z" transform="translate(-67.008 -228.859)"/><path class="p" d="M161.348,251.116a4.51,4.51,0,0,0-3.395-.09,9.573,9.573,0,0,0-3.26,1.948,11.031,11.031,0,0,0-1.97,3.061,8.18,8.18,0,0,0-.628,3.223,8.5,8.5,0,0,0,.208,2.63,3.665,3.665,0,0,0,1.316,2.4,4.125,4.125,0,0,0,2.643.606c.652-.134,1.373-.2,2.019-.389,3.668-1.063,4.812-5.069,5.146-8.419.144-1.444-.133-3.474-1.314-4.49A3.215,3.215,0,0,0,161.348,251.116Z" transform="translate(-67.375 -229.171)"/><path class="r" d="M160.8,252.556a3.671,3.671,0,0,0-3.047.363,7.4,7.4,0,0,0-2.741,2.454,10.713,10.713,0,0,0-1.186,3.1,6.31,6.31,0,0,0,.02,3.484,3.366,3.366,0,0,0,1.421,1.948c2.838,1.493,6.076-2.289,6.872-4.662a9.84,9.84,0,0,0,.318-4.075,3.213,3.213,0,0,0-1.5-2.528A1.515,1.515,0,0,0,160.8,252.556Z" transform="translate(-67.601 -229.412)"/><path class="p" d="M160.6,254.322a3.045,3.045,0,0,0-2.738.022,5.93,5.93,0,0,0-2.772,4.349,6.726,6.726,0,0,0,.053,2.883,1.939,1.939,0,0,0,1.731,1.545c2.092.384,3.794-2.133,4.449-3.8a7.163,7.163,0,0,0,.547-2.946A2.353,2.353,0,0,0,160.6,254.322Z" transform="translate(-67.806 -229.66)"/><path class="r" d="M159.925,255.67a1.2,1.2,0,0,0-.253-.084c-1.008-.216-2.124.98-2.6,1.719a4.685,4.685,0,0,0-.717,2.834c.041.771.341,1.631,1.263,1.6a3.53,3.53,0,0,0,2.356-1.567,4.065,4.065,0,0,0,1.1-2.452A2.344,2.344,0,0,0,159.925,255.67Z" transform="translate(-68.013 -229.892)"/><path class="p" d="M159.558,257.725c-1.206-.071-3.017,2.824-1.432,2.944C159.266,260.755,160.864,257.8,159.558,257.725Z" transform="translate(-68.187 -230.215)"/><path class="p" d="M154.458,249.567c.7.33,2.177,1.206,2.891,1.5a14.737,14.737,0,0,0-1.47-1.914c-.4-.209-1.007.281-1.409.362C154.569,249.523,154.364,249.584,154.458,249.567Z" transform="translate(-67.727 -228.926)"/><path class="p" d="M149.336,256.883a7.976,7.976,0,0,1,2.627.292c-.35.111-1.314.293-1.672.4-.33.1-.692.094-1,.208A3.4,3.4,0,0,1,149.336,256.883Z" transform="translate(-66.955 -230.09)"/><path class="p" d="M149.159,264.165a6.063,6.063,0,0,1,2.573-.8c-.735.5-1.649,1.236-2.35,1.7A1.735,1.735,0,0,1,149.159,264.165Z" transform="translate(-66.938 -231.059)"/><path class="p" d="M151.094,267.692c.742-.054,1.921-.693,2.652-.6a3.568,3.568,0,0,1-1.686,1.18C151.69,268.3,151.12,268.172,151.094,267.692Z" transform="translate(-67.228 -231.616)"/><path class="p" d="M157.861,268.2c-.022.328.138,1.108.156,1.433.261-.056.52-.125.775-.2C158.587,269.125,158.022,268.378,157.861,268.2Z" transform="translate(-68.24 -231.783)"/><path class="p" d="M163.4,266.241c-.364-.17-1-.641-1.275-.626a5.82,5.82,0,0,0,.719,1.261C163.036,266.674,163.221,266.461,163.4,266.241Z" transform="translate(-68.878 -231.395)"/><path class="p" d="M164.753,252.462c.2-.136.695-.494.907-.64a3,3,0,0,0-.281-.407A4.215,4.215,0,0,0,164.753,252.462Z" transform="translate(-69.271 -229.272)"/><path class="p" d="M166.639,259.256q.056-.324.1-.637a1.724,1.724,0,0,0-.921.368A7.675,7.675,0,0,0,166.639,259.256Z" transform="translate(-69.431 -230.349)"/><g transform="translate(0.001 5.593)"><path class="s" d="M135.585,259.651a8.114,8.114,0,0,1-.373-4.194,12.957,12.957,0,0,1-2.444.162c-2.181-.4-4.362-.731-6.553-1.076-4.659-.733-8.542-3.588-13.024-4.966a88.258,88.258,0,0,0-13.9-2.735c-4.771-.662-9.5-1.7-14.281-2.238-4.272-.476-8.6-.684-12.824-1.512a33.412,33.412,0,0,1-18.971-11.14,12.09,12.09,0,0,0-.695,3.3l-.005.075c-.027.41-.036.82-.026,1.227l0,.088a14.28,14.28,0,0,0,.318,2.611,5.649,5.649,0,0,0,.8,1.91l.028.041c.055.083.113.164.173.243.017.023.035.046.053.068.054.069.109.136.166.2l.067.077c.056.061.113.12.171.178l.073.074c.062.06.127.117.191.173l.064.057a4.658,4.658,0,0,0,1.355.79c11.03,4.092,22.679,6.65,35.056,9.484,6.633,1.518,13.457,2.823,20.405,4.316l.388.083q1.387.3,2.782.613c.257.058.514.112.771.171q1.744.394,3.5.811,1.439.344,2.874.713c2.873.734,5.748,1.514,8.681,2.214.2.048.414.1.626.162,2.655.726,5.383,2.006,8.462,2.618C137.418,263.688,136.3,261.485,135.585,259.651Z" transform="translate(-52.481 -231.954)"/><path class="t" d="M154.788,269.932c.094.026.192.047.292.065C154.98,269.979,154.882,269.958,154.788,269.932Z" transform="translate(-67.782 -237.634)"/><path class="t" d="M155.737,270.083l.024,0Z" transform="translate(-67.924 -237.657)"/><path class="t" d="M155.315,270.038l.128.017Z" transform="translate(-67.861 -237.65)"/></g></g><path class="v" d="M132.023,260.043a18.286,18.286,0,0,1,9.432-15.85c-4.063-1.084-8.879-2.209-11.982-3.071-12.708-3.533-25.393-4.324-37.389-7.646-10.856-3.006-21.877-7.666-32.3-8.094a4.656,4.656,0,0,0-2.657.718,9.514,9.514,0,0,0-1.446,1.106h0l-.006.006a9.361,9.361,0,0,0-.68.709c-.052.06-.1.123-.147.185-.154.187-.3.377-.441.573-.059.084-.112.17-.168.256-.119.181-.232.365-.338.553-.051.092-.1.185-.149.278-.1.191-.193.384-.28.581-.024.054-.053.1-.076.158l.006,0c-.065.155-.129.31-.187.467l0,0c-.027.074-.048.149-.072.223-.061.177-.122.354-.173.533-.026.09-.048.183-.071.274-.048.183-.1.365-.134.549-.02.091-.034.183-.051.274-.035.186-.07.373-.1.56-.013.088-.02.177-.031.265l-.006,0c-.005.044,0,.088-.009.133-.016.15-.033.3-.045.447,0,.014,0,.03,0,.044l-.005.075c0,.039,0,.078,0,.117q-.029.5-.021.993c0,.038,0,.078,0,.117l0,.088c0,.012,0,.023,0,.036.005.149.014.3.024.446,0,.043,0,.086,0,.128l.006,0c.015.208.033.412.057.617.009.074.019.148.029.222.052.393.114.782.2,1.16a5.736,5.736,0,0,0,.287.908l0,.006h-.009c.007.017.017.031.024.048.018.043.038.084.057.127.06.135.123.266.192.395.037.071.077.141.117.21s.077.137.12.2l.008.014.028.041c.055.083.113.164.173.243l.01.014.026.032.017.022.046.055.082.1c.014.015.026.031.038.046l.067.077c.056.06.113.12.171.178l.03.03.033.034.01.01.016.014.071.065c.035.031.069.064.1.094l.064.057c.031.026.067.044.1.069.058.046.111.1.171.14h0c.082.06.171.107.257.161.06.037.117.077.178.111a4.526,4.526,0,0,0,.649.308c11.03,4.092,22.679,6.65,35.056,9.484q2.249.514,4.529,1,.643.138,1.288.276,1.869.4,3.756.786l5.3,1.094.479.1.442.093c1.69.351,3.382.7,5.088,1.072.2.043.406.09.608.134,2.108.459,4.225.934,6.354,1.442q1.439.344,2.874.713c1.523.389,3.049.789,4.581,1.186,1.359.351,2.721.7,4.1,1.028.344.083.718.192,1.086.3.107.031.214.061.322.1.088.026.175.054.263.082C132.055,260.658,132.023,260.353,132.023,260.043Z" transform="translate(-33.404 -196.439)"/><g transform="translate(0 33.483)"><path class="p" d="M34.886,231.472a4.849,4.849,0,0,1,2.766-.747c10.857.446,22.333,5.3,33.637,8.428,12.492,3.46,25.7,4.284,38.934,7.963,4.495,1.249,12.447,3.025,16.925,4.483-3.868,4.6-6.1,12.833-6.5,18.58-3.459-.688-6.493-2.186-9.463-2.895-4.073-.972-8.039-2.092-12.034-3.047-9.916-2.37-19.637-4.1-28.994-6.242-12.888-2.951-25.019-5.615-36.5-9.876a5.358,5.358,0,0,1-3.269-3.968C29.431,239.754,30.366,234.291,34.886,231.472Z" transform="translate(-30.048 -230.721)"/><path class="q" d="M125.639,252.9a18.6,18.6,0,0,1-4.6-1c-2-.5-3.917-1.268-5.893-1.846a79.024,79.024,0,0,0-9.694-2.306,55.836,55.836,0,0,0-8.886-1.084,32.494,32.494,0,0,1-7.918-.915c1.991.674,4.643,1.327,6.386,2.408a10.6,10.6,0,0,1-4.671-.906,70.526,70.526,0,0,0-7.452-2.338c-4.042-1.055-8.306-1.624-12.281-2.681.179,1.294,2.609,2.722,3.7,3.353a9.811,9.811,0,0,0,3.8,1.429c3.646.451,7.324.476,10.926,1.169,3.574.688,7.2,1.517,10.794,2.25,3.233.66,6.46.725,9.669,1.374,2.26.458,4.374,1.43,6.625,1.915a12.951,12.951,0,0,0,2.654.485c1.06-.02,2.036-.61,3.113-.662A11.419,11.419,0,0,0,125.639,252.9Z" transform="translate(-36.117 -232.443)"/><path class="q" d="M60.714,242.217c-.828-.531-1.7-.985-2.637-1.485-2.293-1.224-5.364-3.059-8.029-3.157,3.038-.276,6.69,1.878,9.627.818-2.731-.867-5.559-1.681-8.377-2.426-1.254-.332-2.475-1.022-3.7-1.282A44.215,44.215,0,0,0,42,234.276c-1.953-.151-3.91-.355-5.866-.374,2.6.828,5.2,1.57,7.839,2.2-3.378-.026-6.771.645-10.119-.1a30.824,30.824,0,0,1,3.4,1.44,12.774,12.774,0,0,0,3.936.844,24.986,24.986,0,0,1,3.369-.1,18.291,18.291,0,0,1,4.011,1.021c1.737.711,3.517,1.255,5.3,1.877,2.908,1.015,5.973,1.62,8.839,2.694A12.648,12.648,0,0,0,60.714,242.217Z" transform="translate(-30.618 -231.197)"/><path class="q" d="M74.166,248.468a35.219,35.219,0,0,1,9.281,1.657c6.953,1.822,14.185,3.8,21.389,4.5,4.068.394,7.782-.162,11.422,2-2.607-.046-5.054.128-7.526-.6a11,11,0,0,1,5.767,4.46c-7.81-2.533-15.339-5.511-23.368-7.345A59.3,59.3,0,0,0,78.3,251.351a36.7,36.7,0,0,1-10.787-1.14c-2.486-.728-5-1.123-7.483-1.869-2.68-.807-5.35-1.65-8.058-2.359A124.645,124.645,0,0,1,38.423,241.5a41.684,41.684,0,0,1,9.929,1.039c3.483.909,6.627,2.925,10.2,3.613,3.1.6,6.226,1.54,9.321,1.993C69.656,248.406,72.619,249.509,74.166,248.468Z" transform="translate(-31.301 -232.333)"/><path class="q" d="M56.849,249.7a95.451,95.451,0,0,1-11.568-3.153c-3.317-1.27-6.682-2.612-9.983-3.848a46.828,46.828,0,0,0-5.15-1.851,14.257,14.257,0,0,0-.06,2.732c.671.25,1.333.525,2.026.856,4.128,1.972,8.491,2.53,12.755,3.977a80.4,80.4,0,0,0,11.843,3.314c9.618,1.735,19.781,4.489,29.612,3.733-5.531-2.947-13.577-2.533-19.707-3.447C63.331,251.523,60.018,250.487,56.849,249.7Z" transform="translate(-30.048 -232.236)"/><path class="q" d="M85.774,259.826c12.4.084,26.334,2.155,37.218,8.12-2.433.859-6.416-.947-8.707-1.86a47.7,47.7,0,0,0-10.731-2.817c-3.984-.623-8-1.419-11.98-1.794-2.155-.2-4.386-1.749-6.481-1.475C84.741,259.844,85.646,259.92,85.774,259.826Z" transform="translate(-38.269 -235.074)"/><path class="q" d="M49.038,252.653c-3.554-1-7.046-2.237-10.517-3.388a30.369,30.369,0,0,0-7.731-1.636,5.425,5.425,0,0,0,1.849,2.414c.094.016.191.028.285.047,6.531,1.308,12.763,4.1,19.38,5.091,3.536.531,7.112.858,10.651,1.46,3.646.62,7.65,2.009,11.339,1.867a6.914,6.914,0,0,0-2.722-.961C64.062,255.423,56.582,254.767,49.038,252.653Z" transform="translate(-30.159 -233.25)"/><path class="q" d="M106.48,268.967c3.995.955,7.961,2.075,12.034,3.047,1.021.244,2.157.6,3.346.994a2.942,2.942,0,0,0-.358-.864c-.85-1.345-2.6-1.434-4.176-1.791-4.182-.945-7.936-3.367-12.1-4.183-4.47-.877-8.923-1.371-13.43-2.025-2.94-.427-6.15-1.716-9.069-1.79a11.045,11.045,0,0,0-3.7.714C87.911,265.054,97.106,266.726,106.48,268.967Z" transform="translate(-37.373 -235.452)"/><path class="r" d="M145.833,266.655a12.732,12.732,0,0,1-4.1,5.8,8.033,8.033,0,0,1-5.951,1.347c-2.155-.588-3.32-2.882-4.063-4.791a10.083,10.083,0,0,1,.258-6.931,8.954,8.954,0,0,1,2.818-4.308c2.649-1.993,5.96-4.258,9.039-1.6a6.086,6.086,0,0,1,1.777,1.751,11.134,11.134,0,0,1,.827,2.419,9.447,9.447,0,0,1-.067,4.3A12.079,12.079,0,0,1,145.833,266.655Z" transform="translate(-45.178 -234.347)"/><path class="p" d="M143.431,257.651c-2.887-1.113-6.747,1.889-8.228,4.052-1.5,2.189-1.327,6.546-.064,8.85a4.159,4.159,0,0,0,3.147,1.662c1.465.063,2.929-1.087,3.9-2.054,1.169-1.167,2.493-2.254,3.072-3.863a8.818,8.818,0,0,0,.136-4.924C144.967,259.7,144.971,258.244,143.431,257.651Z" transform="translate(-45.616 -234.713)"/><path class="r" d="M142.8,259.223c-1.481-.457-3.693.642-4.825,1.593a7.258,7.258,0,0,0-2.223,3.793c-.407,2.01-.5,6.747,2.49,6.711,2.52-.031,5.271-3.021,6.03-5.284a10.245,10.245,0,0,0,.331-4.245C144.4,260.435,144.141,259.638,142.8,259.223Z" transform="translate(-45.826 -234.968)"/><path class="p" d="M142.677,260.857c-1.593-.832-3.654.727-4.534,1.908a7.755,7.755,0,0,0-1.183,4.306c-.013,1.288.255,3.272,1.988,3.066,1.817-.216,3-2.21,3.979-3.562a4.381,4.381,0,0,0,.844-3.48C143.676,262.12,143.681,261.382,142.677,260.857Z" transform="translate(-46.038 -235.193)"/><path class="r" d="M141.847,262.471c-1.838-.118-3.178,2.051-3.5,3.563-.229,1.078-.691,3.3,1.183,2.734a5.682,5.682,0,0,0,3.147-3.149C142.894,264.744,143.231,262.56,141.847,262.471Z" transform="translate(-46.212 -235.469)"/><path class="p" d="M141.552,264.406c-1.256-.075-3.142,2.94-1.491,3.065C141.248,267.561,142.913,264.486,141.552,264.406Z" transform="translate(-46.405 -235.759)"/><path class="p" d="M130.907,263.528a8.3,8.3,0,0,1,2.735.3c-.364.115-1.368.3-1.741.413-.344.1-.72.1-1.038.216A3.57,3.57,0,0,1,130.907,263.528Z" transform="translate(-45.123 -235.628)"/><path class="p" d="M130.723,271.111a6.322,6.322,0,0,1,2.68-.831c-.765.518-1.718,1.288-2.448,1.766A1.82,1.82,0,0,1,130.723,271.111Z" transform="translate(-45.105 -236.638)"/><path class="p" d="M139.785,275.317c-.023.342.144,1.154.163,1.493.272-.059.542-.13.806-.213C140.542,276.276,139.953,275.5,139.785,275.317Z" transform="translate(-46.46 -237.391)"/><path class="p" d="M145.553,273.273c-.379-.177-1.041-.668-1.328-.652a6.048,6.048,0,0,0,.749,1.314Q145.274,273.617,145.553,273.273Z" transform="translate(-47.125 -236.988)"/><path class="p" d="M146.962,258.924c.208-.141.723-.515.944-.667a3.076,3.076,0,0,0-.293-.423A4.338,4.338,0,0,0,146.962,258.924Z" transform="translate(-47.534 -234.777)"/><path class="p" d="M148.926,266q.059-.337.108-.663a1.806,1.806,0,0,0-.96.384A8.012,8.012,0,0,0,148.926,266Z" transform="translate(-47.7 -235.898)"/><g transform="translate(0.001 5.824)"><path class="w" d="M116.588,266.411a8.45,8.45,0,0,1-.389-4.367,13.543,13.543,0,0,1-2.545.17c-2.272-.413-4.542-.762-6.824-1.121-4.851-.764-8.895-3.737-13.562-5.172a91.92,91.92,0,0,0-14.479-2.847c-4.968-.689-9.89-1.776-14.872-2.33-4.449-.5-8.953-.712-13.354-1.575a34.794,34.794,0,0,1-19.756-11.6,12.581,12.581,0,0,0-.724,3.437l-.005.077c-.028.427-.037.854-.027,1.278l0,.091a14.866,14.866,0,0,0,.332,2.72,5.893,5.893,0,0,0,.83,1.988l.029.042c.059.087.119.172.181.254.018.024.037.048.055.071.056.071.113.141.173.209.023.027.047.054.071.08.057.064.117.125.177.185l.077.077c.065.063.132.122.2.18l.067.06a4.814,4.814,0,0,0,1.411.822c11.485,4.262,23.616,6.925,36.5,9.876,6.907,1.581,14.013,2.939,21.248,4.495l.4.086c.963.208,1.93.423,2.9.639.268.06.535.116.8.178q1.815.41,3.642.845,1.5.357,2.993.742c2.992.763,5.986,1.576,9.041,2.3.211.05.43.109.651.168,2.764.756,5.605,2.089,8.811,2.727C118.5,270.615,117.331,268.32,116.588,266.411Z" transform="translate(-30.05 -237.57)"/><path class="t" d="M136.585,277.117c.1.026.2.048.3.068C136.785,277.165,136.683,277.143,136.585,277.117Z" transform="translate(-45.983 -243.485)"/><path class="t" d="M137.573,277.274l.025,0Z" transform="translate(-46.131 -243.508)"/><path class="t" d="M137.134,277.227l.134.018Z" transform="translate(-46.065 -243.501)"/></g></g><path class="u" d="M35.036,232.428a20.72,20.72,0,0,1,2.662.77c4.573.324,7.562,1.479,11.751,3.292q1.183.323,1.124.4c.155.043.31.083.464.128a64.79,64.79,0,0,1,7.588,1.214,38.409,38.409,0,0,1,8.207,2.865,19.731,19.731,0,0,1,2.664,1.417l.266.148c.794.055,1.588.112,2.381.185,3.119.4,6.241.793,9.346,1.294a84.588,84.588,0,0,1,11.8,3.217,21.976,21.976,0,0,0,2.222.634l.562.042c2.078.044,4.215-.158,6.281.055a78.2,78.2,0,0,1,13.077,2.358c.754.236,7.452,1.366,8.036.833.466-.425.435-.782.543-.8-4.356-1.181-9.729-2.427-13.127-3.371-13.233-3.679-26.442-4.5-38.934-7.963-11.3-3.131-22.78-7.982-33.637-8.429a4.856,4.856,0,0,0-2.766.748,9.981,9.981,0,0,0-1.1.808C34.64,232.331,34.839,232.372,35.036,232.428Z" transform="translate(-30.705 -197.238)"/><g transform="translate(25.984 8.308)"><path class="p" d="M65.248,201.84a4.655,4.655,0,0,1,2.657-.718c10.426.429,21.446,5.087,32.3,8.094,12,3.322,24.681,4.113,37.389,7.646,4.316,1.2,11.953,2.905,16.254,4.3-3.715,4.415-5.853,12.324-6.24,17.841-3.321-.66-6.235-2.1-9.088-2.779-3.911-.934-7.719-2.01-11.556-2.926-9.522-2.277-18.857-3.938-27.843-5.995-12.376-2.834-24.026-5.392-35.056-9.484a5.146,5.146,0,0,1-3.139-3.811C60.009,209.793,60.907,204.547,65.248,201.84Z" transform="translate(-60.602 -201.119)"/><path class="q" d="M152.211,222.356c-3.9.111-8.222-1.415-12.086-1.906-3.52-.446-6.912-1.589-10.386-2.108-3.6-.537-7.34-1.412-10.9-2.232-4.574-1.052-9.361-1.609-13.927-2.865a42.428,42.428,0,0,0-7.073-1.4c3.414,1.953,7.9,2.5,11.569,4.022,4.175,1.731,8.626,2.167,13.049,2.833a79.546,79.546,0,0,1,11.9,2.506c2.937.914,7.263,3.251,10.38,2.744,1.285-.208,2.327-.887,3.815-.958A12.14,12.14,0,0,0,152.211,222.356Z" transform="translate(-66.171 -202.723)"/><path class="q" d="M89.957,210.733a35.037,35.037,0,0,0-9.675-4.906c-2.84-.845-5.979-.618-8.908-1.021-2.354-.323-4.965-1.339-7.411-1.537a9.53,9.53,0,0,0-2.284,3.3,8.831,8.831,0,0,0,2.027.661c3.7.718,7.653.634,11.361,1.281,6.737,1.176,13,3.742,19.378,5.884,2.177.731,3.716.181,5.893.791C96.992,213.5,93.062,212.934,89.957,210.733Z" transform="translate(-60.763 -201.44)"/><path class="q" d="M102.97,218.162a33.816,33.816,0,0,1,8.912,1.591c3.527.924,7.134,1.6,10.662,2.344,4.131.868,8.072,2.025,12.261,2.593,2.955.4,6.614.4,9.326,1.429-1.5.81-2.337,3.332-2.522,4.882a10.531,10.531,0,0,0-6.326-4.413c-3.911-.956-8.217-1.43-12.266-2.183-3.778-.7-7.576-1.513-11.294-2.462-3.641-.93-7.293-.725-11.1-1.235-6.563-.879-12.643-3.278-18.967-4.933a119.479,119.479,0,0,1-13.009-4.3,40.029,40.029,0,0,1,9.534,1c3.346.873,6.364,2.808,9.793,3.471,2.977.574,5.979,1.478,8.95,1.913C98.638,218.1,101.484,219.161,102.97,218.162Z" transform="translate(-61.805 -202.667)"/><path class="q" d="M86.339,219.345a91.67,91.67,0,0,1-11.108-3.028c-3.186-1.22-6.417-2.508-9.587-3.7a44.971,44.971,0,0,0-4.946-1.778,13.746,13.746,0,0,0-.058,2.623c.645.241,1.281.505,1.946.822,3.965,1.894,8.153,2.43,12.248,3.818a77.3,77.3,0,0,0,11.374,3.183c9.237,1.666,19,4.311,28.437,3.585-5.312-2.83-13.038-2.434-18.925-3.311C92.564,221.1,89.383,220.1,86.339,219.345Z" transform="translate(-60.602 -202.573)"/><path class="q" d="M114.116,229.069c11.908.081,25.289,2.069,35.741,7.8-2.337.825-6.161-.909-8.362-1.786a45.842,45.842,0,0,0-10.306-2.705c-3.826-.6-7.684-1.362-11.5-1.723-2.07-.2-4.212-1.68-6.224-1.416C113.124,229.087,113.994,229.158,114.116,229.069Z" transform="translate(-68.496 -205.299)"/><path class="q" d="M78.838,222.181c-3.413-.956-6.766-2.148-10.1-3.253a29.179,29.179,0,0,0-7.423-1.572,5.212,5.212,0,0,0,1.775,2.318c.091.015.184.026.274.044,6.271,1.256,12.257,3.935,18.61,4.889,3.4.509,6.831.824,10.228,1.4,3.5.6,7.346,1.93,10.889,1.793a6.65,6.65,0,0,0-2.613-.923C93.266,224.841,86.083,224.211,78.838,222.181Z" transform="translate(-60.709 -203.547)"/><path class="q" d="M134,237.847c3.836.917,7.645,1.993,11.556,2.926.981.234,2.072.578,3.214.955a2.851,2.851,0,0,0-.344-.831c-.816-1.29-2.493-1.376-4.01-1.72-4.017-.907-7.621-3.233-11.621-4.017-4.293-.841-8.569-1.316-12.9-1.944-2.823-.41-5.905-1.648-8.708-1.72a10.629,10.629,0,0,0-3.551.685C116.169,234.089,125,235.7,134,237.847Z" transform="translate(-67.637 -205.662)"/><path class="r" d="M171.792,235.627a12.239,12.239,0,0,1-3.938,5.571,7.713,7.713,0,0,1-5.715,1.293c-2.069-.564-3.188-2.767-3.9-4.6a9.676,9.676,0,0,1,.247-6.656,8.605,8.605,0,0,1,2.705-4.137c2.545-1.915,5.723-4.09,8.68-1.534a5.846,5.846,0,0,1,1.707,1.681,10.7,10.7,0,0,1,.794,2.323,9.076,9.076,0,0,1-.065,4.134A11.709,11.709,0,0,1,171.792,235.627Z" transform="translate(-75.131 -204.6)"/><path class="p" d="M169.438,226.968a4.629,4.629,0,0,0-1.828-.486,5.727,5.727,0,0,0-1.988.39,5.31,5.31,0,0,0-1.663,1.117,14.713,14.713,0,0,0-2.15,1.937,6.708,6.708,0,0,0-1.11,3.219,29.369,29.369,0,0,0-.286,3.527,11.388,11.388,0,0,0,.305,2.314,2.663,2.663,0,0,0,.7,1.381c.824.841,2.276.689,3.358.725a3.756,3.756,0,0,0,2.9-1.437c.425-.435.992-.659,1.419-1.087a12.518,12.518,0,0,0,1.2-1.612,5.9,5.9,0,0,0,.946-1.886,20.119,20.119,0,0,0,.673-3.25,5.435,5.435,0,0,0-.4-2.852A4.359,4.359,0,0,0,169.438,226.968Z" transform="translate(-75.53 -204.912)"/><path class="r" d="M168.971,228.206a2.207,2.207,0,0,0-.338-.134,4.233,4.233,0,0,0-2.761.606,8.119,8.119,0,0,0-3.164,2.749,7.016,7.016,0,0,0-.5,6.44,3.417,3.417,0,0,0,4.158,1.665,7.356,7.356,0,0,0,1.749-1.169,4.5,4.5,0,0,0,1.408-1.43,8.943,8.943,0,0,0,.685-1.589c.175-.593.219-1.211.41-1.8a6.186,6.186,0,0,0,.337-1.484,3.911,3.911,0,0,0-.464-2.232A3.784,3.784,0,0,0,168.971,228.206Z" transform="translate(-75.717 -205.138)"/><path class="p" d="M168.73,230.01a2.574,2.574,0,0,0-.256-.14,4.1,4.1,0,0,0-2.567.293,4.406,4.406,0,0,0-2.942,3.756c-.194,2.123-.065,4.607,2.537,4.84,2.152.192,3.86-2.1,4.345-3.966a6.947,6.947,0,0,0,.243-3.075A3.052,3.052,0,0,0,168.73,230.01Z" transform="translate(-75.903 -205.4)"/><path class="r" d="M167.921,231.681a2.35,2.35,0,0,0-1.791.414,3.426,3.426,0,0,0-1.368,1.76c-.548,1.324-1.112,3.221.742,3.62,1.27.273,2.67-.856,3.28-1.886a3.04,3.04,0,0,0,.3-3A1.83,1.83,0,0,0,167.921,231.681Z" transform="translate(-76.101 -205.683)"/><path class="p" d="M167.667,233.336a2.385,2.385,0,0,0-1.824,1.288c-.274.589-.6,1.661.228,1.887a2.32,2.32,0,0,0,2.151-.919c.368-.486.718-1.538.151-2.01A1.044,1.044,0,0,0,167.667,233.336Z" transform="translate(-76.297 -205.937)"/><path class="p" d="M162.581,225.308c.7.331,2.177,1.206,2.891,1.5A14.623,14.623,0,0,0,164,224.9c-.4-.209-1.007.281-1.409.361C162.692,225.264,162.487,225.326,162.581,225.308Z" transform="translate(-75.85 -204.667)"/><path class="p" d="M157.459,232.624a7.976,7.976,0,0,1,2.627.292c-.35.111-1.314.293-1.672.4-.33.1-.692.094-1,.207A3.405,3.405,0,0,1,157.459,232.624Z" transform="translate(-75.078 -205.831)"/><path class="p" d="M157.864,242.641a6.055,6.055,0,0,1,2.573-.8c-.735.5-1.65,1.237-2.35,1.7A1.735,1.735,0,0,1,157.864,242.641Z" transform="translate(-75.148 -207.209)"/><path class="p" d="M165.984,243.945c-.022.328.138,1.108.156,1.434.261-.057.52-.125.775-.2C166.71,244.867,166.145,244.12,165.984,243.945Z" transform="translate(-76.363 -207.524)"/><path class="p" d="M171.523,241.983c-.364-.17-1-.642-1.275-.626a5.821,5.821,0,0,0,.719,1.261Q171.255,242.313,171.523,241.983Z" transform="translate(-77.001 -207.137)"/><path class="p" d="M172.876,228.2c.2-.136.695-.494.907-.64a2.928,2.928,0,0,0-.281-.406A4.213,4.213,0,0,0,172.876,228.2Z" transform="translate(-77.394 -205.013)"/><path class="p" d="M174.762,235c.037-.217.072-.429.1-.637a1.724,1.724,0,0,0-.921.367A7.676,7.676,0,0,0,174.762,235Z" transform="translate(-77.554 -206.09)"/><g transform="translate(0.001 5.594)"><path class="s" d="M143.708,235.393a8.109,8.109,0,0,1-.373-4.194,12.9,12.9,0,0,1-2.444.163c-2.182-.4-4.362-.731-6.553-1.077-4.659-.733-8.542-3.588-13.024-4.966a88.347,88.347,0,0,0-13.9-2.735c-4.771-.662-9.5-1.7-14.281-2.237-4.272-.476-8.6-.683-12.823-1.512A33.41,33.41,0,0,1,61.334,207.7a12.045,12.045,0,0,0-.695,3.3l-.005.075c-.027.409-.036.819-.026,1.227l0,.087A14.3,14.3,0,0,0,60.928,215a5.652,5.652,0,0,0,.8,1.909l.028.041c.055.083.113.165.173.244.017.023.035.045.053.068.054.068.109.135.166.2l.068.077c.055.061.111.12.17.179l.073.073q.093.089.191.173l.064.056a4.62,4.62,0,0,0,1.355.79c11.03,4.092,22.679,6.65,35.056,9.484,6.633,1.519,13.457,2.823,20.405,4.316l.388.082q1.387.3,2.782.613l.771.171q1.744.394,3.5.812c.959.229,1.917.469,2.874.713,2.873.733,5.748,1.514,8.681,2.214.2.048.414.1.626.162,2.655.726,5.383,2.006,8.462,2.618C145.541,239.429,144.421,237.226,143.708,235.393Z" transform="translate(-60.604 -207.696)"/><path class="t" d="M162.911,245.673c.094.026.192.047.292.065C163.1,245.72,163.005,245.7,162.911,245.673Z" transform="translate(-75.905 -213.376)"/><path class="t" d="M163.86,245.825l.024,0Z" transform="translate(-76.047 -213.399)"/><path class="t" d="M163.438,245.779c.043.006.085.013.128.017C163.524,245.791,163.481,245.786,163.438,245.779Z" transform="translate(-75.984 -213.392)"/></g></g><path class="u" d="M140.795,235.215a18.245,18.245,0,0,1,8.589-15.333c-4.021-1.068-8.734-2.169-11.787-3.018-12.708-3.534-25.393-4.324-37.389-7.646-10.856-3.007-21.876-7.666-32.3-8.094a4.655,4.655,0,0,0-2.657.718,9.477,9.477,0,0,0-1.446,1.107h0l-.005.005a9.228,9.228,0,0,0-.682.71c-.051.06-.1.122-.145.182-.154.188-.3.378-.441.576-.059.083-.112.17-.168.255-.118.182-.232.365-.338.553-.051.092-.1.185-.149.278-.1.191-.193.384-.28.581-.024.054-.054.1-.076.159l.006,0c-.065.155-.129.309-.187.466l0,0c-.027.073-.048.149-.073.223-.06.177-.121.353-.173.532-.026.091-.048.183-.071.275-.048.183-.1.365-.134.549-.02.09-.034.182-.051.272-.035.187-.07.374-.1.562-.012.088-.02.177-.031.265l-.006,0c-.005.044,0,.089-.009.134-.016.149-.034.3-.045.446,0,.014,0,.029,0,.044l-.005.075c0,.038,0,.077,0,.116q-.029.5-.021,1c0,.038,0,.077,0,.116l0,.087c0,.012,0,.023,0,.035,0,.15.014.3.024.448,0,.042,0,.085,0,.127l.006,0c.015.207.033.412.057.617.009.074.019.146.029.22.052.393.114.782.2,1.162a5.764,5.764,0,0,0,.287.908l0,.006h-.009c.007.017.017.032.024.049.018.043.038.084.057.127q.089.2.191.393c.038.072.077.143.118.212s.077.137.12.2l.008.013.028.041c.055.083.113.165.173.244l.009.013.026.033.017.022.045.055.083.1.037.046.068.077c.055.061.111.12.17.179l.031.031.032.032.01.01.017.015c.023.022.047.043.07.064s.069.064.1.094l.064.056c.031.026.067.044.1.069.058.046.111.1.171.141h0c.082.059.172.107.258.161.06.037.117.077.178.111a4.458,4.458,0,0,0,.647.307h0A191.391,191.391,0,0,0,85.5,224.142c4.442,1.08,8.981,2.1,13.622,3.167q2.249.514,4.529,1l1.288.275q1.873.4,3.761.788l5.248,1.083.543.113.44.093c1.682.349,3.368.7,5.066,1.067.207.044.416.092.623.137,2.1.458,4.217.932,6.342,1.44h0c.48.115.958.237,1.437.356s.958.234,1.437.356c1.521.389,3.045.788,4.576,1.184,1.36.352,2.725.7,4.105,1.03.344.082.718.191,1.087.3.106.031.213.062.321.1q.239.073.48.151c.157.051.316.1.475.157C140.829,236.365,140.795,235.793,140.795,235.215Z" transform="translate(-34.619 -192.811)"/><g transform="translate(6.793 15.741)"><path class="p" d="M42.724,210.588a4.688,4.688,0,0,1,2.681-.725C55.924,210.3,67.044,215,78,218.03c12.1,3.352,24.9,4.15,37.725,7.715,4.354,1.21,12.06,2.931,16.4,4.343-3.748,4.455-5.905,12.435-6.3,18-3.351-.667-6.291-2.118-9.169-2.8-3.946-.942-7.788-2.027-11.66-2.953-9.608-2.3-19.027-3.973-28.094-6.049-12.488-2.859-24.242-5.44-35.371-9.568a5.2,5.2,0,0,1-3.168-3.846C37.437,218.611,38.344,213.319,42.724,210.588Z" transform="translate(-38.036 -209.859)"/><path class="q" d="M130.273,230.676c-1.589.6-4.63-.412-6.116-.922a55.889,55.889,0,0,0-6.633-1.413c-2.576-.548-5.137-1.372-7.673-2.1a54.22,54.22,0,0,0-8.935-1.782c-2.592-.293-5.127-1.154-7.743-1.476s-5.229-.69-7.825-1.132c-3.676-.627-7.36-3.231-11.057-3.268.239,2.068,3.2,3.214,4.894,3.384a19.421,19.421,0,0,1,7.666,2.238,17.062,17.062,0,0,0,3.6,1.753c2.068.588,4.245.647,6.346,1.13,4.969,1.141,9.689,2.871,14.753,3.625,2.3.342,4.526.6,6.825.793a38.914,38.914,0,0,0,4.464.546c1.3-.042,2.447-.674,3.741-.736A12.276,12.276,0,0,0,130.273,230.676Z" transform="translate(-43.458 -211.165)"/><path class="q" d="M68.27,220.757c-3.865-1.556-8.4-2.005-12.075-3.939a36.214,36.214,0,0,1,4.922.484c1.788.272,3.811,1.473,5.567,1.424-.777-1.089-2.553-1.429-3.755-1.9-2.27-.9-4.159-2.075-6.588-2.29-2.826-.251-5.327-1.059-8.218-.559-1.948.338-3.365,1.873-5.492,1.784a11.255,11.255,0,0,1,3.478,1.187c1.8.877,3.724.582,5.61.99a26.178,26.178,0,0,1,5.12,1.468,23.218,23.218,0,0,0,4.751,1.954c1.4.273,2.9.371,4.313.759a41.688,41.688,0,0,0,11.286,1.85C74.4,222.535,71.223,221.948,68.27,220.757Z" transform="translate(-38.723 -210.451)"/><path class="q" d="M82.028,227.172a34.138,34.138,0,0,1,8.993,1.606c3.558.933,7.2,1.616,10.758,2.365,4.168.876,8.144,2.044,12.37,2.616,2.244.3,4.3.31,6.559.816.829.185,2.135.276,2.7.884-2.481.652-5.37.168-7.833-.2a36.107,36.107,0,0,1-4.707-1.164c-1.414-.412-3.294-.562-4.548-1.089a30.151,30.151,0,0,1,3.462,2.027c-2.277-.66-4.576-1.333-6.866-1.936-4.4-1.159-8.9-1.261-13.283-2.461a47.414,47.414,0,0,0-6.542-1.167c-2.766-.364-5.147-1.384-7.819-2.122-2.721-.751-5.562-.52-8.359-.818a19.28,19.28,0,0,1-5.941-1.843,20.034,20.034,0,0,1-2.807-1.354c-1.169-.733-2.768-1.188-3.7-2.224,1.4-.188,2.753.531,4.044.975,2.742.941,5.525,2.29,8.387,2.843,3,.581,6.033,1.493,9.032,1.93C77.657,227.112,80.528,228.18,82.028,227.172Z" transform="translate(-40.493 -211.538)"/><path class="q" d="M64,228.25A92.445,92.445,0,0,1,52.8,225.195c-3.215-1.231-6.474-2.53-9.673-3.728a45.205,45.205,0,0,0-4.991-1.794,13.855,13.855,0,0,0-.059,2.647c.651.242,1.293.509,1.963.829,4,1.911,8.227,2.452,12.359,3.853a77.967,77.967,0,0,0,11.476,3.211c9.319,1.681,19.166,4.35,28.692,3.617-5.359-2.856-13.155-2.455-19.095-3.34C70.285,230.015,67.075,229.012,64,228.25Z" transform="translate(-38.036 -211.327)"/><path class="q" d="M92.032,238.061c12.015.082,25.516,2.088,36.062,7.867-2.357.833-6.217-.917-8.436-1.8a46.222,46.222,0,0,0-10.4-2.729c-3.861-.6-7.753-1.374-11.608-1.739-2.089-.2-4.25-1.695-6.28-1.428C91.03,238.079,91.908,238.151,92.032,238.061Z" transform="translate(-46.001 -214.077)"/><path class="q" d="M56.435,231.111c-3.443-.964-6.826-2.169-10.191-3.283a29.442,29.442,0,0,0-7.491-1.585,5.26,5.26,0,0,0,1.791,2.339c.092.015.185.026.276.044,6.328,1.268,12.366,3.971,18.778,4.933,3.426.515,6.892.832,10.32,1.414,3.533.6,7.412,1.947,10.987,1.809a6.693,6.693,0,0,0-2.637-.93C70.993,233.795,63.746,233.159,56.435,231.111Z" transform="translate(-38.143 -212.31)"/><path class="q" d="M112.095,246.918c3.871.925,7.713,2.01,11.66,2.953.991.236,2.09.583,3.243.964a2.866,2.866,0,0,0-.348-.838c-.823-1.3-2.515-1.39-4.046-1.736-4.052-.915-7.69-3.262-11.726-4.053-4.331-.85-8.646-1.328-13.013-1.962-2.849-.413-5.959-1.663-8.788-1.735a10.7,10.7,0,0,0-3.583.691C94.1,243.126,103.011,244.747,112.095,246.918Z" transform="translate(-45.133 -214.443)"/><path class="r" d="M150.226,244.678a12.342,12.342,0,0,1-3.974,5.621,7.782,7.782,0,0,1-5.766,1.305c-2.088-.57-3.216-2.793-3.937-4.643a9.766,9.766,0,0,1,.249-6.716,8.689,8.689,0,0,1,2.73-4.175c2.567-1.931,5.775-4.126,8.759-1.548a5.9,5.9,0,0,1,1.722,1.7,10.768,10.768,0,0,1,.8,2.345,9.152,9.152,0,0,1-.065,4.171A11.749,11.749,0,0,1,150.226,244.678Z" transform="translate(-52.696 -213.373)"/><path class="p" d="M141.277,250.023a3.29,3.29,0,0,0,1.015.255,6.782,6.782,0,0,0,2.88-.52,6.535,6.535,0,0,0,2.185-1.751,8.309,8.309,0,0,0,2.584-5.193,9.759,9.759,0,0,0-1.132-5.656c-1.1-1.823-4.157-1.6-5.755-.7-1.868,1.056-2.913,2.942-3.875,4.791a6.006,6.006,0,0,0-.54,4.087,7,7,0,0,0,1,2.733c.506.707.691,1.51,1.549,1.909Z" transform="translate(-53.06 -213.736)"/><path class="r" d="M147.284,237.477c-1.435-.443-3.578.622-4.675,1.544a7.032,7.032,0,0,0-2.154,3.675c-.394,1.948-.48,6.538,2.413,6.5,2.442-.03,5.108-2.927,5.843-5.12a9.932,9.932,0,0,0,.321-4.113C148.836,238.651,148.587,237.879,147.284,237.477Z" transform="translate(-53.324 -213.974)"/><path class="p" d="M143.042,247.548c1.616.649,3.454-1.054,4.187-2.277a7.511,7.511,0,0,0,.725-4.266c-.112-1.243-.562-3.13-2.213-2.764-1.732.384-2.681,2.421-3.493,3.819a4.244,4.244,0,0,0-.478,3.437C141.957,246.427,142.023,247.139,143.042,247.548Z" transform="translate(-53.527 -214.097)"/><path class="r" d="M146.5,240.381a1.644,1.644,0,0,0-1.593.088,5.114,5.114,0,0,0-2.053,3.827,2.777,2.777,0,0,0,.765,2.166c.577.635,1.448.15,2.039-.3a3.721,3.721,0,0,0,1.242-2.114,6.408,6.408,0,0,0,.3-2.636A1.37,1.37,0,0,0,146.5,240.381Z" transform="translate(-53.711 -214.399)"/><path class="p" d="M144.776,245.561c1.213-.124,2.547-3.3.949-3.164C144.575,242.5,143.463,245.7,144.776,245.561Z" transform="translate(-53.911 -214.725)"/><path class="p" d="M140.932,234.266c.71.333,2.2,1.217,2.917,1.516a14.881,14.881,0,0,0-1.482-1.931c-.407-.211-1.017.283-1.422.365C141.045,234.223,140.837,234.284,140.932,234.266Z" transform="translate(-53.421 -213.44)"/><path class="p" d="M135.763,241.648a8.048,8.048,0,0,1,2.651.294c-.353.111-1.326.3-1.687.4-.333.1-.7.094-1.006.209A3.426,3.426,0,0,1,135.763,241.648Z" transform="translate(-52.642 -214.614)"/><path class="p" d="M137.537,252.555c.749-.055,1.939-.7,2.676-.6a3.61,3.61,0,0,1-1.7,1.191C138.139,253.172,137.563,253.038,137.537,252.555Z" transform="translate(-52.917 -216.154)"/><path class="p" d="M149.954,251.091c-.367-.172-1.008-.647-1.286-.632a5.875,5.875,0,0,0,.726,1.273Q149.684,251.425,149.954,251.091Z" transform="translate(-54.582 -215.932)"/><path class="p" d="M153.223,244.043c.038-.219.073-.432.1-.643a1.743,1.743,0,0,0-.93.372A7.962,7.962,0,0,0,153.223,244.043Z" transform="translate(-55.14 -214.876)"/><g transform="translate(0.002 5.643)"><path class="w" d="M121.889,244.441a8.188,8.188,0,0,1-.377-4.232,13.081,13.081,0,0,1-2.466.165c-2.2-.4-4.4-.738-6.612-1.086-4.7-.74-8.618-3.62-13.141-5.011a89.214,89.214,0,0,0-14.029-2.76c-4.814-.667-9.583-1.72-14.41-2.258-4.311-.48-8.675-.689-12.939-1.525a33.716,33.716,0,0,1-19.143-11.24,12.2,12.2,0,0,0-.7,3.331l-.005.076q-.041.62-.026,1.238l0,.088a14.475,14.475,0,0,0,.321,2.635,5.7,5.7,0,0,0,.8,1.926c.009.014.02.027.028.042.057.083.115.166.176.246.017.023.036.046.054.069.054.069.11.136.167.2l.068.077c.056.061.114.122.172.179l.074.075c.063.06.128.117.193.174l.065.057a4.7,4.7,0,0,0,1.368.8c11.129,4.128,22.883,6.709,35.371,9.568,6.693,1.532,13.578,2.848,20.589,4.355l.391.083c.933.2,1.869.41,2.806.619l.779.173q1.759.4,3.528.819,1.452.347,2.9.719c2.9.74,5.8,1.527,8.76,2.234.2.048.418.1.632.162,2.678.733,5.431,2.025,8.538,2.642C123.738,248.514,122.61,246.291,121.889,244.441Z" transform="translate(-38.038 -216.495)"/><path class="t" d="M141.265,254.815c.1.026.194.047.294.065C141.459,254.862,141.36,254.841,141.265,254.815Z" transform="translate(-53.477 -222.226)"/><path class="t" d="M142.222,254.968h0Z" transform="translate(-53.62 -222.249)"/><path class="t" d="M141.8,254.921l.13.018Z" transform="translate(-53.556 -222.242)"/></g></g><path class="u" d="M64.622,218.858c-2.448-1.132.939.242,1.821.4.607.1,1.029.177,1.3.226q4.461.551,8.9,1.248c-4.561-.716.416-.2,1.163-.144a55.452,55.452,0,0,1,6.319.937c2.005.629,3.958,1.319,5.894,2.136.949.4,1.724.723,2.363.987.589.025,1.177.051,1.766.073a39.487,39.487,0,0,1,9.362,1.451,31.722,31.722,0,0,0,4.4,1.2,12.852,12.852,0,0,1,1.482.271c2.539.315,5.077.629,7.6,1.022-4.06-.63,1.465.065,1.909.1q1.683.13,3.36.317,3.162.424,6.325.85c.375-.227.837-.494,1.279-.752-4.322-1.2-9.895-2.48-13.356-3.442C103.7,222.18,90.9,221.383,78.8,218.03,67.843,215,56.723,210.3,46.2,209.863a4.688,4.688,0,0,0-2.681.725c-.05.031-.1.066-.145.1C50.831,212.2,57.511,215.611,64.622,218.858Z" transform="translate(-32.042 -194.118)"/><g transform="translate(17.395)"><path class="p" d="M54.942,192.04a4.443,4.443,0,0,1,2.539-.686c9.964.409,20.5,4.862,30.871,7.736,11.465,3.176,23.588,3.931,35.734,7.308,4.125,1.146,11.423,2.777,15.534,4.114-3.551,4.219-5.594,11.778-5.964,17.052-3.174-.631-5.958-2.006-8.685-2.657-3.738-.892-7.378-1.921-11.044-2.8-9.1-2.175-18.022-3.763-26.611-5.729-11.829-2.708-22.962-5.153-33.5-9.064a4.917,4.917,0,0,1-3-3.642C49.935,199.639,50.794,194.627,54.942,192.04Z" transform="translate(-50.502 -191.35)"/><path class="q" d="M138.055,211.646c-3.732.106-7.858-1.353-11.552-1.822-3.364-.427-6.606-1.518-9.926-2.015-3.438-.514-7.015-1.35-10.42-2.133-4.371-1.006-8.947-1.538-13.311-2.738a40.6,40.6,0,0,0-6.759-1.338c3.262,1.866,7.554,2.391,11.057,3.843,3.989,1.655,8.244,2.072,12.471,2.709a75.842,75.842,0,0,1,11.376,2.395c2.807.873,6.94,3.107,9.92,2.623,1.228-.2,2.224-.848,3.647-.916A11.624,11.624,0,0,0,138.055,211.646Z" transform="translate(-55.824 -192.883)"/><path class="q" d="M79.126,200.776a49.391,49.391,0,0,0-7.38-4.047c-2.363-1.136-5.084-1.117-7.7-1.285-1.348-.087-2.7-.115-4.044-.222A16.379,16.379,0,0,0,57.933,195a15.379,15.379,0,0,0,8.081,2.64c-1.869,0-3.722.158-5.593.161-1.521,0-3.672-.47-5.086-.018a7.92,7.92,0,0,1,1.953.1c.828.037,1.661.145,2.488.21,1.711.136,3.426.268,5.118.563,6.439,1.124,12.422,3.576,18.52,5.624,2.081.7,3.551.173,5.632.756C85.849,203.425,82.093,202.879,79.126,200.776Z" transform="translate(-51.224 -191.895)"/><path class="q" d="M90.993,207.638a32.336,32.336,0,0,1,8.518,1.521c3.37.884,6.818,1.531,10.19,2.24,3.948.83,7.713,1.936,11.717,2.478,2.825.384,6.321.378,8.913,1.366-1.436.775-2.233,3.184-2.41,4.665a10.071,10.071,0,0,0-6.046-4.217c-3.738-.913-7.854-1.366-11.722-2.086-3.61-.673-7.241-1.446-10.795-2.353-3.479-.889-6.969-.692-10.608-1.18-6.273-.84-12.084-3.133-18.128-4.715a114.476,114.476,0,0,1-12.433-4.114,38.239,38.239,0,0,1,9.112.954c3.2.833,6.082,2.683,9.359,3.316,2.845.549,5.714,1.413,8.555,1.828C86.854,207.582,89.573,208.593,90.993,207.638Z" transform="translate(-51.651 -192.829)"/><path class="q" d="M75.1,208.769a87.664,87.664,0,0,1-10.617-2.893c-3.045-1.166-6.133-2.4-9.163-3.532a42.825,42.825,0,0,0-4.727-1.7,13.092,13.092,0,0,0-.055,2.507c.616.23,1.224.482,1.859.786,3.789,1.81,7.793,2.322,11.706,3.649a73.838,73.838,0,0,0,10.869,3.042c8.828,1.592,18.155,4.12,27.178,3.426-5.076-2.7-12.461-2.325-18.087-3.163C81.048,210.441,78.008,209.491,75.1,208.769Z" transform="translate(-50.502 -192.74)"/><path class="q" d="M101.647,218.062c11.381.077,24.169,1.978,34.158,7.452-2.233.788-5.888-.868-7.991-1.707a43.812,43.812,0,0,0-9.849-2.585c-3.657-.571-7.344-1.3-11-1.646-1.978-.187-4.025-1.606-5.948-1.354C100.7,218.079,101.53,218.148,101.647,218.062Z" transform="translate(-58.046 -195.345)"/><path class="q" d="M67.93,211.479c-3.261-.913-6.466-2.054-9.652-3.109a27.893,27.893,0,0,0-7.1-1.5,4.979,4.979,0,0,0,1.7,2.215c.087.014.175.025.261.043,5.994,1.2,11.714,3.761,17.787,4.672,3.245.487,6.528.787,9.775,1.339,3.346.57,7.021,1.845,10.407,1.714a6.358,6.358,0,0,0-2.5-.883C81.719,214.022,74.854,213.419,67.93,211.479Z" transform="translate(-50.603 -193.671)"/><path class="q" d="M120.651,226.451c3.666.876,7.306,1.9,11.044,2.8.938.224,1.98.553,3.071.913a2.7,2.7,0,0,0-.329-.793c-.78-1.234-2.382-1.316-3.832-1.644-3.838-.867-7.284-3.09-11.107-3.84-4.1-.8-8.189-1.258-12.326-1.858-2.7-.391-5.644-1.575-8.323-1.643a10.149,10.149,0,0,0-3.394.655C103.607,222.86,112.047,224.4,120.651,226.451Z" transform="translate(-57.225 -195.692)"/><path class="r" d="M156.769,224.33A11.69,11.69,0,0,1,153,229.655a7.375,7.375,0,0,1-5.462,1.237c-1.977-.54-3.046-2.645-3.729-4.4a9.252,9.252,0,0,1,.237-6.361,8.228,8.228,0,0,1,2.585-3.955c2.431-1.829,5.47-3.908,8.3-1.465a5.571,5.571,0,0,1,1.631,1.606,10.19,10.19,0,0,1,.759,2.221,8.681,8.681,0,0,1-.061,3.95A11.16,11.16,0,0,1,156.769,224.33Z" transform="translate(-64.388 -194.678)"/><path class="p" d="M154.565,216.065c-2.651-1.021-6.194,1.734-7.552,3.72-1.375,2.01-1.218,6.008-.059,8.123a3.821,3.821,0,0,0,2.888,1.526c1.345.057,2.688-1,3.576-1.885A10.229,10.229,0,0,0,156.237,224a8.1,8.1,0,0,0,.125-4.518C155.974,217.947,155.978,216.61,154.565,216.065Z" transform="translate(-64.789 -195.013)"/><path class="r" d="M153.981,217.509c-1.359-.419-3.388.589-4.427,1.462a6.654,6.654,0,0,0-2.04,3.481c-.373,1.845-.456,6.194,2.285,6.16,2.312-.028,4.837-2.772,5.535-4.85a9.4,9.4,0,0,0,.3-3.9C155.452,218.621,155.216,217.89,153.981,217.509Z" transform="translate(-64.983 -195.248)"/><path class="p" d="M153.871,219.008c-1.462-.764-3.354.668-4.161,1.751a7.126,7.126,0,0,0-1.086,3.953c-.011,1.181.235,3,1.826,2.813,1.668-.2,2.755-2.028,3.652-3.27a4.02,4.02,0,0,0,.776-3.193C154.789,220.167,154.793,219.49,153.871,219.008Z" transform="translate(-65.177 -195.454)"/><path class="r" d="M153.11,220.49c-1.686-.108-2.916,1.883-3.21,3.27-.21.989-.634,3.028,1.085,2.51a5.213,5.213,0,0,0,2.887-2.89C154.071,222.576,154.381,220.572,153.11,220.49Z" transform="translate(-65.337 -195.707)"/><path class="p" d="M152.84,222.265c-1.153-.068-2.885,2.7-1.369,2.814C152.561,225.161,154.087,222.339,152.84,222.265Z" transform="translate(-65.514 -195.973)"/><path class="p" d="M147.965,214.467c.673.316,2.081,1.153,2.763,1.436a14.061,14.061,0,0,0-1.4-1.829c-.385-.2-.963.269-1.346.346C148.072,214.426,147.875,214.484,147.965,214.467Z" transform="translate(-65.075 -194.741)"/><path class="p" d="M143.07,221.46a7.619,7.619,0,0,1,2.51.279c-.334.105-1.255.28-1.6.38-.315.092-.661.089-.952.2A3.212,3.212,0,0,1,143.07,221.46Z" transform="translate(-64.337 -195.853)"/><path class="p" d="M142.9,228.42a5.792,5.792,0,0,1,2.459-.763c-.7.475-1.577,1.181-2.246,1.621A1.662,1.662,0,0,1,142.9,228.42Z" transform="translate(-64.321 -196.78)"/><path class="p" d="M151.218,232.28c-.021.314.132,1.059.15,1.37.249-.054.5-.12.74-.2C151.912,233.16,151.372,232.447,151.218,232.28Z" transform="translate(-65.565 -197.471)"/><path class="p" d="M156.511,230.4c-.348-.163-.955-.614-1.218-.6a5.566,5.566,0,0,0,.687,1.206Q156.256,230.72,156.511,230.4Z" transform="translate(-66.174 -197.101)"/><path class="p" d="M157.8,217.235c.191-.13.663-.473.866-.612a2.768,2.768,0,0,0-.269-.389A4.038,4.038,0,0,0,157.8,217.235Z" transform="translate(-66.55 -195.072)"/><g transform="translate(0.001 5.345)"><path class="w" d="M129.927,224.106a7.761,7.761,0,0,1-.356-4.008,12.451,12.451,0,0,1-2.335.156c-2.086-.38-4.169-.7-6.263-1.029-4.452-.7-8.163-3.429-12.447-4.746a84.364,84.364,0,0,0-13.288-2.613c-4.56-.633-9.077-1.629-13.65-2.139-4.083-.455-8.217-.653-12.256-1.445A31.934,31.934,0,0,1,51.2,197.635a11.55,11.55,0,0,0-.664,3.155l0,.071c-.026.392-.034.784-.026,1.174l0,.083a13.573,13.573,0,0,0,.3,2.5,5.388,5.388,0,0,0,.762,1.825l.026.039c.054.08.109.157.166.233l.051.065q.077.1.158.191l.065.073c.053.059.107.116.162.171l.071.07c.06.058.121.112.183.166l.061.054a4.423,4.423,0,0,0,1.294.755c10.542,3.911,21.675,6.356,33.5,9.064,6.339,1.452,12.861,2.7,19.5,4.125l.371.079c.884.19,1.771.388,2.658.586.246.054.491.107.737.163q1.667.376,3.343.776,1.374.329,2.746.681c2.746.7,5.494,1.447,8.3,2.116.194.046.4.1.6.154,2.537.694,5.145,1.918,8.087,2.5C131.679,227.963,130.61,225.859,129.927,224.106Z" transform="translate(-50.503 -197.635)"/><path class="t" d="M148.28,233.932c.09.024.184.044.28.062C148.465,233.976,148.37,233.956,148.28,233.932Z" transform="translate(-65.127 -203.064)"/><path class="t" d="M149.187,234.076l.023,0Z" transform="translate(-65.262 -203.085)"/><path class="t" d="M148.785,234.032l.122.017C148.866,234.044,148.825,234.039,148.785,234.032Z" transform="translate(-65.202 -203.079)"/></g></g></g><path class="j" d="M76.39,271.923c4.157,3.3-5.05,10.88-34.2,10.88-18.886,0-34.2-7.611-34.2-10.88s15.31-5.917,34.2-5.917S73.828,269.893,76.39,271.923Z" transform="translate(0 -16.399)"/><g transform="translate(15.767 236.054)"><path class="x" d="M73.443,276.405l-24.651-8.067V259.48l23.44,1.853S76.058,270.042,73.443,276.405Z" transform="translate(-21.869 -251.477)"/><path class="y" d="M58.169,271.759c.179-.963.617-1.855.8-2.823a9.861,9.861,0,0,1,.68-1.936,9.732,9.732,0,0,1,.506-1.441c.212-.339.57-.338.279-.715-.577-.748-1.723-.655-2.421-.593-1.3.116-1.372,3.026-1.513,3.933-.15.959-.23,1.936-.441,2.885Z" transform="translate(-22.956 -252.184)"/><path class="y" d="M66.252,274.388c.165-.556.308-1.122.469-1.652a9.7,9.7,0,0,1,1.055-2.846c.643-.88,1.3-1.728,1.943-2.6a4.067,4.067,0,0,0-3-.544c-1.657.661-1.638,2.425-2,3.922a19.029,19.029,0,0,1-.968,2.906Z" transform="translate(-24.107 -252.545)"/><path class="z" d="M17.206,263.439a40.225,40.225,0,0,0,.234,6.752,5.563,5.563,0,0,0,2.908,4.252c1.932.855,3.112,1.612,5.3,2.658,4.227,2.024,8.793,2.573,13.485,2.837a103.6,103.6,0,0,0,17.858-.042v-7.513L43.78,263.5c-1.357-.111-2.7-.2-4.029-.263C32.28,262.9,24.274,261.626,17.206,263.439Z" transform="translate(-17.134 -251.927)"/><path class="z" d="M77.931,263.986c-9.169,2.032-17.65-1.028-27.317-1.819l23.053,6.912v.048h.048v7.68c.986-.434,1.926-.947,2.893-1.451a2.05,2.05,0,0,0,1.055-1.555C78.068,270.819,78.507,266.593,77.931,263.986Z" transform="translate(-22.141 -251.879)"/><path class="aa" d="M17.206,263.439a40.225,40.225,0,0,0,.234,6.752,5.563,5.563,0,0,0,2.908,4.252c1.932.855,3.112,1.612,5.3,2.658,4.227,2.024,8.793,2.573,13.485,2.837a103.6,103.6,0,0,0,17.858-.042v-7.485l-12.446-7.353c-2.345-.225-2.524-1.724-4.791-1.825C32.28,262.9,24.274,261.626,17.206,263.439Z" transform="translate(-17.134 -251.927)"/><path class="aa" d="M79.149,263.884c-7.712,1.709-12.127-1.574-20.391-2.4l16.127,7.494v.048h.048v7.68c.986-.434,1.926-.947,2.893-1.451a2.05,2.05,0,0,0,1.055-1.555C79.286,270.716,79.725,266.49,79.149,263.884Z" transform="translate(-23.359 -251.776)"/><path class="aa" d="M26.133,274.125a43.964,43.964,0,0,1,.571-7.174c.235-1.431.225-2.992.5-4.447a37.265,37.265,0,0,0-10,.935,40.225,40.225,0,0,0,.234,6.752,5.563,5.563,0,0,0,2.908,4.252c1.932.855,3.112,1.612,5.3,2.658q.385.185.776.354A19.854,19.854,0,0,1,26.133,274.125Z" transform="translate(-17.134 -251.927)"/><path class="aa" d="M50.966,263.917c-2.106-.2-4.19-.385-6.235-.5.9,4.165,2.67,8.305,2.638,12.592a24.726,24.726,0,0,1-.426,4.259c2.721.129,5.377.21,7.994.163C53.745,274.916,52.4,269.393,50.966,263.917Z" transform="translate(-21.261 -252.066)"/><path class="ab" d="M79.79,277.762l.881-.46a1.893,1.893,0,0,0,.3-.207c.054-.046.111-.1.168-.15a2.1,2.1,0,0,0,.591-1.2c.02-.145.039-.293.059-.443-.645-.689-2.881,1.546-3.5,1.846a3.768,3.768,0,0,1-.509.2v1.4c.494-.217.976-.455,1.457-.7C79.42,277.956,79.606,277.858,79.79,277.762Z" transform="translate(-26.204 -253.824)"/><path class="ab" d="M57.036,278.788a12.036,12.036,0,0,0-2.535.316,8.132,8.132,0,0,1-3.572.519,12.181,12.181,0,0,0-2.729-.657c-1.561.035-3.095.536-4.651.675a21.965,21.965,0,0,1-8.209-1.332,13.208,13.208,0,0,1-3.974-1.867c-1.1-.753-1.754-.129-3-.189a7.543,7.543,0,0,1-5.133-3.005,2.038,2.038,0,0,0-2.056-.966,4.811,4.811,0,0,1-3.723-1.647c0,.281.019.56.043.841a5.526,5.526,0,0,0,2.9,4.185c1.933.856,3.112,1.612,5.3,2.658,4.227,2.024,8.793,2.573,13.485,2.837,6.238.35,12.108.64,17.858-.036Z" transform="translate(-17.181 -253.145)"/><path class="l" d="M73.215,262.475c-.4-4.743-4.631-7.346-8.564-8.984-.917-.382-1.844-.741-2.782-1.068a34.313,34.313,0,0,0-6.837-1.678c-3.49-.456-7.017-.463-10.528-.62A43.852,43.852,0,0,0,32.978,251c-3.883.879-7.409,1.523-10.751,3.848-2.03,1.413-6.283,4.674-4.648,7.567a19.991,19.991,0,0,0,3.371,3.779,11.778,11.778,0,0,0,4.495,2.4,42.918,42.918,0,0,0,12.263,2.523c6.4.34,12.881.891,19.267.1v-.667c-3.4-2.505-11.625-10.391-11.625-10.391,1.818.749,23.447,7.185,23.447,7.185C70.773,265.829,73.459,265.345,73.215,262.475Z" transform="translate(-17.146 -250.069)"/><path class="ac" d="M57.018,272.552c-6.426.771-12.95.225-19.382-.114a43.859,43.859,0,0,1-12.411-2.524,11.942,11.942,0,0,1-4.549-2.4,21.058,21.058,0,0,1-3.34-3.665,2.853,2.853,0,0,0,.262.631,19.99,19.99,0,0,0,3.371,3.779,11.778,11.778,0,0,0,4.495,2.4,42.917,42.917,0,0,0,12.263,2.523c6.4.341,12.9.893,19.291.1Z" transform="translate(-17.164 -252.13)"/><path class="ac" d="M78.938,268.976a10.7,10.7,0,0,1-1.189.769v.581a9.863,9.863,0,0,0,.894-.6c1.556-1.2,3.057-1.709,3.507-3.273C81.49,267.471,80.232,267.992,78.938,268.976Z" transform="translate(-26.199 -252.519)"/><path class="m" d="M67.472,262a10.353,10.353,0,0,0-2.8-3.616,13.544,13.544,0,0,0-2.994-2.27c-.007-.017.822.2.815.187a21.089,21.089,0,0,0-2.095-.448,23.877,23.877,0,0,0-4.113-1.033,28.127,28.127,0,0,0-4.454-.814,34.317,34.317,0,0,0-6.977-.738,50.086,50.086,0,0,0-9.94.769c-2.232.441-5.263,1.51-5.494,2.549-.11.492.482.918.364,1.412-.129.538-.758.977-1.432,1.432-1.754,1.183-1.724,2.328-.126,3.543.805.612,2.067,1.082,2.752,1.718a15.065,15.065,0,0,0,1.943,1.613c1.46.976,4.427,1.5,7.039,1.86a58.075,58.075,0,0,0,13.7.4c.408-.048,1.287-.047,1.653-.116-1.33-1.089-2.618-2.357-3.912-3.442-1.229-1.031-3.887-2.161-4.57-3.653a.586.586,0,0,1,.8-.8,30.1,30.1,0,0,0,3.2,1.309c4.168,1.323,13.194,4.04,13.194,4.04C66.981,264.943,68.224,263.494,67.472,262Z" transform="translate(-18.614 -250.547)"/><path class="l" d="M47.685,261.711a.586.586,0,0,1,.8-.8c.925.5,13.128,4.347,13.128,4.347,2.408-.725,3.882-1.512,3.888-2.662,0-.834-1.073-1.662-2.036-2.408a10.456,10.456,0,0,0-3.216-1.831,16.048,16.048,0,0,0-2.865-1c-5.827-1.218-14.613-2.828-20.651-.695-1.112.393-1.419,1.021-2.123,1.51a4.575,4.575,0,0,0-1.581,1.475,2.351,2.351,0,0,0,.365,2.654,11.229,11.229,0,0,0,2.139,2.821c1.2.947,5,1.407,7.4,1.79a45.011,45.011,0,0,0,11.2.107c-.728-.6-1.449-1.388-2.065-1.9C50.837,264.089,48.369,263.2,47.685,261.711Z" transform="translate(-19.471 -250.901)"/><path class="m" d="M49.094,261a16.219,16.219,0,0,0,3.054,1.339l5.68,1.744a7.955,7.955,0,0,0,1.514-.6c.895-.418,2.285-.872,2.6-1.4a1.781,1.781,0,0,0-.57-2.556c-.637-.31-1.555-.53-2.3-.8-.628-.23-.532-.569-1.283-.748a73.245,73.245,0,0,0-7.992-1.2,37.589,37.589,0,0,0-7.649-.521,8.927,8.927,0,0,0-4.742,1.9c-.606.468-.624.788-.421,1.291a4.276,4.276,0,0,1,.152,1.658c0,.788-.276,1.612,1.168,2.258a17.225,17.225,0,0,0,2.673.942,32.947,32.947,0,0,0,7.406,1.137c1.109.02,3.489.11,4.572.005-1.219-1.015-3.582-3.409-4.4-4.168C48.143,260.886,48.552,260.7,49.094,261Z" transform="translate(-20.085 -250.985)"/><path class="l" d="M49.494,261.846c-.236-.515-.274-.772.269-.476a19.3,19.3,0,0,0,5.319,2.015,6.843,6.843,0,0,0,2.873-1.256c.813-.613-.464-.68-.213-1.27.3-.715-2.63-1.475-4.142-1.705a38.182,38.182,0,0,0-7.894-.428c-2.3.179-4.094,1.436-4.325,2.229-.256.875.764,1.539,2.6,2.073a19.065,19.065,0,0,0,3.946,1.022,33.819,33.819,0,0,0,3.761.066C51.077,263.553,49.494,261.846,49.494,261.846Z" transform="translate(-20.754 -251.355)"/><path class="ad" d="M52.935,256.485c.5-.714.928-1.447,1.345-2.169.191-.331.68-.657.758-.988.043-.184-.129-.863,1.078-.77.009.158-.318.31-.412.469s-.078.344-.247.515c-.341.344-.3.71-.693,1.052a7.423,7.423,0,0,0-.992.943,4.587,4.587,0,0,0-.247.474C53.421,256.175,52.948,256.313,52.935,256.485Z" transform="translate(-22.488 -250.44)"/><path class="ad" d="M37.6,262.167c-3.833.366-7.719.827-11.618,1.092-.632.043-1.3.068-1.908.139-.493.058-1.121.22-.265.27a12.02,12.02,0,0,0,1.857-.2c.591-.07,1.181-.131,1.787-.185,1.832-.162,3.645-.282,5.441-.469.843-.088,1.688-.2,2.521-.309A14.081,14.081,0,0,0,37.6,262.167Z" transform="translate(-18.069 -251.879)"/><path class="ad" d="M48.5,264.575c-1.155.413-1.3,1.277-1.948,1.8-.7.566-1.553,1.138-2.335,1.7a16.628,16.628,0,0,0-1.954,1.573c-.286.283-1.2,1-.845,1.265a4.833,4.833,0,0,0,2.65-1.44,7.768,7.768,0,0,0,1.559-1.443c.313-.531.841-1.068,1.2-1.583A10.332,10.332,0,0,1,48.5,264.575Z" transform="translate(-20.754 -252.239)"/><path class="ad" d="M60.615,260.941c2.573-.489,5.308-.951,8.115-1.27.979-.111,5.615-.818,6.3-.45-2.3.519-5.58.9-8.214,1.194A44.729,44.729,0,0,1,60.615,260.941Z" transform="translate(-23.637 -251.422)"/><path class="ad" d="M38.552,259.009a18.321,18.321,0,0,1-5.814-1.151c-.486-.164-5.61-1.655-5.337-.91a34.908,34.908,0,0,1,5.642,1.25c.865.233,1.72.492,2.61.7A8.956,8.956,0,0,0,38.552,259.009Z" transform="translate(-18.668 -251.067)"/><ellipse class="m" cx="3.995" cy="1.354" rx="3.995" ry="1.354" transform="translate(24.793 8.678)"/><ellipse class="l" cx="1.659" cy="0.562" rx="1.659" ry="0.562" transform="translate(27.129 9.47)"/><path class="y" d="M73.982,272.227a3.992,3.992,0,0,0-1.857.435,11.136,11.136,0,0,0-3.966,2.972l2.084.681c.565-.546,1.883-1.407,2.565-.9.334.247.166,1.325.313,1.846l1.566.512c0-.058,0-.117,0-.175.056-.941.545-1.787.67-2.715.122-.9-.517-1.559-.481-2.352A5.263,5.263,0,0,0,73.982,272.227Z" transform="translate(-24.765 -253.382)"/></g><g transform="translate(130.497 253.762)"><path class="ae" d="M164.2,276.141a6.093,6.093,0,0,1-5.112,3.941s-.063.877,4.821.814c3.026-.038,4.441-2.72,5.081-4.755Z" transform="translate(-153.093 -271.676)"/><path class="af" d="M164.388,277.2a6.708,6.708,0,0,1-.955,1.256,6.27,6.27,0,0,0,1.776.925,8.5,8.5,0,0,0,2.493.353,7.536,7.536,0,0,0,1.611-2.534Z" transform="translate(-153.744 -271.834)"/><path class="ag" d="M156.367,275.911c-1.428.569-2.865,1.117-4.327,1.589,1.4,1.926,4.405,4.07,10.812,3.362C162.852,280.861,157.235,280.512,156.367,275.911Z" transform="translate(-152.04 -271.642)"/><path class="af" d="M159.58,280.238a5.153,5.153,0,0,1-1.539.494,7.308,7.308,0,0,1-1.751.117,15.192,15.192,0,0,0,7.2.66A9.375,9.375,0,0,1,159.58,280.238Z" transform="translate(-152.676 -272.289)"/><path class="ah" d="M168.838,275.539h.719l-.023-.25s1.288-3.176-.967-4.4c0,0-3.308.243-4.45.237a.812.812,0,0,0-.543.2c-.624.547-1.913,2.15.2,4.865a27.834,27.834,0,0,0,5.063.85Z" transform="translate(-153.621 -270.891)"/><path class="ai" d="M171.044,276.137a6.833,6.833,0,0,0,.659-1.993l-4.318-.4s.147,3.236-1.57,3.246l3.881.525A3.544,3.544,0,0,0,171.044,276.137Z" transform="translate(-154.1 -271.318)"/><path class="af" d="M168.931,276.534a2.737,2.737,0,0,1,.03-1.625,3.713,3.713,0,0,1,.447-.978l-2.022-.187s.147,3.236-1.57,3.246l3.881.525A1.61,1.61,0,0,1,168.931,276.534Z" transform="translate(-154.1 -271.318)"/><path class="aj" d="M168.5,270.891a3.385,3.385,0,0,0-1.191,3.522c.5,2.379,1,2.489,1.842,2.646,0,0-4.66-.11-5.661-.7,0,0-2.822-2.134-.17-5.155a.807.807,0,0,1,.6-.271Z" transform="translate(-153.558 -270.891)"/><g class="ak" transform="translate(8.767 3.084)"><path class="af" d="M167.4,275.649a15.452,15.452,0,0,1-4.435-.651,2.375,2.375,0,0,1-.613-.48,3.67,3.67,0,0,0,1.21,2.255,21.248,21.248,0,0,0,4.674.578C167.911,277.128,167.65,276.681,167.4,275.649Z" transform="translate(-162.349 -274.517)"/></g></g><g transform="translate(168.264 256.583)"><path class="al" d="M202.97,279.472a6.9,6.9,0,0,0,7.081.1s-.68,1.649-4.211,3.806c-2.7,1.72-5.294.3-6.86-.992Z" transform="translate(-196.828 -274.995)"/><path class="af" d="M203.995,280.032a6.584,6.584,0,0,0,1.563.475,7.413,7.413,0,0,1-1.1,1.906,9.491,9.491,0,0,1-1.977,1.764,6.959,6.959,0,0,1-2.652-1.167Z" transform="translate(-196.954 -275.079)"/><path class="am" d="M199.29,281.4l-.572.415-.111-.215s-2.608-1.807-1.512-4.157c0,0,2.8-1.946,3.773-2.729a.871.871,0,0,1,.583-.2c.855.036,2.928.529,2.506,4.333a31.691,31.691,0,0,1-3.882,3.789Z" transform="translate(-196.505 -274.253)"/><path class="an" d="M197.961,283.207a6.07,6.07,0,0,1-1.512-1.222l3.189-2.905s1.594,2.787,3.073,1.75l-2.98,2.735A3.161,3.161,0,0,1,197.961,283.207Z" transform="translate(-196.449 -274.937)"/><path class="af" d="M200.133,282.322a2.592,2.592,0,0,0-.871-1.316,3.263,3.263,0,0,0-.864-.532l1.532-1.395s1.594,2.787,3.073,1.75l-2.98,2.735A1.681,1.681,0,0,0,200.133,282.322Z" transform="translate(-196.741 -274.937)"/><path class="ao" d="M197.142,277.4a2.935,2.935,0,0,1,2.793,2.158c.84,2.27.489,2.648-.116,3.259,0,0,3.894-2.868,4.47-4.02,0,0,1.43-3.8-2.7-4.572a.849.849,0,0,0-.673.186Z" transform="translate(-196.553 -274.208)"/><g class="ak" transform="translate(3.699 1.729)"><path class="af" d="M200.8,280.469a18.161,18.161,0,0,0,3.487-3.39,3,3,0,0,0,.292-.839,4.015,4.015,0,0,1,.151,2.774A23.939,23.939,0,0,1,201,282.37,2.824,2.824,0,0,0,200.8,280.469Z" transform="translate(-200.798 -276.241)"/></g></g><g transform="translate(75.097 253.47)"><path class="ap" d="M92.514,280.818s4.223.409,5.612-2.249.77-2.868.77-2.868l4.832.95s1.021,5.475-5.814,5.91a11.41,11.41,0,0,1-2.178,0A25.186,25.186,0,0,1,92.514,280.818Z" transform="translate(-87.738 -271.319)"/><path class="aq" d="M98.732,279.817c-.03-.033.418.109.532.128.273.043.549.077.819.132a10.348,10.348,0,0,1,2.711,1.142,4.932,4.932,0,0,0,1.787-4.567l-4.832-.95s.62.21-.77,2.868a3.414,3.414,0,0,1-.765.975C98.383,279.64,98.555,279.733,98.732,279.817Z" transform="translate(-88.59 -271.319)"/><path class="ar" d="M91.746,274.627l2.834,3.067s3.73-.038,3.619-2.8c0,0-2.434-1.947-3.261-2.044C94.938,272.851,92.635,271.79,91.746,274.627Z" transform="translate(-87.623 -270.863)"/><path class="as" d="M94.9,281.791s-4.433-1.627-2.727-5.857c.691-1.715,3.546-2.849,5.272-1.43l-5-3.9a4.7,4.7,0,0,0-5.265,3.156c-1.25,3.424,2.167,5.621,2.167,5.621Z" transform="translate(-86.898 -270.548)"/><path class="at" d="M91.854,276.6a7.45,7.45,0,0,1-4.212-2.749c-.073.158-.144.323-.208.5-1.129,3.155,1.952,5.369,1.952,5.369l3.71,1.6C92.254,280.914,91.064,278.619,91.854,276.6Z" transform="translate(-86.941 -271.042)"/><path class="af" d="M91.8,278.25c-1.939.037-4.035-.49-4.889-2.285l0-.009c-.071,2.619,2.438,4.236,2.438,4.236l5.267,2.282C93.8,282.09,91.582,280.8,91.8,278.25Z" transform="translate(-86.898 -271.357)"/><path class="au" d="M106.08,282.419a3.421,3.421,0,0,1-2.734.538,3.89,3.89,0,0,0,3.62,1.218A3.288,3.288,0,0,0,106.08,282.419Z" transform="translate(-89.358 -272.323)"/><path class="av" d="M104.718,276.628a19.01,19.01,0,0,0-4.839-1.086s-2.3,2.835,1.205,6.09A25.238,25.238,0,0,0,104.4,283S100.346,278.385,104.718,276.628Z" transform="translate(-88.728 -271.295)"/><path class="af" d="M99.772,280.634a6.877,6.877,0,0,0,1.407,1.76,25.241,25.241,0,0,0,3.313,1.368,8.858,8.858,0,0,1-1.356-2.2A5.137,5.137,0,0,1,99.772,280.634Z" transform="translate(-88.823 -272.056)"/></g><g transform="translate(156.817 250.561)"><path class="aw" d="M190.861,272.709s1.409-1.44.84-2.744-.831-1.139-.831-1.139l1.79-1.5s2.329,1.254.453,3.909a5.415,5.415,0,0,1-.648.805A12.026,12.026,0,0,1,190.861,272.709Z" transform="translate(-184.166 -267.156)"/><path class="ax" d="M192.091,270.427c-.021,0,.165-.122.2-.159.1-.088.193-.179.293-.263a4.906,4.906,0,0,1,1.23-.662,2.342,2.342,0,0,0-1.157-2.021l-1.79,1.5s.263-.167.831,1.139a1.627,1.627,0,0,1,.132.573C191.921,270.5,192.006,270.467,192.091,270.427Z" transform="translate(-184.167 -267.156)"/><path class="ay" d="M185.992,270.663l3.017-.2s1.673-2.12.066-3.312a9.875,9.875,0,0,0-2.635.91A1.651,1.651,0,0,0,185.992,270.663Z" transform="translate(-183.372 -267.13)"/><path class="az" d="M191.285,272.025a3.067,3.067,0,0,1-4.24-1.276,2.632,2.632,0,0,1,1.589-3.622l-4.471,1.05a3.4,3.4,0,0,0-.612,4.4c1.362,2.26,4.154,1.332,4.154,1.332l3.584-1.883Z" transform="translate(-182.988 -267.127)"/><path class="at" d="M187.071,271.715a5.393,5.393,0,0,1-3.463,1.127c.055.113.117.228.188.345,1.267,2.069,3.915,1.338,3.915,1.338l2.587-1.364A3.092,3.092,0,0,1,187.071,271.715Z" transform="translate(-183.081 -267.813)"/><path class="af" d="M187.94,272.44c-.861,1.11-2.11,2.053-3.511,1.719l-.006,0a3.949,3.949,0,0,0,3.5.549l3.679-1.933A3.22,3.22,0,0,1,187.94,272.44Z" transform="translate(-183.203 -267.922)"/><path class="ba" d="M192.653,267.322a9.03,9.03,0,0,0-1.842,1.465s.362,1.7,2.61,1.368a11.955,11.955,0,0,0,1.493-.817S192,269.462,192.653,267.322Z" transform="translate(-184.158 -267.156)"/><path class="af" d="M192.622,270.48a3.262,3.262,0,0,0,1.07,0,11.955,11.955,0,0,0,1.493-.817,4.187,4.187,0,0,1-1.218-.154A2.436,2.436,0,0,1,192.622,270.48Z" transform="translate(-184.429 -267.484)"/></g><g transform="translate(95.273 257.903)"><path class="bb" d="M127.111,276.733s-1.626-2.164-5.019-.011c0,0,2.857-.49,3.633,1.471Z" transform="translate(-112.337 -275.762)"/><path class="bc" d="M122.221,281.179l-3.158,1.312a5.483,5.483,0,0,1,3.966-6.5l.008,0a3.833,3.833,0,0,1,1.672-.208l.169.018S121.746,278.64,122.221,281.179Z" transform="translate(-111.866 -275.76)"/><path class="af" d="M120.285,280.44c-.252,0-.5,0-.753.012-.114.028-.407.139-.668.236a5.431,5.431,0,0,0,.176,2.5l3.158-1.312a3.756,3.756,0,0,1,.018-1.41C121.572,280.454,120.928,280.44,120.285,280.44Z" transform="translate(-111.843 -276.46)"/><path class="bd" d="M110.621,279.763s1.679-2.877,3.216-3.388c0,0,3.989-.417,7.139,4.9l-.009.015a2.772,2.772,0,0,1-2.63,1.344l-.519-.047A11.253,11.253,0,0,0,110.621,279.763Z" transform="translate(-110.621 -275.851)"/><path class="af" d="M117.143,281.783a10.36,10.36,0,0,1,1.716,1.223l.253.02a2.919,2.919,0,0,0,2.606-1.2l.009-.014a12.209,12.209,0,0,0-1.14-1.621A5.148,5.148,0,0,0,117.143,281.783Z" transform="translate(-111.596 -276.423)"/></g></g></g></svg>