<svg xmlns="http://www.w3.org/2000/svg" width="29.127" height="29" viewBox="0 0 29.127 29"><defs><style>.a{fill:#2581eb;}</style></defs><path class="a" d="M17.041.441A12.079,12.079,0,0,0,6.668,18.719L.84,24.547A2.867,2.867,0,0,0,4.895,28.6l5.8-5.8A12.083,12.083,0,1,0,17.041.441Zm0,20.329a8.243,8.243,0,1,1,8.243-8.243A8.253,8.253,0,0,1,17.041,20.77Zm-4.715-9.785a1.073,1.073,0,0,1-.759-1.832l2.814-2.814A1.073,1.073,0,0,1,15.9,7.856L13.085,10.67A1.07,1.07,0,0,1,12.327,10.984Zm.906,5.263a1.073,1.073,0,0,1-.759-1.832l7.171-7.171a1.073,1.073,0,0,1,1.518,1.518l-7.171,7.171A1.07,1.07,0,0,1,13.233,16.248Z" transform="translate(0 -0.441)"/></svg>