<svg xmlns="http://www.w3.org/2000/svg" xmlns:xlink="http://www.w3.org/1999/xlink" width="218" height="200" viewBox="0 0 218 200"><defs><style>.a{fill:#fcfcfc;stroke:#e8e8e8;}.b{clip-path:url(#a);}.c{fill:#b8b8b8;}.d{fill:#618528;}.e{fill:#91ad5b;}.f{fill:#707070;}.g{fill:#4d4d4d;}.h{fill:#d3d3d3;}.i{fill:#b7b7b7;}.j{fill:#e2e2e2;}.k{fill:#919191;}.l{fill:#65892c;}.m{fill:#aaa;}.n{opacity:0.2;}</style><clipPath id="a"><rect class="a" width="218" height="200" transform="translate(12 300)"/></clipPath></defs><g class="b" transform="translate(-12 -300)"><path class="c" d="M-25.348,190.884,179.425,72.62l133.4,77.041L108.053,267.9Z" transform="translate(51.497 309.407)"/><g transform="translate(212.562 361.883)"><path class="d" d="M-71.812,132.312,9.954,85.074V18.5L-71.812,62.877Z" transform="translate(35.403 21.702)"/><path class="e" d="M-36.409,62.85-79.079,28.145l-39.05-9.609V85.074l10.919,6.3,3.892-2.707,49.9,28.856v4.959l17.01,9.808Z" transform="translate(0 21.729)"/><path class="f" d="M-118.128,37.329-79.8,47.8,1.939.576-36.409-9.891Z" transform="translate(0 0)"/><path class="g" d="M-96.407,43.262l81.743-47.22,43.418,36.8-81.766,47.2Z" transform="translate(16.603 4.535)"/><path class="h" d="M-109.734,78.229l49.9,28.856V61l-49.9-28.816Z" transform="translate(6.416 32.163)"/><g transform="translate(4.474 61.733)"><path class="i" d="M-31.677,30.7l-16.964,9.8v8.365l16.964-9.8Z" transform="translate(48.641 -30.704)"/><path class="j" d="M-31.677,36.619l-3.058-1.327-13.905,8.048v3.117Z" transform="translate(48.641 -27.196)"/><path class="k" d="M-37.7,40.127-40.759,38.8V32.475L-37.7,30.7Z" transform="translate(54.665 -30.704)"/></g><g transform="translate(24.716 50.025)"><path class="i" d="M-20.2,24.067l-16.964,9.8v8.365l16.964-9.8Z" transform="translate(37.168 -24.067)"/><path class="j" d="M-20.2,29.983l-3.058-1.327L-37.168,36.7v3.117Z" transform="translate(37.168 -20.56)"/><path class="k" d="M-26.229,33.49l-3.058-1.327V25.839l3.058-1.772Z" transform="translate(43.192 -24.067)"/></g><path class="l" d="M-107.66,33.369l-4.28-2.474V81.922l4.28-2.466Z" transform="translate(4.73 31.176)"/><path class="h" d="M-118.128,16.872v3.046l38.266,11.165L-36.409,67.13V64.122L-79.8,27.339Z" transform="translate(0 20.457)"/><path class="m" d="M-71.812,64.1V67.11L9.954,19.876V16.9Z" transform="translate(35.403 20.477)"/><path class="m" d="M-71.812,105.6V100.67L9.954,53.451v4.907Z" transform="translate(35.403 48.417)"/><path class="h" d="M-64.443,84.476V89.4L-81.453,79.6V74.636Z" transform="translate(28.034 64.611)"/><path class="h" d="M-107.21,64.686V59.754l-10.919-6.309v4.946Z" transform="translate(0 48.412)"/><path class="m" d="M-107.66,55.624l-4.28,2.464V63.02l4.28-2.466Z" transform="translate(4.73 50.078)"/><g transform="translate(-102.93 67.177)"><path class="m" d="M-109.514,33.789v.858L-60,63.259v-.869Z" transform="translate(109.514 -33.789)"/></g><g transform="translate(-102.93 70.309)"><path class="m" d="M-109.514,35.564v.858L-60,65.035v-.869Z" transform="translate(109.514 -35.564)"/></g><g transform="translate(-102.93 73.616)"><path class="m" d="M-109.514,37.438V38.3L-60,66.909V66.04Z" transform="translate(109.514 -37.438)"/></g><g transform="translate(-102.93 76.748)"><path class="m" d="M-109.514,39.213v.858L-60,68.684v-.869Z" transform="translate(109.514 -39.213)"/></g><g transform="translate(-102.93 79.969)"><path class="m" d="M-109.514,41.039V41.9L-60,70.51v-.869Z" transform="translate(109.514 -41.039)"/></g><g transform="translate(-102.93 83.101)"><path class="m" d="M-109.514,42.814v.858L-60,72.285v-.869Z" transform="translate(109.514 -42.814)"/></g><g transform="translate(-102.93 86.408)"><path class="m" d="M-109.514,44.688v.858L-60,74.159V73.29Z" transform="translate(109.514 -44.688)"/></g><g transform="translate(-102.93 89.54)"><path class="m" d="M-109.514,46.464v.858L-60,75.934v-.869Z" transform="translate(109.514 -46.464)"/></g><g transform="translate(-102.93 92.614)"><path class="m" d="M-109.514,48.206v.858L-60,77.676v-.869Z" transform="translate(109.514 -48.206)"/></g><g transform="translate(-102.93 95.746)"><path class="m" d="M-109.514,49.981v.858L-60,79.451v-.869Z" transform="translate(109.514 -49.981)"/></g><g transform="translate(-102.93 99.053)"><path class="m" d="M-109.514,51.855v.858L-60,81.325v-.869Z" transform="translate(109.514 -51.855)"/></g><g transform="translate(-102.93 102.185)"><path class="m" d="M-109.514,53.63v.858L-60,83.1v-.869Z" transform="translate(109.514 -53.63)"/></g><g transform="translate(-102.93 105.317)"><path class="m" d="M-109.514,55.406v.858L-60,84.876v-.869Z" transform="translate(109.514 -55.406)"/></g><g transform="translate(-102.93 108.469)"><path class="m" d="M-109.514,57.192v.858L-60,86.662v-.869Z" transform="translate(109.514 -57.192)"/></g><g class="n" transform="translate(-115.497 -7.953)"><path class="m" d="M-78.313,26.759l-38.324-10.468,1.119-.646,38.309,10.477Z" transform="translate(116.637 27.473)"/><path class="m" d="M-76.083,25.469-114.407,15l1.118-.646,38.309,10.477Z" transform="translate(118.342 26.487)"/><path class="m" d="M-73.853,24.18l-38.324-10.468,1.118-.646,38.309,10.476Z" transform="translate(120.046 25.501)"/><path class="m" d="M-71.635,22.9-109.96,12.432l1.119-.646,38.309,10.477Z" transform="translate(121.741 24.523)"/><path class="m" d="M-69.406,21.613-107.73,11.145l1.118-.646L-68.3,20.975Z" transform="translate(123.446 23.539)"/><path class="m" d="M-67.18,20.326-105.5,9.858l1.119-.646,38.309,10.477Z" transform="translate(125.146 22.555)"/><path class="m" d="M-64.953,19.041-103.277,8.574l1.119-.646L-63.849,18.4Z" transform="translate(126.849 21.573)"/><path class="m" d="M-62.728,17.754-101.052,7.286l1.118-.646,38.309,10.477Z" transform="translate(128.55 20.589)"/><path class="m" d="M-60.5,16.467-98.825,6l1.119-.646L-59.4,15.829Z" transform="translate(130.252 19.606)"/><path class="m" d="M-58.276,15.182-96.6,4.715l1.119-.646,38.309,10.477Z" transform="translate(131.953 18.624)"/><path class="m" d="M-56.051,13.9-94.375,3.427l1.118-.646,38.309,10.477Z" transform="translate(133.654 17.64)"/><path class="m" d="M-53.821,12.611-92.145,2.143l1.119-.646,38.309,10.476Z" transform="translate(135.358 16.658)"/><path class="m" d="M-51.6,11.324-89.92.856-88.8.209l38.309,10.477Z" transform="translate(137.059 15.674)"/><path class="m" d="M-49.366,10.036-87.69-.431l1.119-.646L-48.262,9.4Z" transform="translate(138.764 14.69)"/><path class="m" d="M-47.143,8.752-85.468-1.716l1.119-.646L-46.04,8.114Z" transform="translate(140.462 13.708)"/><path class="m" d="M-44.916,7.467-83.24-3l1.119-.646L-43.812,6.83Z" transform="translate(142.165 12.726)"/><path class="m" d="M-42.691,6.18-81.015-4.288l1.119-.646L-41.587,5.543Z" transform="translate(143.866 11.743)"/><path class="m" d="M-40.463,4.893-78.788-5.575l1.118-.646L-39.36,4.255Z" transform="translate(145.568 10.759)"/><path class="m" d="M-38.241,3.608-76.565-6.859l1.119-.646L-37.137,2.971Z" transform="translate(147.267 9.777)"/><path class="m" d="M-36.014,2.321-74.338-8.147l1.118-.646L-34.91,1.684Z" transform="translate(148.97 8.793)"/></g><g class="n" transform="translate(-77.173 2.523)"><path class="f" d="M-94.916,22.219-51.521,59l1.1-.634L-93.812,21.581Z" transform="translate(94.916 21.534)"/><path class="f" d="M-92.689,20.933l43.395,36.783,1.1-.634L-91.585,20.3Z" transform="translate(96.618 20.551)"/><path class="f" d="M-90.463,19.647l43.4,36.783,1.1-.634L-89.359,19.01Z" transform="translate(98.32 19.568)"/><path class="f" d="M-88.236,18.361l43.395,36.783,1.1-.634L-87.132,17.724Z" transform="translate(100.021 18.585)"/><path class="f" d="M-86.009,17.076l43.395,36.782,1.1-.634L-84.906,16.438Z" transform="translate(101.723 17.602)"/><path class="f" d="M-83.783,15.79l43.395,36.783,1.1-.634L-82.679,15.152Z" transform="translate(103.425 16.619)"/><path class="f" d="M-81.556,14.5l43.395,36.783,1.1-.634L-80.453,13.866Z" transform="translate(105.127 15.636)"/><path class="f" d="M-79.33,13.218-35.935,50l1.1-.634L-78.226,12.58Z" transform="translate(106.829 14.654)"/><path class="f" d="M-77.1,11.932l43.395,36.782,1.1-.634L-76,11.294Z" transform="translate(108.531 13.671)"/><path class="f" d="M-74.877,10.646l43.395,36.783,1.1-.634L-73.773,10.009Z" transform="translate(110.233 12.688)"/><path class="f" d="M-72.65,9.36l43.4,36.782,1.1-.634L-71.547,8.723Z" transform="translate(111.935 11.705)"/><path class="f" d="M-70.424,8.074l43.4,36.783,1.1-.634L-69.32,7.437Z" transform="translate(113.637 10.722)"/><path class="f" d="M-68.2,6.788-24.8,43.571l1.1-.634L-67.094,6.151Z" transform="translate(115.339 9.739)"/><path class="f" d="M-65.971,5.5l43.395,36.783,1.1-.634L-64.867,4.865Z" transform="translate(117.04 8.756)"/><path class="f" d="M-63.744,4.217-20.349,41l1.1-.634L-62.64,3.579Z" transform="translate(118.742 7.773)"/><path class="f" d="M-61.518,2.931l43.4,36.783,1.1-.634L-60.414,2.293Z" transform="translate(120.444 6.79)"/><path class="f" d="M-59.291,1.645-15.9,38.428l1.1-.634L-58.188,1.007Z" transform="translate(122.146 5.808)"/><path class="f" d="M-57.065.359l43.4,36.783,1.1-.634L-55.961-.278Z" transform="translate(123.848 4.825)"/><path class="f" d="M-54.838-.934l43.411,36.8,1.1-.634-43.408-36.8Z" transform="translate(125.55 3.836)"/><path class="f" d="M-52.612-2.218-9.2,34.578l1.1-.634-43.406-36.8Z" transform="translate(127.252 2.855)"/></g></g></g></svg>