<svg xmlns="http://www.w3.org/2000/svg" width="93.982" height="93.265" viewBox="0 0 93.982 93.265"><defs><style>.a{fill:#fff;}.b{fill:#65cb00;}</style></defs><path class="a" d="M2269.686-72.232a46.727,46.727,0,0,0-7.061-11.328,53.192,53.192,0,0,0-8.108-7.883l6.2-11.5a2.9,2.9,0,0,0-.539-3.445,9.144,9.144,0,0,0-6.567-2.9,14.579,14.579,0,0,0-5.624,1.446l-.123.051a8.858,8.858,0,0,1-2.6.814.7.7,0,0,1-.274-.042l-.025-.01c-3.279-1.2-5.82-1.942-8.348-1.942-3.329,0-6.154,1.31-8.893,4.121a2.923,2.923,0,0,0-.341,3.631l6.581,9.944a53.864,53.864,0,0,0-6.051,5.609v9.258q1.164-1.7,2.538-3.364a47.229,47.229,0,0,1,8.373-7.918h11.01a47.3,47.3,0,0,1,8.368,7.919c5.9,7.115,8.9,14.858,8.9,23.02a7.689,7.689,0,0,1-2.257,5.5,7.733,7.733,0,0,1-5.519,2.3H2237.1v5.809h22.226a13.627,13.627,0,0,0,13.611-13.611A38.743,38.743,0,0,0,2269.686-72.232ZM2249.019-93.5h-9.539l-5.831-8.807a5.209,5.209,0,0,1,2.969-.883,19.857,19.857,0,0,1,6.348,1.6,6.671,6.671,0,0,0,2.286.4,12.95,12.95,0,0,0,4.953-1.307,9.843,9.843,0,0,1,3.391-1,2.573,2.573,0,0,1,.752.1Z" transform="translate(-2178.956 109.292)"/><g transform="translate(0 11.032)"><path class="a" d="M1960.858,44.706a2.795,2.795,0,0,1-1.8-4.93c7.878-6.647,9.419-16.609,10.658-24.615l0-.017q.137-.882.269-1.722c.393-2.459.03-4.351-1.11-5.782-1.664-2.09-5.117-3.368-9.987-3.7-.246-.017-.5-.025-.765-.025-2.047,0-3.665.5-3.765,1.173a2.678,2.678,0,0,0,1.739,2.76,2.756,2.756,0,0,1,.3.135c2.716,1.443,4.194,3.319,4.394,5.576.26,2.937-1.9,5.092-2.621,5.728-3.768,4.35-4.428,8.158-2.019,11.641a2.795,2.795,0,0,1-4.6,3.181h-16.982a14.709,14.709,0,0,0,2.137,5.878,2.794,2.794,0,1,1-4.587,3.193,21.782,21.782,0,0,1-3.294-9.875,7.113,7.113,0,0,1-3.811-5.492h-1.246a7.162,7.162,0,0,1-7.154-7.154V20.37a7.12,7.12,0,0,1,.823-3.326,7.193,7.193,0,0,1-2.458-5.392v-.291a7.193,7.193,0,0,1,2.458-5.392,7.121,7.121,0,0,1-.823-3.326V2.352a7.162,7.162,0,0,1,7.154-7.154h1.193V-30.373a7.162,7.162,0,0,1,7.154-7.154h26.977a7.162,7.162,0,0,1,7.154,7.154V-.384a14.356,14.356,0,0,1,7,4.542c2.143,2.692,2.9,6.106,2.256,10.146q-.129.806-.259,1.653l-.009.057c-1.309,8.456-3.1,20.036-12.577,28.033A2.8,2.8,0,0,1,1960.858,44.706Zm-30.308-17.75a1.566,1.566,0,0,0,1.565,1.565h17.178a12.47,12.47,0,0,1-.1-2.752h-18.64Zm-6.782-8.151a1.566,1.566,0,0,0-1.565,1.565v.291a1.567,1.567,0,0,0,1.565,1.565h1.02V18.8Zm27.051,1.375a23.1,23.1,0,0,1,3.284-4.736,2.8,2.8,0,0,1,.373-.352,2.464,2.464,0,0,0,.742-1.031,3.159,3.159,0,0,0-1.333-1.077,8.193,8.193,0,0,1-5.054-8.719c.556-3.721,3.979-5.943,9.158-5.943.415,0,.845.015,1.277.044.462.031.921.072,1.39.122v-28.86a1.566,1.566,0,0,0-1.564-1.565h-26.977a1.566,1.566,0,0,0-1.565,1.565V20.18ZM1922.133,9.8a1.566,1.566,0,0,0-1.564,1.565v.291a1.566,1.566,0,0,0,1.564,1.564h2.655V9.8Zm1.635-9.009a1.566,1.566,0,0,0-1.565,1.565v.291a1.567,1.567,0,0,0,1.565,1.565h1.02V.787Z" transform="translate(-1914.979 37.527)"/><path class="a" d="M1976.152,7.927a13.962,13.962,0,0,0-7.137-4.473V-26.988a6.546,6.546,0,0,0-6.539-6.539H1935.5a6.546,6.546,0,0,0-6.539,6.539V-.8h-1.808a6.546,6.546,0,0,0-6.539,6.539v.291a6.5,6.5,0,0,0,1,3.474,6.533,6.533,0,0,0-2.638,5.244v.291a6.534,6.534,0,0,0,2.638,5.245,6.5,6.5,0,0,0-1,3.474v.291a6.546,6.546,0,0,0,6.539,6.539h1.814a6.547,6.547,0,0,0,3.822,5.706,21.417,21.417,0,0,0,3.219,9.925,2.18,2.18,0,1,0,3.578-2.49,16.093,16.093,0,0,1-2.345-6.844h18.022q.089.135.178.264a2.18,2.18,0,0,0,3.585-2.48c-2.6-3.755-1.915-7.821,2.088-12.426.668-.578,2.682-2.557,2.445-5.238-.18-2.036-1.549-3.748-4.069-5.086a2.1,2.1,0,0,0-.231-.106,3.293,3.293,0,0,1-2.123-3.423c.22-1.468,3.219-1.8,5.18-1.671,5.047.342,8.652,1.7,10.426,3.929,1.254,1.575,1.658,3.623,1.237,6.263q-.135.845-.271,1.735c-1.254,8.107-2.816,18.2-10.87,24.991a2.18,2.18,0,1,0,2.811,3.332c9.3-7.848,11.073-19.3,12.366-27.656q.136-.878.268-1.714C1978.9,13.729,1978.182,10.478,1976.152,7.927Zm-50.634,9.289a2.182,2.182,0,0,1-2.18-2.18v-.291a2.182,2.182,0,0,1,2.18-2.18h3.269v4.65h-3.269Zm-.545-11.479a2.182,2.182,0,0,1,2.18-2.18h1.635v4.65h-1.635a2.182,2.182,0,0,1-2.18-2.18Zm3.814,20.488h-1.635a2.182,2.182,0,0,1-2.18-2.18v-.291a2.182,2.182,0,0,1,2.18-2.18h1.635Zm6.712,6.3a2.182,2.182,0,0,1-2.18-2.18v-1.8h19.934a11.823,11.823,0,0,0,.159,3.982Zm17.324-24.782a7.612,7.612,0,0,0,4.713,8.073c1.186.647,1.646,1.231,1.679,1.567.046.469-.557,1.239-.976,1.58a2.2,2.2,0,0,0-.291.275,21.942,21.942,0,0,0-3.364,4.945H1933.32V-26.988a2.182,2.182,0,0,1,2.18-2.18h26.977a2.182,2.182,0,0,1,2.18,2.18V2.563c-.661-.083-1.341-.151-2.046-.2C1957.126,1.994,1953.375,4.052,1952.823,7.739Z" transform="translate(-1918.364 34.142)"/><path class="b" d="M2054.071,29.369v1.7h-1.7v-1.7Zm-1.7,10.016v2.429h1.7V39.386Zm5.115,9.249v-1.7h-1.705v-1.7h-1.7v3.41Zm3.41-12.659h-5.115v1.7h5.115Zm0,3.41h2.387v-1.7h-2.387Zm0,2.429v1.7h4.092V39.386h-1.705v2.429Zm-5.115-15h-1.7v2.557h1.7Zm-1.7,7.672h1.7v-3.41h-1.7v1.7h-1.7v4.9h1.7Zm-10.911,1.492v3.41h1.7v-1.7h2.557v-1.7Zm12.616,3.41v-1.7h-1.7v1.7Zm3.41,1.7h1.705v-1.7h-1.705Zm4.092-3.41h1.705v-1.7h-1.705Zm-5.8,1.7h-1.705v2.429h-1.7v1.7h3.41Zm-5.115,5.839h1.7v-1.7h-1.7Zm5.115-1.7v1.7h3.41v-1.7Zm5.115,3.41v-1.7h-1.705v1.7Zm2.387,1.7v-1.7H2062.6v1.7Zm-5.8,0h1.705v-1.7h-1.705Zm-8.354-10.954v-1.7h-1.7v1.7h-1.705v1.7h4.944v-1.7Zm0-3.2h-7.672V26.812h7.672Zm-1.7-5.967h-4.262v4.262h4.262Zm-1.279,1.279h-1.7v1.7h1.7Zm17.134-2.984v7.672h-7.672V26.812Zm-1.705,1.7h-4.262v4.262h4.262ZM2062,29.8h-1.705v1.7H2062Zm-18.839,11.167h7.672v7.672h-7.672Zm1.7,5.967h4.262V42.668h-4.262Zm1.279-1.279h1.7v-1.7h-1.7Z" transform="translate(-2023.454 -16.921)"/></g></svg>