<svg xmlns="http://www.w3.org/2000/svg" xmlns:xlink="http://www.w3.org/1999/xlink" width="240" height="200" viewBox="0 0 240 200"><defs><style>.a{fill:#fcfcfc;stroke:#e8e8e8;}.b{clip-path:url(#a);}.c{fill:#b8b8b8;}.d{fill:#929292;}.e{isolation:isolate;}.f{fill:#7a4129;}.g{fill:#512411;}.h{fill:#ab6335;}.i{fill:#491f0e;}.j{fill:#5d8300;}.k{fill:#96bf26;}.l{fill:#7aa800;}.m{fill:#88b312;}.n{fill:#abd141;}.o{fill:#859e51;}.p{fill:#618528;}.q{fill:#91ad5b;}.r{fill:#587a34;}</style><clipPath id="a"><rect class="a" width="240" height="200" transform="translate(-10 300)"/></clipPath></defs><g class="b" transform="translate(10 -300)"><path class="c" d="M-25.348,190.884,179.425,72.62l133.4,77.041L108.053,267.9Z" transform="translate(51.497 309.407)"/><g transform="translate(-103.902 349.366)"><path class="d" d="M345.947,102.418,268.994,147.07l-52.219-29.7,76.953-44.652Z" transform="translate(0 12.215)"/><g transform="translate(223.093 19.532)"><g transform="translate(0.05 56.727)"><g class="e"><g transform="translate(42.529 24.707)"><path class="f" d="M326,85.756l-.007,11.875-69.45,40.363.007-11.875Z" transform="translate(-256.539 -85.756)"/></g><g transform="translate(0 40.363)"><path class="g" d="M264.49,123.195l-.007,11.875-42.529-24.707.007-11.875Z" transform="translate(-221.954 -98.487)"/></g><g transform="translate(0.007)"><path class="h" d="M333.939,90.371l-69.45,40.363L221.96,106.026l69.45-40.363Z" transform="translate(-221.96 -65.663)"/></g></g></g><g transform="translate(69.462 0.478)"><g class="e"><g transform="translate(2.918 1.685)"><path class="f" d="M280.774,92.08l1.211-.7.149-70.085-1.211.7Z" transform="translate(-280.774 -21.291)"/></g><g transform="translate(0.149)"><path class="f" d="M281.441,22.309l1.211-.7-2.918-1.685-1.211.7Z" transform="translate(-278.523 -19.921)"/></g><g transform="translate(0 0.704)"><path class="i" d="M278.551,20.493,278.4,90.578l2.918,1.685.149-70.085Z" transform="translate(-278.401 -20.493)"/></g></g></g><g transform="translate(0.05 49.881)"><g class="e"><g transform="translate(28.141 16.247)"><path class="f" d="M314.3,73.309l-.007,7-69.45,40.363.007-7Z" transform="translate(-244.839 -73.309)"/></g><g transform="translate(0 40.363)"><path class="g" d="M250.1,109.167l-.007,7L221.954,99.92l.007-7Z" transform="translate(-221.954 -92.92)"/></g><g transform="translate(0.007)"><path class="h" d="M319.551,76.343,250.1,116.706,221.96,100.459,291.41,60.1Z" transform="translate(-221.96 -60.096)"/></g></g></g><g transform="translate(0.057 43.657)"><g class="e"><g transform="translate(15.544 8.974)"><path class="f" d="M304.075,62.333l-.025,6.308L234.6,109l.025-6.308Z" transform="translate(-234.6 -62.333)"/></g><g transform="translate(0 40.363)"><path class="g" d="M237.528,96.833l-.025,6.308L221.96,94.166l.025-6.308Z" transform="translate(-221.96 -87.858)"/></g><g transform="translate(0.025)"><path class="h" d="M306.974,64.009l-69.45,40.363L221.98,95.4l69.45-40.363Z" transform="translate(-221.98 -55.035)"/></g></g></g><g transform="translate(66.025 42.114)"><g transform="translate(1.922 4.319)"><path class="j" d="M281.778,58.939a.858.858,0,0,0-.2.535.475.475,0,0,1-.376.544c-.176.041-.224,0-.279.168a.344.344,0,0,1-.248.2c-.332.07-.658-.13-.97-.2-.173-.037-.336-.1-.505-.149-.231-.068-.414.047-.637.048a.862.862,0,0,1-.732-.382.451.451,0,0,1-.049-.363,1.254,1.254,0,0,1,.092-.2c.054-.095-.041-.084-.139-.108a.719.719,0,0,1-.53-.417c-.117-.227.05-.419.229-.584a.693.693,0,0,1,.143-.107.229.229,0,0,1-.1-.015.475.475,0,0,1-.2-.112l-.01-.015a.132.132,0,0,1,.037-.225,1.2,1.2,0,0,1,.735-.266,2.133,2.133,0,0,1,1.013.216,1.688,1.688,0,0,1,.36.252c.184.173.269.135.52.1a2.442,2.442,0,0,1,1.15.209c.255.106.684.3.741.552A.387.387,0,0,1,281.778,58.939Z" transform="translate(-277.169 -57.292)"/></g><g transform="translate(1.714 0.031)"><path class="j" d="M277.9,56.88a1.118,1.118,0,0,0-.443-.439c-.248-.135-.451-.317-.352-.564.055-.14.121-.149-.02-.283a.263.263,0,0,1-.071-.279c.111-.262.5-.364.734-.534.133-.095.285-.167.429-.252.2-.114.18-.3.3-.451a.9.9,0,0,1,.8-.267.741.741,0,0,1,.4.177,1.444,1.444,0,0,1,.16.178c.068.091.108.021.189-.03a.886.886,0,0,1,.718-.112.612.612,0,0,1,.473.488.445.445,0,0,1,.032.157.185.185,0,0,1,.068-.057.514.514,0,0,1,.227-.07l.02,0c.106,0,.207.043.213.154.013.268.063.4-.132.642a1.672,1.672,0,0,1-.777.551,2.031,2.031,0,0,1-.456.093c-.28.023-.287.1-.386.29a1.871,1.871,0,0,1-.846.646,1.518,1.518,0,0,1-.974.175A.572.572,0,0,1,277.9,56.88Z" transform="translate(-277 -53.805)"/></g><path class="k" d="M287.05,56.86c-.034.2-.209.3-.421.369a.612.612,0,0,1-.038.081.378.378,0,0,1,.164.3c-.012.311-.48.3-.76.294l-.032.032c.021.015.041.032.063.047a.527.527,0,0,1,.178.2.3.3,0,0,1-.09.381.875.875,0,0,1-.364.152.477.477,0,0,1-.082.376.326.326,0,0,1-.077.064.362.362,0,0,1,.015.24c-.061.224-.291.318-.551.336a.334.334,0,0,1,.076.3c-.042.2-.253.262-.491.279a.129.129,0,0,1-.063.053.263.263,0,0,1-.059.362.926.926,0,0,1-.525.1,1.66,1.66,0,0,1-.349-.018c-.076-.016-.328-.134-.256,0,.148.269.1.448-.3.494a.869.869,0,0,1-.562-.107.213.213,0,0,1-.025-.018.317.317,0,0,1-.157.116,1.171,1.171,0,0,1-.663-.064,1.127,1.127,0,0,1-.617-.312.306.306,0,0,1-.058-.241c-.012-.016-.025-.032-.038-.048a.512.512,0,0,1-.454,0c-.267-.156-.234-.391-.191-.617a.822.822,0,0,1-.128.053.661.661,0,0,1-.256.047.488.488,0,0,1-.421-.218.551.551,0,0,1-.028-.469c-.291.119-.71-.17-.585-.4a1.018,1.018,0,0,1-.283.108.852.852,0,0,1-.47-.059.788.788,0,0,1-.257.119.774.774,0,0,1-.35.02.329.329,0,0,1-.1.087.854.854,0,0,1-.839-.069c-.242-.116-.514-.334-.456-.58a.5.5,0,0,1,.18-.272l-.015-.011c-.312.025-.658-.08-.7-.339a.51.51,0,0,1,.214-.5.426.426,0,0,1,.44-.049l.07-.032a.6.6,0,0,1,.047-.05.3.3,0,0,1-.232-.241c-.042-.2.087-.33.28-.406a1.449,1.449,0,0,1-.215-.209c-.159-.189-.143-.373-.012-.462l.016-.017a.376.376,0,0,1,.223-.117.139.139,0,0,1,.03-.084.933.933,0,0,1,1.139-.282.4.4,0,0,1,.165.386v.012a.542.542,0,0,0,.434.129.577.577,0,0,0,.077-.016.24.24,0,0,0,.034-.124c0-.122.155-.17.279-.13a.649.649,0,0,1-.068-.391l.01-.03a.591.591,0,0,1-.043-.054.183.183,0,0,1,.029-.258.735.735,0,0,1,.079-.243c.044-.194.294-.353.5-.423a.963.963,0,0,1,.836.141.848.848,0,0,1,.638.07.518.518,0,0,1,.076-.09c-.01-.022-.018-.046-.026-.068a.449.449,0,0,1,.259-.536,1.2,1.2,0,0,1,.81.064,1.322,1.322,0,0,1,.824.027l.057.015a1.456,1.456,0,0,1,.521-.247.822.822,0,0,1,.75.13.185.185,0,0,1,.053.182.681.681,0,0,1,.216.122.778.778,0,0,1,.723.256.992.992,0,0,1,.189.872,1.533,1.533,0,0,1,.309.117,1.147,1.147,0,0,1,.548.081.776.776,0,0,1,.606.17.429.429,0,0,1,.109.568c.006.03.013.059.021.087a.928.928,0,0,1,.234.068A.359.359,0,0,1,287.05,56.86Z" transform="translate(-275.606 -53.78)"/><g transform="translate(4.535 1.42)"><path class="l" d="M284.4,57.22a.924.924,0,0,1-.385.318.29.29,0,0,1,0,.225c-.074.205-.32.3-.588.336a.259.259,0,0,1,0,.381.661.661,0,0,1-.53.261.28.28,0,0,1-.061.232.7.7,0,0,1-.725.259.333.333,0,0,1-.231.277.782.782,0,0,1-.748-.167.425.425,0,0,1-.627.256.542.542,0,0,1-.289-.4.9.9,0,0,1-.116,0c-.391-.036-.406-.379-.386-.619a.579.579,0,0,1-.314-.139.31.31,0,0,1-.025-.457.609.609,0,0,1,.3-.177.416.416,0,0,1-.129-.1c-.117-.143.047-.333.154-.435a.378.378,0,0,1,.106-.07.209.209,0,0,1,.047-.209.7.7,0,0,1,.534-.271c.012-.03.022-.06.033-.09.032-.092.189-.093.277-.041.041.026.082.049.125.073a2.6,2.6,0,0,0,1.185-.92c-.132-.089-.284-.149-.33-.3-.055-.187.16-.327.322-.419.38-.212.814-.021.8.314a1.06,1.06,0,0,1,.15,0,.642.642,0,0,1,.593.518.5.5,0,0,1,.588.438.781.781,0,0,1-.028.241A.406.406,0,0,1,284.4,57.22Z" transform="translate(-279.295 -54.935)"/></g><g transform="translate(2.369 1.245)"><path class="j" d="M282.8,55.633a2.073,2.073,0,0,0-.065-.214.8.8,0,0,0-.821-.5.612.612,0,0,0-.315.1.477.477,0,0,0-.412-.208.588.588,0,0,0-.439.143.531.531,0,0,0-.114-.085.537.537,0,0,0-.637.063,1.091,1.091,0,0,0-.143.18.777.777,0,0,0-.526.113.516.516,0,0,0-.194.288.711.711,0,0,0-.621.159.493.493,0,0,0-.117.475.44.44,0,0,0-.318.186.827.827,0,0,0-.125.434c-.2.059-.389.189-.416.341a.437.437,0,0,0,.259.462.352.352,0,0,0,.108.5.662.662,0,0,0,.5.049c.02.095.1.176.269.22a1.079,1.079,0,0,0,.593-.046.269.269,0,0,0,.231.181.646.646,0,0,0,.628-.213c.15.031.3.057.453.074a.357.357,0,0,0,.382.041l.046-.021h.043c.063,0,.1-.048.095-.085a3.215,3.215,0,0,0,.444-.51c.314-.362,1.236-.719,1.1-1.152a.781.781,0,0,0,.079-.134.859.859,0,0,0,.063-.184C283.111,56.107,283.04,55.859,282.8,55.633Z" transform="translate(-277.533 -54.792)"/></g><g transform="translate(4.391 4.576)"><path class="j" d="M279.177,57.508l.007-.007c.092.026.189.052.289.076l-.047.022C279.257,57.618,279.173,57.587,279.177,57.508Z" transform="translate(-279.177 -57.501)"/></g><g transform="translate(3.615 4.443)"><path class="j" d="M278.55,57.393c.132.017.25.025.37.038a.882.882,0,0,1-.21.054C278.573,57.5,278.535,57.454,278.55,57.393Z" transform="translate(-278.547 -57.393)"/></g><g transform="translate(2.704 3.488)"><path class="j" d="M278.053,56.679a1.575,1.575,0,0,0-.144.239c-.1-.066-.154-.186-.039-.255a.978.978,0,0,1,.106-.047A.321.321,0,0,0,278.053,56.679Z" transform="translate(-277.806 -56.616)"/></g><g transform="translate(3.14 2.897)"><path class="j" d="M278.506,56.255c0,.02-.011.041-.017.06a.156.156,0,0,0-.208.036c-.02.036-.043.071-.066.107a.409.409,0,0,0-.054-.02.711.711,0,0,1,.045-.2.25.25,0,0,1,.192-.1A.9.9,0,0,0,278.506,56.255Z" transform="translate(-278.16 -56.136)"/></g><g transform="translate(3.572 2.248)"><path class="j" d="M278.912,55.626l.013.036c-.026,0-.054-.006-.081-.011-.074-.007-.141.044-.143.093q0,.125-.007.251a.544.544,0,0,0-.135-.006c-.054-.114-.07-.235-.006-.3A.372.372,0,0,1,278.912,55.626Z" transform="translate(-278.511 -55.608)"/></g><g transform="translate(4.402 1.862)"><path class="j" d="M279.367,55.294v.02l-.006.033a.885.885,0,0,0-.173,0A.292.292,0,0,1,279.367,55.294Z" transform="translate(-279.186 -55.294)"/></g><g transform="translate(5.005 1.516)"><path class="j" d="M279.987,55.083l-.021.011a.288.288,0,0,0-.109.162l-.17-.036-.01-.01a.433.433,0,0,1,.08-.141A.135.135,0,0,1,279.987,55.083Z" transform="translate(-279.677 -55.012)"/></g><g transform="translate(6.807 1.614)"><path class="j" d="M281.5,55.242a2.948,2.948,0,0,0-.357-.15h.028A.479.479,0,0,1,281.5,55.242Z" transform="translate(-281.142 -55.092)"/></g><g transform="translate(4.473 1.865)"><path class="m" d="M283.073,56.521a.431.431,0,0,0-.252-.3c-.014-.3-.545-.514-.921-.476a.762.762,0,0,0-.534-.315,1.149,1.149,0,0,0-.6.08.7.7,0,0,0-.738-.177.6.6,0,0,0-.389.348c-.207.053-.407.214-.4.368a.563.563,0,0,0,.108.317.3.3,0,0,0,.125.389c.167.1.808.124.777-.117a2.179,2.179,0,0,1,1.109.106c.208.119.007.338.022.5.022.218.3.6.663.341a.636.636,0,0,0,.267-.382.355.355,0,0,0,.247-.247C282.824,56.947,283.1,56.748,283.073,56.521Z" transform="translate(-279.244 -55.297)"/></g><g transform="translate(4.774 2.477)"><path class="m" d="M279.779,55.879a.393.393,0,0,1-.178.093.271.271,0,0,0-.112.052.387.387,0,0,1,.145-.23.336.336,0,0,0,.09.068A.139.139,0,0,0,279.779,55.879Z" transform="translate(-279.489 -55.794)"/></g><g transform="translate(5.163 2.127)"><path class="m" d="M280.436,55.634a1.25,1.25,0,0,0-.2-.022.43.43,0,0,0-.339.125.241.241,0,0,0-.089-.087.942.942,0,0,1,.253-.135A.37.37,0,0,1,280.436,55.634Z" transform="translate(-279.805 -55.509)"/></g><g transform="translate(4.766 2.943)"><path class="n" d="M281.738,57.29c-.139.3-.478.675-.794.435-.214.1-.483.111-.589-.039a.5.5,0,0,1-.453-.187.4.4,0,0,1-.332-.1.287.287,0,0,1-.06-.338.4.4,0,0,1,.18-.162c-.077-.017-.144-.082-.108-.148a.906.906,0,0,1,.208-.261.218.218,0,0,1,.016-.028c.144-.2.574-.248.831-.274a1.22,1.22,0,0,1,.821.134C282.047,56.371,281.891,56.967,281.738,57.29Z" transform="translate(-279.482 -56.173)"/></g></g><g transform="translate(57.941 46.191)"><g transform="translate(1.921 4.319)"><path class="j" d="M275.2,62.255a.857.857,0,0,0-.2.535.474.474,0,0,1-.376.544c-.176.039-.224,0-.279.168a.341.341,0,0,1-.248.2c-.331.07-.658-.13-.969-.2-.175-.036-.337-.1-.507-.148-.231-.068-.413.047-.637.048a.861.861,0,0,1-.732-.382.451.451,0,0,1-.048-.363,1.109,1.109,0,0,1,.091-.2c.054-.095-.041-.084-.139-.108a.717.717,0,0,1-.53-.418c-.117-.226.052-.419.229-.583a.618.618,0,0,1,.144-.107.275.275,0,0,1-.1-.015.494.494,0,0,1-.2-.112l-.01-.016a.133.133,0,0,1,.037-.225,1.2,1.2,0,0,1,.735-.264,2.155,2.155,0,0,1,1.015.215,1.728,1.728,0,0,1,.359.253c.184.173.269.134.52.1a2.44,2.44,0,0,1,1.15.21c.256.106.684.3.742.551A.394.394,0,0,1,275.2,62.255Z" transform="translate(-270.595 -60.608)"/></g><g transform="translate(1.713 0.031)"><path class="j" d="M271.327,60.2a1.131,1.131,0,0,0-.444-.44c-.248-.134-.451-.317-.352-.564.055-.139.12-.149-.02-.282a.262.262,0,0,1-.07-.28c.111-.261.5-.363.733-.532.133-.1.285-.167.43-.252.2-.114.178-.3.3-.451a.9.9,0,0,1,.794-.267.749.749,0,0,1,.4.177,1.2,1.2,0,0,1,.159.178c.068.091.109.021.189-.03a.882.882,0,0,1,.718-.112.614.614,0,0,1,.475.487.528.528,0,0,1,.032.157.166.166,0,0,1,.068-.055.509.509,0,0,1,.228-.07h.02c.106,0,.205.044.211.154.014.269.063.4-.132.643a1.675,1.675,0,0,1-.777.551,2.087,2.087,0,0,1-.456.093c-.279.023-.287.1-.386.29a1.847,1.847,0,0,1-.846.644,1.515,1.515,0,0,1-.973.175A.566.566,0,0,1,271.327,60.2Z" transform="translate(-270.426 -57.121)"/></g><path class="k" d="M280.475,60.176c-.033.2-.208.3-.421.368a.631.631,0,0,1-.038.082.382.382,0,0,1,.165.3c-.013.311-.481.3-.76.293l-.033.033.064.047a.514.514,0,0,1,.177.2.3.3,0,0,1-.09.381.876.876,0,0,1-.364.152.473.473,0,0,1-.081.375.294.294,0,0,1-.077.064.369.369,0,0,1,.014.24c-.061.225-.291.32-.551.337a.324.324,0,0,1,.076.3c-.041.2-.252.263-.491.279a.113.113,0,0,1-.063.053.265.265,0,0,1-.058.363.922.922,0,0,1-.526.1,1.51,1.51,0,0,1-.349-.018c-.076-.015-.328-.133-.256,0,.149.271.1.449-.3.5a.871.871,0,0,1-.563-.107.216.216,0,0,1-.025-.02.31.31,0,0,1-.157.117,1.182,1.182,0,0,1-.663-.064,1.133,1.133,0,0,1-.616-.314.3.3,0,0,1-.058-.241c-.014-.015-.026-.031-.039-.048a.508.508,0,0,1-.454,0c-.267-.156-.234-.391-.191-.617a1.071,1.071,0,0,1-.128.053.684.684,0,0,1-.256.047.49.49,0,0,1-.421-.219.551.551,0,0,1-.028-.469c-.291.121-.709-.168-.584-.4a1.028,1.028,0,0,1-.284.109.837.837,0,0,1-.469-.06.772.772,0,0,1-.258.121.755.755,0,0,1-.35.018.318.318,0,0,1-.1.089.857.857,0,0,1-.839-.069c-.242-.116-.514-.336-.455-.582a.492.492,0,0,1,.18-.272l-.015-.01c-.314.025-.659-.08-.7-.339a.508.508,0,0,1,.213-.5.421.421,0,0,1,.44-.049l.07-.032a.607.607,0,0,1,.048-.05.3.3,0,0,1-.232-.241c-.043-.2.086-.33.28-.407a1.341,1.341,0,0,1-.216-.208c-.159-.189-.143-.373-.012-.462a.1.1,0,0,1,.016-.017.388.388,0,0,1,.224-.118.129.129,0,0,1,.028-.082.935.935,0,0,1,1.139-.283.4.4,0,0,1,.165.387v.012a.538.538,0,0,0,.433.129.546.546,0,0,0,.078-.017.247.247,0,0,0,.036-.124c0-.122.155-.17.278-.129a.641.641,0,0,1-.066-.391l.009-.03c-.016-.017-.028-.036-.043-.054a.184.184,0,0,1,.029-.258.717.717,0,0,1,.08-.245c.043-.194.294-.352.494-.422a.963.963,0,0,1,.836.141.852.852,0,0,1,.639.07.429.429,0,0,1,.075-.09.663.663,0,0,1-.026-.069.448.448,0,0,1,.259-.535,1.2,1.2,0,0,1,.812.064,1.327,1.327,0,0,1,.823.026l.057.015a1.464,1.464,0,0,1,.521-.246.822.822,0,0,1,.75.13.181.181,0,0,1,.053.181.68.68,0,0,1,.216.122.782.782,0,0,1,.724.257.985.985,0,0,1,.188.871,1.512,1.512,0,0,1,.309.118,1.167,1.167,0,0,1,.55.08.779.779,0,0,1,.6.17.429.429,0,0,1,.109.569c.006.028.015.058.021.087a.9.9,0,0,1,.234.066A.359.359,0,0,1,280.475,60.176Z" transform="translate(-269.032 -57.096)"/><g transform="translate(4.534 1.42)"><path class="l" d="M277.829,60.536a.939.939,0,0,1-.385.318.3.3,0,0,1,0,.225c-.074.2-.321.3-.588.334a.261.261,0,0,1,0,.382.662.662,0,0,1-.53.261.272.272,0,0,1-.062.232.7.7,0,0,1-.725.259.332.332,0,0,1-.231.277.786.786,0,0,1-.748-.167.424.424,0,0,1-.626.256.539.539,0,0,1-.289-.4.729.729,0,0,1-.116,0c-.391-.034-.407-.378-.386-.617a.567.567,0,0,1-.314-.14.309.309,0,0,1-.026-.457.618.618,0,0,1,.3-.177.4.4,0,0,1-.128-.1c-.118-.144.046-.334.154-.437a.386.386,0,0,1,.1-.069.207.207,0,0,1,.048-.209.7.7,0,0,1,.532-.271c.012-.03.022-.06.033-.09.033-.092.189-.093.277-.041.041.025.084.049.125.073a2.6,2.6,0,0,0,1.185-.921c-.13-.087-.284-.148-.328-.3-.055-.187.159-.327.322-.418.379-.213.814-.022.8.312.06,0,.112,0,.149,0a.645.645,0,0,1,.594.519.5.5,0,0,1,.588.437.838.838,0,0,1-.029.242A.406.406,0,0,1,277.829,60.536Z" transform="translate(-272.72 -58.25)"/></g><g transform="translate(2.367 1.244)"><path class="j" d="M276.228,58.948a1.968,1.968,0,0,0-.065-.213.8.8,0,0,0-.821-.5.616.616,0,0,0-.315.1.475.475,0,0,0-.411-.209.591.591,0,0,0-.44.144.5.5,0,0,0-.114-.085.536.536,0,0,0-.637.061,1.087,1.087,0,0,0-.141.18.786.786,0,0,0-.527.114.51.51,0,0,0-.193.288.713.713,0,0,0-.622.157.493.493,0,0,0-.116.475.45.45,0,0,0-.32.186.832.832,0,0,0-.125.435c-.2.058-.389.189-.416.341a.434.434,0,0,0,.261.461.351.351,0,0,0,.108.505.666.666,0,0,0,.5.049c.02.095.1.175.269.22a1.076,1.076,0,0,0,.591-.045.273.273,0,0,0,.231.181.649.649,0,0,0,.63-.213c.15.031.3.057.451.074a.354.354,0,0,0,.382.039l.045-.021h.043c.063,0,.1-.049.095-.086a3.288,3.288,0,0,0,.445-.51c.312-.362,1.235-.719,1.1-1.151a.828.828,0,0,0,.079-.134.859.859,0,0,0,.063-.184C276.536,59.423,276.466,59.174,276.228,58.948Z" transform="translate(-270.958 -58.107)"/></g><g transform="translate(4.389 4.575)"><path class="j" d="M272.6,60.825l.007-.009c.093.026.191.053.289.076a.413.413,0,0,1-.047.023C272.682,60.933,272.6,60.9,272.6,60.825Z" transform="translate(-272.602 -60.816)"/></g><g transform="translate(3.615 4.442)"><path class="j" d="M271.976,60.708c.132.017.25.025.369.039a.945.945,0,0,1-.21.054C272,60.817,271.961,60.769,271.976,60.708Z" transform="translate(-271.973 -60.708)"/></g><g transform="translate(2.704 3.486)"><path class="j" d="M271.479,59.995a1.482,1.482,0,0,0-.145.237c-.1-.065-.152-.184-.038-.253a.778.778,0,0,1,.1-.048A.309.309,0,0,0,271.479,59.995Z" transform="translate(-271.231 -59.931)"/></g><g transform="translate(3.139 2.896)"><path class="j" d="M271.931,59.572c0,.02-.011.041-.016.06a.156.156,0,0,0-.209.036q-.03.053-.066.107a.4.4,0,0,0-.054-.02.794.794,0,0,1,.046-.2.255.255,0,0,1,.192-.1A.91.91,0,0,0,271.931,59.572Z" transform="translate(-271.585 -59.451)"/></g><g transform="translate(3.572 2.247)"><path class="j" d="M272.338,58.941l.012.037c-.026,0-.054-.006-.08-.011-.075-.007-.143.043-.144.092l-.007.252a.441.441,0,0,0-.134-.006c-.054-.116-.071-.236-.006-.3A.369.369,0,0,1,272.338,58.941Z" transform="translate(-271.937 -58.923)"/></g><g transform="translate(4.401 1.862)"><path class="j" d="M272.792,58.61v.018l-.006.033a.88.88,0,0,0-.173.006A.277.277,0,0,1,272.792,58.61Z" transform="translate(-272.611 -58.61)"/></g><g transform="translate(5.006 1.515)"><path class="j" d="M273.412,58.4l-.02.012a.283.283,0,0,0-.109.161l-.171-.034-.009-.011a.416.416,0,0,1,.079-.14A.135.135,0,0,1,273.412,58.4Z" transform="translate(-273.103 -58.328)"/></g><g transform="translate(6.806 1.614)"><path class="j" d="M274.924,58.558a2.762,2.762,0,0,0-.357-.15h.03A.47.47,0,0,1,274.924,58.558Z" transform="translate(-274.567 -58.408)"/></g><g transform="translate(4.472 1.865)"><path class="m" d="M276.5,59.837a.43.43,0,0,0-.253-.3c-.014-.3-.544-.515-.921-.476a.754.754,0,0,0-.534-.315,1.13,1.13,0,0,0-.6.08.7.7,0,0,0-.738-.177.6.6,0,0,0-.39.347c-.205.053-.407.215-.4.368a.566.566,0,0,0,.108.318.306.306,0,0,0,.127.389c.166.1.807.124.776-.117a2.164,2.164,0,0,1,1.109.106c.209.119.007.337.023.5.021.216.3.6.662.341a.638.638,0,0,0,.268-.384.354.354,0,0,0,.246-.246C276.249,60.263,276.525,60.063,276.5,59.837Z" transform="translate(-272.669 -58.613)"/></g><g transform="translate(4.774 2.476)"><path class="m" d="M273.2,59.2a.392.392,0,0,1-.178.093.251.251,0,0,0-.111.052.4.4,0,0,1,.144-.231.359.359,0,0,0,.09.069A.139.139,0,0,0,273.2,59.2Z" transform="translate(-272.915 -59.109)"/></g><g transform="translate(5.163 2.126)"><path class="m" d="M273.861,58.951a1.252,1.252,0,0,0-.2-.023.439.439,0,0,0-.339.127.229.229,0,0,0-.087-.087.956.956,0,0,1,.253-.136A.369.369,0,0,1,273.861,58.951Z" transform="translate(-273.231 -58.825)"/></g><g transform="translate(4.765 2.942)"><path class="n" d="M275.165,60.606c-.14.3-.48.674-.794.435-.214.1-.484.109-.59-.041a.5.5,0,0,1-.453-.187.4.4,0,0,1-.332-.1.285.285,0,0,1-.059-.338.407.407,0,0,1,.178-.162c-.077-.017-.144-.082-.107-.149a.917.917,0,0,1,.208-.261l.015-.027c.144-.2.575-.248.831-.275a1.222,1.222,0,0,1,.823.135C275.472,59.686,275.316,60.282,275.165,60.606Z" transform="translate(-272.907 -59.488)"/></g></g><g transform="translate(49.933 50.993)"><g transform="translate(1.921 4.319)"><path class="j" d="M268.691,66.158a.862.862,0,0,0-.2.536.475.475,0,0,1-.378.542c-.175.041-.223,0-.279.168a.339.339,0,0,1-.247.2c-.332.07-.658-.13-.97-.2-.175-.037-.337-.1-.505-.148-.231-.068-.414.047-.637.048a.86.86,0,0,1-.732-.384.444.444,0,0,1-.049-.362,1.171,1.171,0,0,1,.092-.2c.054-.095-.042-.085-.139-.109a.716.716,0,0,1-.53-.417c-.118-.226.05-.419.229-.583a.685.685,0,0,1,.143-.108.245.245,0,0,1-.1-.014.5.5,0,0,1-.2-.113L264.184,65a.132.132,0,0,1,.037-.225,1.188,1.188,0,0,1,.735-.264,2.147,2.147,0,0,1,1.013.215,1.735,1.735,0,0,1,.36.253c.184.172.268.134.52.1a2.443,2.443,0,0,1,1.15.21c.255.1.684.3.741.551A.386.386,0,0,1,268.691,66.158Z" transform="translate(-264.082 -64.513)"/></g><g transform="translate(1.714 0.031)"><path class="j" d="M264.814,64.1a1.118,1.118,0,0,0-.443-.439c-.25-.134-.451-.317-.353-.564.057-.14.122-.149-.02-.283a.264.264,0,0,1-.07-.279c.111-.262.5-.364.733-.532.134-.1.287-.168.43-.253.2-.114.178-.3.3-.45a.9.9,0,0,1,.8-.267.736.736,0,0,1,.4.177,1.353,1.353,0,0,1,.16.177c.068.091.108.022.188-.03a.894.894,0,0,1,.719-.112.613.613,0,0,1,.473.488.451.451,0,0,1,.032.157.2.2,0,0,1,.068-.057.53.53,0,0,1,.227-.07l.02,0c.106,0,.207.044.213.154.014.269.063.4-.132.642a1.67,1.67,0,0,1-.778.551,2.077,2.077,0,0,1-.455.095c-.28.023-.286.1-.386.29a1.861,1.861,0,0,1-.846.644,1.519,1.519,0,0,1-.974.175A.572.572,0,0,1,264.814,64.1Z" transform="translate(-263.913 -61.026)"/></g><path class="k" d="M273.962,64.081c-.033.2-.208.3-.419.368a.717.717,0,0,1-.038.082.376.376,0,0,1,.164.3c-.012.311-.48.3-.76.293l-.032.032c.021.016.041.032.063.047a.537.537,0,0,1,.178.2.3.3,0,0,1-.09.382.881.881,0,0,1-.365.152.469.469,0,0,1-.081.375.3.3,0,0,1-.077.064.362.362,0,0,1,.015.24c-.061.225-.291.32-.551.336a.334.334,0,0,1,.076.3c-.042.2-.253.263-.491.279a.129.129,0,0,1-.063.053.264.264,0,0,1-.059.363.938.938,0,0,1-.525.1,1.578,1.578,0,0,1-.349-.018c-.076-.016-.328-.133-.256,0,.148.271.1.449-.3.5a.877.877,0,0,1-.562-.107.215.215,0,0,1-.025-.02.323.323,0,0,1-.157.117,1.187,1.187,0,0,1-.664-.065,1.128,1.128,0,0,1-.616-.312.3.3,0,0,1-.058-.241l-.038-.048a.508.508,0,0,1-.454,0c-.267-.156-.234-.39-.192-.616a1.053,1.053,0,0,1-.127.053.71.71,0,0,1-.256.047.487.487,0,0,1-.421-.219.546.546,0,0,1-.028-.469c-.291.121-.71-.168-.585-.4a.98.98,0,0,1-.283.108.841.841,0,0,1-.47-.059.785.785,0,0,1-.258.121.749.749,0,0,1-.349.018.35.35,0,0,1-.1.089.857.857,0,0,1-.839-.07c-.243-.116-.514-.334-.456-.58a.494.494,0,0,1,.18-.272l-.015-.01c-.312.025-.658-.081-.7-.339a.508.508,0,0,1,.214-.5.419.419,0,0,1,.439-.049l.071-.033c.015-.016.03-.033.047-.049a.3.3,0,0,1-.232-.241c-.042-.2.087-.33.28-.407a1.585,1.585,0,0,1-.216-.208c-.159-.191-.143-.373-.011-.464l.015-.016a.392.392,0,0,1,.224-.118.136.136,0,0,1,.03-.082.935.935,0,0,1,1.139-.283.4.4,0,0,1,.164.387V63.2a.542.542,0,0,0,.433.13.561.561,0,0,0,.079-.017.237.237,0,0,0,.034-.124c0-.122.155-.17.278-.13a.647.647,0,0,1-.066-.391l.009-.028c-.015-.018-.028-.037-.042-.055a.182.182,0,0,1,.03-.257.741.741,0,0,1,.079-.245c.044-.194.294-.353.5-.422a.964.964,0,0,1,.836.14.855.855,0,0,1,.638.071.519.519,0,0,1,.075-.09c-.009-.023-.018-.046-.025-.069a.448.448,0,0,1,.259-.535,1.194,1.194,0,0,1,.81.064,1.321,1.321,0,0,1,.824.026l.057.015a1.456,1.456,0,0,1,.521-.247.822.822,0,0,1,.749.132.182.182,0,0,1,.054.181.694.694,0,0,1,.216.122.779.779,0,0,1,.723.256.992.992,0,0,1,.189.872,1.43,1.43,0,0,1,.307.118,1.15,1.15,0,0,1,.55.08.778.778,0,0,1,.606.17.43.43,0,0,1,.109.568c.006.03.014.059.02.089a.922.922,0,0,1,.235.066A.358.358,0,0,1,273.962,64.081Z" transform="translate(-262.519 -61)"/><g transform="translate(4.535 1.42)"><path class="l" d="M271.316,64.441a.95.95,0,0,1-.385.318.293.293,0,0,1,0,.224c-.074.205-.32.3-.588.336a.26.26,0,0,1,0,.381.662.662,0,0,1-.53.262.275.275,0,0,1-.063.231.691.691,0,0,1-.724.259.333.333,0,0,1-.231.277.782.782,0,0,1-.748-.166.426.426,0,0,1-.627.255.541.541,0,0,1-.289-.4.6.6,0,0,1-.116,0c-.391-.036-.406-.378-.386-.617a.567.567,0,0,1-.314-.14.309.309,0,0,1-.025-.457.618.618,0,0,1,.3-.177.4.4,0,0,1-.129-.1c-.117-.143.046-.333.154-.435a.359.359,0,0,1,.1-.069.215.215,0,0,1,.048-.21.7.7,0,0,1,.532-.271c.012-.03.023-.059.034-.09.032-.091.189-.093.277-.039.041.025.082.048.125.071a2.588,2.588,0,0,0,1.184-.92c-.13-.087-.283-.148-.328-.3-.055-.187.16-.327.322-.418.38-.213.814-.022.8.312a1.284,1.284,0,0,1,.15,0,.644.644,0,0,1,.593.518.5.5,0,0,1,.588.438.873.873,0,0,1-.028.242A.406.406,0,0,1,271.316,64.441Z" transform="translate(-266.207 -62.155)"/></g><g transform="translate(2.369 1.244)"><path class="j" d="M269.716,62.853c-.02-.075-.041-.146-.065-.213a.8.8,0,0,0-.821-.5.628.628,0,0,0-.316.1.471.471,0,0,0-.411-.209.593.593,0,0,0-.44.143.458.458,0,0,0-.113-.084.537.537,0,0,0-.638.061,1.156,1.156,0,0,0-.141.18.777.777,0,0,0-.526.113.516.516,0,0,0-.194.288.711.711,0,0,0-.621.159.494.494,0,0,0-.117.475.444.444,0,0,0-.32.186.831.831,0,0,0-.124.435c-.2.058-.389.189-.416.339a.436.436,0,0,0,.259.462.352.352,0,0,0,.108.5.661.661,0,0,0,.5.05c.02.095.1.175.269.219a1.074,1.074,0,0,0,.592-.044.273.273,0,0,0,.232.181.647.647,0,0,0,.628-.214c.15.032.3.058.453.075a.357.357,0,0,0,.382.039l.045-.021h.043c.063,0,.1-.048.095-.085a3.276,3.276,0,0,0,.444-.51c.314-.362,1.235-.719,1.1-1.152a.866.866,0,0,0,.079-.134.766.766,0,0,0,.062-.183C270.024,63.328,269.953,63.079,269.716,62.853Z" transform="translate(-264.446 -62.012)"/></g><g transform="translate(4.391 4.575)"><path class="j" d="M266.09,64.728l.007-.007c.092.026.189.052.289.076a.41.41,0,0,1-.047.022C266.17,64.838,266.086,64.807,266.09,64.728Z" transform="translate(-266.09 -64.721)"/></g><g transform="translate(3.615 4.442)"><path class="j" d="M265.463,64.613c.132.017.25.025.37.039a.964.964,0,0,1-.21.054C265.485,64.721,265.448,64.674,265.463,64.613Z" transform="translate(-265.46 -64.613)"/></g><g transform="translate(2.704 3.487)"><path class="j" d="M264.966,63.9a1.642,1.642,0,0,0-.144.239c-.1-.065-.154-.184-.039-.255a.982.982,0,0,1,.106-.047A.258.258,0,0,0,264.966,63.9Z" transform="translate(-264.719 -63.836)"/></g><g transform="translate(3.139 2.897)"><path class="j" d="M265.419,63.475c0,.021-.011.041-.017.061a.154.154,0,0,0-.208.036c-.02.036-.043.071-.066.106a.266.266,0,0,0-.055-.018.721.721,0,0,1,.047-.2.249.249,0,0,1,.192-.1A.9.9,0,0,0,265.419,63.475Z" transform="translate(-265.072 -63.356)"/></g><g transform="translate(3.572 2.247)"><path class="j" d="M265.825,62.846l.014.036-.081-.01a.124.124,0,0,0-.143.092l-.007.252a.492.492,0,0,0-.135-.007c-.054-.114-.07-.235-.006-.3A.372.372,0,0,1,265.825,62.846Z" transform="translate(-265.424 -62.828)"/></g><g transform="translate(4.402 1.862)"><path class="j" d="M266.279,62.515v.018l-.007.033a.868.868,0,0,0-.172.006A.274.274,0,0,1,266.279,62.515Z" transform="translate(-266.099 -62.515)"/></g><g transform="translate(5.005 1.515)"><path class="j" d="M266.9,62.3l-.021.012a.28.28,0,0,0-.109.161l-.171-.036-.009-.01a.456.456,0,0,1,.079-.141A.137.137,0,0,1,266.9,62.3Z" transform="translate(-266.59 -62.233)"/></g><g transform="translate(6.806 1.614)"><path class="j" d="M268.412,62.463a2.709,2.709,0,0,0-.358-.15h.03A.468.468,0,0,1,268.412,62.463Z" transform="translate(-268.054 -62.313)"/></g><g transform="translate(4.473 1.866)"><path class="m" d="M269.986,63.742a.428.428,0,0,0-.252-.3c-.014-.3-.545-.515-.921-.476a.759.759,0,0,0-.535-.316,1.157,1.157,0,0,0-.6.08.7.7,0,0,0-.738-.176.6.6,0,0,0-.389.347c-.207.053-.407.215-.4.368a.56.56,0,0,0,.108.318.306.306,0,0,0,.125.389c.167.1.808.123.777-.118a2.165,2.165,0,0,1,1.109.107c.208.119.006.337.022.5.022.216.3.6.662.341a.636.636,0,0,0,.268-.384.353.353,0,0,0,.246-.247C269.737,64.167,270.012,63.968,269.986,63.742Z" transform="translate(-266.157 -62.518)"/></g><g transform="translate(4.774 2.476)"><path class="m" d="M266.692,63.1a.415.415,0,0,1-.18.093.251.251,0,0,0-.111.052.391.391,0,0,1,.144-.231.383.383,0,0,0,.09.069A.144.144,0,0,0,266.692,63.1Z" transform="translate(-266.402 -63.014)"/></g><g transform="translate(5.163 2.126)"><path class="m" d="M267.349,62.856a1.139,1.139,0,0,0-.2-.023.439.439,0,0,0-.339.125.237.237,0,0,0-.089-.086.919.919,0,0,1,.253-.136A.372.372,0,0,1,267.349,62.856Z" transform="translate(-266.718 -62.73)"/></g><g transform="translate(4.765 2.942)"><path class="n" d="M268.652,64.511c-.139.3-.478.674-.794.434-.214.1-.484.111-.59-.039a.5.5,0,0,1-.453-.187.41.41,0,0,1-.332-.1.287.287,0,0,1-.059-.338c.025-.068.1-.116.178-.164-.076-.017-.144-.082-.107-.148a.9.9,0,0,1,.208-.261c0-.01.01-.018.016-.028.143-.2.574-.247.831-.274a1.227,1.227,0,0,1,.821.134C268.96,63.591,268.8,64.187,268.652,64.511Z" transform="translate(-266.395 -63.393)"/></g></g><g transform="translate(0 46.146)"><g class="e"><g transform="translate(2.918 1.685)"><path class="f" d="M224.286,122.707l1.211-.7.149-63.574-1.211.7Z" transform="translate(-224.286 -58.429)"/></g><g transform="translate(0.149)"><path class="f" d="M224.953,59.448l1.211-.7-2.918-1.685-1.211.7Z" transform="translate(-222.035 -57.059)"/></g><g transform="translate(0 0.704)"><path class="i" d="M222.063,57.631l-.149,63.574,2.918,1.685.149-63.574Z" transform="translate(-221.913 -57.632)"/></g></g></g><g transform="translate(28.242 49.22)"><g class="e"><g transform="translate(2.918 1.685)"><path class="f" d="M247.253,125.207l1.211-.7.15-63.574-1.211.7Z" transform="translate(-247.253 -60.929)"/></g><g transform="translate(0.149)"><path class="f" d="M247.92,61.948l1.211-.7-2.918-1.685-1.211.7Z" transform="translate(-245.002 -59.559)"/></g><g transform="translate(0 0.704)"><path class="i" d="M245.03,60.132l-.149,63.574,2.918,1.685.15-63.574Z" transform="translate(-244.88 -60.132)"/></g></g></g><g transform="translate(96.431 25.5)"><g class="e"><g transform="translate(2.918 1.685)"><path class="f" d="M302.706,89.975l1.211-.7.15-47.632-1.211.7Z" transform="translate(-302.706 -41.639)"/></g><g transform="translate(0.15)"><path class="f" d="M303.372,42.658l1.211-.7-2.918-1.685-1.211.7Z" transform="translate(-300.454 -40.269)"/></g><g transform="translate(0 0.704)"><path class="i" d="M300.482,40.842l-.15,47.632,2.918,1.685.149-47.632Z" transform="translate(-300.333 -40.842)"/></g></g></g><g transform="translate(0.149)"><path class="o" d="M256.173,83.2l1.2,2.622L222.035,62.2V53.328Z" transform="translate(-222.035 -11.77)"/><path class="p" d="M264.167,79.454l-7.994,4.615-34.139-29.9,7.994-4.615Z" transform="translate(-222.035 -12.636)"/><path class="q" d="M270.668,75.7l-7.994,4.615-34.139-29.9L236.53,45.8Z" transform="translate(-220.541 -13.498)"/><path class="p" d="M277.169,71.948l-7.994,4.615-34.139-29.9,7.994-4.615Z" transform="translate(-219.048 -14.36)"/><path class="q" d="M283.67,68.194l-7.994,4.615-34.139-29.9,7.994-4.615Z" transform="translate(-217.555 -15.222)"/><path class="p" d="M290.171,64.441l-7.994,4.615-34.139-29.9,7.994-4.615Z" transform="translate(-216.062 -16.084)"/><path class="q" d="M296.672,60.688,288.678,65.3l-34.139-29.9,7.994-4.615Z" transform="translate(-214.569 -16.946)"/><path class="p" d="M303.173,56.934l-7.994,4.615-34.139-29.9,7.994-4.615Z" transform="translate(-213.076 -17.808)"/><path class="q" d="M309.674,53.181,301.68,57.8,267.541,27.9l7.994-4.615Z" transform="translate(-211.583 -18.67)"/><path class="p" d="M316.175,49.428l-7.994,4.615-34.139-29.9,7.994-4.615Z" transform="translate(-210.09 -19.532)"/><path class="r" d="M257.791,73.87a8.763,8.763,0,0,1-3.961,6.943c-2.228,1.286-4.033.243-4.033-2.328Z" transform="translate(-215.658 -7.052)"/><path class="o" d="M264.292,70.117a8.763,8.763,0,0,1-3.961,6.943c-2.228,1.286-4.033.243-4.033-2.329Z" transform="translate(-214.165 -7.914)"/><path class="r" d="M270.793,66.357a8.763,8.763,0,0,1-3.961,6.943c-2.228,1.286-4.033.243-4.033-2.329Z" transform="translate(-212.672 -8.777)"/><path class="o" d="M277.294,62.61a8.762,8.762,0,0,1-3.961,6.943c-2.228,1.286-4.033.243-4.033-2.328Z" transform="translate(-211.179 -9.638)"/><path class="r" d="M283.794,58.858a8.76,8.76,0,0,1-3.961,6.943c-2.227,1.286-4.032.243-4.032-2.329Z" transform="translate(-209.686 -10.5)"/><path class="r" d="M309.8,43.844a8.76,8.76,0,0,1-3.961,6.943c-2.227,1.286-4.033.243-4.033-2.328Z" transform="translate(-203.714 -13.948)"/><path class="o" d="M290.294,55.106a8.765,8.765,0,0,1-3.961,6.943c-2.228,1.285-4.033.243-4.033-2.329Z" transform="translate(-208.193 -11.361)"/><path class="r" d="M296.8,51.346a8.763,8.763,0,0,1-3.961,6.943c-2.228,1.286-4.033.243-4.033-2.329Z" transform="translate(-206.7 -12.225)"/><path class="o" d="M303.3,47.592a8.761,8.761,0,0,1-3.961,6.943c-2.228,1.286-4.033.245-4.033-2.328Z" transform="translate(-205.207 -13.087)"/></g></g></g></g></svg>