<svg xmlns="http://www.w3.org/2000/svg" width="94.414" height="65.012" viewBox="0 0 94.414 65.012"><defs><style>.a{fill:#fff;}</style></defs><path class="a" d="M775.979,187.918a17.215,17.215,0,0,0-12.861-5.4H750.887V175.9a2.92,2.92,0,0,0-2.916-2.917H689.714A2.921,2.921,0,0,0,686.8,175.9v47.242h0v4.3a2.922,2.922,0,0,0,2.918,2.918h8.874A9.782,9.782,0,0,0,708.141,238a9.668,9.668,0,0,0,6.154-2.176,9.882,9.882,0,0,0,3.4-5.458h34.962a9.911,9.911,0,0,0,3.4,5.45A9.8,9.8,0,0,0,762.212,238a9.675,9.675,0,0,0,6.16-2.172,9.885,9.885,0,0,0,3.4-5.459h6.517a2.921,2.921,0,0,0,2.918-2.918V203.21C781.207,196.918,779.4,191.631,775.979,187.918Zm-67.84,44.271a3.963,3.963,0,1,1,3.962-3.964A3.969,3.969,0,0,1,708.139,232.189Zm36.933-7.633H717.6a1.765,1.765,0,0,0-.363.025,9.864,9.864,0,0,0-3.554-4.426,9.751,9.751,0,0,0-11.1.015,9.823,9.823,0,0,0-3.534,4.459,2.743,2.743,0,0,0-.632-.074h-5.762v-1.408h0c0-5.349,0-44.025,0-44.324h52.416Zm17.14,7.633a3.963,3.963,0,1,1,3.964-3.964A3.968,3.968,0,0,1,762.212,232.189Zm13.154-7.638h-4.085a9.867,9.867,0,0,0-3.55-4.4,9.686,9.686,0,0,0-5.519-1.723v0a9.707,9.707,0,0,0-5.518,1.712,9.811,9.811,0,0,0-3.551,4.413h-2.237v-36.2h12.231c7.657,0,12.229,5.563,12.229,14.88Z" transform="translate(-686.793 -172.988)"/></svg>